<?xml version="1.0" encoding="UTF-8"?>
<svg width="800px" height="800px" viewBox="0 0 800 800" version="1.1" xmlns="http://www.w3.org/2000/svg" xmlns:xlink="http://www.w3.org/1999/xlink">
    <!-- Generator: Sketch 48.2 (47327) - http://www.bohemiancoding.com/sketch -->
    <title>Space/Corner/Free Parking</title>
    <desc>Created with Sketch.</desc>
    <defs>
        <rect id="path-1" x="0" y="0" width="800" height="800"></rect>
    </defs>
    <g id="Corner-Spaces" stroke="none" stroke-width="1" fill="none" fill-rule="evenodd" transform="translate(-1800.000000, -36.000000)">
        <g id="Space/Corner/Free-Parking" transform="translate(1800.000000, 36.000000)">
            <g id="Corner-Teal-Field">
                <use fill="#CBE8E0" fill-rule="evenodd" xlink:href="#path-1"></use>
                <rect stroke="#CBE8E0" stroke-width="1" x="0.5" y="0.5" width="799" height="799"></rect>
            </g>
            <text id="FREE" transform="translate(617.015765, 616.015765) rotate(135.000000) translate(-617.015765, -616.015765) " font-family="KabobLight" font-size="100" font-weight="300" fill="#000000">
                <tspan x="515.915765" y="650.515765">FREE</tspan>
            </text>
            <text id="PARKING" transform="translate(228.180501, 222.180501) rotate(135.000000) translate(-228.180501, -222.180501) " font-family="KabobLight" font-size="100" font-weight="300" fill="#000000">
                <tspan x="40.2805012" y="256.680501">PARKING</tspan>
            </text>
            <g id="Car" stroke-width="1" fill-rule="evenodd" transform="translate(183.000000, 192.000000)">
                <path d="M43.0736291,242.868049 C38.6736291,236.368049 32.8736291,231.868049 27.5736291,226.968049 C20.7736291,220.668049 13.8736291,214.268049 7.07362907,207.968049 C0.573629072,201.968049 -1.12637093,194.568049 0.673629072,186.168049 C0.973629072,184.868049 1.27362907,183.468049 1.97362907,182.468049 C7.57362907,174.968049 13.6736291,168.068049 22.1736291,163.568049 C28.7736291,160.068049 35.0736291,160.568049 41.1736291,164.168049 C44.0736291,165.768049 46.6736291,167.868049 49.0736291,170.168049 C58.9736291,179.168049 68.6736291,188.268049 78.4736291,197.268049 C80.8736291,199.468049 83.6736291,201.268049 86.3736291,203.368049 C90.1736291,199.868049 93.6736291,196.768049 97.0736291,193.568049 C134.073629,158.968049 171.073629,124.368049 207.973629,89.7680488 C209.373629,88.3680488 210.873629,86.9680488 211.973629,85.3680488 C212.573629,84.4680488 212.673629,82.5680488 212.173629,81.7680488 C210.673629,79.5680488 208.873629,77.6680488 206.973629,75.8680488 C196.373629,65.7680488 185.673629,55.7680488 175.073629,45.5680488 C170.573629,41.1680488 168.273629,35.8680488 168.673629,29.3680488 C168.973629,25.2680488 169.873629,21.2680488 172.773629,18.3680488 C177.873629,13.1680488 182.973629,7.76804878 188.873629,3.56804878 C195.273629,-1.13195122 202.773629,-0.931951221 209.673629,2.66804878 C213.173629,4.46804878 216.273629,7.16804878 219.173629,9.86804878 C229.973629,19.8680488 240.573629,29.9680488 251.173629,39.9680488 C254.973629,43.4680488 256.873629,43.3680488 261.273629,39.5680488 C266.273629,35.1680488 271.173629,30.6680488 276.373629,26.4680488 C280.673629,22.9680488 288.973629,23.1680488 293.173629,26.9680488 C303.573629,36.3680488 313.673629,45.9680488 323.873629,55.5680488 C324.773629,56.4680488 325.473629,57.6680488 326.073629,58.8680488 C328.273629,62.5680488 328.973629,66.4680488 326.973629,70.2680488 C324.373629,74.9680488 321.373629,79.3680488 318.373629,83.7680488 C310.773629,94.6680488 303.073629,105.568049 295.473629,116.468049 C293.973629,118.668049 294.373629,121.968049 296.373629,123.368049 C297.973629,124.568049 299.673629,125.668049 301.273629,126.768049 C327.073629,143.268049 352.873629,159.668049 378.773629,176.168049 C383.873629,179.368049 389.073629,182.268049 394.073629,185.668049 C406.373629,193.968049 416.573629,204.368049 423.973629,217.368049 C428.673629,225.568049 431.673629,234.268049 432.873629,243.668049 C435.173629,261.268049 432.673629,278.068049 425.673629,294.468049 C420.873629,305.568049 414.873629,315.868049 407.773629,325.468049 C389.773629,349.368049 368.573629,370.368049 343.673629,387.668049 C323.073629,401.868049 300.673629,411.368049 275.673629,414.368049 C271.073629,414.968049 266.373629,415.668049 261.773629,415.168049 C241.673629,413.268049 222.473629,408.568049 205.473629,396.868049 C197.073629,391.068049 190.273629,384.368049 185.073629,375.468049 C167.773629,346.268049 149.973629,317.368049 132.273629,288.368049 C130.873629,286.068049 129.373629,283.968049 127.773629,281.768049 C126.973629,280.568049 123.573629,279.568049 122.373629,280.168049 C119.973629,281.368049 117.673629,282.568049 115.373629,283.968049 C103.873629,290.668049 92.4736291,297.468049 80.9736291,304.168049 C78.6736291,305.468049 76.3736291,306.968049 73.8736291,307.768049 C69.2736291,309.168049 64.3736291,309.368049 60.5736291,306.068049 C49.4736291,296.468049 38.5736291,286.768049 27.8736291,276.768049 C23.1736291,272.368049 23.4736291,263.468049 28.0736291,258.568049 C30.7736291,255.668049 33.8736291,253.068049 36.5736291,250.168049 C38.7736291,247.868049 40.8736291,245.268049 43.0736291,242.868049 Z" id="Shape" fill="#020202" fill-rule="nonzero"></path>
                <path d="M38,266.455707 C39.4,263.255707 42.2,261.555707 44.8,259.555707 C47.4,257.555707 49.9,255.255707 52.3,252.955707 C83.8,223.255707 115,193.255707 146.8,163.855707 C172.8,139.955707 197.8,115.055707 224,91.355707 C243.3,73.955707 261.6,55.555707 280.9,38.155707 C282.4,36.855707 285.1,36.555707 286.4,37.755707 C294.6,45.555707 302.8,53.355707 310.9,61.155707 C312.6,62.755707 313.1,66.855707 311.8,68.655707 C304.6,79.055707 297.4,89.355707 290.2,99.755707 C285.6,106.255707 281,112.855707 276.5,119.355707 C275.2,121.255707 276,125.255707 278,126.555707 C291.9,135.555707 305.8,144.655707 319.8,153.555707 C341.6,167.455707 363.4,181.555707 385.5,195.155707 C401,204.655707 410.9,218.255707 417.3,234.855707 C418.3,237.355707 419.4,239.855707 419.6,242.455707 C421.1,257.855707 420.7,273.055707 413.8,287.355707 C410.9,293.355707 408.1,299.355707 404.6,304.955707 C384.7,336.355707 358.7,361.855707 327.4,381.655707 C319.6,386.655707 311,390.555707 302.5,394.055707 C293.3,397.855707 283.7,400.555707 273.5,400.255707 C266.8,400.055707 260.2,400.555707 253.5,400.055707 C235.7,398.855707 220.1,391.955707 206.4,380.755707 C202.2,377.355707 198.9,373.255707 196.1,368.655707 C182,345.355707 167.8,322.155707 153.6,298.855707 C146.3,286.955707 139,275.055707 131.6,263.255707 C130.1,260.755707 127.6,260.455707 124.8,262.155707 C107.1,272.655707 89.4,283.155707 71.7,293.655707 C69,295.255707 66.5,295.055707 64.5,293.055707 C56.2,285.355707 48,277.555707 39.9,269.655707 C39,269.155707 38.6,267.655707 38,266.455707 Z" id="Shape" fill="#EF3A24" fill-rule="nonzero"></path>
                <path d="M200.224555,13 C200.824555,13.1 201.524555,13.2 202.124555,13.4 C202.724555,13.6 203.424555,13.9 203.924555,14.3 C217.024555,26.4 230.024555,38.5 243.024555,50.6 C244.224555,51.8 244.124555,54.7 242.924555,55.9 C242.024555,56.9 241.224555,57.9 240.224555,58.8 C221.024555,75.6 227.924555,76.9 208.424555,59.1 C201.124555,52.4 193.924555,45.7 186.724555,38.8 C184.824555,37 183.224555,34.9 181.724555,32.7 C180.524555,30.9 180.924555,28.8 182.124555,27.2 C185.824555,21.6 190.824555,17.3 196.424555,13.8 C197.524555,13.1 199.024555,13.2 200.224555,13 Z" id="Shape" fill="#FAF7F7" fill-rule="nonzero"></path>
                <path d="M73.58,213.158634 C73.28,213.758634 73.18,214.458634 72.78,214.858634 C66.98,220.258634 61.28,225.758634 55.38,230.958634 C54.78,231.558634 52.58,231.258634 51.88,230.658634 C39.28,218.958634 26.78,207.158634 14.28,195.258634 C12.68,193.758634 12.58,189.358634 13.98,187.858634 C17.08,184.458634 20.18,180.958634 23.68,177.958634 C29.08,173.258634 32.68,172.058634 39.28,178.158634 C50.48,188.458634 61.48,199.058634 72.38,209.658634 C73.08,210.358634 73.18,211.958634 73.58,213.158634 Z" id="Shape" fill="#FAF7F7" fill-rule="nonzero"></path>
                <path d="M211.510628,273.592505 C199.210628,273.592505 187.710628,271.092505 177.110628,264.792505 C166.610628,258.492505 158.210628,250.192505 152.410628,239.292505 C147.710628,230.392505 146.410628,220.492505 145.110628,210.592505 C144.410628,204.992505 147.210628,200.292505 148.510628,195.092505 C154.010628,172.392505 169.510628,158.592505 190.210628,150.192505 C197.510628,147.292505 205.610628,146.592505 213.510628,145.092505 C215.410628,144.792505 217.510628,145.292505 219.410628,145.592505 C222.010628,146.092505 224.510628,147.492505 227.110628,147.492505 C240.010628,147.692505 249.710628,154.792505 259.310628,161.992505 C262.910628,164.692505 265.610628,168.792505 268.110628,172.592505 C284.910628,198.092505 282.410628,214.292505 273.810628,234.492505 C265.610628,253.592505 250.610628,264.892505 231.310628,270.692505 C224.910628,272.692505 218.110628,272.692505 211.510628,273.592505 Z" id="Shape" fill="#030101" fill-rule="nonzero"></path>
                <path d="M381.604419,251.925 C381.604419,257.425 380.804419,261.225 377.704419,264.225 C374.404419,267.425 371.304419,271.025 367.704419,273.925 C348.204419,290.025 330.904419,308.525 312.404419,325.625 C299.704419,337.325 287.004419,348.925 274.104419,360.525 C269.104419,365.025 261.204419,365.025 255.804419,360.625 C242.404419,349.725 229.704419,337.925 217.504419,325.725 C214.504419,322.725 212.904419,319.325 213.004419,315.125 C213.104419,312.425 213.504419,309.825 215.204419,307.625 C216.004419,306.525 216.804419,305.525 217.804419,304.625 C230.704419,292.125 243.204419,279.225 256.704419,267.425 C267.804419,257.825 278.204419,247.625 288.904419,237.725 C296.204419,230.925 303.204419,223.825 310.504419,217.025 C313.404419,214.225 316.104419,211.325 319.404419,209.025 C328.604419,202.725 332.804419,201.525 342.204419,210.225 C353.904419,221.025 365.704419,231.825 377.404419,242.625 C380.404419,245.425 381.504419,249.125 381.604419,251.925 Z" id="Shape" fill="#050302" fill-rule="nonzero"></path>
                <path d="M215.571031,252.923609 C197.271031,253.023609 185.571031,248.923609 176.571031,238.923609 C165.371031,226.523609 161.871031,212.423609 167.971031,196.523609 C174.171031,180.423609 185.971031,170.923609 202.571031,166.623609 C216.271031,163.123609 228.971031,165.323609 240.671031,172.823609 C250.671031,179.223609 256.671031,188.723609 259.071031,200.223609 C261.671031,212.723609 257.871031,224.023609 250.271031,233.823609 C240.371031,246.923609 226.771031,252.823609 215.571031,252.923609 Z" id="Shape" fill="#FEFBFB" fill-rule="nonzero"></path>
                <path d="M262.639557,350.3 C251.839557,340.1 240.739557,329.6 229.639557,319 C227.539557,317 227.439557,313.9 229.439557,311.9 C231.739557,309.5 234.139557,307.2 236.539557,304.9 C264.739557,278.5 292.839557,252 321.039557,225.6 C323.939557,222.9 326.439557,219.6 331.339557,219 C333.539557,220.8 336.239557,222.8 338.639557,225.1 C348.339557,234.2 358.139557,243.2 367.139557,251.9 C367.539557,255.9 365.239557,257.5 363.439557,259.2 C332.839557,287.9 302.239557,316.6 271.639557,345.3 C269.439557,347.7 266.939557,349.9 262.639557,350.3 Z" id="Shape" fill="#FEFBFB" fill-rule="nonzero"></path>
                <path d="M225.028308,209.466473 C224.628308,219.766473 214.328308,225.966473 206.328308,222.166473 C204.628308,221.366473 202.928308,220.166473 201.628308,218.766473 C196.628308,213.666473 196.828308,206.266473 202.028308,201.366473 C207.628308,196.066473 218.628308,197.166473 222.828308,203.666473 C224.128308,205.966473 224.628308,208.566473 225.028308,209.466473 Z" id="Shape" fill="#181717" fill-rule="nonzero"></path>
            </g>
        </g>
    </g>
</svg>