<?xml version="1.0" encoding="UTF-8"?>
<svg width="800px" height="800px" viewBox="0 0 800 800" version="1.1" xmlns="http://www.w3.org/2000/svg" xmlns:xlink="http://www.w3.org/1999/xlink">
    <!-- Generator: Sketch 48.2 (47327) - http://www.bohemiancoding.com/sketch -->
    <title>Space/Corner/Go To Jail</title>
    <desc>Created with Sketch.</desc>
    <defs>
        <rect id="path-1" x="0" y="0" width="800" height="800"></rect>
    </defs>
    <g id="Corner-Spaces" stroke="none" stroke-width="1" fill="none" fill-rule="evenodd" transform="translate(-2717.000000, -36.000000)">
        <g id="Space/Corner/Go-To-Jail" transform="translate(2717.000000, 36.000000)">
            <g id="Corner-Teal-Field">
                <use fill="#CBE8E0" fill-rule="evenodd" xlink:href="#path-1"></use>
                <rect stroke="#CBE8E0" stroke-width="1" x="0.5" y="0.5" width="799" height="799"></rect>
            </g>
            <g id="Cop" stroke-width="1" fill-rule="evenodd" transform="translate(144.500000, 206.000000)">
                <path d="M392.5,239.533443 C392.9,240.633443 392.7,241.533443 391.8,242.333443 C388,243.133443 386.2,240.833443 384.8,237.833443 C386.9,209.933443 381.8,182.533443 378.2,155.033443 C377.2,147.033443 378,139.633443 380.8,131.733443 C387.7,112.533443 378.2,101.033443 357.5,102.933443 C341.1,104.433443 324.8,106.633443 304.8,111.533443 C332.6,143.433443 356.1,175.333443 352.4,218.233443 C351.5,222.133443 350.1,225.833443 345.8,227.233443 C331.5,216.833443 337.5,199.433443 331.7,186.233443 C328.4,178.933443 330.9,166.433443 316.7,168.133443 C314.1,169.033443 311.4,169.333443 308.7,168.933443 C305,168.233443 301.5,167.033443 298,165.533443 C290.1,161.433443 283.6,156.133443 281.4,147.033443 C280.9,140.233443 284.6,132.933443 279.4,126.533443 C270.4,114.233443 251.8,121.433443 243,108.633443 C245.2,102.633443 250.6,102.033443 255.8,101.133443 C290,97.4334432 323.1,87.2334432 357.5,84.2334432 C389.8,81.3334432 409.8,105.833443 399.5,136.533443 C392.1,158.533443 399.8,179.733443 404.2,200.933443 C405.9,209.233443 415.9,208.233443 422.5,210.733443 C425.6,212.233443 428.2,214.033443 427.8,218.033443 C423.9,220.433443 419.6,222.033443 415,222.033443 C410.5,222.033443 406,221.833443 401.4,221.733443 C399.2,221.733443 397.8,223.233443 397,224.933443 C396.2,226.633443 395.8,228.633443 395.2,230.433443 C393.6,233.233443 393.9,236.633443 392.5,239.533443 Z" id="Shape" fill="#090D15" fill-rule="nonzero"></path>
                <path d="M323.327601,342.1 C316.127601,348.3 307.627601,352 298.827601,355.2 C293.627601,357.1 289.527601,360.2 286.627601,364.9 C283.427601,370 279.927601,374.8 276.427601,379.6 C275.727601,380.6 274.527601,382 273.427601,382.1 C264.527601,383.4 256.527601,389.5 246.627601,386.2 C223.927601,378.7 201.027601,371.9 178.327601,364.4 C165.727601,360.2 153.427601,355.2 141.027601,350.3 C135.527601,348.1 130.027601,345.5 124.827601,342.6 C119.627601,339.7 114.527601,336.5 109.627601,333 C104.627601,329.4 100.627601,324.3 101.027601,318 C101.527601,309.7 108.127601,305.7 115.127601,302.9 C116.927601,302.2 119.027601,302.1 120.927601,301.5 C134.627601,297.6 134.727601,297.6 141.627601,285.3 C142.527601,283.7 142.227601,281.5 142.527601,279.5 C140.827601,276 142.527601,274.2 145.627601,273 C169.327601,280.7 183.127601,301.4 201.227601,316.3 C217.527601,329.7 233.427601,343.8 249.327601,357.8 C259.827601,367 268.827601,368.6 279.127601,355.6 C288.627601,343.6 302.627601,336.6 318.727601,335.7 C321.927601,336.9 324.027601,338.5 323.327601,342.1 Z" id="Shape" fill="#101319" fill-rule="nonzero"></path>
                <path d="M427.920812,217.87128 C427.320812,215.47128 425.620812,214.37128 423.420812,213.87128 C423.220812,211.77128 423.420812,209.37128 425.020812,208.37128 C455.620812,190.67128 466.520812,157.37128 486.520812,131.27128 C494.320812,121.07128 492.720812,114.07128 481.020812,107.57128 C427.420812,78.0712803 373.920812,48.4712803 320.220812,19.2712803 C302.920812,9.87128028 284.720812,18.1712803 267.320812,14.1712803 C263.520812,12.7712803 259.220812,11.8712803 260.120812,6.27128028 C263.520812,5.07128028 267.020812,4.67128028 270.520812,5.47128028 C277.320812,2.27128028 285.220812,6.07128028 292.020812,2.37128028 C296.620812,1.67128028 301.220812,1.27128028 305.820812,0.271280277 C309.320812,-0.528719723 312.420812,0.571280277 315.420812,1.87128028 C317.820812,2.97128028 320.120812,4.27128028 322.420812,5.57128028 C381.220812,37.8712803 439.920812,70.1712803 498.720812,102.57128 C502.120812,104.47128 505.320812,106.87128 508.520812,109.17128 C510.620812,110.77128 511.320812,114.27128 510.120812,116.37128 C506.420812,122.67128 502.820812,129.07128 498.920812,135.17128 C487.120812,153.67128 475.120812,171.97128 463.420812,190.57128 C455.320812,203.47128 444.120812,212.27128 430.020812,217.57128 C429.320812,218.17128 428.620812,217.97128 427.920812,217.87128 Z" id="Shape" fill="#10141C" fill-rule="nonzero"></path>
                <path d="M283.651327,126.309063 C284.851327,127.709063 286.651327,129.009063 287.151327,130.609063 C288.751327,136.709063 285.551327,141.909063 282.951327,147.009063 C253.851327,136.509063 248.651327,160.209063 239.051327,177.609063 C236.951327,181.109063 234.451327,184.509063 231.951327,187.809063 C230.851327,189.709063 230.151327,191.709063 230.151327,194.009063 C230.451327,195.409063 230.651327,196.909063 231.051327,198.309063 C231.851327,201.309063 233.151327,204.009063 234.551327,206.709063 C236.551327,211.009063 236.651327,214.809063 231.351327,216.909063 C228.851327,217.509063 226.351327,217.309063 223.951327,216.309063 C222.551327,215.409063 221.451327,214.309063 220.651327,212.909063 C219.351327,210.309063 218.451327,207.409063 216.251327,205.209063 C213.751327,203.409063 210.851327,203.009063 207.851327,202.909063 C203.551327,202.809063 199.351327,203.009063 195.151327,201.809063 C193.351327,201.209063 191.851327,200.209063 190.451327,198.909063 C189.751327,197.009063 189.851327,195.209063 190.851327,193.509063 C192.751327,192.809063 194.551327,193.009063 196.351327,193.809063 C202.251327,193.309063 208.051327,193.709063 213.851327,190.909063 C218.551327,188.609063 220.551327,184.709063 222.451327,180.609063 C222.851327,179.709063 222.451327,177.809063 221.751327,176.909063 C220.151327,174.809063 218.351327,172.709063 216.251327,171.209063 C211.951327,168.109063 207.251327,165.609063 202.951327,162.609063 C201.451327,161.609063 200.551327,159.709063 199.351327,158.209063 C201.251327,156.209063 203.051327,154.109063 205.851327,153.209063 C211.451327,152.909063 215.651327,156.409063 222.151327,159.609063 C222.451327,150.309063 231.351327,139.509063 219.351327,135.309063 C209.151327,131.709063 206.351327,143.309063 204.451327,151.909063 C203.151327,154.409063 201.151327,156.209063 199.151327,158.209063 C191.451327,151.509063 189.551327,145.409063 192.951327,138.209063 C197.051327,129.409063 203.951327,124.109063 213.251327,121.709063 C216.551327,119.109063 220.251327,117.909063 224.451327,118.009063 C233.751327,117.709063 237.951327,124.909063 243.651327,131.909063 C256.051327,122.209063 270.351327,128.809063 283.651327,126.309063 Z" id="Shape" fill="#202221" fill-rule="nonzero"></path>
                <path d="M259.850645,6.26294722 C261.250645,10.7629472 265.250645,9.86294722 268.550645,10.4629472 C266.150645,20.2629472 257.550645,18.8629472 250.750645,19.5629472 C238.450645,20.8629472 233.350645,27.1629472 233.350645,39.2629472 C233.350645,55.3629472 237.550645,70.8629472 238.150645,86.8629472 C238.550645,98.4629472 255.050645,94.7629472 256.250645,105.662947 C253.850645,105.762947 251.550645,105.962947 249.150645,105.962947 C246.450645,105.962947 244.750645,107.262947 243.750645,109.562947 C239.450645,114.662947 233.850645,114.662947 228.050645,113.262947 C224.850645,112.062947 222.450645,109.962947 220.850645,106.962947 C217.150645,96.8629472 218.450645,86.1629472 218.450645,75.7629472 C218.350645,60.0629472 213.350645,50.1629472 195.450645,52.1629472 C192.350645,50.8629472 189.850645,49.2629472 191.550645,45.2629472 C193.550645,40.4629472 197.550645,38.2629472 202.350645,37.7629472 C206.950645,37.2629472 211.550645,37.4629472 216.150645,37.3629472 C217.550645,37.3629472 219.550645,34.9629472 219.550645,33.2629472 C219.550645,27.3629472 219.550645,21.4629472 219.650645,15.4629472 C219.650645,13.3629472 222.450645,10.3629472 224.650645,9.96294722 C236.350645,8.26294722 247.850645,5.06294722 259.850645,6.26294722 Z" id="Shape" fill="#16191E" fill-rule="nonzero"></path>
                <path d="M47.2380935,130.5 C48.4380935,129.9 49.6380935,129.5 50.8380935,128.8 C55.1380935,126.3 55.8380935,124.6 54.1380935,121.2 C53.5380935,120 52.4380935,119.1 51.9380935,117.9 C48.2380935,109.5 49.0380935,105.3 56.2380935,98.7 C58.8380935,96.3 60.5380935,94.1 59.8380935,90.3 C59.3380935,87.8 59.1380935,85 59.7380935,82.5 C60.1380935,80.8 61.9380935,79.5 63.1380935,78 C65.8380935,78.4 67.8380935,80 69.5380935,82 C71.6380935,84.8 73.5380935,87.6 75.9380935,90.2 C80.9380935,95.5 86.4380935,100.1 91.5380935,105.2 C96.4380935,110 101.138094,115.3 92.0380935,120.8 C83.6380935,123.4 77.9380935,115.9 70.3380935,114.9 C66.6380935,119.7 72.8380935,122.6 72.5380935,126.7 C72.0380935,132.5 67.7380935,134.8 63.2380935,137 C59.3380935,138.4 55.3380935,138.6 51.3380935,137.4 C48.5380935,135.9 46.2380935,134.2 47.2380935,130.5 Z" id="Shape" fill="#232424" fill-rule="nonzero"></path>
                <path d="M47.2141135,130 C48.0141135,132.8 50.1141135,134 52.8141135,134.7 C47.4141135,146.7 34.3141135,144.3 25.2141135,149.3 C22.9141135,150.6 25.8141135,148.8 23.3141135,149.7 C24.0141135,151 24.9141135,149.6 25.7141135,149.9 C29.1141135,149.3 32.2141135,147.9 35.5141135,147.3 C38.3141135,146.8 41.0141135,147 43.6141135,147.8 C47.2141135,149.1 50.5141135,150.7 52.1141135,154.5 C50.4141135,155.4 48.8141135,157 47.0141135,157.2 C37.1141135,158.4 27.8141135,161.2 18.7141135,165.1 C16.9141135,165.9 15.0141135,166.4 13.1141135,166.9 C7.61411347,168.4 1.21411347,164.1 0.114113467,157.9 C-0.185886533,156.1 0.114113467,153.9 0.914113467,152.3 C2.01411347,150 3.61411347,147.8 5.51411347,146 C7.41411347,144.2 9.71411347,142.8 12.0141135,141.6 C23.2141135,135.9 34.8141135,131.6 47.2141135,130 Z" id="Shape" fill="#262827" fill-rule="nonzero"></path>
                <path d="M68.3,82.2110212 C65.9,81.8110212 64.5,80.3110212 64,77.9110212 C65.3,74.2110212 68.5,73.7110212 71.7,73.2110212 C74.5,72.8110212 76.4,71.6110212 76.7,68.5110212 C77.9,58.6110212 83.3,50.5110212 88.3,42.2110212 C91.8,41.3110212 93.4,43.4110212 94.6,46.2110212 C90.4,61.8110212 92.9,74.4110212 108.4,83.2110212 C113.7,86.2110212 120.2,92.2110212 115,99.6110212 C109.4,107.411021 102.9,101.311021 97.6,98.0110212 C89.6,93.0110212 81.6,88.5110212 72.7,85.5110212 C71.1,84.5110212 69.6,83.4110212 68.3,82.2110212 Z" id="Shape" fill="#212221" fill-rule="nonzero"></path>
                <path d="M196.792877,193.045141 C195.092877,193.245141 193.292877,193.445141 191.592877,193.645141 C189.992877,195.845141 188.892877,198.645141 185.592877,199.145141 C181.292877,200.045141 176.692877,195.945141 171.792877,200.845141 C174.292877,212.945141 182.392877,224.345141 180.592877,237.945141 C180.592877,242.745141 180.592877,247.645141 179.592877,252.345141 C179.092877,254.245141 178.192877,256.045141 177.092877,257.745141 C174.792877,259.945141 172.092877,260.745141 168.992877,260.745141 C167.092877,260.545141 165.292877,259.845141 163.592877,258.845141 C162.492877,257.245141 162.092877,255.545141 162.492877,253.645141 C164.792877,251.045141 170.092877,252.745141 170.892877,247.945141 C170.892877,245.145141 170.892877,242.345141 170.892877,239.445141 C168.992877,235.045141 170.892877,229.845141 167.792877,225.645141 C162.192877,217.345141 158.092877,208.345141 156.292877,198.545141 C155.192877,192.945141 157.292877,188.045141 160.892877,183.945141 C162.092877,182.545141 164.192877,181.745141 166.092877,181.345141 C169.992877,180.645141 173.992877,180.945141 177.692877,182.845141 C184.092877,186.145141 190.492877,189.645141 196.792877,193.045141 Z" id="Shape" fill="#2A2D2C" fill-rule="nonzero"></path>
                <path d="M164.1,126.4 C160,131.5 155.5,136.3 151.9,141.7 C149.1,146 145.3,147.8 140.7,148.9 C140.1,149.1 139.4,149.1 138.8,149.2 C121.1,149.6 103.3,150.1 85.6,150.5 C80,153.2 73.6,150.5 68.1,153.3 C66.7,153.3 65.3,153.4 63.9,153.4 C62.6,151.9 62,150.2 62,148.2 C62.3,147.3 62.7,146.4 63,145.5 C64.4,144.1 66,143.2 67.9,142.5 C73.5,141 79.3,141.1 85.1,140.9 C91.9,140.9 98.5,140.5 105,138.3 C125.9,140.3 142.8,130.3 159.6,120 C162.9,120.9 165.3,122.3 164.1,126.4 Z" id="Shape" fill="#2E3130" fill-rule="nonzero"></path>
                <path d="M323.862284,341.527402 C323.262284,339.027402 321.362284,338.027402 319.162284,337.527402 C318.162284,331.427402 321.962284,327.327402 325.662284,323.727402 C335.862284,314.127402 339.662284,303.427402 334.662284,289.627402 C331.762284,281.627402 332.762284,273.727402 341.462284,269.027402 C344.962284,268.727402 346.562284,270.927402 347.562284,273.827402 C346.562284,278.227402 343.962284,282.427402 347.362284,287.027402 C348.462284,288.527402 348.362284,290.827402 348.962284,292.727402 C352.462284,302.927402 350.262284,312.427402 345.062284,321.327402 C339.862284,329.927402 333.362284,337.427402 323.862284,341.527402 Z" id="Shape" fill="#272928" fill-rule="nonzero"></path>
                <path d="M223.8,106 C224.3,108.6 225.9,110.1 228.4,110.6 C219.5,115 230,117.8 229.3,121.5 C224.3,122.6 219.2,122.5 214.2,121.5 C213.8,120.4 213.7,118.7 212.9,118.2 C208,115.1 203,112.3 198.4,109.6 C191.6,109.1 187.3,114.4 181.5,115.1 C178.6,116.5 176.6,115.4 175,112.9 C175.5,102.8 187.1,101.6 190.3,93.7 C191.4,91.4 192.6,89.1 194.1,87 C195.4,85.7 197,85 198.8,85 C200.5,85.6 202,86.6 203.1,87.9 C207.7,96.6 214,103.3 223.8,106 Z" id="Shape" fill="#343837" fill-rule="nonzero"></path>
                <path d="M191.77211,45 C192.27211,47.3 193.47211,49 195.87211,49.5 C202.37211,56.2 201.57211,64.5 201.47211,72.8 C201.17211,77.7 199.37211,81.9 196.07211,85.6 C194.47211,86.9 192.87211,87 191.17211,85.9 C189.37211,83.8 188.47211,81.3 187.97211,78.6 C187.27211,74.5 186.67211,70.3 182.97211,67.5 C170.67211,57.8 156.87211,68.8 144.17211,64.6 C141.47211,63.2 139.37211,61.5 140.17211,58 C143.67211,56.5 147.17211,54.3 150.87211,53.7 C160.97211,52.1 171.17211,49.7 181.57211,52.3 C184.07211,52.9 186.47211,51.7 187.97211,49.1 C188.77211,47.5 190.47211,46.4 191.77211,45 Z" id="Shape" fill="#242524" fill-rule="nonzero"></path>
                <path d="M139.556454,58.8755222 C140.356454,61.5755222 142.556454,62.6755222 145.056454,63.2755222 C140.256454,74.7755222 132.056454,79.3755222 120.056454,74.9755222 C103.956454,68.9755222 97.8564538,57.0755222 100.656454,37.2755222 C102.656454,34.1755222 104.856454,31.6755222 108.956454,33.7755222 C109.756454,34.7755222 111.056454,35.5755222 111.256454,36.6755222 C111.856454,39.1755222 112.456454,41.8755222 112.056454,44.2755222 C110.656454,52.6755222 114.756454,57.5755222 121.656454,61.2755222 C125.256454,63.1755222 128.756454,63.9755222 132.556454,61.8755222 C134.856454,60.6755222 137.256454,59.8755222 139.556454,58.8755222 Z" id="Shape" fill="#2A2C2C" fill-rule="nonzero"></path>
                <path d="M347.025,273.5 C344.425,272.7 343.425,270.6 342.825,268.2 C335.425,253.8 334.325,239.5 343.925,225.6 C348.225,224.2 347.325,220.2 348.025,217 C355.325,218.2 354.825,223.8 354.925,229.1 C351.725,243.3 349.925,257.1 364.925,266.4 C362.525,268.8 359.525,269.1 356.425,268.9 C352.325,268.6 349.325,270.3 347.025,273.5 Z" id="Shape" fill="#1E2124" fill-rule="nonzero"></path>
                <path d="M163.363636,253.975 C163.363636,255.375 163.363636,256.775 163.363636,258.075 C162.163636,259.075 160.763636,259.575 159.263636,259.675 C156.963636,259.575 154.763636,259.575 152.563636,260.375 C147.563636,263.775 150.563636,270.275 146.963636,274.075 C144.463636,274.775 143.363636,276.775 142.663636,279.075 C136.863636,271.575 132.463636,263.675 136.663636,253.775 C137.163636,252.375 138.063636,251.175 139.363636,250.375 C139.863636,249.575 140.563636,249.275 141.463636,249.275 C146.763636,247.575 152.063636,247.575 157.463636,249.275 C159.463636,249.675 161.463636,250.075 163.463636,250.475 C164.863636,251.175 165.363636,251.975 164.863636,252.675 C164.363636,253.675 163.863636,253.975 163.363636,253.975 Z" id="Shape" fill="#303433" fill-rule="nonzero"></path>
                <path d="M365.258446,266.8 C361.458446,266.4 357.558446,266.1 353.758446,265.7 C349.858446,265.3 348.158446,263.6 348.158446,259.5 C348.058446,251.1 347.858446,242.7 348.158446,234.3 C348.158446,232.8 350.258446,231.4 351.458446,230 C359.858446,237.8 354.458446,253.7 368.058446,258.4 C370.458446,260.1 372.358446,262 371.658446,265.3 C369.458446,265.8 367.358446,266.3 365.258446,266.8 Z" id="Shape" fill="#090D15" fill-rule="nonzero"></path>
                <path d="M371.6,265.8 C370.9,263.5 369.2,262.4 367,261.9 C370.2,250.9 376.2,242.2 387.4,238 C387.9,240.3 389.1,242 391.6,242.4 C392.1,248.2 388.2,251.9 385.2,255.9 C381.7,260.5 377.7,264.7 371.6,265.8 Z" id="Shape" fill="#1E2124" fill-rule="nonzero"></path>
                <path d="M109.2,32.8232351 C106.3,33.4232351 104.2,34.9232351 103.6,37.9232351 C100.4,41.5232351 99.1,47.5232351 92.4,46.6232351 C91.8,44.2232351 90.7,42.2232351 88,41.5232351 C89.4,36.3232351 92.9,32.6232351 97.5,30.3232351 C101.7,28.2232351 106,28.3232351 109.2,32.8232351 Z" id="Shape" fill="#323534" fill-rule="nonzero"></path>
                <path d="M175.7,110.600543 C176.4,113.500543 178.6,114.700543 181.2,115.300543 C176.3,120.500543 169.9,123.400543 163.9,126.900543 C163.4,124.200543 161.6,122.700543 159,122.200543 C160,111.800543 166,108.500543 175.7,110.600543 Z" id="Shape" fill="#3D403F" fill-rule="nonzero"></path>
                <path d="M291.5,2.24081057 C290.1,3.44081057 288.7,5.54081057 287.3,5.64081057 C281.6,5.94081057 275.8,5.54081057 270,5.34081057 C276.7,1.24081057 284.1,1.94081057 291.5,2.24081057 Z" id="Shape" fill="#16191E" fill-rule="nonzero"></path>
                <path d="M63.6,150.038272 C63.6,151.138272 63.6,152.138272 63.6,153.238272 C60,153.638272 56.3,154.038272 52.7,154.438272 C49.7,153.338272 45.5,154.738272 44,150.438272 C44.6,149.738272 45.1,148.938272 45.7,148.238272 C49,146.138272 52.7,145.738272 56.6,146.138272 C59.4,146.338272 61.7,147.738272 63.6,150.038272 Z" id="Shape" fill="#0A0B0A" fill-rule="nonzero"></path>
                <path d="M68,153.29467 C69.4,152.19467 70.8,150.19467 72.3,150.09467 C76.7,149.79467 81.1,150.29467 85.6,150.39467 C80.1,153.89467 74.1,153.79467 68,153.29467 Z" id="Shape" fill="#303232" fill-rule="nonzero"></path>
                <path d="M158,249.492426 C152.7,249.492426 147.4,249.492426 142,249.492426 C147.4,244.492426 152.7,245.192426 158,249.492426 Z" id="Shape" fill="#353837" fill-rule="nonzero"></path>
                <path d="M168.121675,226 C170.721675,227.2 172.121675,229.1 171.821675,232.1 C171.621675,234.7 171.421675,237.3 171.221675,239.8 C167.821675,235.7 167.821675,230.9 168.121675,226 Z" id="Shape" fill="#353837" fill-rule="nonzero"></path>
                <path d="M164,253.7 C164,252.6 164,251.5 164,250.3 C166.5,249.5 168.9,248.8 171.4,248 C170.3,253.2 170.3,253.2 164,253.7 Z" id="Shape" fill="#353837" fill-rule="nonzero"></path>
                <path d="M392.497607,239.1 C391.997607,235.6 390.897607,232 395.297607,230 C396.097607,233.6 395.497607,236.7 392.497607,239.1 Z" id="Shape" fill="#1E2124" fill-rule="nonzero"></path>
                <path d="M139.706847,251 C139.506847,252.7 138.706847,253.9 137.006847,254.4 C136.906847,252.2 137.906847,251 139.706847,251 Z" id="Shape" fill="#353837" fill-rule="nonzero"></path>
                <path d="M147.534274,274.451866 C146.434274,270.851866 145.234274,267.351866 144.334274,263.751866 C143.134274,258.351866 145.134274,255.751866 150.834274,255.151866 C152.034274,255.051866 153.334274,254.951866 154.634274,254.851866 C156.634274,255.051866 157.934274,256.651866 159.834274,257.051866 C161.234274,257.451866 162.634274,257.951866 163.934274,258.351866 C164.534274,258.851866 165.234274,259.051866 166.034274,259.051866 C168.934274,258.751866 172.234274,262.151866 174.734274,258.151866 C175.234274,256.951866 175.734274,255.851866 176.134274,254.651866 C179.534274,248.751866 178.034274,242.651866 176.534274,236.551866 C177.334274,228.351866 175.234274,220.951866 170.634274,214.051866 C166.934274,208.551866 164.834274,202.251866 164.934274,195.351866 C164.934274,192.251866 169.034274,189.151866 171.934274,190.351866 C177.334274,192.651866 182.734274,194.951866 188.134274,197.351866 C189.734274,196.551866 190.934274,196.851866 192.034274,198.251866 C192.734274,198.951866 193.534274,199.151866 194.434274,198.651866 C200.634274,200.551866 206.734274,201.451866 212.834274,198.451866 C215.734274,199.051866 218.634274,199.351866 220.434274,202.251866 C222.334274,204.851866 221.934274,208.351866 223.734274,211.051866 C223.234274,212.351866 223.434274,213.351866 224.534274,214.251866 C227.134274,217.451866 229.934274,215.951866 232.734274,214.551866 C234.034274,213.851866 234.534274,212.751866 233.934274,211.351866 C233.234274,209.651866 232.334274,207.951866 231.534274,206.251866 C229.834274,203.451866 230.034274,200.051866 228.434274,197.251866 C228.934274,196.051866 228.734274,195.051866 227.634274,194.251866 C225.834274,191.451866 225.734274,188.751866 228.534274,186.451866 C229.734274,185.051866 230.934274,183.651866 232.234274,182.351866 C233.434274,180.951866 234.634274,179.651866 235.834274,178.251866 C239.234274,173.451866 243.634274,170.151866 249.534274,169.351866 C260.634274,168.451866 271.734274,169.051866 282.834274,168.751866 C289.434274,168.651866 296.134274,168.751866 302.634274,169.851866 C304.834274,170.351866 306.834274,171.151866 308.634274,172.251866 C318.334274,184.251866 319.934274,198.951866 322.034274,213.451866 C324.634274,221.251866 325.134274,229.651866 327.234274,237.651866 C328.434274,240.151866 329.934274,235.751866 327.834274,237.351866 C324.634274,229.551866 324.834274,220.951866 322.234274,213.051866 C321.434274,199.351866 316.234274,186.851866 312.534274,173.851866 C312.334274,170.451866 313.934274,167.651866 315.434274,164.751866 C315.934274,161.251866 318.334274,158.951866 320.834274,156.751866 C322.134274,155.651866 323.034274,155.851866 324.434274,156.751866 C327.434274,158.651866 328.734274,161.751866 330.034274,164.651866 C335.134274,176.151866 337.634274,188.451866 339.834274,200.751866 C341.334274,209.151866 342.934274,217.551866 344.434274,226.051866 C344.634274,233.851866 344.734274,241.651866 345.134274,249.351866 C345.534274,255.951866 345.034274,262.351866 343.334274,268.651866 C340.334274,270.451866 339.634274,273.951866 337.934274,276.651866 C336.434274,279.051866 336.134274,281.551866 337.134274,284.151866 C338.334274,287.251866 339.534274,290.251866 340.734274,293.251866 C344.934274,303.551866 341.934274,312.651866 335.734274,320.951866 C333.034274,324.651866 329.434274,327.651866 326.234274,330.951866 C323.934274,333.251866 321.534274,335.451866 319.234274,337.651866 C309.534274,341.851866 299.834274,345.951866 290.234274,350.451866 C287.934274,351.551866 285.834274,353.451866 284.334274,355.451866 C280.334274,360.751866 276.834274,366.351866 273.034274,371.751866 C270.934274,374.751866 268.034274,375.151866 264.434274,372.951866 C253.234274,365.851866 242.334274,358.351866 232.534274,349.351866 C215.434274,333.651866 197.934274,318.351866 180.534274,302.951866 C169.434274,293.551866 158.434274,284.051866 147.534274,274.451866 Z" id="Shape" fill="#FFFFFF" fill-rule="nonzero"></path>
                <path d="M256,105.625881 C254.4,104.525881 252.9,102.725881 251.2,102.425881 C246.6,101.825881 241.9,101.925881 237.3,101.625881 C234.5,101.425881 232.2,99.2258809 232.1,96.7258809 C231.9,92.0258809 231.8,87.4258809 231.6,82.7258809 C231.2,74.8258809 232.6,66.6258809 228.6,59.2258809 C228.3,46.6258809 228,33.9258809 228,21.3258809 C228,20.3258809 229.3,18.8258809 230.4,18.4258809 C234.7,16.7258809 238.6,14.0258809 243.6,14.2258809 C250.2,14.3258809 256.9,14.0258809 263.6,13.5258809 C265.3,13.4258809 266.9,11.5258809 268.5,10.4258809 C277.1,10.2258809 285.8,10.0258809 294.4,9.82588095 C297.8,9.72588095 301,9.42588095 304,7.82588095 C306.6,6.42588095 309.1,6.92588095 311.5,8.42588095 C315.4,10.8258809 319.3,13.5258809 323.4,15.6258809 C344.8,26.2258809 365.4,38.1258809 386,49.9258809 C404.9,60.8258809 425.2,69.2258809 443.2,81.7258809 C460.2,89.2258809 475.5,99.8258809 492,108.125881 C493.8,109.025881 495.5,109.925881 497.3,110.925881 C499.2,112.025881 500.5,115.925881 499.5,118.025881 C497.4,122.125881 495.4,126.325881 492.9,130.225881 C485.4,141.925881 477.7,153.425881 470.1,165.025881 C466.8,170.025881 463.1,174.725881 460.5,180.025881 C454.1,193.025881 444.2,202.225881 431.3,208.425881 C428.4,209.825881 424.8,210.225881 423.1,213.625881 C417.1,213.625881 411.1,213.725881 405.2,213.625881 C402.2,213.625881 400.6,211.625881 399.3,209.125881 C397.4,205.525881 396,201.925881 395.9,197.825881 C395.7,189.925881 395.9,182.025881 392.6,174.325881 C391.1,170.925881 392,166.425881 391.7,162.525881 C391.5,159.225881 392.1,155.425881 390.6,152.725881 C385.6,143.725881 389.5,137.625881 396.1,132.025881 C401.3,127.625881 400.8,119.025881 397.2,113.925881 C393.8,109.025881 391.1,103.725881 387.9,98.7258809 C385.8,95.4258809 383.4,92.2258809 380.8,89.2258809 C378.5,86.5258809 374.9,85.3258809 371.7,86.7258809 C364.8,89.6258809 357.6,89.9258809 350.3,90.1258809 C346.3,90.2258809 342.4,90.6258809 338.7,92.3258809 C336.3,93.3258809 333.6,93.6258809 331,93.7258809 C323.1,94.2258809 315.2,94.2258809 307.5,97.1258809 C303.4,98.7258809 298.3,97.7258809 293.7,98.2258809 C291.8,98.4258809 289.4,98.9258809 288.3,100.225881 C283.4,106.225881 277.1,106.525881 270.2,105.925881 C265.3,105.525881 260.7,105.725881 256,105.625881 Z" id="Shape" fill="#274EA1" fill-rule="nonzero"></path>
                <path d="M387.212348,237.343736 C386.312348,238.143736 384.912348,238.843736 384.512348,239.843736 C381.612348,247.843736 376.412348,253.843736 369.212348,258.243736 C368.212348,258.843736 367.612348,260.143736 366.812348,261.143736 C365.512348,261.243736 364.212348,261.243736 362.812348,261.343736 C359.312348,261.443736 356.412348,260.843736 355.012348,256.943736 C353.612348,253.243736 351.812348,249.743736 351.912348,245.643736 C351.912348,240.343736 351.412348,235.043736 351.112348,229.843736 C351.212348,227.843736 351.312348,225.843736 351.412348,223.843736 C351.512348,221.043736 350.412348,218.743736 348.012348,217.143736 C349.512348,199.843736 340.312348,172.943736 335.112348,157.643736 C334.112348,154.643736 331.612348,152.043736 329.312348,149.743736 C317.712348,137.943736 308.612348,123.943736 297.012348,112.043736 C295.012348,109.943736 296.112348,106.443736 299.112348,105.943736 C307.512348,104.343736 315.612348,101.143736 324.412348,101.643736 C327.612348,101.843736 331.212348,101.443736 334.112348,100.243736 C338.612348,98.3437357 343.112348,98.0437357 347.712348,97.9437357 C354.312348,97.8437357 360.812348,97.2437357 367.112348,94.6437357 C371.012348,93.0437357 374.912348,94.5437357 377.812348,97.8437357 C383.912348,104.943736 387.612348,113.443736 391.312348,121.943736 C391.912348,123.443736 391.312348,126.043736 390.312348,127.543736 C388.012348,130.743736 385.112348,133.543736 382.612348,136.643736 C380.312348,139.443736 379.512348,142.443736 381.412348,145.743736 C383.112348,148.743736 383.112348,152.043736 383.312348,155.443736 C383.712348,162.643736 383.512348,169.843736 386.412348,176.943736 C388.112348,181.043736 387.312348,186.143736 387.512348,190.743736 C387.712348,194.743736 387.912348,198.543736 389.512348,202.443736 C392.112348,208.743736 392.112348,215.443736 389.412348,221.843736 C387.312348,226.843736 387.812348,232.143736 387.212348,237.343736 Z" id="Shape" fill="#274EA0" fill-rule="nonzero"></path>
                <path d="M304.1,173.292396 C297.1,173.392396 290,173.492396 283,173.592396 C271.2,170.492396 259.4,170.492396 247.6,173.592396 C242.7,172.792396 239.3,176.592396 235,177.592396 C235.3,171.992396 239.8,168.392396 241.7,163.492396 C243.5,158.592396 245.1,153.492396 247.3,148.792396 C252.5,137.692396 262.1,132.892396 274.8,141.192396 C277.5,142.992396 280.3,144.692396 283.1,146.392396 C287.5,152.592396 291.3,159.392396 299.2,161.992396 C302.4,165.092396 305.5,168.192396 304.1,173.292396 Z" id="Shape" fill="#F6F6F6" fill-rule="nonzero"></path>
                <path d="M228.7,121.5 C226.1,119.8 223.6,118.1 221,116.4 C223.3,114.6 226.7,113.9 227.8,110.6 C233,110.4 238.2,110.2 243.3,110 C253.5,111.4 263.7,113 273.9,114.2 C279.3,114.8 282,117.5 282.7,122.6 C282.9,123.9 283.4,125.1 283.7,126.3 C283.5,128.9 283.5,131.5 283,134.1 C282.8,134.9 281.2,136.3 280.6,136.1 C278.8,135.5 277.2,134.1 275.4,133.3 C265.1,128.2 255.3,128 246.5,136.7 C245.1,138.1 243.6,139.3 242.1,140.6 C238.5,140 239.8,136.8 238.9,134.8 C237.8,132.4 236.8,130 235.8,127.6 C234.4,124.4 232.1,122.2 228.7,121.5 Z" id="Shape" fill="#C3DFD7" fill-rule="nonzero"></path>
                <path d="M309,156.252596 C305.7,154.652596 302,153.452596 298.9,151.252596 C294.5,148.152596 291.5,143.952596 291.4,138.152596 C291.4,132.952596 291,127.652596 291,122.452596 C291,121.652596 292,120.652596 292.8,120.052596 C293,119.852596 294.2,120.252596 294.5,120.752596 C299.1,128.852596 306.6,134.452596 312.5,141.452596 C316.4,146.152596 316.1,149.352596 311,155.052596 C310.6,155.352596 310,155.652596 309,156.252596 Z" id="Shape" fill="#254894" fill-rule="nonzero"></path>
                <path d="M304.137452,173.390185 C303.737452,172.890185 303.537452,172.190185 303.037452,171.890185 C299.337452,169.590185 298.837452,166.090185 299.037452,162.190185 C302.737452,161.690185 306.137452,161.890185 307.337452,166.390185 C310.437452,168.190185 313.537452,170.090185 311.737452,174.590185 C310.037452,175.690185 308.537452,175.490185 307.237452,173.990185 C306.337452,173.490185 305.237452,173.390185 304.137452,173.390185 Z" id="Shape" fill="#919090" fill-rule="nonzero"></path>
                <path d="M312.1,174.4 C310.7,171.9 309.4,169.4 308,166.9 C310.5,166.3 312.9,165.6 315.4,165 C315.6,168.2 315.7,171.4 315.9,174.6 C314.6,175.9 313.3,176 312.1,174.4 Z" id="Shape" fill="#F6F6F6" fill-rule="nonzero"></path>
                <path d="M144.252674,301.444889 C143.452674,297.044889 145.352674,293.744889 148.652674,291.144889 C150.152674,289.944889 152.852674,289.544889 154.152674,290.644889 C163.452674,299.144889 174.152674,305.844889 182.952674,314.844889 C190.752674,322.844889 198.752674,330.744889 208.252674,337.144889 C213.152674,340.444889 216.952674,345.244889 221.352674,349.344889 C228.552674,356.144889 235.252674,363.544889 243.952674,368.744889 C246.652674,370.344889 249.152674,372.844889 250.152674,376.244889 C247.752674,377.944889 245.052674,377.744889 242.552674,376.844889 C223.352674,369.844889 203.952674,363.844889 184.552674,357.644889 C162.552674,350.544889 141.252674,341.644889 121.052674,330.344889 C116.852674,328.044889 113.452674,325.144889 110.352674,321.644889 C107.752674,318.644889 109.052674,313.144889 112.952674,311.744889 C121.552674,308.544889 130.052674,304.644889 139.752674,306.044889 C144.552674,307.844889 145.752674,306.044889 144.252674,301.444889 Z" id="Shape" fill="#274DA0" fill-rule="nonzero"></path>
                <path d="M143.6,302 C145.5,303.6 147.6,305.1 149.4,306.9 C151.1,308.6 151,311.3 149.9,312 C148.8,312.7 148,312.7 146.6,311.8 C144,310.1 140.3,310.1 139,306.5 C141.5,305.9 143,304.4 143.6,302 Z" id="Shape" fill="#17294F" fill-rule="nonzero"></path>
                <path d="M203.70914,153.61469 C202.40914,149.31469 198.50914,145.61469 200.60914,140.61469 C202.40914,136.21469 205.90914,133.01469 209.90914,130.71469 C212.70914,129.01469 215.70914,127.71469 218.80914,126.41469 C222.00914,125.11469 227.30914,127.01469 229.20914,130.11469 C232.00914,134.81469 233.90914,140.41469 231.00914,145.11469 C226.90914,151.81469 227.50914,158.91469 227.30914,165.71469 C226.30914,166.31469 225.70914,166.81469 225.50914,166.71469 C218.30914,162.31469 211.00914,157.91469 203.70914,153.61469 C203.70914,153.61469 203.70914,153.61469 203.70914,153.61469 Z" id="Shape" fill="#F3F3F3" fill-rule="nonzero"></path>
                <path d="M212.4,198 C206.3,202.1 200.2,202.2 194,198.2 C200.1,198.1 206.3,198.1 212.4,198 Z" id="Shape" fill="#212121" fill-rule="nonzero"></path>
                <path d="M233.010884,156.1 C232.810884,154.1 235.410884,151 237.210884,151 C237.610884,151 238.210884,151.9 238.310884,152.4 C238.810884,155.6 237.410884,157.2 234.410884,157.1 C234.010884,157.1 233.110884,156.5 233.010884,156.1 Z" id="Shape" fill="#424A47" fill-rule="nonzero"></path>
                <path d="M228.3375,197 C230.7375,199.5 231.9375,202.5 231.4375,206 C226.9375,204.2 228.0375,200.5 228.3375,197 Z" id="Shape" fill="#212121" fill-rule="nonzero"></path>
                <path d="M223.342695,210.8 C221.042695,208.3 219.742695,205.5 220.042695,202 C224.542695,203.7 223.542695,207.4 223.342695,210.8 Z" id="Shape" fill="#212121" fill-rule="nonzero"></path>
                <path d="M228.544475,186 C228.244475,188.6 227.944475,191.2 227.644475,193.8 C222.644475,189.5 222.644475,189.2 228.544475,186 Z" id="Shape" fill="#212121" fill-rule="nonzero"></path>
                <path d="M232.3,214.3 C231.8,217.4 229.7,218.3 227,217.9 C225,217.6 224,216.2 224,214 C226.8,214.1 229.6,214.2 232.3,214.3 Z" id="Shape" fill="#212121" fill-rule="nonzero"></path>
                <path d="M191.9,197.9 C190.6,197.6 189.3,197.3 188,197 C188.5,195 189.8,194 191.9,194 C191.9,195.3 191.9,196.6 191.9,197.9 Z" id="Shape" fill="#212121" fill-rule="nonzero"></path>
                <path d="M203.9,154 C203.5,156.2 202.3,157.5 200.1,157.9 L200,157.8 C200.4,155.5 201.8,154.3 203.9,154 Z" id="Shape" fill="#050505" fill-rule="nonzero"></path>
                <path d="M196.539388,72.981546 C196.139388,69.081546 196.139388,65.181546 195.339388,61.381546 C194.539388,57.381546 195.339388,53.681546 195.839388,49.881546 C206.839388,43.681546 208.139388,43.581546 220.339388,48.481546 C223.639388,67.181546 224.939388,86.281546 223.839388,105.581546 C222.039388,106.381546 220.439388,107.481546 218.539388,107.881546 C216.739388,108.281546 214.639388,108.481546 213.039388,107.881546 C208.739388,106.181546 205.039388,103.481546 203.539388,98.881546 C202.139388,94.581546 200.939388,90.281546 199.639388,85.881546 C196.739388,82.081546 199.239388,76.881546 196.539388,72.981546 Z" id="Shape" fill="#FAFAFA" fill-rule="nonzero"></path>
                <path d="M175.216,110.504725 C168.816,113.204725 162.616,116.204725 158.516,122.104725 C155.516,124.604725 152.216,126.904725 149.616,129.704725 C146.516,133.104725 143.916,136.904725 141.216,140.504725 C128.316,141.404725 115.716,142.204725 103.216,143.004725 C97.116,145.504725 90.816,143.804725 84.516,144.304725 C77.416,144.904725 70.016,142.804725 63.116,145.804725 L63.516,147.004725 C61.116,148.504725 58.516,148.304725 55.916,148.304725 C51.616,148.604725 47.216,147.404725 43.116,149.704725 L43.516,150.904725 C40.916,150.804725 38.316,150.704725 35.716,150.704725 C33.216,152.504725 29.916,152.104725 27.216,153.404725 C22.316,155.104725 17.416,156.904725 12.416,158.404725 C11.516,158.704725 9.716,157.804725 9.116,156.904725 C8.716,156.204725 9.416,154.304725 10.216,153.704725 C13.316,151.304725 16.316,148.504725 19.816,147.204725 C28.316,143.904725 37.116,141.304725 45.816,138.404725 C48.216,137.604725 50.516,136.304725 52.816,135.304725 C56.216,135.004725 59.616,134.604725 63.016,134.304725 C70.316,132.804725 75.916,126.804725 83.516,126.004725 C87.616,125.204725 91.716,126.104725 95.816,126.004725 C93.116,124.404725 90.016,123.104725 91.316,118.904725 C92.216,117.904725 93.316,117.104725 93.816,116.004725 C94.216,114.904725 94.516,112.904725 93.916,112.404725 C89.816,109.104725 85.416,106.104725 81.416,102.804725 C77.316,99.5047248 72.816,96.6047248 70.716,91.5047248 C69.416,88.4047248 68.916,85.3047248 71.316,82.4047248 C75.416,80.9047248 79.316,81.9047248 82.616,84.0047248 C89.916,88.4047248 96.916,93.3047248 104.116,97.9047248 C105.716,98.9047248 107.616,99.8047248 109.416,100.004725 C110.416,100.104725 111.816,98.9047248 112.516,97.9047248 C113.116,97.0047248 113.716,95.2047248 113.216,94.5047248 C111.816,92.4047248 110.016,90.4047248 108.116,88.8047248 C101.216,82.8047248 94.116,77.0047248 87.216,70.9047248 C84.516,68.5047248 84.316,65.5047248 86.016,62.1047248 C88.316,57.4047248 90.116,52.5047248 92.116,47.7047248 C93.716,45.9047248 95.416,44.1047248 97.016,42.3047248 C98.716,40.4047248 100.516,38.9047248 103.316,39.0047248 C103.416,43.5047248 103.616,48.1047248 103.716,52.6047248 C103.816,56.0047248 105.116,59.0047248 107.716,61.2047248 C114.116,66.7047248 121.616,70.6047248 128.116,75.1047248 C134.516,70.7047248 139.816,67.0047248 145.116,63.3047248 C150.316,62.4047248 155.516,61.5047248 160.716,60.6047248 C168.016,59.3047248 175.116,59.5047248 182.316,61.5047248 C185.116,62.3047248 186.916,64.0047248 188.016,66.5047248 C190.616,70.4047248 188.416,75.5047248 191.116,79.4047248 C191.416,81.7047248 191.816,84.1047248 192.116,86.4047248 C193.816,89.6047248 194.116,93.2047248 194.816,96.6047248 C192.916,99.0047248 191.216,101.504725 188.316,102.904725 C183.516,105.104725 179.416,107.904725 175.216,110.504725 Z" id="Shape" fill="#FEFEFE" fill-rule="nonzero"></path>
                <path d="M91.9716937,118.228686 C92.7716937,121.128686 95.4716937,121.428686 97.5716937,122.728686 C99.0716937,123.628686 98.6716937,124.628686 97.6716937,125.928686 C94.8716937,129.228686 91.4716937,130.228686 87.4716937,129.628686 C83.1716937,125.128686 76.2716937,130.728686 72.1716937,125.728686 C68.6716937,122.828686 64.8716937,120.128686 61.8716937,116.828686 C60.2716937,115.028686 59.6716937,112.228686 59.0716937,109.728686 C58.4716937,107.428686 61.7716937,104.328686 63.9716937,105.128686 C66.9716937,106.228686 70.0716937,107.328686 72.9716937,108.728686 C79.2716937,111.528686 84.6716937,116.828686 91.9716937,118.228686 Z" id="Shape" fill="#F0F0F0" fill-rule="nonzero"></path>
                <path d="M71.4,126 C75.2,126.1 79.1,126.1 82.9,126.4 C84.9,126.6 86.3,127.9 86.7,129.9 C82.3,130 77.9,130 74,132.5 C70.7,134.6 66.8,134.6 63,133.9 C64.9,132.7 66.8,131.4 68.8,130.2 C70.4,129.2 71.4,127.9 71.4,126 Z" id="Shape" fill="#9A9999" fill-rule="nonzero"></path>
                <path d="M71.9971056,82.4031107 C71.7971056,85.4031107 71.5971056,88.5031107 71.3971056,91.5031107 C67.3971056,89.6031107 67.8971056,86.0031107 68.1971056,82.5031107 C69.4971056,81.9031107 70.7971056,81.8031107 71.9971056,82.4031107 Z" id="Shape" fill="#CBE8E0" fill-rule="nonzero"></path>
                <path d="M28,153.089439 C29.9,149.389439 33.2,149.789439 36.5,150.389439 C34.3,153.189439 31.3,153.689439 28,153.089439 Z" id="Shape" fill="#CBE8E0" fill-rule="nonzero"></path>
                <path d="M176.4,236 C178.9,239.4 178.8,243.4 179.3,247.4 C179.7,250.4 177.9,252.3 176,254.1 C176.1,248.1 176.2,242.1 176.4,236 Z" id="Shape" fill="#353837" fill-rule="nonzero"></path>
                <path d="M174.7,258 C174.5,260.4 172.9,261.4 170.8,261.6 C168.7,261.9 167.2,260.5 166,258.8 C168.9,258.6 171.8,258.3 174.7,258 Z" id="Shape" fill="#353837" fill-rule="nonzero"></path>
                <path d="M84.4,143 C90.7,143 97,143 103.3,143 C101.9,144.1 100.5,146.1 99,146.2 C93.3,146.4 87.6,145.9 82,145.7 C82.2,144.2 83,143.3 84.4,143 Z" id="Shape" fill="#303232" fill-rule="nonzero"></path>
                <path d="M84.2,142.355228 C83.6,143.455228 82.8,144.355228 81.8,145.055228 C75.5,145.055228 69.3,145.155228 63,145.155228 C64.4,144.055228 65.8,142.055228 67.3,142.055228 C73,141.855228 78.6,142.255228 84.2,142.355228 Z" id="Shape" fill="#CBE8E0" fill-rule="nonzero"></path>
                <path d="M55.8282269,146 C58.4282269,146.1 61.0282269,146.2 63.6282269,146.4 C63.5282269,147.6 63.3282269,148.8 63.3282269,150 C60.3282269,149.6 57.2282269,149.3 54.2282269,148.9 C53.6282269,147.3 54.2282269,146.3 55.8282269,146 Z" id="Shape" fill="#303232" fill-rule="nonzero"></path>
                <path d="M196.4,73 C199.5,76.8 200,81.3 199.6,86 L197.8,86 L196,86 C196.1,81.6 196.2,77.3 196.4,73 Z" id="Shape" fill="#3F3F3F" fill-rule="nonzero"></path>
                <path d="M194.99547,96.2 C192.29547,93.3 191.49547,89.8 192.29547,86 C193.49547,86 194.59547,86.1 195.79547,86.1 C195.49547,89.5 195.19547,92.9 194.99547,96.2 Z" id="Shape" fill="#3F3F3F" fill-rule="nonzero"></path>
                <path d="M191.336763,78.9 C188.336763,75.1 187.536763,70.7 188.236763,66 C190.536763,67.2 191.936763,69 191.736763,71.7 C191.636763,74.1 191.436763,76.5 191.336763,78.9 Z" id="Shape" fill="#3F3F3F" fill-rule="nonzero"></path>
                <path d="M159.2,256.377789 C157,256.777789 155.4,255.577789 154,254.177789 C156.2,253.677789 158,254.177789 159.2,256.377789 Z" id="Shape" fill="#353837" fill-rule="nonzero"></path>
                <path d="M55.6,146.40538 C55.1,147.40538 54.5,148.30538 54,149.30538 C50.3,149.30538 46.7,149.40538 43,149.40538 C44.2,147.20538 46,145.90538 48.6,146.00538 C50.9,146.10538 53.3,146.20538 55.6,146.40538 Z" id="Shape" fill="#CBE8E0" fill-rule="nonzero"></path>
                <path d="M226.50656,305.7 C221.20656,305.7 216.80656,300.9 217.00656,295.4 C217.00656,294.7 217.00656,294.1 217.10656,293.4 C219.70656,273 218.10656,273 239.40656,273 C241.40656,273 243.30656,273 245.30656,273.1 C251.20656,273.4 253.60656,277.7 252.90656,282.3 C249.50656,303.8 247.20656,304.6 226.50656,305.7 Z" id="Shape" fill="#0F0F0F" fill-rule="nonzero"></path>
                <path d="M224.169291,251.313516 C222.669291,252.913516 221.469291,254.413516 220.169291,255.813516 C219.069291,257.013516 217.969291,257.013516 216.669291,256.313516 C211.369291,253.113516 209.469291,247.013516 205.069291,242.913516 C203.569291,241.613516 201.269291,241.513516 200.069291,243.113516 C198.169291,245.813516 196.369291,248.613516 194.469291,251.213516 C193.269291,252.813516 191.969291,254.213516 190.669291,255.713516 C189.669291,256.913516 188.369291,256.913516 187.069291,256.213516 C184.169291,254.713516 182.269291,251.913516 183.269291,250.213516 C187.269291,243.413516 191.369291,236.613516 195.569291,230.013516 C198.269291,225.913516 206.269291,226.013516 209.269291,230.213516 C214.269291,237.113516 220.069291,243.513516 224.169291,251.313516 Z" id="Shape" fill="#212121" fill-rule="nonzero"></path>
                <path d="M295.182743,310.3 C293.582743,314.4 289.782743,315.9 286.382743,317.5 C281.182743,320 276.082743,319.2 272.082743,314.9 C269.882743,312.6 268.382743,309.7 266.582743,307 C265.582743,305.1 265.882743,303.5 267.382743,302 C267.982743,302.2 268.682743,302.3 269.282743,302.6 C273.282743,304.8 275.282743,310.3 280.382743,310.1 C284.182743,309.9 287.782743,308 291.482743,306.9 C292.482743,307.6 293.582743,308.1 294.682743,308.5 C294.682743,308.6 295.182743,310.3 295.182743,310.3 Z" id="Shape" fill="#393939" fill-rule="nonzero"></path>
                <path d="M312.1,174 C313.4,174 314.6,174 315.9,174.2 C315.7,178.4 318.2,181.6 319.5,185.3 C320.7,188.9 320,193.4 321.7,196.7 C324.6,202.4 323.8,208.2 324.2,214 C322.8,215.3 321.5,215.3 320.2,213.9 C320.1,208.7 320.1,203.5 316.6,199.2 C317,189.7 311.6,182.2 308,174.1 C309.4,174 310.7,174 312.1,174 Z" id="Shape" fill="#BEBDBD" fill-rule="nonzero"></path>
                <path d="M320.143413,214 C321.443413,214 322.843413,214.1 324.143413,214.1 C325.343413,215.5 327.543413,216.8 327.643413,218.2 C328.043413,224.7 327.943413,231.2 327.843413,237.7 C327.843413,238.4 326.543413,239.1 325.743413,239.7 C325.643413,239.8 324.443413,238.9 324.443413,238.4 C323.743413,233.3 323.843413,228.3 320.843413,223.5 C319.343413,221.2 320.343413,217.2 320.143413,214 Z" id="Shape" fill="#DDDCDC" fill-rule="nonzero"></path>
                <path d="M292.401484,278.711479 C289.401484,281.911479 286.401484,285.311479 283.201484,288.311479 C282.001484,289.411479 280.701484,288.711479 280.301484,287.411479 C279.101484,283.011479 278.101484,278.711479 280.301484,274.311479 C285.701484,272.111479 291.401484,268.911479 292.401484,278.711479 Z" id="Shape" fill="#161616" fill-rule="nonzero"></path>
                <path d="M311.2375,290.1 C308.1375,298.3 303.3375,305.1 296.1375,310.2 L295.3375,309 C294.7375,307.7 294.9375,306.5 295.9375,305.5 C299.3375,298.6 302.5375,291.6 308.0375,286 C309.7375,286.8 310.8375,288.2 311.2375,290.1 Z" id="Shape" fill="#313030" fill-rule="nonzero"></path>
                <path d="M248,174.325231 C248.7,173.325231 249.4,171.525231 250.2,171.425231 C260.6,170.025231 271,169.125231 281.3,171.325231 C282.2,171.525231 282.7,173.325231 283.3,174.325231 C271.6,174.325231 259.8,174.325231 248,174.325231 Z" id="Shape" fill="#A5A4A4" fill-rule="nonzero"></path>
                <path d="M311.2,290.15 C309.2,289.55 308.4,287.95 308,286.05 C310.7,280.85 313.3,275.55 316,270.35 C317.2,268.55 318.5,268.55 319.8,270.35 C319.1,277.85 315.7,284.25 311.2,290.15 Z" id="Shape" fill="#1B1B1B" fill-rule="nonzero"></path>
                <path d="M292.1,278.809553 C291.4,276.309553 290.2,274.409553 287.3,274.309553 C284.9,274.309553 282.4,274.409553 280,274.409553 C280.8,273.409553 281.4,271.809553 282.3,271.609553 C286.1,270.809553 289.9,270.309553 293.8,270.009553 C294.9,269.909553 296.6,270.609553 297,271.409553 C297.4,272.309553 297,274.109553 296.3,275.009553 C295.2,276.609553 293.5,277.609553 292.1,278.809553 Z" id="Shape" fill="#656464" fill-rule="nonzero"></path>
                <path d="M311.51875,249 C315.71875,250.6 319.31875,252.7 319.31875,258 C316.41875,260.3 318.71875,265.2 314.71875,267 C311.21875,263.5 312.61875,258.5 310.91875,254.5 C309.51875,252.4 309.71875,250.6 311.51875,249 Z" id="Shape" fill="#424141" fill-rule="nonzero"></path>
                <path d="M315.267857,267 C315.667857,265.2 315.667857,263.3 316.467857,261.7 C317.167857,260.3 318.667857,259.2 319.867857,258 C321.467857,262 321.567857,266 319.667857,269.9 L317.767857,269.9 L315.867857,269.9 C314.967857,269.2 314.767857,268.2 315.267857,267 Z" id="Shape" fill="#0F0F0F" fill-rule="nonzero"></path>
                <path d="M311.815623,248.709233 C311.615623,250.509233 311.415623,252.309233 311.315623,254.109233 C309.515623,252.509233 307.715623,251.009233 305.915623,249.409233 C304.615623,248.209233 304.715623,247.209233 306.115623,246.509233 C306.615623,246.209233 307.215623,246.009233 307.815623,246.009233 C309.815623,245.909233 311.315623,246.609233 311.815623,248.709233 Z" id="Shape" fill="#8C8C8C" fill-rule="nonzero"></path>
                <path d="M267.806272,301.456638 C267.506272,303.156638 267.306272,304.756638 267.006272,306.456638 C265.006272,305.556638 263.906272,303.956638 264.006272,301.956638 C264.006272,300.956638 264.806272,299.356638 265.606272,299.156638 C267.006272,298.556638 267.806272,299.756638 267.806272,301.456638 Z" id="Shape" fill="#878787" fill-rule="nonzero"></path>
                <path d="M295.6,305.043459 C295.6,306.243459 295.4,307.443459 295,308.543459 C292.9,309.343459 292.4,307.943459 292,306.343459 C292.9,305.343459 294.2,304.843459 295.6,305.043459 Z" id="Shape" fill="#181817" fill-rule="nonzero"></path>
            </g>
            <text id="GO-TO" transform="translate(209.113468, 620.219183) rotate(220.000000) translate(-209.113468, -620.219183) " font-family="KabobLight" font-size="100" font-weight="300" fill="#000000">
                <tspan x="57.3634677" y="654.719183">GO TO</tspan>
            </text>
            <text id="JAIL" transform="translate(623.703601, 177.759382) rotate(220.000000) translate(-623.703601, -177.759382) " font-family="KabobLight" font-size="100" font-weight="300" fill="#000000">
                <tspan x="536.453601" y="212.259382">JAIL</tspan>
            </text>
        </g>
    </g>
</svg>