<?xml version="1.0" encoding="UTF-8"?>
<svg width="480px" height="800px" viewBox="0 0 480 800" version="1.1" xmlns="http://www.w3.org/2000/svg" xmlns:xlink="http://www.w3.org/1999/xlink">
    <!-- Generator: Sketch 48.2 (47327) - http://www.bohemiancoding.com/sketch -->
    <title>Space/Property/Connecticut Avenue</title>
    <desc>Created with Sketch.</desc>
    <defs>
        <rect id="path-1" x="0" y="164" width="480" height="24"></rect>
        <rect id="path-2" x="0" y="0" width="480" height="164"></rect>
        <rect id="path-3" x="0" y="188" width="480" height="612"></rect>
    </defs>
    <g id="Property-Spaces" stroke="none" stroke-width="1" fill="none" fill-rule="evenodd" transform="translate(-3132.000000, -69.000000)">
        <g id="Space/Property/Connecticut-Avenue" transform="translate(3132.000000, 69.000000)">
            <g id="Squared-Black-Separator">
                <use fill="#000000" fill-rule="evenodd" xlink:href="#path-1"></use>
                <rect stroke="#000000" stroke-width="1" x="0.5" y="164.5" width="479" height="23"></rect>
            </g>
            <g id="Property-Square/Top-Color/Light-Blue">
                <g>
                    <use fill="#87A5D6" fill-rule="evenodd" xlink:href="#path-2"></use>
                    <rect stroke="#87A5D6" stroke-width="1" x="0.5" y="0.5" width="479" height="163"></rect>
                </g>
            </g>
            <g id="Squared-Teal-Field">
                <use fill="#CBE8E0" fill-rule="evenodd" xlink:href="#path-3"></use>
                <rect stroke="#CBE8E0" stroke-width="1" x="0.5" y="188.5" width="479" height="611"></rect>
            </g>
            <path d="M85.38,351.94 L84.66,356.8 C83.4199938,357.560004 82.1100069,358.119998 80.73,358.48 C79.3499931,358.840002 77.7400092,359.02 75.9,359.02 C70.4199726,359.02 65.7300195,356.880021 61.83,352.6 C57.9299805,348.319979 55.98,343.400028 55.98,337.84 C55.98,332.119971 57.9199806,327.140021 61.8,322.9 C65.6800194,318.659979 70.4599716,316.54 76.14,316.54 C77.5800072,316.54 79.0099929,316.689999 80.43,316.99 C81.8500071,317.290002 83.259993,317.759997 84.66,318.4 L85.38,323.08 C82.579986,321.359991 79.5200166,320.5 76.2,320.5 C71.4799764,320.5 67.5800154,322.279982 64.5,325.84 C61.5799854,329.240017 60.12,333.259977 60.12,337.9 C60.12,342.700024 61.6799844,346.759983 64.8,350.08 C67.9200156,353.400017 71.6599782,355.06 76.02,355.06 C77.7000084,355.06 79.2799926,354.830002 80.76,354.37 C82.2400074,353.909998 83.779992,353.100006 85.38,351.94 Z M132.42,337.72 C132.42,343.440029 130.320021,348.419979 126.12,352.66 C121.919979,356.900021 116.960029,359.02 111.24,359.02 C105.359971,359.02 100.330021,356.950021 96.15,352.81 C91.9699791,348.669979 89.88,343.660029 89.88,337.78 C89.88,331.939971 91.9599792,326.940021 96.12,322.78 C100.280021,318.619979 105.279971,316.54 111.12,316.54 C117.08003,316.54 122.119979,318.57998 126.24,322.66 C130.360021,326.74002 132.42,331.75997 132.42,337.72 Z M128.28,337.78 C128.28,332.859975 126.590017,328.750017 123.21,325.45 C119.829983,322.149983 115.820023,320.5 111.18,320.5 C106.419976,320.5 102.370017,322.189983 99.03,325.57 C95.6899833,328.950017 94.02,333.019976 94.02,337.78 C94.02,342.500024 95.6999832,346.559983 99.06,349.96 C102.420017,353.360017 106.439977,355.06 111.12,355.06 C115.880024,355.06 119.929983,353.350017 123.27,349.93 C126.610017,346.509983 128.28,342.460023 128.28,337.78 Z M171,358.42 L143.94,326.44 L143.94,357.64 L140.16,358.42 L140.16,316.36 L167.4,348.7 L167.4,317.98 L171,317.2 L171,358.42 Z M212.28,358.42 L185.22,326.44 L185.22,357.64 L181.44,358.42 L181.44,316.36 L208.68,348.7 L208.68,317.98 L212.28,317.2 L212.28,358.42 Z M247.56,354.34 L246.6,358 L222.78,358 L222.78,317.56 L245.64,317.56 L246.6,321.16 L226.56,321.16 L226.56,335.74 L243.66,335.74 L243.66,339.4 L226.56,339.4 L226.56,354.34 L247.56,354.34 Z M281.46,351.94 L280.74,356.8 C279.499994,357.560004 278.190007,358.119998 276.81,358.48 C275.429993,358.840002 273.820009,359.02 271.98,359.02 C266.499973,359.02 261.81002,356.880021 257.91,352.6 C254.009981,348.319979 252.06,343.400028 252.06,337.84 C252.06,332.119971 253.999981,327.140021 257.88,322.9 C261.760019,318.659979 266.539972,316.54 272.22,316.54 C273.660007,316.54 275.089993,316.689999 276.51,316.99 C277.930007,317.290002 279.339993,317.759997 280.74,318.4 L281.46,323.08 C278.659986,321.359991 275.600017,320.5 272.28,320.5 C267.559976,320.5 263.660015,322.279982 260.58,325.84 C257.659985,329.240017 256.2,333.259977 256.2,337.9 C256.2,342.700024 257.759984,346.759983 260.88,350.08 C264.000016,353.400017 267.739978,355.06 272.1,355.06 C273.780008,355.06 275.359993,354.830002 276.84,354.37 C278.320007,353.909998 279.859992,353.100006 281.46,351.94 Z M310.14,321.22 L299.34,321.22 L299.34,357.64 L295.5,358.42 L295.5,321.22 L283.74,321.22 L284.76,317.56 L310.14,317.56 L310.14,321.22 Z M320.46,357.64 L316.68,358.42 L316.68,317.98 L320.46,317.2 L320.46,357.64 Z M357.66,351.94 L356.94,356.8 C355.699994,357.560004 354.390007,358.119998 353.01,358.48 C351.629993,358.840002 350.020009,359.02 348.18,359.02 C342.699973,359.02 338.010019,356.880021 334.11,352.6 C330.209981,348.319979 328.26,343.400028 328.26,337.84 C328.26,332.119971 330.199981,327.140021 334.08,322.9 C337.960019,318.659979 342.739972,316.54 348.42,316.54 C349.860007,316.54 351.289993,316.689999 352.71,316.99 C354.130007,317.290002 355.539993,317.759997 356.94,318.4 L357.66,323.08 C354.859986,321.359991 351.800017,320.5 348.48,320.5 C343.759976,320.5 339.860015,322.279982 336.78,325.84 C333.859985,329.240017 332.4,333.259977 332.4,337.9 C332.4,342.700024 333.959984,346.759983 337.08,350.08 C340.200016,353.400017 343.939978,355.06 348.3,355.06 C349.980008,355.06 351.559993,354.830002 353.04,354.37 C354.520007,353.909998 356.059992,353.100006 357.66,351.94 Z M393.78,344.92 C393.78,349.120021 392.380014,352.459988 389.58,354.94 C386.939987,357.300012 383.58002,358.48 379.5,358.48 C374.619976,358.48 370.910013,357.290012 368.37,354.91 C365.829987,352.529988 364.56,349.200021 364.56,344.92 L364.56,317.98 L368.34,317.2 L368.34,344.74 C368.34,347.860016 369.30999,350.269992 371.25,351.97 C373.19001,353.670008 375.939982,354.52 379.5,354.52 C382.660016,354.52 385.18999,353.630009 387.09,351.85 C388.990009,350.069991 389.94,347.700015 389.94,344.74 L389.94,317.98 L393.78,317.2 L393.78,344.92 Z M425.28,321.22 L414.48,321.22 L414.48,357.64 L410.64,358.42 L410.64,321.22 L398.88,321.22 L399.9,317.56 L425.28,317.56 L425.28,321.22 Z M169.5,424.4 L165.66,425.42 L157.5,408.86 L140.76,408.86 L132.36,425.42 L128.52,424.4 L149.22,383.36 L169.5,424.4 Z M155.7,405.2 L149.16,391.58 L142.44,405.2 L155.7,405.2 Z M207.18,385.28 L187.98,426.62 L169.5,385.28 L173.28,384.2 L187.98,417.44 L203.4,384.2 L207.18,385.28 Z M237.24,421.34 L236.28,425 L212.46,425 L212.46,384.56 L235.32,384.56 L236.28,388.16 L216.24,388.16 L216.24,402.74 L233.34,402.74 L233.34,406.4 L216.24,406.4 L216.24,421.34 L237.24,421.34 Z M275.28,425.42 L248.22,393.44 L248.22,424.64 L244.44,425.42 L244.44,383.36 L271.68,415.7 L271.68,384.98 L275.28,384.2 L275.28,425.42 Z M314.64,411.92 C314.64,416.120021 313.240014,419.459988 310.44,421.94 C307.799987,424.300012 304.44002,425.48 300.36,425.48 C295.479976,425.48 291.770013,424.290012 289.23,421.91 C286.689987,419.529988 285.42,416.200021 285.42,411.92 L285.42,384.98 L289.2,384.2 L289.2,411.74 C289.2,414.860016 290.16999,417.269991 292.11,418.97 C294.05001,420.670008 296.799982,421.52 300.36,421.52 C303.520016,421.52 306.04999,420.630009 307.95,418.85 C309.850009,417.069991 310.8,414.700015 310.8,411.74 L310.8,384.98 L314.64,384.2 L314.64,411.92 Z M349.5,421.34 L348.54,425 L324.72,425 L324.72,384.56 L347.58,384.56 L348.54,388.16 L328.5,388.16 L328.5,402.74 L345.6,402.74 L345.6,406.4 L328.5,406.4 L328.5,421.34 L349.5,421.34 Z" id="PROPERTY-NAME" fill="#000000"></path>
            <path d="M132.7575,744.75 C132.7575,747.840015 131.617511,750.35999 129.3375,752.31 C127.29749,754.050009 124.972513,754.92 122.3625,754.92 L118.9875,754.92 L118.9875,764.73 L116.1525,765.315 L116.1525,734.58 L121.1475,734.58 C124.417516,734.58 127.132489,735.464991 129.2925,737.235 C131.602512,739.125009 132.7575,741.629984 132.7575,744.75 Z M129.6525,744.705 C129.6525,742.424989 128.857508,740.632507 127.2675,739.3275 C125.677492,738.022493 123.592513,737.37 121.0125,737.37 L118.9875,737.37 L118.9875,752.085 L121.1025,752.085 C123.682513,752.085 125.752492,751.425007 127.3125,750.105 C128.872508,748.784993 129.6525,746.985011 129.6525,744.705 Z M156.1125,764.1 L153.4125,765.405 L141.2175,750.6 L141.2175,764.73 L138.3825,765.315 L138.3825,734.625 L143.3775,734.625 C146.677516,734.625 149.257491,735.404992 151.1175,736.965 C152.977509,738.525008 153.9075,740.804985 153.9075,743.805 C153.9075,746.175012 153.195007,748.139992 151.77,749.7 C150.344993,751.260008 148.61251,752.174999 146.5725,752.445 L156.1125,764.1 Z M150.8475,743.805 C150.8475,741.88499 150.232506,740.340006 149.0025,739.17 C147.772494,737.999994 146.12251,737.415 144.0525,737.415 L141.2175,737.415 L141.2175,750.15 L144.2775,750.15 C146.22751,750.15 147.809994,749.587506 149.025,748.4625 C150.240006,747.337494 150.8475,745.78501 150.8475,743.805 Z M164.3925,764.73 L161.5575,765.315 L161.5575,734.985 L164.3925,734.4 L164.3925,764.73 Z M192.2925,760.455 L191.7525,764.1 C190.822495,764.670003 189.840005,765.089999 188.805,765.36 C187.769995,765.630001 186.562507,765.765 185.1825,765.765 C181.072479,765.765 177.555015,764.160016 174.63,760.95 C171.704985,757.739984 170.2425,754.050021 170.2425,749.88 C170.2425,745.589979 171.697485,741.855016 174.6075,738.675 C177.517515,735.494984 181.102479,733.905 185.3625,733.905 C186.442505,733.905 187.514995,734.017499 188.58,734.2425 C189.645005,734.467501 190.702495,734.819998 191.7525,735.3 L192.2925,738.81 C190.192489,737.519994 187.897512,736.875 185.4075,736.875 C181.867482,736.875 178.942512,738.209987 176.6325,740.88 C174.442489,743.430013 173.3475,746.444983 173.3475,749.925 C173.3475,753.525018 174.517488,756.569988 176.8575,759.06 C179.197512,761.550012 182.002484,762.795 185.2725,762.795 C186.532506,762.795 187.717494,762.622502 188.8275,762.2775 C189.937506,761.932498 191.092494,761.325004 192.2925,760.455 Z M216.3225,762.255 L215.6025,765 L197.7375,765 L197.7375,734.67 L214.8825,734.67 L215.6025,737.37 L200.5725,737.37 L200.5725,748.305 L213.3975,748.305 L213.3975,751.05 L200.5725,751.05 L200.5725,762.255 L216.3225,762.255 Z" id="PRICE" fill="#000000"></path>
            <path d="M264.52,752.42 C264.52,755.060013 263.56001,757.239991 261.64,758.96 C259.879991,760.560008 257.640014,761.559998 254.92,761.96 L254.92,767.3 L252.22,767.9 L252.22,761.96 C249.659987,761.96 247.200012,761.060009 244.84,759.26 C244.079996,758.659997 243.160005,757.760006 242.08,756.56 L244.48,754.28 C245.520005,755.600007 246.709993,756.689996 248.05,757.55 C249.390007,758.410004 250.779993,758.84 252.22,758.84 L252.22,745.82 C249.299985,745.139997 247.120007,744.180006 245.68,742.94 C243.879991,741.379992 242.98,739.200014 242.98,736.4 C242.98,733.679986 243.889991,731.430009 245.71,729.65 C247.530009,727.869991 249.699987,726.98 252.22,726.98 L252.22,723.68 L254.92,723.2 L254.92,726.98 C256.680009,727.180001 258.299993,727.619997 259.78,728.3 C261.260007,728.980003 262.519995,729.959994 263.56,731.24 L261.46,733.76 C260.459995,732.639994 259.500005,731.820003 258.58,731.3 C257.419994,730.619997 256.220006,730.28 254.98,730.28 L254.98,742.52 C257.900015,743.040003 260.159992,744.059992 261.76,745.58 C263.600009,747.300009 264.52,749.579986 264.52,752.42 Z M252.22,742.22 L252.22,730.28 C250.539992,730.28 249.130006,730.889994 247.99,732.11 C246.849994,733.330006 246.28,734.819991 246.28,736.58 C246.28,738.180008 246.839994,739.459995 247.96,740.42 C248.920005,741.260004 250.339991,741.859998 252.22,742.22 Z M261.16,752.6 C261.16,750.879991 260.570006,749.430006 259.39,748.25 C258.209994,747.069994 256.740009,746.360001 254.98,746.12 L254.92,758.84 C256.720009,758.599999 258.209994,757.940005 259.39,756.86 C260.570006,755.779995 261.16,754.360009 261.16,752.6 Z M290.32,766.64 L286.66,767.42 L286.66,731.96 L276.22,737.66 L275.14,735.2 L290.32,725.78 L290.32,766.64 Z M329.32,738.44 C329.32,741.120013 328.32001,744.019984 326.32,747.14 C324.839993,749.460012 322.520016,752.239984 319.36,755.48 L311.44,763.4 L329.26,763.4 L328.54,767 L303.76,767 L320.08,749.6 C322.280011,747.239988 323.799996,745.08001 324.64,743.12 C325.240003,741.679993 325.54,740.120008 325.54,738.44 C325.54,735.839987 324.650009,733.670009 322.87,731.93 C321.089991,730.189991 319.000012,729.32 316.6,729.32 C314.079987,729.32 311.960009,730.179991 310.24,731.9 C308.519991,733.620009 307.66,735.719988 307.66,738.2 C307.66,740.760013 308.439992,742.919991 310,744.68 C311.560008,746.440009 313.759986,747.539998 316.6,747.98 L314.08,750.92 C310.919984,750.199996 308.430009,748.710011 306.61,746.45 C304.789991,744.189989 303.88,741.380017 303.88,738.02 C303.88,734.739984 305.169987,731.910012 307.75,729.53 C310.330013,727.149988 313.419982,725.96 317.02,725.96 C320.620018,725.96 323.599988,727.259987 325.96,729.86 C328.200011,732.300012 329.32,735.159984 329.32,738.44 Z M360.94,746.66 C360.94,751.780026 359.92001,756.35998 357.88,760.4 C355.399988,765.320025 352.020021,767.78 347.74,767.78 C343.339978,767.78 339.980012,765.560022 337.66,761.12 C335.65999,757.319981 334.66,752.480029 334.66,746.6 C334.66,741.279973 335.67999,736.66002 337.72,732.74 C340.120012,728.099977 343.479978,725.78 347.8,725.78 C352.440023,725.78 355.919988,728.219976 358.24,733.1 C360.040009,736.900019 360.94,741.419974 360.94,746.66 Z M357.16,746.66 C357.16,742.099977 356.500007,738.260016 355.18,735.14 C353.499992,731.13998 351.020016,729.14 347.74,729.14 C344.699985,729.14 342.320009,731.15998 340.6,735.2 C339.159993,738.560017 338.44,742.379979 338.44,746.66 C338.44,751.140022 339.079994,754.959984 340.36,758.12 C342.040008,762.280021 344.519984,764.36 347.8,764.36 C350.920016,764.36 353.339991,762.32002 355.06,758.24 C356.460007,754.879983 357.16,751.020022 357.16,746.66 Z" id="$000" fill="#000000"></path>
        </g>
    </g>
</svg>