<?xml version="1.0" encoding="UTF-8"?>
<svg width="480px" height="800px" viewBox="0 0 480 800" version="1.1" xmlns="http://www.w3.org/2000/svg" xmlns:xlink="http://www.w3.org/1999/xlink">
    <!-- Generator: Sketch 48.2 (47327) - http://www.bohemiancoding.com/sketch -->
    <title>Space/Utility/Water Works</title>
    <desc>Created with Sketch.</desc>
    <defs>
        <rect id="path-1" x="0" y="0" width="480" height="800"></rect>
    </defs>
    <g id="Utility-Spaces" stroke="none" stroke-width="1" fill="none" fill-rule="evenodd" transform="translate(-918.000000, -37.000000)">
        <g id="Space/Utility/Water-Works" transform="translate(1158.000000, 437.000000) rotate(180.000000) translate(-1158.000000, -437.000000) translate(918.000000, 37.000000)">
            <g id="Water-Works">
                <g id="Squared-Full-Height-Teal-Field">
                    <use fill="#CBE8E0" fill-rule="evenodd" xlink:href="#path-1"></use>
                    <rect stroke="#CBE8E0" stroke-width="1" x="0.5" y="0.5" width="479" height="799"></rect>
                </g>
                <path d="M200.22,88.98 L182.4,130.62 L174,111.48 L165.84,130.62 L147.9,88.98 L151.98,88.2 L165.84,121.26 L171.96,107.04 L164.28,88.98 L168,88.2 L174,102.18 L180.12,88.2 L183.42,88.98 L176.1,106.74 L182.4,121.26 L196.32,88.2 L200.22,88.98 Z M241.62,128.4 L237.78,129.42 L229.62,112.86 L212.88,112.86 L204.48,129.42 L200.64,128.4 L221.34,87.36 L241.62,128.4 Z M227.82,109.2 L221.28,95.58 L214.56,109.2 L227.82,109.2 Z M268.32,92.22 L257.52,92.22 L257.52,128.64 L253.68,129.42 L253.68,92.22 L241.92,92.22 L242.94,88.56 L268.32,88.56 L268.32,92.22 Z M299.64,125.34 L298.68,129 L274.86,129 L274.86,88.56 L297.72,88.56 L298.68,92.16 L278.64,92.16 L278.64,106.74 L295.74,106.74 L295.74,110.4 L278.64,110.4 L278.64,125.34 L299.64,125.34 Z M330.54,127.8 L326.94,129.54 L310.68,109.8 L310.68,128.64 L306.9,129.42 L306.9,88.5 L313.56,88.5 C317.960022,88.5 321.399988,89.5399896 323.88,91.62 C326.360012,93.7000104 327.6,96.73998 327.6,100.74 C327.6,103.900016 326.65001,106.51999 324.75,108.6 C322.84999,110.68001 320.540014,111.899998 317.82,112.26 L330.54,127.8 Z M323.52,100.74 C323.52,98.1799872 322.700008,96.1200078 321.06,94.56 C319.419992,92.9999922 317.220014,92.22 314.46,92.22 L310.68,92.22 L310.68,109.2 L314.76,109.2 C317.360013,109.2 319.469992,108.450007 321.09,106.95 C322.710008,105.449993 323.52,103.380013 323.52,100.74 Z M195.72,155.98 L177.9,197.62 L169.5,178.48 L161.34,197.62 L143.4,155.98 L147.48,155.2 L161.34,188.26 L167.46,174.04 L159.78,155.98 L163.5,155.2 L169.5,169.18 L175.62,155.2 L178.92,155.98 L171.6,173.74 L177.9,188.26 L191.82,155.2 L195.72,155.98 Z M241.2,175.72 C241.2,181.440029 239.100021,186.419979 234.9,190.66 C230.699979,194.900021 225.740029,197.02 220.02,197.02 C214.139971,197.02 209.110021,194.950021 204.93,190.81 C200.749979,186.669979 198.66,181.660029 198.66,175.78 C198.66,169.939971 200.739979,164.940021 204.9,160.78 C209.060021,156.619979 214.059971,154.54 219.9,154.54 C225.86003,154.54 230.899979,156.57998 235.02,160.66 C239.140021,164.74002 241.2,169.75997 241.2,175.72 Z M237.06,175.78 C237.06,170.859975 235.370017,166.750017 231.99,163.45 C228.609983,160.149984 224.600023,158.5 219.96,158.5 C215.199976,158.5 211.150017,160.189983 207.81,163.57 C204.469983,166.950017 202.8,171.019976 202.8,175.78 C202.8,180.500024 204.479983,184.559983 207.84,187.96 C211.200017,191.360017 215.219977,193.06 219.9,193.06 C224.660024,193.06 228.709983,191.350017 232.05,187.93 C235.390017,184.509983 237.06,180.460023 237.06,175.78 Z M272.64,194.8 L269.04,196.54 L252.78,176.8 L252.78,195.64 L249,196.42 L249,155.5 L255.66,155.5 C260.060022,155.5 263.499988,156.53999 265.98,158.62 C268.460012,160.70001 269.7,163.73998 269.7,167.74 C269.7,170.900016 268.75001,173.51999 266.85,175.6 C264.949991,177.68001 262.640014,178.899998 259.92,179.26 L272.64,194.8 Z M265.62,167.74 C265.62,165.179987 264.800008,163.120008 263.16,161.56 C261.519992,159.999992 259.320014,159.22 256.56,159.22 L252.78,159.22 L252.78,176.2 L256.86,176.2 C259.460013,176.2 261.569992,175.450007 263.19,173.95 C264.810008,172.449993 265.62,170.380013 265.62,167.74 Z M306.42,194.8 L302.46,196.42 L283.68,174.94 L283.68,195.64 L279.9,196.42 L279.9,155.98 L283.68,155.2 L283.68,174.22 L300.6,155.2 L304.8,155.98 L288.78,174.22 L306.42,194.8 Z M334.38,185.26 C334.38,188.780018 333.130012,191.599989 330.63,193.72 C328.129987,195.840011 325.020019,196.9 321.3,196.9 C318.419986,196.9 315.900011,196.220007 313.74,194.86 C312.059992,193.819995 310.420008,192.180011 308.82,189.94 L311.94,187.36 C313.260007,189.28001 314.559994,190.639996 315.84,191.44 C317.400008,192.440005 319.239989,192.94 321.36,192.94 C323.680012,192.94 325.699991,192.340006 327.42,191.14 C329.34001,189.779993 330.3,187.960011 330.3,185.68 C330.3,182.359983 328.520018,179.960007 324.96,178.48 C321.639983,177.319994 318.340016,176.160006 315.06,175 C311.459982,173.07999 309.66,169.960022 309.66,165.64 C309.66,162.519984 310.869988,159.900011 313.29,157.78 C315.710012,155.659989 318.639983,154.6 322.08,154.6 C324.320011,154.6 326.319991,155.009996 328.08,155.83 C329.840009,156.650004 331.519992,157.899992 333.12,159.58 L330.36,162.52 C329.199994,161.239994 327.930007,160.260003 326.55,159.58 C325.169993,158.899997 323.680008,158.56 322.08,158.56 C319.919989,158.56 318.000008,159.209993 316.32,160.51 C314.639992,161.810006 313.8,163.519989 313.8,165.64 C313.8,168.760016 315.579982,170.999993 319.14,172.36 C322.420016,173.520006 325.719983,174.679994 329.04,175.84 C332.600018,177.76001 334.38,180.899978 334.38,185.26 Z" id="UTILITY-NAME" fill="#000000"></path>
                <path d="M133.7575,748.75 C133.7575,751.840015 132.617511,754.35999 130.3375,756.31 C128.29749,758.050009 125.972513,758.92 123.3625,758.92 L119.9875,758.92 L119.9875,768.73 L117.1525,769.315 L117.1525,738.58 L122.1475,738.58 C125.417516,738.58 128.132489,739.464991 130.2925,741.235 C132.602512,743.125009 133.7575,745.629984 133.7575,748.75 Z M130.6525,748.705 C130.6525,746.424989 129.857508,744.632507 128.2675,743.3275 C126.677492,742.022493 124.592513,741.37 122.0125,741.37 L119.9875,741.37 L119.9875,756.085 L122.1025,756.085 C124.682513,756.085 126.752492,755.425007 128.3125,754.105 C129.872508,752.784993 130.6525,750.985011 130.6525,748.705 Z M157.1125,768.1 L154.4125,769.405 L142.2175,754.6 L142.2175,768.73 L139.3825,769.315 L139.3825,738.625 L144.3775,738.625 C147.677516,738.625 150.257491,739.404992 152.1175,740.965 C153.977509,742.525008 154.9075,744.804985 154.9075,747.805 C154.9075,750.175012 154.195007,752.139992 152.77,753.7 C151.344993,755.260008 149.61251,756.174999 147.5725,756.445 L157.1125,768.1 Z M151.8475,747.805 C151.8475,745.88499 151.232506,744.340006 150.0025,743.17 C148.772494,741.999994 147.12251,741.415 145.0525,741.415 L142.2175,741.415 L142.2175,754.15 L145.2775,754.15 C147.22751,754.15 148.809994,753.587506 150.025,752.4625 C151.240006,751.337494 151.8475,749.78501 151.8475,747.805 Z M165.3925,768.73 L162.5575,769.315 L162.5575,738.985 L165.3925,738.4 L165.3925,768.73 Z M193.2925,764.455 L192.7525,768.1 C191.822495,768.670003 190.840005,769.089999 189.805,769.36 C188.769995,769.630001 187.562507,769.765 186.1825,769.765 C182.072479,769.765 178.555015,768.160016 175.63,764.95 C172.704985,761.739984 171.2425,758.050021 171.2425,753.88 C171.2425,749.589979 172.697485,745.855016 175.6075,742.675 C178.517515,739.494984 182.102479,737.905 186.3625,737.905 C187.442505,737.905 188.514995,738.017499 189.58,738.2425 C190.645005,738.467501 191.702495,738.819998 192.7525,739.3 L193.2925,742.81 C191.192489,741.519994 188.897512,740.875 186.4075,740.875 C182.867482,740.875 179.942512,742.209987 177.6325,744.88 C175.442489,747.430013 174.3475,750.444983 174.3475,753.925 C174.3475,757.525018 175.517488,760.569988 177.8575,763.06 C180.197512,765.550012 183.002484,766.795 186.2725,766.795 C187.532506,766.795 188.717494,766.622502 189.8275,766.2775 C190.937506,765.932498 192.092494,765.325004 193.2925,764.455 Z M217.3225,766.255 L216.6025,769 L198.7375,769 L198.7375,738.67 L215.8825,738.67 L216.6025,741.37 L201.5725,741.37 L201.5725,752.305 L214.3975,752.305 L214.3975,755.05 L201.5725,755.05 L201.5725,766.255 L217.3225,766.255 Z" id="PRICE" fill="#000000"></path>
                <path d="M264.52,756.42 C264.52,759.060013 263.56001,761.239991 261.64,762.96 C259.879991,764.560008 257.640014,765.559998 254.92,765.96 L254.92,771.3 L252.22,771.9 L252.22,765.96 C249.659987,765.96 247.200012,765.060009 244.84,763.26 C244.079996,762.659997 243.160005,761.760006 242.08,760.56 L244.48,758.28 C245.520005,759.600007 246.709993,760.689996 248.05,761.55 C249.390007,762.410004 250.779993,762.84 252.22,762.84 L252.22,749.82 C249.299985,749.139997 247.120007,748.180006 245.68,746.94 C243.879991,745.379992 242.98,743.200014 242.98,740.4 C242.98,737.679986 243.889991,735.430009 245.71,733.65 C247.530009,731.869991 249.699987,730.98 252.22,730.98 L252.22,727.68 L254.92,727.2 L254.92,730.98 C256.680009,731.180001 258.299993,731.619997 259.78,732.3 C261.260007,732.980003 262.519995,733.959994 263.56,735.24 L261.46,737.76 C260.459995,736.639994 259.500005,735.820003 258.58,735.3 C257.419994,734.619997 256.220006,734.28 254.98,734.28 L254.98,746.52 C257.900015,747.040003 260.159992,748.059992 261.76,749.58 C263.600009,751.300009 264.52,753.579986 264.52,756.42 Z M252.22,746.22 L252.22,734.28 C250.539992,734.28 249.130006,734.889994 247.99,736.11 C246.849994,737.330006 246.28,738.819991 246.28,740.58 C246.28,742.180008 246.839994,743.459995 247.96,744.42 C248.920005,745.260004 250.339991,745.859998 252.22,746.22 Z M261.16,756.6 C261.16,754.879991 260.570006,753.430006 259.39,752.25 C258.209994,751.069994 256.740009,750.360001 254.98,750.12 L254.92,762.84 C256.720009,762.599999 258.209994,761.940005 259.39,760.86 C260.570006,759.779995 261.16,758.360009 261.16,756.6 Z M290.32,770.64 L286.66,771.42 L286.66,735.96 L276.22,741.66 L275.14,739.2 L290.32,729.78 L290.32,770.64 Z M328.54,758.1 C328.54,761.820019 327.290012,765.029986 324.79,767.73 C322.289987,770.430013 319.160019,771.78 315.4,771.78 C310.279974,771.78 306.140016,769.680021 302.98,765.48 L305.62,763.02 C306.980007,764.740009 308.339993,766.019996 309.7,766.86 C311.340008,767.860005 313.15999,768.36 315.16,768.36 C318.040014,768.36 320.369991,767.39001 322.15,765.45 C323.930009,763.50999 324.82,761.140014 324.82,758.34 C324.82,755.499986 323.890009,753.150009 322.03,751.29 C320.169991,749.429991 317.900013,748.5 315.22,748.5 C313.979994,748.5 312.740006,748.679998 311.5,749.04 C310.259994,749.400002 308.720009,750.179994 306.88,751.38 L306.88,730.56 L326.14,730.56 L325.06,734.1 L310.42,734.1 L310.42,746.1 C311.180004,745.779998 311.969996,745.530001 312.79,745.35 C313.610004,745.169999 314.379996,745.08 315.1,745.08 C318.900019,745.08 322.039988,746.199989 324.52,748.44 C327.200013,750.840012 328.54,754.05998 328.54,758.1 Z M360.94,750.66 C360.94,755.780026 359.92001,760.35998 357.88,764.4 C355.399988,769.320025 352.020021,771.78 347.74,771.78 C343.339978,771.78 339.980012,769.560022 337.66,765.12 C335.65999,761.319981 334.66,756.480029 334.66,750.6 C334.66,745.279973 335.67999,740.66002 337.72,736.74 C340.120012,732.099977 343.479978,729.78 347.8,729.78 C352.440023,729.78 355.919988,732.219976 358.24,737.1 C360.040009,740.900019 360.94,745.419974 360.94,750.66 Z M357.16,750.66 C357.16,746.099977 356.500007,742.260016 355.18,739.14 C353.499992,735.13998 351.020016,733.14 347.74,733.14 C344.699985,733.14 342.320009,735.15998 340.6,739.2 C339.159993,742.560017 338.44,746.379979 338.44,750.66 C338.44,755.140022 339.079994,758.959984 340.36,762.12 C342.040008,766.280021 344.519984,768.36 347.8,768.36 C350.920016,768.36 353.339991,766.32002 355.06,762.24 C356.460007,758.879983 357.16,755.020022 357.16,750.66 Z" id="$000" fill="#000000"></path>
                <g id="Faucet" transform="translate(240.500000, 461.232930) rotate(-180.000000) translate(-240.500000, -461.232930) translate(70.000000, 331.232930)" fill-rule="nonzero">
                    <path d="M126.280766,165.402153 C126.780766,162.002153 127.280766,158.502153 127.780766,155.102153 C126.880766,144.302153 119.880766,148.902153 114.380766,149.902153 C95.7807664,149.902153 77.0807664,149.802153 58.4807664,149.902153 C51.7807664,149.902153 45.2807664,148.802153 38.7807664,147.102153 C25.8807664,143.702153 16.2807664,136.202153 9.48076641,124.802153 C3.48076641,114.802153 0.480766407,103.802153 0.280766407,92.5021535 C-0.219233593,63.9021535 0.0807664068,35.3021535 0.180766407,6.60215347 C0.180766407,3.30215347 3.28076641,-0.0978465298 6.38076641,0.00215347017 C18.9807664,0.50215347 31.5807664,1.00215347 44.1807664,1.90215347 C45.4807664,2.00215347 47.4807664,4.40215347 47.6807664,5.90215347 C48.1807664,10.5021535 48.0807664,15.2021535 48.0807664,19.9021535 C48.0807664,33.9021535 48.0807664,47.9021535 48.0807664,61.8021535 C48.0807664,64.5021535 48.0807664,67.1021535 48.0807664,69.8021535 C47.9807664,88.4021535 62.1807664,95.7021535 74.3807664,97.1021535 C80.9807664,97.8021535 87.6807664,97.2021535 94.2807664,96.9021535 C102.880766,96.6021535 111.580766,95.8021535 120.180766,95.9021535 C126.980766,96.0021535 131.580766,94.3021535 133.680766,87.2021535 C134.680766,83.7021535 138.080766,82.5021535 141.680766,82.5021535 C152.980766,82.5021535 164.280766,82.6021535 175.680766,82.5021535 C184.380766,82.4021535 191.080766,86.1021535 195.880766,93.2021535 C196.580766,94.3021535 197.480766,95.4021535 197.980766,96.6021535 C199.580766,99.9021535 202.080766,101.502153 205.780766,101.602153 C215.080766,101.702153 224.380766,101.902153 233.780766,102.002153 C242.480766,102.102153 251.080766,102.302153 259.780766,102.302153 C271.680766,102.302153 274.680766,104.502153 275.580766,89.1021535 C276.180766,78.7021535 282.780766,72.3021535 293.080766,70.0021535 C296.980766,69.1021535 300.780766,67.9021535 304.780766,67.4021535 C321.780766,65.4021535 334.680766,74.8021535 338.880766,91.3021535 C340.180766,96.4021535 340.380766,101.802153 340.380766,107.102153 C340.380766,122.402153 340.180766,137.702153 339.780766,153.002153 C339.180766,174.602153 322.380766,192.102153 300.580766,193.202153 C289.880766,193.802153 281.180766,189.202153 275.780766,179.502153 C272.180766,173.002153 271.080766,165.702153 270.480766,158.402153 C270.380766,156.802153 268.080766,154.902153 266.380766,154.802153 C265.680766,154.702153 265.080766,154.602153 264.380766,154.602153 C241.780766,154.702153 219.080766,154.902153 196.480766,155.102153 C193.680766,155.102153 191.480766,157.202153 191.180766,159.902153 C190.780766,163.902153 190.580766,167.902153 189.980766,171.802153 C189.780766,172.902153 188.380766,173.702153 187.580766,174.702153 C184.580766,176.302153 185.380766,180.302153 182.880766,182.302153 L182.780766,182.402153 C166.980766,180.202153 151.180766,178.202153 135.280766,181.302153 C132.080766,181.602153 129.180766,180.702153 126.680766,178.702153 L126.680766,178.802153 C125.680766,174.202153 125.480766,169.802153 126.280766,165.402153 Z" id="Shape" fill="#030303"></path>
                    <path d="M166.258051,198.4 C166.358051,209.1 166.358051,219.7 166.458051,230.4 C166.458051,232 168.658051,234.3 170.258051,234.4 C171.558051,234.5 172.958051,234.7 174.258051,234.7 C177.558051,234.8 180.958051,234.5 184.258051,234.8 C189.958051,235.3 194.258051,233.4 198.658051,229.5 C204.558051,224.4 211.058051,225.8 215.858051,232.1 C218.858051,236.1 219.058051,241 216.258051,245.1 C213.458051,249.2 208.558051,251.4 204.158051,250.4 C203.558051,250.3 202.858051,250.2 202.158051,250 C197.658051,248.6 195.058051,243.7 190.058051,243.5 C183.358051,243.3 176.758051,243.3 170.058051,243.4 C166.458051,243.5 163.858051,245.5 162.858051,249.2 C161.758051,253.2 159.858051,256.5 156.258051,258.8 C153.658051,260.5 148.858051,259.8 147.558051,257.1 C146.158051,254.1 144.958051,251 143.758051,247.9 C142.358051,244.3 139.758051,243 136.058051,243 C128.758051,243 121.358051,243.1 114.058051,242.8 C108.458051,242.5 103.558051,243.6 99.6580512,247.9 C98.8580512,248.8 97.4580512,249.3 96.2580512,249.9 C92.3580512,251.6 86.4580512,250.1 83.5580512,246.5 C81.0580512,243.3 78.8580512,239.9 80.6580512,235.6 C83.0580512,229.7 87.7580512,226.2 92.5580512,226.4 C96.0580512,226.6 98.9580512,228.2 101.358051,230.6 C103.858051,233.2 106.858051,234.2 110.258051,234.2 C117.558051,234.2 124.958051,234.4 132.258051,234.4 C141.558051,234.4 142.358051,233.6 142.458051,224.3 C142.558051,217 142.858051,209.6 142.958051,202.3 C145.358051,196.3 150.158051,194.1 156.258051,194 C158.158051,194 159.958051,194.3 161.758051,194.9 C163.558051,195.9 165.058051,197.1 166.258051,198.4 Z" id="Shape" fill="#060707"></path>
                    <path d="M163.2,197.7 C161.7,197.7 160.2,197.6 158.7,197.6 C153.8,193.5 147.2,198.2 142.2,194.4 C136.5,194.1 132.7,191.4 131,185.9 C131.8,182.7 134,180.8 137.2,180 C147.2,180.6 157.3,179.9 166.9,183.5 C169.7,185.1 171.6,187.4 172.3,190.6 C170.9,191.9 169.4,193.1 168,194.4 C166.2,195.3 164.6,196.3 163.2,197.7 Z" id="Shape" fill="#292E2D"></path>
                    <path d="M171.7,190.903748 C169.3,190.203748 167.2,189.203748 166.5,186.503748 C158.6,177.103748 147.1,185.603748 138.3,180.603748 C136.5,180.203748 135,179.203748 134,177.703748 C135.6,175.403748 137.7,174.103748 140.6,174.103748 C150.5,174.103748 160.4,174.303748 170.2,174.003748 C174.9,173.903748 177.5,175.803748 179.3,179.803748 C179.8,180.803748 181.3,181.303748 182.3,182.103748 C180.4,187.003748 176.5,189.503748 171.7,190.903748 Z" id="Shape" fill="#1A1D1C"></path>
                    <path d="M114,149.404757 C117.6,144.804757 123.7,146.704757 128,144.004757 C128.2,143.904757 130,145.404757 130.3,146.304757 C131.3,149.604757 130.4,152.604757 127.4,154.604757 C126,151.204757 123.5,149.704757 119.8,150.004757 C117.9,150.204757 115.9,149.604757 114,149.404757 Z" id="Shape" fill="#798A85"></path>
                    <path d="M142,194.309638 C146.3,194.209638 150.6,193.809638 154.8,194.109638 C156.1,194.209638 157.3,196.309638 158.5,197.509638 C153,197.609638 147.5,197.609638 143.3,201.909638 C142.9,199.309638 142.5,196.809638 142,194.309638 Z" id="Shape" fill="#4F5956"></path>
                    <path d="M134.657945,180.9 C134.057945,183.3 132.857945,185.1 130.257945,185.6 C127.357945,183.8 125.657945,181.3 126.057945,177.7 C128.657945,177.5 131.257945,177.2 133.857945,177 L134.957945,178.1 C134.757945,179.1 134.757945,180 134.657945,180.9 Z" id="Shape" fill="#1A1D1C"></path>
                    <path d="M126.101705,165 C128.901705,169.4 130.601705,173.7 126.501705,178.3 C121.901705,172.1 121.901705,171.5 126.101705,165 Z" id="Shape" fill="#1A1D1C"></path>
                    <path d="M183,181.6 C183.1,178.1 182.8,174.5 187.7,174 C187.5,177.4 186.9,180.5 183,181.6 Z" id="Shape" fill="#1A1D1C"></path>
                    <path d="M163,197.326838 C163.5,194.726838 165.2,193.826838 167.7,194.026838 C167.6,195.326838 167.3,196.526838 166.6,197.626838 C165.4,197.526838 164.2,197.426838 163,197.326838 Z" id="Shape" fill="#4F5956"></path>
                    <path d="M14.5,57.8807664 C14.5,44.5807664 14.4,31.2807664 14.7,17.9807664 C14.7,16.6807664 17.1,14.4807664 18.5,14.2807664 C22.4,13.7807664 26.4,14.0807664 30.4,14.1807664 C31.1,14.1807664 31.9,14.0807664 32.3,14.4807664 C33.3,15.2807664 34.7,16.2807664 34.9,17.3807664 C35.4,19.9807664 35.4,22.6807664 35.4,25.2807664 C35.4,37.2807664 35.4,49.2807664 35.4,61.1807664 C35.4,65.1807664 35.3,69.1807664 35.5,73.1807664 C36.1,84.3807664 40.6,93.6807664 49.8,100.480766 C58,106.580766 66.9,110.380766 77.5,109.980766 C92.8,109.580766 108.1,109.680766 123.4,109.480766 C126.7,109.480766 130.1,109.280766 133.3,108.480766 C137.2,107.580766 141.1,105.980766 142.8,101.980766 C144.9,97.0807664 148.3,94.8807664 153.6,95.0807664 C160.9,95.2807664 168.2,94.9807664 175.6,95.2807664 C180.5,95.4807664 184.4,97.9807664 186.5,102.780766 C187.3,104.580766 188,106.480766 189.1,108.080766 C191.1,110.880766 194,112.780766 197.3,113.280766 C201.2,113.880766 205.2,114.080766 209.2,114.180766 C229.2,114.480766 249.1,114.680766 269.1,114.980766 C272.4,114.980766 275.8,115.080766 279,115.480766 C280.2,115.580766 281.5,116.480766 282.3,117.380766 C286.1,121.280766 287.3,127.880766 285.2,132.180766 C282.7,137.180766 279.2,141.080766 273.1,141.280766 C263.1,141.480766 253.1,141.480766 243.2,141.580766 C226.6,141.780766 209.9,141.880766 193.3,142.080766 C185.9,142.180766 180.5,145.280766 178.6,152.880766 C177.8,155.980766 175.6,157.680766 172.9,157.180766 C163.7,155.280766 154.5,155.080766 145.2,156.080766 C144.7,156.180766 143.2,153.980766 143.3,152.980766 C143.9,149.080766 145.3,145.380766 145.9,141.480766 C146.3,138.880766 146.3,136.080766 145.7,133.680766 C144.1,127.380766 135.6,123.780766 129.4,126.380766 C128.2,126.880766 126.7,127.280766 126,128.280766 C120.7,135.580766 112.7,136.480766 104.7,136.980766 C100.1,137.280766 95.4,137.380766 90.7,137.180766 C76.7,136.580766 62.8,135.780766 48.8,135.180766 C36.4,134.680766 27.5,128.180766 21,118.280766 C16.5,111.480766 14,103.980766 14,95.6807664 C14,83.0807664 14,70.3807664 14,57.7807664 C14.3,57.8807664 14.4,57.8807664 14.5,57.8807664 Z" id="Shape" fill="#FFFFFF"></path>
                    <path d="M326.265333,128.034694 C326.265333,136.034694 326.165333,143.934694 326.265333,151.934694 C326.365333,159.734694 322.865333,166.034694 317.865333,171.534694 C312.065333,177.734694 304.665333,180.034694 296.165333,179.134694 C291.865333,178.634694 288.565333,176.734694 286.765333,172.834694 C285.365333,169.834694 284.065333,166.734694 283.465333,163.534694 C282.565333,158.934694 282.665333,154.234694 286.565333,150.634694 C288.465333,148.834694 290.465333,147.034694 292.065333,144.934694 C299.365333,135.734694 300.265333,125.634694 295.665333,115.134694 C294.065333,111.534694 292.265333,107.934694 289.965333,104.734694 C285.865333,99.1346939 286.465333,93.6346939 289.065333,87.9346939 C290.165333,85.4346939 291.965333,83.4346939 294.665333,82.7346939 C300.465333,81.2346939 306.365333,80.5346939 312.365333,81.3346939 C316.565333,81.8346939 319.665333,84.0346939 322.165333,87.4346939 C324.965333,91.3346939 326.565333,95.6346939 326.565333,100.434694 C326.665333,109.734694 326.565333,119.034694 326.565333,128.234694 C326.465333,128.034694 326.365333,128.034694 326.265333,128.034694 Z" id="Shape" fill="#FFFFFF"></path>
                    <path d="M156.8,170.387874 C154.5,170.087874 152,169.687874 149.4,169.287874 C148.9,169.187874 148.4,168.487874 148,168.087874 C148.5,167.687874 149,166.987874 149.6,166.887874 C155.4,165.787874 161.2,165.587874 167,166.987874 C167.6,167.087874 168,167.787874 168.5,168.287874 C168,168.687874 167.5,169.287874 166.9,169.387874 C163.6,169.787874 160.4,169.987874 156.8,170.387874 Z" id="Shape" fill="#1A1D1C"></path>
                    <path d="M135,181.145689 C135.1,180.245689 135.2,179.345689 135.2,178.445689 C146.7,176.545689 158.3,176.745689 169.8,177.745689 C170.8,177.845689 172.3,178.745689 172.4,179.445689 C172.6,180.445689 171.9,181.845689 171.1,182.545689 C169.8,183.945689 168.1,184.945689 166.6,186.045689 C160.1,186.045689 153.6,185.745689 147.1,186.145689 C142,186.545689 138.5,184.045689 135,181.145689 Z" id="Shape" fill="#FFFFFF"></path>
                </g>
            </g>
        </g>
    </g>
</svg>