<?xml version="1.0" encoding="UTF-8"?>
<svg width="800px" height="480px" viewBox="0 0 800 480" version="1.1" xmlns="http://www.w3.org/2000/svg" xmlns:xlink="http://www.w3.org/1999/xlink">
    <!-- Generator: Sketch 48.2 (47327) - http://www.bohemiancoding.com/sketch -->
    <title>Space/Tax/Luxury Tax</title>
    <desc>Created with Sketch.</desc>
    <defs>
        <rect id="path-1" x="0" y="0" width="480" height="800"></rect>
    </defs>
    <g id="Tax-Spaces" stroke="none" stroke-width="1" fill="none" fill-rule="evenodd" transform="translate(-662.000000, -29.000000)">
        <g id="Space/Tax/Luxury-Tax" transform="translate(1062.000000, 269.000000) rotate(270.000000) translate(-1062.000000, -269.000000) translate(822.000000, -131.000000)">
            <g>
                <g id="Squared-Full-Height-Teal-Field">
                    <use fill="#CBE8E0" fill-rule="evenodd" xlink:href="#path-1"></use>
                    <rect stroke="#CBE8E0" stroke-width="1" x="0.5" y="0.5" width="479" height="799"></rect>
                </g>
                <path d="M114.1,171.9 L111.9,178 L81.3,178 L81.3,111.3 L87.6,110 L87.6,171.9 L114.1,171.9 Z M171.7,156.2 C171.7,163.200035 169.36669,168.766646 164.7,172.9 C160.299978,176.833353 154.700034,178.8 147.9,178.8 C139.766626,178.8 133.583355,176.816687 129.35,172.85 C125.116646,168.883313 123,163.333369 123,156.2 L123,111.3 L129.3,110 L129.3,155.9 C129.3,161.100026 130.916651,165.116652 134.15,167.95 C137.38335,170.783347 141.966637,172.2 147.9,172.2 C153.166693,172.2 157.383317,170.716681 160.55,167.75 C163.716682,164.783319 165.3,160.833358 165.3,155.9 L165.3,111.3 L171.7,110 L171.7,156.2 Z M237.7,176.6 L232,179.3 L208.7,147.6 L186.5,179.3 L180.4,176.6 L204.9,142 L183.8,112.6 L189.1,109.3 L208.7,136.4 L228.2,109.3 L233.7,112.6 L212.6,142 L237.7,176.6 Z M295.3,156.2 C295.3,163.200035 292.96669,168.766646 288.3,172.9 C283.899978,176.833353 278.300034,178.8 271.5,178.8 C263.366626,178.8 257.183355,176.816687 252.95,172.85 C248.716646,168.883313 246.6,163.333369 246.6,156.2 L246.6,111.3 L252.9,110 L252.9,155.9 C252.9,161.100026 254.516651,165.116652 257.75,167.95 C260.98335,170.783347 265.566637,172.2 271.5,172.2 C276.766693,172.2 280.983318,170.716681 284.15,167.75 C287.316683,164.783319 288.9,160.833358 288.9,155.9 L288.9,111.3 L295.3,110 L295.3,156.2 Z M351.5,176 L345.5,178.9 L318.4,146 L318.4,177.4 L312.1,178.7 L312.1,110.5 L323.2,110.5 C330.53337,110.5 336.266646,112.233316 340.4,115.7 C344.533354,119.166684 346.6,124.2333 346.6,130.9 C346.6,136.166693 345.016683,140.533316 341.85,144 C338.683318,147.466684 334.833356,149.499997 330.3,150.1 L351.5,176 Z M339.8,130.9 C339.8,126.633312 338.433347,123.200013 335.7,120.6 C332.966653,117.999987 329.300023,116.7 324.7,116.7 L318.4,116.7 L318.4,145 L325.2,145 C329.533355,145 333.049986,143.750012 335.75,141.25 C338.450014,138.749988 339.8,135.300022 339.8,130.9 Z M408.2,111.3 L373,179.3 L366.3,177.3 L379.3,153 L354.8,111.3 L361.5,109.6 L382.9,146.1 L401.9,109.6 L408.2,111.3 Z M197.7,236.7 L179.7,236.7 L179.7,297.4 L173.3,298.7 L173.3,236.7 L153.7,236.7 L155.4,230.6 L197.7,230.6 L197.7,236.7 Z M268.1,297 L261.7,298.7 L248.1,271.1 L220.2,271.1 L206.2,298.7 L199.8,297 L234.3,228.6 L268.1,297 Z M245.1,265 L234.2,242.3 L223,265 L245.1,265 Z M326.1,296.6 L320.4,299.3 L297.1,267.6 L274.9,299.3 L268.8,296.6 L293.3,262 L272.2,232.6 L277.5,229.3 L297.1,256.4 L316.6,229.3 L322.1,232.6 L301,262 L326.1,296.6 Z" id="LUXURY-TAX" fill="#000000"></path>
                <path d="M169.475,743.75 C169.475,746.840015 168.335011,749.35999 166.055,751.31 C164.01499,753.050009 161.690013,753.92 159.08,753.92 L155.705,753.92 L155.705,763.73 L152.87,764.315 L152.87,733.58 L157.865,733.58 C161.135016,733.58 163.849989,734.464991 166.01,736.235 C168.320012,738.125009 169.475,740.629984 169.475,743.75 Z M166.37,743.705 C166.37,741.424989 165.575008,739.632507 163.985,738.3275 C162.394992,737.022493 160.310013,736.37 157.73,736.37 L155.705,736.37 L155.705,751.085 L157.82,751.085 C160.400013,751.085 162.469992,750.425007 164.03,749.105 C165.590008,747.784993 166.37,745.985011 166.37,743.705 Z M197.375,763.55 L194.495,764.315 L188.375,751.895 L175.82,751.895 L169.52,764.315 L166.64,763.55 L182.165,732.77 L197.375,763.55 Z M187.025,749.15 L182.12,738.935 L177.08,749.15 L187.025,749.15 Z M221.405,733.985 L205.565,764.585 L202.55,763.685 L208.4,752.75 L197.375,733.985 L200.39,733.22 L210.02,749.645 L218.57,733.22 L221.405,733.985 Z" id="PAY" fill="#000000"></path>
                <path d="M264.52,749.42 C264.52,752.060013 263.56001,754.239991 261.64,755.96 C259.879991,757.560008 257.640014,758.559998 254.92,758.96 L254.92,764.3 L252.22,764.9 L252.22,758.96 C249.659987,758.96 247.200012,758.060009 244.84,756.26 C244.079996,755.659997 243.160005,754.760006 242.08,753.56 L244.48,751.28 C245.520005,752.600007 246.709993,753.689996 248.05,754.55 C249.390007,755.410004 250.779993,755.84 252.22,755.84 L252.22,742.82 C249.299985,742.139997 247.120007,741.180006 245.68,739.94 C243.879991,738.379992 242.98,736.200014 242.98,733.4 C242.98,730.679986 243.889991,728.430009 245.71,726.65 C247.530009,724.869991 249.699987,723.98 252.22,723.98 L252.22,720.68 L254.92,720.2 L254.92,723.98 C256.680009,724.180001 258.299993,724.619997 259.78,725.3 C261.260007,725.980003 262.519995,726.959994 263.56,728.24 L261.46,730.76 C260.459995,729.639994 259.500005,728.820003 258.58,728.3 C257.419994,727.619997 256.220006,727.28 254.98,727.28 L254.98,739.52 C257.900015,740.040003 260.159992,741.059992 261.76,742.58 C263.600009,744.300009 264.52,746.579986 264.52,749.42 Z M252.22,739.22 L252.22,727.28 C250.539992,727.28 249.130006,727.889994 247.99,729.11 C246.849994,730.330006 246.28,731.819991 246.28,733.58 C246.28,735.180008 246.839994,736.459995 247.96,737.42 C248.920005,738.260004 250.339991,738.859998 252.22,739.22 Z M261.16,749.6 C261.16,747.879991 260.570006,746.430006 259.39,745.25 C258.209994,744.069994 256.740009,743.360001 254.98,743.12 L254.92,755.84 C256.720009,755.599999 258.209994,754.940005 259.39,753.86 C260.570006,752.779995 261.16,751.360009 261.16,749.6 Z M297.46,723.56 L282.64,763.64 L278.44,764.42 L292.48,727.04 L272.08,727.04 L272.92,723.56 L297.46,723.56 Z M328.54,751.1 C328.54,754.820019 327.290012,758.029986 324.79,760.73 C322.289987,763.430013 319.160019,764.78 315.4,764.78 C310.279974,764.78 306.140016,762.680021 302.98,758.48 L305.62,756.02 C306.980007,757.740009 308.339993,759.019996 309.7,759.86 C311.340008,760.860005 313.15999,761.36 315.16,761.36 C318.040014,761.36 320.369991,760.39001 322.15,758.45 C323.930009,756.50999 324.82,754.140014 324.82,751.34 C324.82,748.499986 323.890009,746.150009 322.03,744.29 C320.169991,742.429991 317.900013,741.5 315.22,741.5 C313.979994,741.5 312.740006,741.679998 311.5,742.04 C310.259994,742.400002 308.720009,743.179994 306.88,744.38 L306.88,723.56 L326.14,723.56 L325.06,727.1 L310.42,727.1 L310.42,739.1 C311.180004,738.779998 311.969996,738.530001 312.79,738.35 C313.610004,738.169999 314.379996,738.08 315.1,738.08 C318.900019,738.08 322.039988,739.199989 324.52,741.44 C327.200013,743.840012 328.54,747.05998 328.54,751.1 Z" id="$75" fill="#000000"></path>
            </g>
        </g>
    </g>
</svg>