<?xml version="1.0" encoding="UTF-8"?>
<svg width="800px" height="480px" viewBox="0 0 800 480" version="1.1" xmlns="http://www.w3.org/2000/svg" xmlns:xlink="http://www.w3.org/1999/xlink">
    <!-- Generator: Sketch 48.2 (47327) - http://www.bohemiancoding.com/sketch -->
    <title>Space/Property/States Avenue</title>
    <desc>Created with Sketch.</desc>
    <defs>
        <rect id="path-1" x="0" y="164" width="480" height="24"></rect>
        <rect id="path-2" x="0" y="0" width="480" height="164"></rect>
        <rect id="path-3" x="0" y="188" width="480" height="612"></rect>
    </defs>
    <g id="Property-Spaces" stroke="none" stroke-width="1" fill="none" fill-rule="evenodd" transform="translate(-83.000000, -1761.000000)">
        <g id="Space/Property/States-Avenue" transform="translate(483.000000, 2001.000000) rotate(90.000000) translate(-483.000000, -2001.000000) translate(243.000000, 1601.000000)">
            <g id="Property-Square">
                <g id="Squared-Black-Separator">
                    <use fill="#000000" fill-rule="evenodd" xlink:href="#path-1"></use>
                    <rect stroke="#000000" stroke-width="1" x="0.5" y="164.5" width="479" height="23"></rect>
                </g>
                <g id="Property-Square/Top-Color/Pink">
                    <g>
                        <use fill="#EF3878" fill-rule="evenodd" xlink:href="#path-2"></use>
                        <rect stroke="#EF3878" stroke-width="1" x="0.5" y="0.5" width="479" height="163"></rect>
                    </g>
                </g>
                <g id="Squared-Teal-Field">
                    <use fill="#CBE8E0" fill-rule="evenodd" xlink:href="#path-3"></use>
                    <rect stroke="#CBE8E0" stroke-width="1" x="0.5" y="188.5" width="479" height="611"></rect>
                </g>
                <path d="M172.89,347.26 C172.89,350.780018 171.640013,353.599989 169.14,355.72 C166.639988,357.840011 163.530019,358.9 159.81,358.9 C156.929986,358.9 154.410011,358.220007 152.25,356.86 C150.569992,355.819995 148.930008,354.180011 147.33,351.94 L150.45,349.36 C151.770007,351.28001 153.069994,352.639996 154.35,353.44 C155.910008,354.440005 157.749989,354.94 159.87,354.94 C162.190012,354.94 164.209991,354.340006 165.93,353.14 C167.85001,351.779993 168.81,349.960011 168.81,347.68 C168.81,344.359983 167.030018,341.960007 163.47,340.48 C160.149983,339.319994 156.850016,338.160006 153.57,337 C149.969982,335.07999 148.17,331.960022 148.17,327.64 C148.17,324.519984 149.379988,321.900011 151.8,319.78 C154.220012,317.659989 157.149983,316.6 160.59,316.6 C162.830011,316.6 164.829991,317.009996 166.59,317.83 C168.350009,318.650004 170.029992,319.899992 171.63,321.58 L168.87,324.52 C167.709994,323.239994 166.440007,322.260003 165.06,321.58 C163.679993,320.899997 162.190008,320.56 160.59,320.56 C158.429989,320.56 156.510008,321.209993 154.83,322.51 C153.149992,323.810006 152.31,325.519989 152.31,327.64 C152.31,330.760016 154.089982,332.999993 157.65,334.36 C160.930016,335.520006 164.229983,336.679994 167.55,337.84 C171.110018,339.76001 172.89,342.899978 172.89,347.26 Z M202.23,321.22 L191.43,321.22 L191.43,357.64 L187.59,358.42 L187.59,321.22 L175.83,321.22 L176.85,317.56 L202.23,317.56 L202.23,321.22 Z M244.47,357.4 L240.63,358.42 L232.47,341.86 L215.73,341.86 L207.33,358.42 L203.49,357.4 L224.19,316.36 L244.47,357.4 Z M230.67,338.2 L224.13,324.58 L217.41,338.2 L230.67,338.2 Z M271.17,321.22 L260.37,321.22 L260.37,357.64 L256.53,358.42 L256.53,321.22 L244.77,321.22 L245.79,317.56 L271.17,317.56 L271.17,321.22 Z M302.49,354.34 L301.53,358 L277.71,358 L277.71,317.56 L300.57,317.56 L301.53,321.16 L281.49,321.16 L281.49,335.74 L298.59,335.74 L298.59,339.4 L281.49,339.4 L281.49,354.34 L302.49,354.34 Z M332.07,347.26 C332.07,350.780018 330.820013,353.599989 328.32,355.72 C325.819988,357.840011 322.710019,358.9 318.99,358.9 C316.109986,358.9 313.590011,358.220007 311.43,356.86 C309.749992,355.819995 308.110008,354.180011 306.51,351.94 L309.63,349.36 C310.950007,351.28001 312.249994,352.639996 313.53,353.44 C315.090008,354.440005 316.929989,354.94 319.05,354.94 C321.370012,354.94 323.389991,354.340006 325.11,353.14 C327.03001,351.779993 327.99,349.960011 327.99,347.68 C327.99,344.359983 326.210018,341.960007 322.65,340.48 C319.329983,339.319994 316.030016,338.160006 312.75,337 C309.149982,335.07999 307.35,331.960022 307.35,327.64 C307.35,324.519984 308.559988,321.900011 310.98,319.78 C313.400012,317.659989 316.329983,316.6 319.77,316.6 C322.010011,316.6 324.009991,317.009996 325.77,317.83 C327.530009,318.650004 329.209992,319.899992 330.81,321.58 L328.05,324.52 C326.889994,323.239994 325.620007,322.260003 324.24,321.58 C322.859993,320.899997 321.370008,320.56 319.77,320.56 C317.609989,320.56 315.690008,321.209993 314.01,322.51 C312.329992,323.810006 311.49,325.519989 311.49,327.64 C311.49,330.760016 313.269982,332.999993 316.83,334.36 C320.110016,335.520006 323.409983,336.679994 326.73,337.84 C330.290018,339.76001 332.07,342.899978 332.07,347.26 Z M169.5,424.4 L165.66,425.42 L157.5,408.86 L140.76,408.86 L132.36,425.42 L128.52,424.4 L149.22,383.36 L169.5,424.4 Z M155.7,405.2 L149.16,391.58 L142.44,405.2 L155.7,405.2 Z M207.18,385.28 L187.98,426.62 L169.5,385.28 L173.28,384.2 L187.98,417.44 L203.4,384.2 L207.18,385.28 Z M237.24,421.34 L236.28,425 L212.46,425 L212.46,384.56 L235.32,384.56 L236.28,388.16 L216.24,388.16 L216.24,402.74 L233.34,402.74 L233.34,406.4 L216.24,406.4 L216.24,421.34 L237.24,421.34 Z M275.28,425.42 L248.22,393.44 L248.22,424.64 L244.44,425.42 L244.44,383.36 L271.68,415.7 L271.68,384.98 L275.28,384.2 L275.28,425.42 Z M314.64,411.92 C314.64,416.120021 313.240014,419.459988 310.44,421.94 C307.799987,424.300012 304.44002,425.48 300.36,425.48 C295.479976,425.48 291.770013,424.290012 289.23,421.91 C286.689987,419.529988 285.42,416.200021 285.42,411.92 L285.42,384.98 L289.2,384.2 L289.2,411.74 C289.2,414.860016 290.16999,417.269991 292.11,418.97 C294.05001,420.670008 296.799982,421.52 300.36,421.52 C303.520016,421.52 306.049991,420.630009 307.95,418.85 C309.85001,417.069991 310.8,414.700015 310.8,411.74 L310.8,384.98 L314.64,384.2 L314.64,411.92 Z M349.5,421.34 L348.54,425 L324.72,425 L324.72,384.56 L347.58,384.56 L348.54,388.16 L328.5,388.16 L328.5,402.74 L345.6,402.74 L345.6,406.4 L328.5,406.4 L328.5,421.34 L349.5,421.34 Z" id="PROPERTY-NAME" fill="#000000"></path>
                <path d="M132.7575,744.75 C132.7575,747.840015 131.617511,750.35999 129.3375,752.31 C127.29749,754.050009 124.972513,754.92 122.3625,754.92 L118.9875,754.92 L118.9875,764.73 L116.1525,765.315 L116.1525,734.58 L121.1475,734.58 C124.417516,734.58 127.132489,735.464991 129.2925,737.235 C131.602512,739.125009 132.7575,741.629984 132.7575,744.75 Z M129.6525,744.705 C129.6525,742.424989 128.857508,740.632507 127.2675,739.3275 C125.677492,738.022493 123.592513,737.37 121.0125,737.37 L118.9875,737.37 L118.9875,752.085 L121.1025,752.085 C123.682513,752.085 125.752492,751.425007 127.3125,750.105 C128.872508,748.784993 129.6525,746.985011 129.6525,744.705 Z M156.1125,764.1 L153.4125,765.405 L141.2175,750.6 L141.2175,764.73 L138.3825,765.315 L138.3825,734.625 L143.3775,734.625 C146.677516,734.625 149.257491,735.404992 151.1175,736.965 C152.977509,738.525008 153.9075,740.804985 153.9075,743.805 C153.9075,746.175012 153.195007,748.139992 151.77,749.7 C150.344993,751.260008 148.61251,752.174999 146.5725,752.445 L156.1125,764.1 Z M150.8475,743.805 C150.8475,741.88499 150.232506,740.340006 149.0025,739.17 C147.772494,737.999994 146.12251,737.415 144.0525,737.415 L141.2175,737.415 L141.2175,750.15 L144.2775,750.15 C146.22751,750.15 147.809994,749.587506 149.025,748.4625 C150.240006,747.337494 150.8475,745.78501 150.8475,743.805 Z M164.3925,764.73 L161.5575,765.315 L161.5575,734.985 L164.3925,734.4 L164.3925,764.73 Z M192.2925,760.455 L191.7525,764.1 C190.822495,764.670003 189.840005,765.089999 188.805,765.36 C187.769995,765.630001 186.562507,765.765 185.1825,765.765 C181.072479,765.765 177.555015,764.160016 174.63,760.95 C171.704985,757.739984 170.2425,754.050021 170.2425,749.88 C170.2425,745.589979 171.697485,741.855016 174.6075,738.675 C177.517515,735.494984 181.102479,733.905 185.3625,733.905 C186.442505,733.905 187.514995,734.017499 188.58,734.2425 C189.645005,734.467501 190.702495,734.819998 191.7525,735.3 L192.2925,738.81 C190.192489,737.519994 187.897512,736.875 185.4075,736.875 C181.867482,736.875 178.942512,738.209987 176.6325,740.88 C174.442489,743.430013 173.3475,746.444983 173.3475,749.925 C173.3475,753.525018 174.517488,756.569988 176.8575,759.06 C179.197512,761.550012 182.002484,762.795 185.2725,762.795 C186.532506,762.795 187.717494,762.622502 188.8275,762.2775 C189.937506,761.932498 191.092494,761.325004 192.2925,760.455 Z M216.3225,762.255 L215.6025,765 L197.7375,765 L197.7375,734.67 L214.8825,734.67 L215.6025,737.37 L200.5725,737.37 L200.5725,748.305 L213.3975,748.305 L213.3975,751.05 L200.5725,751.05 L200.5725,762.255 L216.3225,762.255 Z" id="PRICE" fill="#000000"></path>
                <path d="M264.52,752.42 C264.52,755.060013 263.56001,757.239991 261.64,758.96 C259.879991,760.560008 257.640014,761.559998 254.92,761.96 L254.92,767.3 L252.22,767.9 L252.22,761.96 C249.659987,761.96 247.200012,761.060009 244.84,759.26 C244.079996,758.659997 243.160005,757.760006 242.08,756.56 L244.48,754.28 C245.520005,755.600007 246.709993,756.689996 248.05,757.55 C249.390007,758.410004 250.779993,758.84 252.22,758.84 L252.22,745.82 C249.299985,745.139997 247.120007,744.180006 245.68,742.94 C243.879991,741.379992 242.98,739.200014 242.98,736.4 C242.98,733.679986 243.889991,731.430009 245.71,729.65 C247.530009,727.869991 249.699987,726.98 252.22,726.98 L252.22,723.68 L254.92,723.2 L254.92,726.98 C256.680009,727.180001 258.299993,727.619997 259.78,728.3 C261.260007,728.980003 262.519995,729.959994 263.56,731.24 L261.46,733.76 C260.459995,732.639994 259.500005,731.820003 258.58,731.3 C257.419994,730.619997 256.220006,730.28 254.98,730.28 L254.98,742.52 C257.900015,743.040003 260.159992,744.059992 261.76,745.58 C263.600009,747.300009 264.52,749.579986 264.52,752.42 Z M252.22,742.22 L252.22,730.28 C250.539992,730.28 249.130006,730.889994 247.99,732.11 C246.849994,733.330006 246.28,734.819991 246.28,736.58 C246.28,738.180008 246.839994,739.459995 247.96,740.42 C248.920005,741.260004 250.339991,741.859998 252.22,742.22 Z M261.16,752.6 C261.16,750.879991 260.570006,749.430006 259.39,748.25 C258.209994,747.069994 256.740009,746.360001 254.98,746.12 L254.92,758.84 C256.720009,758.599999 258.209994,757.940005 259.39,756.86 C260.570006,755.779995 261.16,754.360009 261.16,752.6 Z M290.32,766.64 L286.66,767.42 L286.66,731.96 L276.22,737.66 L275.14,735.2 L290.32,725.78 L290.32,766.64 Z M330.34,752.96 L329.62,756.56 L323.32,756.56 L323.32,767.54 L319.72,768.08 L319.72,756.56 L302.68,756.56 L323.32,725.48 L323.32,752.96 L330.34,752.96 Z M319.72,752.96 L319.72,735.98 L308.44,752.96 L319.72,752.96 Z M360.94,746.66 C360.94,751.780026 359.92001,756.35998 357.88,760.4 C355.399988,765.320025 352.020021,767.78 347.74,767.78 C343.339978,767.78 339.980012,765.560022 337.66,761.12 C335.65999,757.319981 334.66,752.480029 334.66,746.6 C334.66,741.279973 335.67999,736.66002 337.72,732.74 C340.120012,728.099977 343.479978,725.78 347.8,725.78 C352.440023,725.78 355.919988,728.219976 358.24,733.1 C360.040009,736.900019 360.94,741.419974 360.94,746.66 Z M357.16,746.66 C357.16,742.099977 356.500007,738.260016 355.18,735.14 C353.499992,731.13998 351.020016,729.14 347.74,729.14 C344.699985,729.14 342.320009,731.15998 340.6,735.2 C339.159993,738.560017 338.44,742.379979 338.44,746.66 C338.44,751.140022 339.079994,754.959984 340.36,758.12 C342.040008,762.280021 344.519984,764.36 347.8,764.36 C350.920016,764.36 353.339991,762.32002 355.06,758.24 C356.460007,754.879983 357.16,751.020022 357.16,746.66 Z" id="$000" fill="#000000"></path>
            </g>
        </g>
    </g>
</svg>