<?xml version="1.0" encoding="UTF-8"?>
<svg width="800px" height="800px" viewBox="0 0 800 800" version="1.1" xmlns="http://www.w3.org/2000/svg" xmlns:xlink="http://www.w3.org/1999/xlink">
    <!-- Generator: Sketch 48.2 (47327) - http://www.bohemiancoding.com/sketch -->
    <title>Space/Corner/Go</title>
    <desc>Created with Sketch.</desc>
    <defs>
        <rect id="path-1" x="0" y="0" width="800" height="800"></rect>
    </defs>
    <g id="Corner-Spaces" stroke="none" stroke-width="1" fill="none" fill-rule="evenodd" transform="translate(-29.000000, -31.000000)">
        <g id="Space/Corner/Go" transform="translate(29.000000, 31.000000)">
            <g id="Rectangle">
                <use fill="#CBE8E0" fill-rule="evenodd" xlink:href="#path-1"></use>
                <rect stroke="#CBE8E0" stroke-width="1" x="0.5" y="0.5" width="799" height="799"></rect>
            </g>
            <g id="Arrow" transform="translate(29.000000, 665.000000)" fill-rule="nonzero">
                <path d="M727.224489,67.2613065 C732.324489,69.2713568 736.224489,72.7889447 739.524489,77.0100503 C741.124489,79.0201005 741.724489,82.638191 740.124489,84.3467337 C738.824489,85.7537688 737.324489,87.361809 735.624489,87.8643216 C733.124489,88.5678392 730.424489,88.6683417 727.724489,88.6683417 C689.724489,88.6683417 651.824489,88.6683417 613.824489,88.6683417 C611.124489,88.6683417 608.424489,88.6683417 605.824489,88.2663317 C603.924489,87.9648241 602.024489,87.0603015 600.324489,86.2562814 C599.124489,85.6532663 598.224489,84.6482412 597.224489,83.7437186 C591.724489,78.919598 586.224489,74.0954774 580.724489,69.2713568 C572.824489,67.2613065 564.824489,68.2663317 556.924489,68.2663317 C413.024489,68.1658291 269.224489,68.1658291 125.324489,68.1658291 C120.024489,68.1658291 114.624489,68.1658291 109.324489,68.1658291 C102.124489,68.2663317 100.624489,69.9748744 100.124489,78.0150754 C99.9244895,82.0351759 99.8244895,86.0552764 99.3244895,89.9748744 C98.9244895,93.6934673 93.8244895,96.6080402 90.1244895,95.201005 C88.2244895,94.4974874 86.4244895,93.5929648 84.6244895,92.7889447 C59.9244895,81.2311558 35.2244895,69.7738693 10.4244895,58.2160804 C8.62448945,57.4120603 6.82448945,56.5075377 5.12448945,55.5025126 C2.22448945,53.6934673 -0.275510546,51.281407 0.0244894539,47.5628141 C0.324489454,43.9447236 2.92448945,41.5326633 6.02448945,40.1256281 C24.1244895,31.6834171 42.2244895,23.4422111 60.4244895,15.201005 C61.0244895,14.8994975 61.7244895,15.1005025 62.4244895,15 C63.9244895,16.9095477 64.5244895,19.120603 64.1244895,21.5326633 C56.6244895,36.3065327 37.6244895,35.9045226 27.1244895,49.1708543 C42.6244895,61.1306533 61.1244895,65.2512563 77.4244895,73.7939698 C82.1244895,76.3065327 86.9244895,75 88.7244895,69.3718593 C93.8244895,53.4924623 106.824489,53.5929648 119.624489,53.5929648 C166.924489,53.3919598 214.224489,53.4924623 261.524489,53.4924623 C358.824489,53.4924623 456.024489,53.5929648 553.324489,53.3919598 C570.424489,53.3919598 586.524489,54.8994975 600.324489,66.3567839 C603.924489,69.2713568 608.124489,71.9849246 612.924489,72.1859296 C649.324489,73.4924623 685.824489,76.7085427 722.024489,70.5778894 C723.524489,69.3718593 725.324489,68.1658291 727.224489,67.2613065 Z" id="Shape" fill="#1C1010"></path>
                <path d="M62.7,20.1407035 C62.5,18.3316583 62.3,16.5226131 62.1,14.7135678 L62,14.8140704 C64.4,12.9045226 68.1,13.5075377 70.2,10.8944724 L70.1,10.8944724 C72.4,8.7839196 76.1,9.38693467 78.2,6.97487437 C81.2,3.25628141 87.3,7.1758794 89.8,2.25125628 L89.5,2.45226131 C91.3,1.84924623 93,1.84924623 94.8,2.45226131 L94.6,2.35175879 C95.2,4.46231156 96.7,5.86934673 98.5,7.1758794 C100.2,13.1055276 100,19.1356784 98.7,25.0653266 C100.5,32.1005025 106.3,29.0854271 110.2,29.0854271 C264.4,29.2864322 418.5,29.2864322 572.7,29.1859296 C576,29.1859296 579.4,29.2864322 582.1,26.9748744 C582.9,25.8693467 583.4,24.5628141 584.4,23.758794 C590.5,18.5326633 596,12.201005 602.9,8.58291457 C610,4.86432161 618.6,7.1758794 626.5,7.07537688 C659.8,6.97487437 693.1,6.97487437 726.4,7.07537688 C729.7,7.07537688 733,7.47738693 736.2,8.18090452 C739.7,8.88442211 742.1,15.5175879 739.8,18.0301508 C737.2,21.0452261 734.5,23.959799 731.5,26.5728643 C724.4,32.7035176 717.1,38.5326633 710,44.4623116 C707.7,46.4723618 707.6,49.2864322 709.6,51.1959799 C712.5,53.9095477 715.3,56.7236181 718.1,59.4371859 C719.6,60.5427136 720.8,62.1507538 722.4,63.1557789 L722.3,63.0552764 C723.5,64.6633166 724.6,66.3718593 726.7,66.9748744 L726.7,66.7738693 C726.3,68.6834171 726,70.6934673 725.6,72.6030151 C709.4,74.5125628 700.1,63.3567839 695.2,51.5979899 C689.9,38.8341709 705.3,33.3065327 713.2,20.8442211 C677.6,21.7487437 644.4,19.2361809 611.1,22.7537688 C609.8,22.8542714 608.3,23.1557789 607.4,24.0603015 C583,46.7738693 552.7,40.9447236 523.9,41.0452261 C391.4,41.2462312 259,41.1457286 126.5,41.0452261 C111.4,41.0452261 95.9,42.9547739 86.5,25.6683417 C81.9,16.8241206 69.9,25.9698492 62.7,20.1407035 Z" id="Shape" fill="#1F0B0B"></path>
                <path d="M582.4062,26.9095477 C581.6062,28.8190955 580.5062,30.6281407 578.4062,30.8291457 C575.1062,31.1306533 571.8062,31.1306533 568.5062,31.1306533 C417.3062,31.1306533 266.1062,31.1306533 115.0062,31.1306533 C111.0062,31.1306533 107.0062,31.2311558 103.0062,30.8291457 C100.0062,30.4271357 98.9062003,27.9145729 99.0062003,25 C101.5062,25.8040201 104.0062,27.1105528 106.6062,27.2110553 C111.9062,27.6130653 117.3062,27.4120603 122.6062,27.4120603 C268.6062,27.4120603 414.5062,27.4120603 560.5062,27.4120603 C567.7062,27.4120603 575.0062,27.1105528 582.4062,26.9095477 Z" id="Shape" fill="#1C1010"></path>
                <path d="M90.6,2.00669138 C90.2,4.6197567 89.1,6.52930444 86.2,6.62980696 C83.8,6.73030947 81.4,6.73030947 79,6.83081198 C81.9,2.91121399 86,1.90618886 90.6,2.00669138 Z" id="Shape" fill="#1C1010"></path>
                <path d="M70.2,11.0073933 C69.1,15.7310114 65.4,15.1279964 62,14.9269913 C63.9,11.8114134 66.8,10.9068908 70.2,11.0073933 Z" id="Shape" fill="#1C1010"></path>
                <path d="M79.1,7.00578118 C77.9,11.5283942 74.3,10.9253792 71,10.9253792 C72.9,8.11130882 75.7,6.90527867 79.1,7.00578118 Z" id="Shape" fill="#1C1010"></path>
                <path d="M95.3,2.26130653 C93.5,2.26130653 91.8,2.26130653 90,2.26130653 C92.7,-0.753768844 92.7,-0.753768844 95.3,2.26130653 Z" id="Shape" fill="#1C1010"></path>
                <path d="M98.9050112,6.8241206 C96.3050112,6.32160804 94.9050112,4.81407035 95.0050112,2 C98.1050112,2.30150754 99.2050112,3.90954774 98.9050112,6.8241206 Z" id="Shape" fill="#1C1010"></path>
                <path d="M723.3,62.718593 C720.9,62.6180905 719.5,61.3115578 719,59 C721.2,59.201005 722.6,60.5075377 723.3,62.718593 Z" id="Shape" fill="#1C1010"></path>
                <path d="M727.4,66.919598 C724.7,66.919598 723.3,65.6130653 723,63 C725.3,63.3015075 726.8,64.6080402 727.4,66.919598 Z" id="Shape" fill="#1C1010"></path>
                <path d="M63.2,20.4054864 C69.4,20.1039789 74.5,16.6868935 80,14.4758382 C81.8,13.7723206 83.5,12.5662904 85.3,11.7622703 C89.8,9.75222009 93.7,11.8627729 93.9,16.3853859 C94.1,21.0085015 94.2,25.7321196 94.4,30.3552352 C94.5,32.7672955 97.1,35.1793558 99.7,35.1793558 C104.4,35.2798583 109,35.3803608 113.7,35.3803608 C265.3,35.3803608 417,35.3803608 568.6,35.3803608 C571.9,35.3803608 575.3,35.2798583 578.6,35.3803608 C582.1,35.4808633 585.1,34.3753357 587.7,31.9632754 C592.5,27.3401598 597.4,22.8175467 602.3,18.2949337 C604.3,16.3853859 606.6,15.2798583 609.4,15.1793558 C612.1,15.1793558 614.7,15.0788533 617.4,15.0788533 C651.3,15.0788533 685.2,15.0788533 719.2,15.0788533 C722.5,15.0788533 725.8,15.2798583 729.2,15.4808633 C728.7,17.189406 728.7,18.8979487 727.9,19.6014663 C723.5,23.6215668 718.8,27.3401598 714.4,31.2597578 C708.9,36.0838784 703.5,41.0085015 698.1,45.9331246 C697.3,46.7371447 697.2,48.2446824 696.9,49.0487025 C703.4,54.8778482 709.9,60.6064914 716.3,66.4356372 C719.3,69.149205 722.4,71.5612653 726.4,72.5662904 C727.1,73.6718181 728.1,74.7773457 728.4,75.9833759 C728.7,76.988401 728.5,78.7974462 727.9,79.1994563 C726.9,79.8024713 725.3,79.7019688 724,79.7019688 C687.4,79.7019688 650.7,79.7019688 614.1,79.8024713 C608.4,79.8024713 603.6,78.7974462 599.7,74.3753357 C597.5,71.8627729 594.9,69.7522201 592.5,67.4406623 C586.4,61.6115166 579.3,59.2999588 570.8,59.4004613 C490.2,59.6014663 409.6,59.5009638 328.9,59.5009638 C256.9,59.5009638 185,59.5009638 113,59.5009638 C109,59.5009638 105,59.5009638 101,59.6014663 C97,59.7019688 94.5,61.9130241 94.3,65.4306121 C94,71.4607628 93.9,77.390411 93.7,83.4205618 C93.6,85.028602 90.8,86.6366422 89.2,86.0336271 C88.6,85.7321196 88,85.5311146 87.4,85.229607 C64.6,74.4758382 41.7,63.8225719 18.9,53.068803 C16.5,51.9632754 14.3,50.5562402 12,49.2497075 C12.9,46.4356372 14.8,44.626592 17.3,43.4205618 C31.1,36.787396 44.8,30.1542301 58.5,23.4205618 C60.2,22.8175467 61.6,21.5110141 63.2,20.4054864 Z" id="Shape" fill="#D92A2F"></path>
            </g>
            <g id="GO-Letters" transform="translate(166.000000, 165.000000)" fill-rule="nonzero">
                <path d="M279.912588,0 C281.212588,0.301507538 282.712588,0.40201005 283.612588,1.10552764 C286.212588,3.11557789 288.812588,5.22613065 291.112588,7.63819095 C348.012588,64.8241206 405.012588,122.01005 461.812588,179.296482 C471.112588,188.643216 471.212588,191.859296 462.312588,200.703518 C427.112588,236.180905 391.812588,271.658291 356.412588,307.035176 C354.112588,309.346734 351.512588,311.557789 348.712588,313.366834 C346.412588,314.773869 343.512588,314.673367 341.112588,313.366834 C339.412588,312.462312 337.712588,311.256281 336.312588,309.949749 C332.912588,306.733668 329.712588,303.417085 326.412588,300.100503 C274.212588,247.638191 222.012588,195.175879 169.812588,142.713568 C166.512588,139.396985 163.212588,136.080402 160.012588,132.763819 C154.612588,127.035176 154.712588,123.015075 160.012588,117.18593 C161.412588,115.678392 162.812588,114.271357 164.212588,112.864322 C198.512588,78.3919598 232.912588,43.8190955 267.212588,9.34673367 C270.012588,6.53266332 273.012588,3.91959799 276.112588,1.40703518 C277.212588,0.40201005 278.712588,0.40201005 279.912588,0 Z" id="Shape" fill="#181010"></path>
                <path d="M328.241918,328.019621 C329.241918,330.632687 329.341918,333.245752 327.341918,335.55731 C325.141918,338.069873 322.941918,340.582436 320.541918,342.893993 C281.141918,382.692988 241.641918,422.391481 202.241918,462.190476 C201.341918,463.094998 200.341918,464.100023 199.441918,465.004546 C191.441918,473.044747 188.641918,472.944245 179.641918,464.502034 C177.741918,462.692988 175.841918,460.783441 173.941918,458.873893 C119.341918,404.100023 64.7419182,349.326154 10.0419182,294.552285 C7.24191824,291.738214 4.44191824,288.823642 1.84191824,285.808566 C-0.758081758,282.893993 -0.558081758,277.768365 2.14191824,274.75329 C5.74191824,270.833692 9.44191824,267.014596 13.2419182,263.195501 C44.6419182,231.436707 76.1419182,199.778415 107.641918,168.019621 C115.141918,160.481933 122.441918,152.642737 130.041918,145.105049 C132.341918,142.793491 135.141918,140.783441 138.041918,139.376405 C139.541918,138.572385 141.841918,139.275903 143.741918,139.476908 C144.341918,139.57741 145.041918,139.878918 145.541918,140.381431 C154.841918,148.924144 164.741918,156.76334 172.441918,166.914094 C173.941918,170.632687 171.641918,172.039722 168.741918,173.044747 C164.441918,173.446757 161.141918,171.235702 157.941918,168.823642 C138.241918,153.94927 138.241918,153.848767 120.341918,171.838717 C90.2419182,202.089973 60.0419182,232.34123 30.0419182,262.592486 C13.2419182,279.57741 13.1419182,279.677913 29.1419182,295.858817 C78.0419182,345.105049 127.241918,393.94927 175.741918,443.597511 C186.641918,454.75329 193.541918,455.356305 204.741918,443.899018 C241.941918,405.607561 279.441918,367.718114 317.641918,330.431682 C320.941918,328.220627 324.141918,326.311079 328.241918,328.019621 Z" id="Shape" fill="#190F0F"></path>
                <path d="M153.042838,228.231156 C150.442838,231.246231 148.042838,234.361809 145.242838,237.175879 C129.642838,252.653266 113.942838,268.130653 98.3428383,283.507538 C95.5428383,286.321608 92.8428383,289.236181 90.0428383,292.150754 C88.8428383,293.457286 88.9428383,296.170854 90.1428383,297.577889 C91.9428383,299.58794 93.6428383,301.59799 95.5428383,303.507538 C120.442838,328.532663 145.442838,353.557789 170.442838,378.482412 C172.342838,380.39196 174.342838,382.100503 176.342838,383.909548 C177.642838,385.115578 180.642838,385.21608 181.842838,384.311558 C182.342838,383.909548 183.042838,383.60804 183.442838,383.105528 C203.242838,363.306533 222.942838,343.507538 242.142838,324.211055 C242.842838,320.291457 240.742838,318.482412 239.042838,316.773869 C234.742838,312.552764 230.442838,308.432161 225.942838,304.512563 C225.242838,303.909548 223.142838,304.01005 222.342838,304.613065 C219.642838,306.522613 217.242838,308.834171 214.842838,311.145729 C207.242838,318.683417 199.842838,326.321608 192.242838,333.758794 C188.442838,337.477387 183.342838,337.678392 179.742838,334.261307 C173.942838,328.733668 168.342838,323.005025 162.642838,317.477387 C147.342838,302.502513 147.542838,302.301508 162.042838,287.829146 C179.942838,269.939698 197.742838,251.849246 215.542838,233.959799 C217.442838,232.050251 219.442838,230.341709 221.442838,228.633166 C223.742838,226.723618 226.342838,227.226131 228.942838,228.231156 C230.642838,232.351759 228.642838,235.668342 226.342838,238.884422 C210.442838,255.969849 193.642838,272.251256 177.142838,288.733668 C168.742838,297.075377 165.742838,304.713568 175.642838,314.160804 C185.842838,323.909548 192.242838,316.472362 198.942838,309.738693 C200.842838,307.829146 202.742838,305.919598 204.642838,304.110553 C223.342838,285.718593 243.842838,290.241206 253.742838,314.663317 C256.442838,321.19598 254.642838,326.623116 250.342838,331.246231 C230.842838,352.351759 210.442838,372.552764 189.742838,392.351759 C182.842838,398.984925 175.442838,399.085427 168.542838,392.351759 C138.842838,363.507538 109.542838,334.361809 81.0428383,304.211055 C76.6428383,299.58794 73.5428383,293.155779 78.6428383,287.929648 C101.242838,264.914573 119.542838,237.075377 149.542838,222 C152.242838,223.005025 154.542838,224.512563 153.042838,228.231156 Z" id="Shape" fill="#190E0E"></path>
                <path d="M225,235.135678 C226.3,232.723618 227.7,230.41206 229,228 C232.8,228 234.7,230.914573 236.9,233.226131 C253.7,250.01005 270.5,266.894472 287.3,283.778894 C299.9,296.442211 312.5,309.005025 325.1,321.668342 C326.9,323.477387 329,325.18593 328.8,328.301508 C326.3,329.60804 323.8,331.015075 321.4,332.321608 C314.2,331.517588 310.1,325.889447 305.5,321.366834 C282.1,298.050251 258.9,274.733668 235.7,251.21608 C231.2,246.492462 225.7,242.371859 225,235.135678 Z" id="Shape" fill="#261616"></path>
                <path d="M152.686593,227.80402 C152.186593,225.492462 150.986593,223.984925 148.586593,223.482412 C146.086593,215.241206 152.086593,210.61809 156.986593,206.899497 C169.386593,197.452261 173.886593,186.19598 168.586593,171.321608 C170.986593,170.819095 172.286593,169.41206 172.786593,167 C179.886593,170.919598 184.886593,177.050251 190.186593,182.979899 C192.386593,185.39196 192.186593,189.41206 189.986593,192.125628 C189.586593,192.628141 189.286593,193.331658 188.786593,193.733668 C176.686593,205.090452 166.086593,217.954774 152.686593,227.80402 Z" id="Shape" fill="#2C1B1B"></path>
                <path d="M460.533869,187.990378 C460.233869,189.196408 460.333869,190.703946 459.633869,191.708971 C458.033869,193.819524 456.133869,195.729071 454.333869,197.638619 C420.933869,231.306961 387.433869,264.8748 354.033869,298.442639 C352.133869,300.352187 350.033869,301.960227 348.033869,303.66877 C346.633869,304.774298 344.133869,304.573293 342.533869,303.166257 C340.033869,300.955202 337.633869,298.643644 335.233869,296.332087 C281.033869,241.859725 226.933869,187.487865 172.733869,133.015504 C170.833869,131.105956 169.033869,129.196408 167.233869,127.186358 C165.433869,125.27681 165.633869,122.261735 167.633869,119.950177 C168.033869,119.447664 168.533869,118.945152 169.033869,118.442639 C204.833869,82.4627398 240.633869,46.4828403 276.433869,10.5029408 C277.333869,9.59841821 278.433869,8.59339309 279.633869,8.19138304 C280.733869,7.8898755 282.433869,7.8898755 283.333869,8.59339309 C286.433869,11.1059559 289.333869,13.9200263 292.133869,16.7340966 C345.333869,70.2014333 398.633869,123.66877 451.833869,177.236609 C454.633869,180.05068 457.333869,183.065755 459.933869,186.08083 C460.233869,186.583343 460.333869,187.387363 460.533869,187.990378 Z" id="Shape" fill="#DA2A2F"></path>
                <path d="M168.325,170.745167 C170.525,176.574312 176.625,179.187378 179.625,184.313006 C180.525,185.820544 180.625,188.433609 179.325,189.840644 C171.525,197.880845 163.625,205.820544 155.825,213.860745 C153.125,216.674815 149.625,218.88587 148.425,222.905971 C146.825,224.011498 144.925,224.916021 143.525,226.323056 C122.625,247.026574 101.825,267.730091 81.025,288.433609 C79.625,289.840644 78.525,291.549187 77.225,293.25773 C78.425,294.966272 79.325,296.775317 80.725,298.182353 C112.825,330.242654 145.025,362.302956 177.225,394.363257 C177.625,394.765267 178.325,394.664765 179.525,394.966272 C181.325,393.458735 183.425,391.850694 185.225,389.941147 C205.525,369.639639 225.725,349.237629 245.925,328.835619 C247.825,326.926071 249.425,324.815518 251.225,322.805468 C252.325,321.498936 252.325,318.684865 250.925,317.27783 C242.925,309.237629 235.025,301.096926 226.925,293.157227 C225.025,291.247679 222.225,291.549187 219.825,293.860745 C211.725,301.900946 203.725,309.941147 195.725,317.880845 C192.925,320.694915 189.925,323.408483 186.925,326.021549 C185.625,327.227579 182.925,327.127076 181.425,325.619539 C174.825,318.986373 168.225,312.453709 161.725,305.720041 C159.325,303.307981 159.525,299.187378 161.925,296.574312 C163.725,294.564262 165.525,292.654714 167.425,290.745167 C184.325,273.65974 201.325,256.574312 218.225,239.589388 C220.125,237.67984 222.225,236.0718 224.225,234.363257 C226.325,235.870795 228.825,237.076825 230.625,238.88587 C259.225,267.529086 287.825,296.172302 316.325,324.916021 C318.125,326.725066 319.225,329.237629 320.625,331.448684 C318.425,333.961247 316.325,336.574312 313.925,338.88587 C275.825,377.27783 237.625,415.66979 199.525,454.06175 C196.725,456.87582 193.825,459.589388 191.125,462.202453 C185.925,460.795418 183.325,456.674815 180.125,453.458735 C152.725,426.021549 125.425,398.584363 98.025,371.147177 C71.125,344.212503 44.225,317.177328 17.425,290.242654 C14.625,287.428584 11.925,284.413508 9.425,281.297931 C8.825,280.49391 8.925,278.684865 9.325,277.579338 C9.725,276.373307 10.725,275.26778 11.625,274.363257 C52.525,233.056725 93.525,191.850694 134.525,150.644664 C135.425,149.740142 136.525,148.936121 137.525,148.031599 C139.125,146.725066 141.525,146.624564 143.025,147.931096 C148.825,153.458735 154.625,158.986373 160.525,164.413508 C163.025,166.825569 165.825,168.634614 168.325,170.745167 Z" id="Shape" fill="#DA2A2F"></path>
                <path d="M338.64376,238.635933 C336.14376,236.223873 333.64376,234.012817 331.34376,231.70126 C302.64376,202.857039 273.94376,174.012817 245.34376,145.168596 C242.54376,142.354526 239.74376,139.439953 237.54376,136.12337 C236.64376,134.816838 237.04376,132.304275 237.44376,130.394727 C237.64376,129.188697 238.74376,128.083169 239.64376,127.078144 C255.14376,111.500255 270.74376,95.9223652 286.34376,80.4449783 C288.24376,78.5354306 291.54376,78.5354306 293.54376,80.3444758 C295.54376,82.153521 297.44376,83.9625662 299.34376,85.872114 C328.54376,115.118345 357.64376,144.465079 386.84376,173.811812 C389.14376,176.12337 391.34376,178.736436 393.14376,181.450003 C393.74376,182.254024 393.34376,184.063069 392.94376,185.168596 C392.54376,186.374627 391.54376,187.480154 390.64376,188.384677 C375.14376,204.063069 359.64376,219.640958 344.04376,235.218848 C342.54376,236.726385 340.64376,237.429903 338.64376,238.635933 Z" id="Shape" fill="#1B1413"></path>
                <path d="M290,89 C292.4,90.7085427 293.6,91.4120603 294.6,92.3165829 C323.3,121.160804 352.1,150.105528 380.8,179.050251 C381.7,179.954774 382.8,181.060302 383.2,182.266332 C383.6,183.371859 383.5,185.080402 382.9,185.984925 C380.9,188.59799 378.6,191.01005 376.2,193.422111 C365.9,203.874372 355.5,214.326633 345.1,224.678392 C340.5,229.301508 338.7,229.201005 333.6,224.075377 C306.2,196.638191 278.9,169.201005 251.6,141.663317 C249.3,139.351759 247.4,136.638191 245,133.723618 C257.6,120.959799 269.9,108.59799 282.1,96.3366834 C284.5,93.9246231 287,91.8140704 290,89 Z" id="Shape" fill="#CBE7DF"></path>
            </g>
            <path d="M117.582539,155.672539 L116.862539,160.532539 C115.622533,161.292543 114.312546,161.852538 112.932539,162.212539 C111.552533,162.572541 109.942549,162.752539 108.102539,162.752539 C102.622512,162.752539 97.9325589,160.612561 94.0325394,156.332539 C90.1325199,152.052518 88.1825394,147.132567 88.1825394,141.572539 C88.1825394,135.852511 90.12252,130.872561 94.0025394,126.632539 C97.8825588,122.392518 102.662511,120.272539 108.342539,120.272539 C109.782547,120.272539 111.212532,120.422538 112.632539,120.722539 C114.052547,121.022541 115.462532,121.492536 116.862539,122.132539 L117.582539,126.812539 C114.782525,125.092531 111.722556,124.232539 108.402539,124.232539 C103.682516,124.232539 99.7825548,126.012522 96.7025394,129.572539 C93.7825248,132.972556 92.3225394,136.992516 92.3225394,141.632539 C92.3225394,146.432563 93.8825238,150.492523 97.0025394,153.812539 C100.122555,157.132556 103.862518,158.792539 108.222539,158.792539 C109.902548,158.792539 111.482532,158.562542 112.962539,158.102539 C114.442547,157.642537 115.982531,156.832545 117.582539,155.672539 Z M165.622539,141.452539 C165.622539,147.172568 163.52256,152.152518 159.322539,156.392539 C155.122518,160.632561 150.162568,162.752539 144.442539,162.752539 C138.56251,162.752539 133.53256,160.68256 129.352539,156.542539 C125.172519,152.402519 123.082539,147.392569 123.082539,141.512539 C123.082539,135.67251 125.162519,130.67256 129.322539,126.512539 C133.48256,122.352519 138.48251,120.272539 144.322539,120.272539 C150.282569,120.272539 155.322519,122.312519 159.442539,126.392539 C163.56256,130.47256 165.622539,135.49251 165.622539,141.452539 Z M161.482539,141.512539 C161.482539,136.592515 159.792556,132.482556 156.412539,129.182539 C153.032523,125.882523 149.022563,124.232539 144.382539,124.232539 C139.622516,124.232539 135.572556,125.922523 132.232539,129.302539 C128.892523,132.682556 127.222539,136.752516 127.222539,141.512539 C127.222539,146.232563 128.902523,150.292522 132.262539,153.692539 C135.622556,157.092556 139.642516,158.792539 144.322539,158.792539 C149.082563,158.792539 153.132523,157.082557 156.472539,153.662539 C159.812556,150.242522 161.482539,146.192563 161.482539,141.512539 Z M194.102539,158.072539 L192.782539,161.732539 L174.422539,161.732539 L174.422539,121.712539 L178.202539,120.932539 L178.202539,158.072539 L194.102539,158.072539 Z M220.482539,158.072539 L219.162539,161.732539 L200.802539,161.732539 L200.802539,121.712539 L204.582539,120.932539 L204.582539,158.072539 L220.482539,158.072539 Z M251.962539,158.072539 L251.002539,161.732539 L227.182539,161.732539 L227.182539,121.292539 L250.042539,121.292539 L251.002539,124.892539 L230.962539,124.892539 L230.962539,139.472539 L248.062539,139.472539 L248.062539,143.132539 L230.962539,143.132539 L230.962539,158.072539 L251.962539,158.072539 Z M286.862539,155.672539 L286.142539,160.532539 C284.902533,161.292543 283.592546,161.852538 282.212539,162.212539 C280.832533,162.572541 279.222549,162.752539 277.382539,162.752539 C271.902512,162.752539 267.212559,160.612561 263.312539,156.332539 C259.41252,152.052518 257.462539,147.132567 257.462539,141.572539 C257.462539,135.852511 259.40252,130.872561 263.282539,126.632539 C267.162559,122.392518 271.942511,120.272539 277.622539,120.272539 C279.062547,120.272539 280.492532,120.422538 281.912539,120.722539 C283.332547,121.022541 284.742532,121.492536 286.142539,122.132539 L286.862539,126.812539 C284.062525,125.092531 281.002556,124.232539 277.682539,124.232539 C272.962516,124.232539 269.062555,126.012522 265.982539,129.572539 C263.062525,132.972556 261.602539,136.992516 261.602539,141.632539 C261.602539,146.432563 263.162524,150.492523 266.282539,153.812539 C269.402555,157.132556 273.142518,158.792539 277.502539,158.792539 C279.182548,158.792539 280.762532,158.562542 282.242539,158.102539 C283.722547,157.642537 285.262531,156.832545 286.862539,155.672539 Z M316.542539,124.952539 L305.742539,124.952539 L305.742539,161.372539 L301.902539,162.152539 L301.902539,124.952539 L290.142539,124.952539 L291.162539,121.292539 L316.542539,121.292539 L316.542539,124.952539 Z M52.1025394,214.152539 C52.1025394,216.792553 51.142549,218.972531 49.2225394,220.692539 C47.4625306,222.292547 45.222553,223.292537 42.5025394,223.692539 L42.5025394,229.032539 L39.8025394,229.632539 L39.8025394,223.692539 C37.2425266,223.692539 34.7825512,222.792548 32.4225394,220.992539 C31.6625356,220.392536 30.7425448,219.492545 29.6625394,218.292539 L32.0625394,216.012539 C33.1025446,217.332546 34.2925327,218.422535 35.6325394,219.282539 C36.9725461,220.142544 38.3625322,220.572539 39.8025394,220.572539 L39.8025394,207.552539 C36.8825248,206.872536 34.7025466,205.912546 33.2625394,204.672539 C31.4625304,203.112532 30.5625394,200.932553 30.5625394,198.132539 C30.5625394,195.412526 31.4725303,193.162548 33.2925394,191.382539 C35.1125485,189.602531 37.2825268,188.712539 39.8025394,188.712539 L39.8025394,185.412539 L42.5025394,184.932539 L42.5025394,188.712539 C44.2625482,188.91254 45.882532,189.352536 47.3625394,190.032539 C48.8425468,190.712543 50.1025342,191.692533 51.1425394,192.972539 L49.0425394,195.492539 C48.0425344,194.372534 47.082544,193.552542 46.1625394,193.032539 C45.0025336,192.352536 43.8025456,192.012539 42.5625394,192.012539 L42.5625394,204.252539 C45.482554,204.772542 47.7425314,205.792532 49.3425394,207.312539 C51.1825486,209.032548 52.1025394,211.312525 52.1025394,214.152539 Z M39.8025394,203.952539 L39.8025394,192.012539 C38.122531,192.012539 36.7125451,192.622533 35.5725394,193.842539 C34.4325337,195.062546 33.8625394,196.552531 33.8625394,198.312539 C33.8625394,199.912547 34.4225338,201.192535 35.5425394,202.152539 C36.5025442,202.992544 37.92253,203.592538 39.8025394,203.952539 Z M48.7425394,214.332539 C48.7425394,212.612531 48.1525453,211.162545 46.9725394,209.982539 C45.7925335,208.802534 44.3225482,208.092541 42.5625394,207.852539 L42.5025394,220.572539 C44.3025484,220.332538 45.7925335,219.672545 46.9725394,218.592539 C48.1525453,217.512534 48.7425394,216.092548 48.7425394,214.332539 Z M86.5825394,200.172539 C86.5825394,202.852553 85.5825494,205.752524 83.5825394,208.872539 C82.102532,211.192551 79.7825552,213.972523 76.6225394,217.212539 L68.7025394,225.132539 L86.5225394,225.132539 L85.8025394,228.732539 L61.0225394,228.732539 L77.3425394,211.332539 C79.5425504,208.972528 81.0625352,206.812549 81.9025394,204.852539 C82.5025424,203.412532 82.8025394,201.852548 82.8025394,200.172539 C82.8025394,197.572526 81.9125483,195.402548 80.1325394,193.662539 C78.3525305,191.922531 76.2625514,191.052539 73.8625394,191.052539 C71.3425268,191.052539 69.222548,191.912531 67.5025394,193.632539 C65.7825308,195.352548 64.9225394,197.452527 64.9225394,199.932539 C64.9225394,202.492552 65.7025316,204.652531 67.2625394,206.412539 C68.8225472,208.172548 71.0225252,209.272537 73.8625394,209.712539 L71.3425394,212.652539 C68.1825236,211.932536 65.6925485,210.442551 63.8725394,208.182539 C62.0525303,205.922528 61.1425394,203.112556 61.1425394,199.752539 C61.1425394,196.472523 62.4325265,193.642551 65.0125394,191.262539 C67.5925523,188.882528 70.6825214,187.692539 74.2825394,187.692539 C77.8825574,187.692539 80.8625276,188.992526 83.2225394,191.592539 C85.4625506,194.032552 86.5825394,196.892523 86.5825394,200.172539 Z M119.202539,208.392539 C119.202539,213.512565 118.18255,218.092519 116.142539,222.132539 C113.662527,227.052564 110.282561,229.512539 106.002539,229.512539 C101.602517,229.512539 98.242551,227.292562 95.9225394,222.852539 C93.9225294,219.05252 92.9225394,214.212569 92.9225394,208.332539 C92.9225394,203.012513 93.9425292,198.392559 95.9825394,194.472539 C98.3825514,189.832516 101.742518,187.512539 106.062539,187.512539 C110.702563,187.512539 114.182528,189.952515 116.502539,194.832539 C118.302548,198.632558 119.202539,203.152513 119.202539,208.392539 Z M115.422539,208.392539 C115.422539,203.832517 114.762546,199.992555 113.442539,196.872539 C111.762531,192.872519 109.282556,190.872539 106.002539,190.872539 C102.962524,190.872539 100.582548,192.892519 98.8625394,196.932539 C97.4225322,200.292556 96.7025394,204.112518 96.7025394,208.392539 C96.7025394,212.872562 97.342533,216.692524 98.6225394,219.852539 C100.302548,224.01256 102.782523,226.092539 106.062539,226.092539 C109.182555,226.092539 111.602531,224.05256 113.322539,219.972539 C114.722546,216.612523 115.422539,212.752561 115.422539,208.392539 Z M151.522539,208.392539 C151.522539,213.512565 150.50255,218.092519 148.462539,222.132539 C145.982527,227.052564 142.602561,229.512539 138.322539,229.512539 C133.922517,229.512539 130.562551,227.292562 128.242539,222.852539 C126.242529,219.05252 125.242539,214.212569 125.242539,208.332539 C125.242539,203.012513 126.262529,198.392559 128.302539,194.472539 C130.702551,189.832516 134.062518,187.512539 138.382539,187.512539 C143.022563,187.512539 146.502528,189.952515 148.822539,194.832539 C150.622548,198.632558 151.522539,203.152513 151.522539,208.392539 Z M147.742539,208.392539 C147.742539,203.832517 147.082546,199.992555 145.762539,196.872539 C144.082531,192.872519 141.602556,190.872539 138.322539,190.872539 C135.282524,190.872539 132.902548,192.892519 131.182539,196.932539 C129.742532,200.292556 129.022539,204.112518 129.022539,208.392539 C129.022539,212.872562 129.662533,216.692524 130.942539,219.852539 C132.622548,224.01256 135.102523,226.092539 138.382539,226.092539 C141.502555,226.092539 143.922531,224.05256 145.642539,219.972539 C147.042546,216.612523 147.742539,212.752561 147.742539,208.392539 Z M200.382539,217.992539 C200.382539,221.512557 199.132552,224.332529 196.632539,226.452539 C194.132527,228.57255 191.022558,229.632539 187.302539,229.632539 C184.422525,229.632539 181.90255,228.952546 179.742539,227.592539 C178.062531,226.552534 176.422547,224.912551 174.822539,222.672539 L177.942539,220.092539 C179.262546,222.012549 180.562533,223.372535 181.842539,224.172539 C183.402547,225.172544 185.242529,225.672539 187.362539,225.672539 C189.682551,225.672539 191.702531,225.072545 193.422539,223.872539 C195.342549,222.512533 196.302539,220.692551 196.302539,218.412539 C196.302539,215.092523 194.522557,212.692547 190.962539,211.212539 C187.642523,210.052534 184.342556,208.892545 181.062539,207.732539 C177.462521,205.81253 175.662539,202.692561 175.662539,198.372539 C175.662539,195.252524 176.872527,192.63255 179.292539,190.512539 C181.712552,188.392529 184.642522,187.332539 188.082539,187.332539 C190.322551,187.332539 192.322531,187.742535 194.082539,188.562539 C195.842548,189.382544 197.522531,190.632531 199.122539,192.312539 L196.362539,195.252539 C195.202534,193.972533 193.932546,192.992543 192.552539,192.312539 C191.172533,191.632536 189.682547,191.292539 188.082539,191.292539 C185.922529,191.292539 184.002548,191.942533 182.322539,193.242539 C180.642531,194.542546 179.802539,196.252529 179.802539,198.372539 C179.802539,201.492555 181.582522,203.732533 185.142539,205.092539 C188.422556,206.252545 191.722523,207.412534 195.042539,208.572539 C198.602557,210.492549 200.382539,213.632518 200.382539,217.992539 Z M245.002539,228.132539 L241.162539,229.152539 L233.002539,212.592539 L216.262539,212.592539 L207.862539,229.152539 L204.022539,228.132539 L224.722539,187.092539 L245.002539,228.132539 Z M231.202539,208.932539 L224.662539,195.312539 L217.942539,208.932539 L231.202539,208.932539 Z M270.962539,225.072539 L269.642539,228.732539 L251.282539,228.732539 L251.282539,188.712539 L255.062539,187.932539 L255.062539,225.072539 L270.962539,225.072539 Z M313.362539,228.132539 L309.522539,229.152539 L301.362539,212.592539 L284.622539,212.592539 L276.222539,229.152539 L272.382539,228.132539 L293.082539,187.092539 L313.362539,228.132539 Z M299.562539,208.932539 L293.022539,195.312539 L286.302539,208.932539 L299.562539,208.932539 Z M343.282539,227.532539 L339.682539,229.272539 L323.422539,209.532539 L323.422539,228.372539 L319.642539,229.152539 L319.642539,188.232539 L326.302539,188.232539 C330.702561,188.232539 334.142527,189.272529 336.622539,191.352539 C339.102552,193.43255 340.342539,196.472519 340.342539,200.472539 C340.342539,203.632555 339.392549,206.252529 337.492539,208.332539 C335.59253,210.41255 333.282553,211.632538 330.562539,211.992539 L343.282539,227.532539 Z M336.262539,200.472539 C336.262539,197.912527 335.442548,195.852547 333.802539,194.292539 C332.162531,192.732532 329.962553,191.952539 327.202539,191.952539 L323.422539,191.952539 L323.422539,208.932539 L327.502539,208.932539 C330.102552,208.932539 332.212531,208.182547 333.832539,206.682539 C335.452548,205.182532 336.262539,203.112553 336.262539,200.472539 Z M378.302539,188.712539 L357.182539,229.512539 L353.162539,228.312539 L360.962539,213.732539 L346.262539,188.712539 L350.282539,187.692539 L363.122539,209.592539 L374.522539,187.692539 L378.302539,188.712539 Z M63.6825394,295.132539 L59.8425394,296.152539 L51.6825394,279.592539 L34.9425394,279.592539 L26.5425394,296.152539 L22.7025394,295.132539 L43.4025394,254.092539 L63.6825394,295.132539 Z M49.8825394,275.932539 L43.3425394,262.312539 L36.6225394,275.932539 L49.8825394,275.932539 Z M92.2825394,284.992539 C92.2825394,288.512557 91.0325519,291.332529 88.5325394,293.452539 C86.0325269,295.57255 82.922558,296.632539 79.2025394,296.632539 C76.322525,296.632539 73.8025502,295.952546 71.6425394,294.592539 C69.962531,293.552534 68.3225474,291.912551 66.7225394,289.672539 L69.8425394,287.092539 C71.162546,289.012549 72.462533,290.372535 73.7425394,291.172539 C75.3025472,292.172544 77.1425288,292.672539 79.2625394,292.672539 C81.582551,292.672539 83.6025308,292.072545 85.3225394,290.872539 C87.242549,289.512533 88.2025394,287.692551 88.2025394,285.412539 C88.2025394,282.092523 86.4225572,279.692547 82.8625394,278.212539 C79.5425228,277.052534 76.2425558,275.892545 72.9625394,274.732539 C69.3625214,272.81253 67.5625394,269.692561 67.5625394,265.372539 C67.5625394,262.252524 68.7725273,259.63255 71.1925394,257.512539 C73.6125515,255.392529 76.5425222,254.332539 79.9825394,254.332539 C82.2225506,254.332539 84.2225306,254.742535 85.9825394,255.562539 C87.7425482,256.382544 89.4225314,257.632531 91.0225394,259.312539 L88.2625394,262.252539 C87.1025336,260.972533 85.8325463,259.992543 84.4525394,259.312539 C83.0725325,258.632536 81.5825474,258.292539 79.9825394,258.292539 C77.8225286,258.292539 75.9025478,258.942533 74.2225394,260.242539 C72.542531,261.542546 71.7025394,263.252529 71.7025394,265.372539 C71.7025394,268.492555 73.4825216,270.732533 77.0425394,272.092539 C80.3225558,273.252545 83.6225228,274.412534 86.9425394,275.572539 C90.5025572,277.492549 92.2825394,280.632518 92.2825394,284.992539 Z M145.762539,255.712539 L124.642539,296.512539 L120.622539,295.312539 L128.422539,280.732539 L113.722539,255.712539 L117.742539,254.692539 L130.582539,276.592539 L141.982539,254.692539 L145.762539,255.712539 Z M191.402539,275.452539 C191.402539,281.172568 189.30256,286.152518 185.102539,290.392539 C180.902518,294.632561 175.942568,296.752539 170.222539,296.752539 C164.34251,296.752539 159.31256,294.68256 155.132539,290.542539 C150.952519,286.402519 148.862539,281.392569 148.862539,275.512539 C148.862539,269.67251 150.942519,264.67256 155.102539,260.512539 C159.26256,256.352519 164.26251,254.272539 170.102539,254.272539 C176.062569,254.272539 181.102519,256.312519 185.222539,260.392539 C189.34256,264.47256 191.402539,269.49251 191.402539,275.452539 Z M187.262539,275.512539 C187.262539,270.592515 185.572556,266.482556 182.192539,263.182539 C178.812523,259.882523 174.802563,258.232539 170.162539,258.232539 C165.402516,258.232539 161.352556,259.922523 158.012539,263.302539 C154.672523,266.682556 153.002539,270.752516 153.002539,275.512539 C153.002539,280.232563 154.682523,284.292522 158.042539,287.692539 C161.402556,291.092556 165.422516,292.792539 170.102539,292.792539 C174.862563,292.792539 178.912523,291.082557 182.252539,287.662539 C185.592556,284.242522 187.262539,280.192563 187.262539,275.512539 Z M229.062539,282.652539 C229.062539,286.85256 227.662553,290.192527 224.862539,292.672539 C222.222526,295.032551 218.86256,296.212539 214.782539,296.212539 C209.902515,296.212539 206.192552,295.022551 203.652539,292.642539 C201.112527,290.262528 199.842539,286.932561 199.842539,282.652539 L199.842539,255.712539 L203.622539,254.932539 L203.622539,282.472539 C203.622539,285.592555 204.59253,288.002531 206.532539,289.702539 C208.472549,291.402548 211.222522,292.252539 214.782539,292.252539 C217.942555,292.252539 220.47253,291.362548 222.372539,289.582539 C224.272549,287.802531 225.222539,285.432554 225.222539,282.472539 L225.222539,255.712539 L229.062539,254.932539 L229.062539,282.652539 Z M280.082539,268.732539 C280.082539,272.85256 278.562555,276.212526 275.522539,278.812539 C272.802526,281.132551 269.702557,282.292539 266.222539,282.292539 L261.722539,282.292539 L261.722539,295.372539 L257.942539,296.152539 L257.942539,255.172539 L264.602539,255.172539 C268.962561,255.172539 272.582525,256.352528 275.462539,258.712539 C278.542555,261.232552 280.082539,264.572519 280.082539,268.732539 Z M275.942539,268.672539 C275.942539,265.632524 274.88255,263.242548 272.762539,261.502539 C270.642529,259.762531 267.862557,258.892539 264.422539,258.892539 L261.722539,258.892539 L261.722539,278.512539 L264.542539,278.512539 C267.982557,278.512539 270.742529,277.632548 272.822539,275.872539 C274.90255,274.112531 275.942539,271.712555 275.942539,268.672539 Z M318.282539,295.132539 L314.442539,296.152539 L306.282539,279.592539 L289.542539,279.592539 L281.142539,296.152539 L277.302539,295.132539 L298.002539,254.092539 L318.282539,295.132539 Z M304.482539,275.932539 L297.942539,262.312539 L291.222539,275.932539 L304.482539,275.932539 Z M346.882539,284.992539 C346.882539,288.512557 345.632552,291.332529 343.132539,293.452539 C340.632527,295.57255 337.522558,296.632539 333.802539,296.632539 C330.922525,296.632539 328.40255,295.952546 326.242539,294.592539 C324.562531,293.552534 322.922547,291.912551 321.322539,289.672539 L324.442539,287.092539 C325.762546,289.012549 327.062533,290.372535 328.342539,291.172539 C329.902547,292.172544 331.742529,292.672539 333.862539,292.672539 C336.182551,292.672539 338.202531,292.072545 339.922539,290.872539 C341.842549,289.512533 342.802539,287.692551 342.802539,285.412539 C342.802539,282.092523 341.022557,279.692547 337.462539,278.212539 C334.142523,277.052534 330.842556,275.892545 327.562539,274.732539 C323.962521,272.81253 322.162539,269.692561 322.162539,265.372539 C322.162539,262.252524 323.372527,259.63255 325.792539,257.512539 C328.212552,255.392529 331.142522,254.332539 334.582539,254.332539 C336.822551,254.332539 338.822531,254.742535 340.582539,255.562539 C342.342548,256.382544 344.022531,257.632531 345.622539,259.312539 L342.862539,262.252539 C341.702534,260.972533 340.432546,259.992543 339.052539,259.312539 C337.672533,258.632536 336.182547,258.292539 334.582539,258.292539 C332.422529,258.292539 330.502548,258.942533 328.822539,260.242539 C327.142531,261.542546 326.302539,263.252529 326.302539,265.372539 C326.302539,268.492555 328.082522,270.732533 331.642539,272.092539 C334.922556,273.252545 338.222523,274.412534 341.542539,275.572539 C345.102557,277.492549 346.882539,280.632518 346.882539,284.992539 Z M378.122539,284.992539 C378.122539,288.512557 376.872552,291.332529 374.372539,293.452539 C371.872527,295.57255 368.762558,296.632539 365.042539,296.632539 C362.162525,296.632539 359.64255,295.952546 357.482539,294.592539 C355.802531,293.552534 354.162547,291.912551 352.562539,289.672539 L355.682539,287.092539 C357.002546,289.012549 358.302533,290.372535 359.582539,291.172539 C361.142547,292.172544 362.982529,292.672539 365.102539,292.672539 C367.422551,292.672539 369.442531,292.072545 371.162539,290.872539 C373.082549,289.512533 374.042539,287.692551 374.042539,285.412539 C374.042539,282.092523 372.262557,279.692547 368.702539,278.212539 C365.382523,277.052534 362.082556,275.892545 358.802539,274.732539 C355.202521,272.81253 353.402539,269.692561 353.402539,265.372539 C353.402539,262.252524 354.612527,259.63255 357.032539,257.512539 C359.452552,255.392529 362.382522,254.332539 365.822539,254.332539 C368.062551,254.332539 370.062531,254.742535 371.822539,255.562539 C373.582548,256.382544 375.262531,257.632531 376.862539,259.312539 L374.102539,262.252539 C372.942534,260.972533 371.672546,259.992543 370.292539,259.312539 C368.912533,258.632536 367.422547,258.292539 365.822539,258.292539 C363.662529,258.292539 361.742548,258.942533 360.062539,260.242539 C358.382531,261.542546 357.542539,263.252529 357.542539,265.372539 C357.542539,268.492555 359.322522,270.732533 362.882539,272.092539 C366.162556,273.252545 369.462523,274.412534 372.782539,275.572539 C376.342557,277.492549 378.122539,280.632518 378.122539,284.992539 Z" id="COLLECT-$200-SALARY-AS-YOU-PASS" fill="#000000" transform="translate(200.502539, 208.512539) rotate(-45.000000) translate(-200.502539, -208.512539) "></path>
        </g>
    </g>
</svg>