<?xml version="1.0" encoding="UTF-8"?>
<svg width="480px" height="800px" viewBox="0 0 480 800" version="1.1" xmlns="http://www.w3.org/2000/svg" xmlns:xlink="http://www.w3.org/1999/xlink">
    <!-- Generator: Sketch 48.2 (47327) - http://www.bohemiancoding.com/sketch -->
    <title>Space/Property/Baltic Avenue</title>
    <desc>Created with Sketch.</desc>
    <defs>
        <rect id="path-1" x="0" y="164" width="480" height="24"></rect>
        <rect id="path-2" x="0" y="0" width="480" height="164"></rect>
        <rect id="path-3" x="0" y="188" width="480" height="612"></rect>
    </defs>
    <g id="Property-Spaces" stroke="none" stroke-width="1" fill="none" fill-rule="evenodd" transform="translate(-636.000000, -66.000000)">
        <g id="Space/Property/Baltic-Avenue" transform="translate(636.000000, 66.000000)">
            <g id="Squared-Black-Separator">
                <use fill="#000000" fill-rule="evenodd" xlink:href="#path-1"></use>
                <rect stroke="#000000" stroke-width="1" x="0.5" y="164.5" width="479" height="23"></rect>
            </g>
            <g id="Property-Square/Top-Color/Purple">
                <g>
                    <use fill="#590C38" fill-rule="evenodd" xlink:href="#path-2"></use>
                    <rect stroke="#590C38" stroke-width="1" x="0.5" y="0.5" width="479" height="163"></rect>
                </g>
            </g>
            <g id="Squared-Teal-Field">
                <use fill="#CBE8E0" fill-rule="evenodd" xlink:href="#path-3"></use>
                <rect stroke="#CBE8E0" stroke-width="1" x="0.5" y="188.5" width="479" height="611"></rect>
            </g>
            <path d="M182.07,346.84 C182.07,350.84002 180.550015,353.79999 177.51,355.72 C175.109988,357.240008 172.090018,358 168.45,358 L157.95,358 L157.95,317.56 L169.17,317.56 C171.930014,317.56 174.449989,318.339992 176.73,319.9 C179.490014,321.780009 180.87,324.319984 180.87,327.52 C180.87,329.680011 180.400005,331.519992 179.46,333.04 C178.519995,334.560008 177.110009,335.859995 175.23,336.94 C179.790023,339.140011 182.07,342.439978 182.07,346.84 Z M176.73,328 C176.73,325.879989 175.920008,324.210006 174.3,322.99 C172.679992,321.769994 170.770011,321.16 168.57,321.16 L161.73,321.16 L161.73,335.44 L167.79,335.44 C170.470013,335.44 172.589992,334.840006 174.15,333.64 C175.870009,332.319993 176.73,330.440012 176.73,328 Z M177.87,347.14 C177.87,341.779973 174.490034,339.1 167.73,339.1 L161.73,339.1 L161.73,354.34 L168.27,354.34 C170.990014,354.34 173.169992,353.860005 174.81,352.9 C176.85001,351.699994 177.87,349.780013 177.87,347.14 Z M225.75,357.4 L221.91,358.42 L213.75,341.86 L197.01,341.86 L188.61,358.42 L184.77,357.4 L205.47,316.36 L225.75,357.4 Z M211.95,338.2 L205.41,324.58 L198.69,338.2 L211.95,338.2 Z M250.71,354.34 L249.39,358 L231.03,358 L231.03,317.98 L234.81,317.2 L234.81,354.34 L250.71,354.34 Z M277.83,321.22 L267.03,321.22 L267.03,357.64 L263.19,358.42 L263.19,321.22 L251.43,321.22 L252.45,317.56 L277.83,317.56 L277.83,321.22 Z M288.15,357.64 L284.37,358.42 L284.37,317.98 L288.15,317.2 L288.15,357.64 Z M325.35,351.94 L324.63,356.8 C323.389994,357.560004 322.080007,358.119998 320.7,358.48 C319.319993,358.840002 317.710009,359.02 315.87,359.02 C310.389973,359.02 305.70002,356.880021 301.8,352.6 C297.89998,348.319979 295.95,343.400028 295.95,337.84 C295.95,332.119971 297.889981,327.140021 301.77,322.9 C305.650019,318.659979 310.429972,316.54 316.11,316.54 C317.550007,316.54 318.979993,316.689999 320.4,316.99 C321.820007,317.290002 323.229993,317.759997 324.63,318.4 L325.35,323.08 C322.549986,321.359991 319.490017,320.5 316.17,320.5 C311.449976,320.5 307.550015,322.279982 304.47,325.84 C301.549985,329.240017 300.09,333.259977 300.09,337.9 C300.09,342.700024 301.649984,346.759983 304.77,350.08 C307.890016,353.400017 311.629978,355.06 315.99,355.06 C317.670008,355.06 319.249993,354.830002 320.73,354.37 C322.210007,353.909998 323.749992,353.100006 325.35,351.94 Z M169.5,424.4 L165.66,425.42 L157.5,408.86 L140.76,408.86 L132.36,425.42 L128.52,424.4 L149.22,383.36 L169.5,424.4 Z M155.7,405.2 L149.16,391.58 L142.44,405.2 L155.7,405.2 Z M207.18,385.28 L187.98,426.62 L169.5,385.28 L173.28,384.2 L187.98,417.44 L203.4,384.2 L207.18,385.28 Z M237.24,421.34 L236.28,425 L212.46,425 L212.46,384.56 L235.32,384.56 L236.28,388.16 L216.24,388.16 L216.24,402.74 L233.34,402.74 L233.34,406.4 L216.24,406.4 L216.24,421.34 L237.24,421.34 Z M275.28,425.42 L248.22,393.44 L248.22,424.64 L244.44,425.42 L244.44,383.36 L271.68,415.7 L271.68,384.98 L275.28,384.2 L275.28,425.42 Z M314.64,411.92 C314.64,416.120021 313.240014,419.459988 310.44,421.94 C307.799987,424.300012 304.44002,425.48 300.36,425.48 C295.479976,425.48 291.770013,424.290012 289.23,421.91 C286.689987,419.529988 285.42,416.200021 285.42,411.92 L285.42,384.98 L289.2,384.2 L289.2,411.74 C289.2,414.860016 290.16999,417.269991 292.11,418.97 C294.05001,420.670008 296.799982,421.52 300.36,421.52 C303.520016,421.52 306.049991,420.630009 307.95,418.85 C309.85001,417.069991 310.8,414.700015 310.8,411.74 L310.8,384.98 L314.64,384.2 L314.64,411.92 Z M349.5,421.34 L348.54,425 L324.72,425 L324.72,384.56 L347.58,384.56 L348.54,388.16 L328.5,388.16 L328.5,402.74 L345.6,402.74 L345.6,406.4 L328.5,406.4 L328.5,421.34 L349.5,421.34 Z" id="PROPERTY-NAME" fill="#000000"></path>
            <path d="M132.7575,744.75 C132.7575,747.840015 131.617511,750.35999 129.3375,752.31 C127.29749,754.050009 124.972513,754.92 122.3625,754.92 L118.9875,754.92 L118.9875,764.73 L116.1525,765.315 L116.1525,734.58 L121.1475,734.58 C124.417516,734.58 127.132489,735.464991 129.2925,737.235 C131.602512,739.125009 132.7575,741.629984 132.7575,744.75 Z M129.6525,744.705 C129.6525,742.424989 128.857508,740.632507 127.2675,739.3275 C125.677492,738.022493 123.592513,737.37 121.0125,737.37 L118.9875,737.37 L118.9875,752.085 L121.1025,752.085 C123.682513,752.085 125.752492,751.425007 127.3125,750.105 C128.872508,748.784993 129.6525,746.985011 129.6525,744.705 Z M156.1125,764.1 L153.4125,765.405 L141.2175,750.6 L141.2175,764.73 L138.3825,765.315 L138.3825,734.625 L143.3775,734.625 C146.677516,734.625 149.257491,735.404992 151.1175,736.965 C152.977509,738.525008 153.9075,740.804985 153.9075,743.805 C153.9075,746.175012 153.195007,748.139992 151.77,749.7 C150.344993,751.260008 148.61251,752.174999 146.5725,752.445 L156.1125,764.1 Z M150.8475,743.805 C150.8475,741.88499 150.232506,740.340006 149.0025,739.17 C147.772494,737.999994 146.12251,737.415 144.0525,737.415 L141.2175,737.415 L141.2175,750.15 L144.2775,750.15 C146.22751,750.15 147.809994,749.587506 149.025,748.4625 C150.240006,747.337494 150.8475,745.78501 150.8475,743.805 Z M164.3925,764.73 L161.5575,765.315 L161.5575,734.985 L164.3925,734.4 L164.3925,764.73 Z M192.2925,760.455 L191.7525,764.1 C190.822495,764.670003 189.840005,765.089999 188.805,765.36 C187.769995,765.630001 186.562507,765.765 185.1825,765.765 C181.072479,765.765 177.555015,764.160016 174.63,760.95 C171.704985,757.739984 170.2425,754.050021 170.2425,749.88 C170.2425,745.589979 171.697485,741.855016 174.6075,738.675 C177.517515,735.494984 181.102479,733.905 185.3625,733.905 C186.442505,733.905 187.514995,734.017499 188.58,734.2425 C189.645005,734.467501 190.702495,734.819998 191.7525,735.3 L192.2925,738.81 C190.192489,737.519994 187.897512,736.875 185.4075,736.875 C181.867482,736.875 178.942512,738.209987 176.6325,740.88 C174.442489,743.430013 173.3475,746.444983 173.3475,749.925 C173.3475,753.525018 174.517488,756.569988 176.8575,759.06 C179.197512,761.550012 182.002484,762.795 185.2725,762.795 C186.532506,762.795 187.717494,762.622502 188.8275,762.2775 C189.937506,761.932498 191.092494,761.325004 192.2925,760.455 Z M216.3225,762.255 L215.6025,765 L197.7375,765 L197.7375,734.67 L214.8825,734.67 L215.6025,737.37 L200.5725,737.37 L200.5725,748.305 L213.3975,748.305 L213.3975,751.05 L200.5725,751.05 L200.5725,762.255 L216.3225,762.255 Z" id="PRICE" fill="#000000"></path>
            <path d="M264.52,752.42 C264.52,755.060013 263.56001,757.239991 261.64,758.96 C259.879991,760.560008 257.640014,761.559998 254.92,761.96 L254.92,767.3 L252.22,767.9 L252.22,761.96 C249.659987,761.96 247.200012,761.060009 244.84,759.26 C244.079996,758.659997 243.160005,757.760006 242.08,756.56 L244.48,754.28 C245.520005,755.600007 246.709993,756.689996 248.05,757.55 C249.390007,758.410004 250.779993,758.84 252.22,758.84 L252.22,745.82 C249.299985,745.139997 247.120007,744.180006 245.68,742.94 C243.879991,741.379992 242.98,739.200014 242.98,736.4 C242.98,733.679986 243.889991,731.430009 245.71,729.65 C247.530009,727.869991 249.699987,726.98 252.22,726.98 L252.22,723.68 L254.92,723.2 L254.92,726.98 C256.680009,727.180001 258.299993,727.619997 259.78,728.3 C261.260007,728.980003 262.519995,729.959994 263.56,731.24 L261.46,733.76 C260.459995,732.639994 259.500005,731.820003 258.58,731.3 C257.419994,730.619997 256.220006,730.28 254.98,730.28 L254.98,742.52 C257.900015,743.040003 260.159992,744.059992 261.76,745.58 C263.600009,747.300009 264.52,749.579986 264.52,752.42 Z M252.22,742.22 L252.22,730.28 C250.539992,730.28 249.130006,730.889994 247.99,732.11 C246.849994,733.330006 246.28,734.819991 246.28,736.58 C246.28,738.180008 246.839994,739.459995 247.96,740.42 C248.920005,741.260004 250.339991,741.859998 252.22,742.22 Z M261.16,752.6 C261.16,750.879991 260.570006,749.430006 259.39,748.25 C258.209994,747.069994 256.740009,746.360001 254.98,746.12 L254.92,758.84 C256.720009,758.599999 258.209994,757.940005 259.39,756.86 C260.570006,755.779995 261.16,754.360009 261.16,752.6 Z M298.3,753.68 C298.3,757.280018 297.030013,760.529985 294.49,763.43 C291.949987,766.330014 288.900018,767.78 285.34,767.78 C281.579981,767.78 278.450013,766.370014 275.95,763.55 C273.449988,760.729986 272.2,757.400019 272.2,753.56 C272.2,748.479975 273.999982,743.080029 277.6,737.36 C280.600015,732.559976 284.359977,728.240019 288.88,724.4 L291.76,726.38 C288.799985,729.140014 286.480008,731.459991 284.8,733.34 C282.239987,736.180014 280.260007,738.939987 278.86,741.62 C279.980006,740.939997 281.099994,740.380002 282.22,739.94 C283.340006,739.499998 284.459994,739.28 285.58,739.28 C289.50002,739.28 292.639988,740.719986 295,743.6 C297.200011,746.280013 298.3,749.63998 298.3,753.68 Z M294.58,753.68 C294.58,750.719985 293.760008,748.20001 292.12,746.12 C290.359991,743.879989 288.160013,742.76 285.52,742.76 C282.679986,742.76 280.380009,743.849989 278.62,746.03 C276.859991,748.210011 275.98,750.739986 275.98,753.62 C275.98,756.540015 276.829992,759.059989 278.53,761.18 C280.230008,763.300011 282.519986,764.36 285.4,764.36 C288.040013,764.36 290.229991,763.270011 291.97,761.09 C293.710009,758.909989 294.58,756.440014 294.58,753.68 Z M329.62,746.66 C329.62,751.780026 328.60001,756.35998 326.56,760.4 C324.079988,765.320025 320.700021,767.78 316.42,767.78 C312.019978,767.78 308.660012,765.560022 306.34,761.12 C304.33999,757.319981 303.34,752.480029 303.34,746.6 C303.34,741.279973 304.35999,736.66002 306.4,732.74 C308.800012,728.099977 312.159978,725.78 316.48,725.78 C321.120023,725.78 324.599988,728.219976 326.92,733.1 C328.720009,736.900019 329.62,741.419974 329.62,746.66 Z M325.84,746.66 C325.84,742.099977 325.180007,738.260016 323.86,735.14 C322.179992,731.13998 319.700016,729.14 316.42,729.14 C313.379985,729.14 311.000009,731.15998 309.28,735.2 C307.839993,738.560017 307.12,742.379979 307.12,746.66 C307.12,751.140022 307.759994,754.959984 309.04,758.12 C310.720008,762.280021 313.199984,764.36 316.48,764.36 C319.600016,764.36 322.019991,762.32002 323.74,758.24 C325.140007,754.879983 325.84,751.020022 325.84,746.66 Z" id="$000" fill="#000000"></path>
        </g>
    </g>
</svg>