<?xml version="1.0" encoding="UTF-8"?>
<svg width="480px" height="800px" viewBox="0 0 480 800" version="1.1" xmlns="http://www.w3.org/2000/svg" xmlns:xlink="http://www.w3.org/1999/xlink">
    <!-- Generator: Sketch 48.2 (47327) - http://www.bohemiancoding.com/sketch -->
    <title>Space/Property/Marvin Gardens</title>
    <desc>Created with Sketch.</desc>
    <defs>
        <rect id="path-1" x="0" y="164" width="480" height="24"></rect>
        <rect id="path-2" x="0" y="0" width="480" height="164"></rect>
        <rect id="path-3" x="0" y="188" width="480" height="612"></rect>
    </defs>
    <g id="Property-Spaces" stroke="none" stroke-width="1" fill="none" fill-rule="evenodd" transform="translate(-3132.000000, -3135.000000)">
        <g id="Space/Property/Marvin-Gardens" transform="translate(3372.000000, 3535.000000) rotate(180.000000) translate(-3372.000000, -3535.000000) translate(3132.000000, 3135.000000)">
            <g id="Property-Square">
                <g id="Squared-Black-Separator">
                    <use fill="#000000" fill-rule="evenodd" xlink:href="#path-1"></use>
                    <rect stroke="#000000" stroke-width="1" x="0.5" y="164.5" width="479" height="23"></rect>
                </g>
                <g id="Property-Square/Top-Color/Yellow">
                    <g>
                        <use fill="#FDE703" fill-rule="evenodd" xlink:href="#path-2"></use>
                        <rect stroke="#FDE703" stroke-width="1" x="0.5" y="0.5" width="479" height="163"></rect>
                    </g>
                </g>
                <g id="Squared-Teal-Field">
                    <use fill="#CBE8E0" fill-rule="evenodd" xlink:href="#path-3"></use>
                    <rect stroke="#CBE8E0" stroke-width="1" x="0.5" y="188.5" width="479" height="611"></rect>
                </g>
                <path d="M179.7,357.58 L175.74,358.36 L170.16,328.48 L157.38,358.78 L144.6,328.48 L138.9,358.36 L135.06,357.58 L143.34,316.3 L157.38,349.54 L171.48,316.3 L179.7,357.58 Z M222.9,357.4 L219.06,358.42 L210.9,341.86 L194.16,341.86 L185.76,358.42 L181.92,357.4 L202.62,316.36 L222.9,357.4 Z M209.1,338.2 L202.56,324.58 L195.84,338.2 L209.1,338.2 Z M251.82,356.8 L248.22,358.54 L231.96,338.8 L231.96,357.64 L228.18,358.42 L228.18,317.5 L234.84,317.5 C239.240022,317.5 242.679988,318.53999 245.16,320.62 C247.640012,322.70001 248.88,325.73998 248.88,329.74 C248.88,332.900016 247.930009,335.51999 246.03,337.6 C244.12999,339.68001 241.820014,340.899998 239.1,341.26 L251.82,356.8 Z M244.8,329.74 C244.8,327.179987 243.980008,325.120008 242.34,323.56 C240.699992,321.999992 238.500014,321.22 235.74,321.22 L231.96,321.22 L231.96,338.2 L236.04,338.2 C238.640013,338.2 240.749992,337.450007 242.37,335.95 C243.990008,334.449993 244.8,332.380013 244.8,329.74 Z M291.48,318.28 L272.28,359.62 L253.8,318.28 L257.58,317.2 L272.28,350.44 L287.7,317.2 L291.48,318.28 Z M300.54,357.64 L296.76,358.42 L296.76,317.98 L300.54,317.2 L300.54,357.64 Z M341.88,358.42 L314.82,326.44 L314.82,357.64 L311.04,358.42 L311.04,316.36 L338.28,348.7 L338.28,317.98 L341.88,317.2 L341.88,358.42 Z M150.36,420.32 C148.199989,422.120009 145.860013,423.519995 143.34,424.52 C140.819987,425.520005 138.240013,426.02 135.6,426.02 C129.759971,426.02 124.81002,423.950021 120.75,419.81 C116.68998,415.669979 114.66,410.660029 114.66,404.78 C114.66,398.939971 116.69998,393.940021 120.78,389.78 C124.86002,385.619979 129.799971,383.54 135.6,383.54 C138.480014,383.54 141.099988,384.019995 143.46,384.98 C145.46001,385.820004 147.519989,387.119991 149.64,388.88 L147.3,391.94 C145.33999,390.419992 143.480009,389.300004 141.72,388.58 C139.959991,387.859996 137.920012,387.5 135.6,387.5 C131.039977,387.5 127.100017,389.159983 123.78,392.48 C120.459983,395.800017 118.8,399.939975 118.8,404.9 C118.8,409.740024 120.519983,413.839983 123.96,417.2 C127.280017,420.440016 131.179978,422.06 135.66,422.06 C137.940011,422.06 139.979991,421.700004 141.78,420.98 C142.940006,420.499998 144.49999,419.620006 146.46,418.34 L146.46,406.88 L133.26,406.88 L134.46,403.22 L150.36,403.22 L150.36,420.32 Z M195.3,424.4 L191.46,425.42 L183.3,408.86 L166.56,408.86 L158.16,425.42 L154.32,424.4 L175.02,383.36 L195.3,424.4 Z M181.5,405.2 L174.96,391.58 L168.24,405.2 L181.5,405.2 Z M224.22,423.8 L220.62,425.54 L204.36,405.8 L204.36,424.64 L200.58,425.42 L200.58,384.5 L207.24,384.5 C211.640022,384.5 215.079988,385.53999 217.56,387.62 C220.040012,389.70001 221.28,392.73998 221.28,396.74 C221.28,399.900016 220.330009,402.51999 218.43,404.6 C216.52999,406.68001 214.220014,407.899998 211.5,408.26 L224.22,423.8 Z M217.2,396.74 C217.2,394.179987 216.380008,392.120008 214.74,390.56 C213.099992,388.999992 210.900014,388.22 208.14,388.22 L204.36,388.22 L204.36,405.2 L208.44,405.2 C211.040013,405.2 213.149992,404.450007 214.77,402.95 C216.390008,401.449993 217.2,399.380013 217.2,396.74 Z M261.72,404.78 C261.72,410.86003 259.580021,415.799981 255.3,419.6 C251.25998,423.200018 246.320029,425 240.48,425 L231.48,425 L231.48,384.56 L240.48,384.56 C246.120028,384.56 250.95998,386.279983 255,389.72 C259.480022,393.560019 261.72,398.579969 261.72,404.78 Z M257.64,404.66 C257.64,399.859976 256.010016,395.910015 252.75,392.81 C249.489984,389.709985 245.580023,388.16 241.02,388.16 L235.26,388.16 L235.26,421.34 L240.24,421.34 C244.960024,421.34 248.939984,419.980014 252.18,417.26 C255.820018,414.179985 257.64,409.980027 257.64,404.66 Z M294.36,421.34 L293.4,425 L269.58,425 L269.58,384.56 L292.44,384.56 L293.4,388.16 L273.36,388.16 L273.36,402.74 L290.46,402.74 L290.46,406.4 L273.36,406.4 L273.36,421.34 L294.36,421.34 Z M332.4,425.42 L305.34,393.44 L305.34,424.64 L301.56,425.42 L301.56,383.36 L328.8,415.7 L328.8,384.98 L332.4,384.2 L332.4,425.42 Z M365.22,414.26 C365.22,417.780018 363.970013,420.599989 361.47,422.72 C358.969988,424.840011 355.860019,425.9 352.14,425.9 C349.259986,425.9 346.740011,425.220007 344.58,423.86 C342.899992,422.819995 341.260008,421.180011 339.66,418.94 L342.78,416.36 C344.100007,418.28001 345.399994,419.639996 346.68,420.44 C348.240008,421.440005 350.079989,421.94 352.2,421.94 C354.520012,421.94 356.539991,421.340006 358.26,420.14 C360.18001,418.779993 361.14,416.960011 361.14,414.68 C361.14,411.359983 359.360018,408.960007 355.8,407.48 C352.479983,406.319994 349.180016,405.160006 345.9,404 C342.299982,402.07999 340.5,398.960022 340.5,394.64 C340.5,391.519984 341.709988,388.900011 344.13,386.78 C346.550012,384.659989 349.479983,383.6 352.92,383.6 C355.160011,383.6 357.159991,384.009996 358.92,384.83 C360.680009,385.650004 362.359992,386.899992 363.96,388.58 L361.2,391.52 C360.039994,390.239994 358.770007,389.260003 357.39,388.58 C356.009993,387.899997 354.520008,387.56 352.92,387.56 C350.759989,387.56 348.840008,388.209993 347.16,389.51 C345.479992,390.810006 344.64,392.519989 344.64,394.64 C344.64,397.760016 346.419982,399.999993 349.98,401.36 C353.260016,402.520006 356.559983,403.679994 359.88,404.84 C363.440018,406.76001 365.22,409.899978 365.22,414.26 Z" id="PROPERTY-NAME" fill="#000000"></path>
                <path d="M132.7575,744.75 C132.7575,747.840015 131.617511,750.35999 129.3375,752.31 C127.29749,754.050009 124.972513,754.92 122.3625,754.92 L118.9875,754.92 L118.9875,764.73 L116.1525,765.315 L116.1525,734.58 L121.1475,734.58 C124.417516,734.58 127.132489,735.464991 129.2925,737.235 C131.602512,739.125009 132.7575,741.629984 132.7575,744.75 Z M129.6525,744.705 C129.6525,742.424989 128.857508,740.632507 127.2675,739.3275 C125.677492,738.022493 123.592513,737.37 121.0125,737.37 L118.9875,737.37 L118.9875,752.085 L121.1025,752.085 C123.682513,752.085 125.752492,751.425007 127.3125,750.105 C128.872508,748.784993 129.6525,746.985011 129.6525,744.705 Z M156.1125,764.1 L153.4125,765.405 L141.2175,750.6 L141.2175,764.73 L138.3825,765.315 L138.3825,734.625 L143.3775,734.625 C146.677516,734.625 149.257491,735.404992 151.1175,736.965 C152.977509,738.525008 153.9075,740.804985 153.9075,743.805 C153.9075,746.175012 153.195007,748.139992 151.77,749.7 C150.344993,751.260008 148.61251,752.174999 146.5725,752.445 L156.1125,764.1 Z M150.8475,743.805 C150.8475,741.88499 150.232506,740.340006 149.0025,739.17 C147.772494,737.999994 146.12251,737.415 144.0525,737.415 L141.2175,737.415 L141.2175,750.15 L144.2775,750.15 C146.22751,750.15 147.809994,749.587506 149.025,748.4625 C150.240006,747.337494 150.8475,745.78501 150.8475,743.805 Z M164.3925,764.73 L161.5575,765.315 L161.5575,734.985 L164.3925,734.4 L164.3925,764.73 Z M192.2925,760.455 L191.7525,764.1 C190.822495,764.670003 189.840005,765.089999 188.805,765.36 C187.769995,765.630001 186.562507,765.765 185.1825,765.765 C181.072479,765.765 177.555015,764.160016 174.63,760.95 C171.704985,757.739984 170.2425,754.050021 170.2425,749.88 C170.2425,745.589979 171.697485,741.855016 174.6075,738.675 C177.517515,735.494984 181.102479,733.905 185.3625,733.905 C186.442505,733.905 187.514995,734.017499 188.58,734.2425 C189.645005,734.467501 190.702495,734.819998 191.7525,735.3 L192.2925,738.81 C190.192489,737.519994 187.897512,736.875 185.4075,736.875 C181.867482,736.875 178.942512,738.209987 176.6325,740.88 C174.442489,743.430013 173.3475,746.444983 173.3475,749.925 C173.3475,753.525018 174.517488,756.569988 176.8575,759.06 C179.197512,761.550012 182.002484,762.795 185.2725,762.795 C186.532506,762.795 187.717494,762.622502 188.8275,762.2775 C189.937506,761.932498 191.092494,761.325004 192.2925,760.455 Z M216.3225,762.255 L215.6025,765 L197.7375,765 L197.7375,734.67 L214.8825,734.67 L215.6025,737.37 L200.5725,737.37 L200.5725,748.305 L213.3975,748.305 L213.3975,751.05 L200.5725,751.05 L200.5725,762.255 L216.3225,762.255 Z" id="PRICE" fill="#000000"></path>
                <path d="M264.52,752.42 C264.52,755.060013 263.56001,757.239991 261.64,758.96 C259.879991,760.560008 257.640014,761.559998 254.92,761.96 L254.92,767.3 L252.22,767.9 L252.22,761.96 C249.659987,761.96 247.200012,761.060009 244.84,759.26 C244.079996,758.659997 243.160005,757.760006 242.08,756.56 L244.48,754.28 C245.520005,755.600007 246.709993,756.689996 248.05,757.55 C249.390007,758.410004 250.779993,758.84 252.22,758.84 L252.22,745.82 C249.299985,745.139997 247.120007,744.180006 245.68,742.94 C243.879991,741.379992 242.98,739.200014 242.98,736.4 C242.98,733.679986 243.889991,731.430009 245.71,729.65 C247.530009,727.869991 249.699987,726.98 252.22,726.98 L252.22,723.68 L254.92,723.2 L254.92,726.98 C256.680009,727.180001 258.299993,727.619997 259.78,728.3 C261.260007,728.980003 262.519995,729.959994 263.56,731.24 L261.46,733.76 C260.459995,732.639994 259.500005,731.820003 258.58,731.3 C257.419994,730.619997 256.220006,730.28 254.98,730.28 L254.98,742.52 C257.900015,743.040003 260.159992,744.059992 261.76,745.58 C263.600009,747.300009 264.52,749.579986 264.52,752.42 Z M252.22,742.22 L252.22,730.28 C250.539992,730.28 249.130006,730.889994 247.99,732.11 C246.849994,733.330006 246.28,734.819991 246.28,736.58 C246.28,738.180008 246.839994,739.459995 247.96,740.42 C248.920005,741.260004 250.339991,741.859998 252.22,742.22 Z M261.16,752.6 C261.16,750.879991 260.570006,749.430006 259.39,748.25 C258.209994,747.069994 256.740009,746.360001 254.98,746.12 L254.92,758.84 C256.720009,758.599999 258.209994,757.940005 259.39,756.86 C260.570006,755.779995 261.16,754.360009 261.16,752.6 Z M298,738.44 C298,741.120013 297.00001,744.019984 295,747.14 C293.519993,749.460012 291.200016,752.239984 288.04,755.48 L280.12,763.4 L297.94,763.4 L297.22,767 L272.44,767 L288.76,749.6 C290.960011,747.239988 292.479996,745.08001 293.32,743.12 C293.920003,741.679993 294.22,740.120008 294.22,738.44 C294.22,735.839987 293.330009,733.670009 291.55,731.93 C289.769991,730.189991 287.680012,729.32 285.28,729.32 C282.759987,729.32 280.640009,730.179991 278.92,731.9 C277.199991,733.620009 276.34,735.719988 276.34,738.2 C276.34,740.760013 277.119992,742.919991 278.68,744.68 C280.240008,746.440009 282.439986,747.539998 285.28,747.98 L282.76,750.92 C279.599984,750.199996 277.110009,748.710011 275.29,746.45 C273.469991,744.189989 272.56,741.380017 272.56,738.02 C272.56,734.739984 273.849987,731.910012 276.43,729.53 C279.010013,727.149988 282.099982,725.96 285.7,725.96 C289.300018,725.96 292.279988,727.259987 294.64,729.86 C296.880011,732.300012 298,735.159984 298,738.44 Z M329.26,756.26 C329.26,759.660017 328.040012,762.429989 325.6,764.57 C323.159988,766.710011 320.140018,767.78 316.54,767.78 C312.739981,767.78 309.640012,766.700011 307.24,764.54 C304.839988,762.379989 303.64,759.420019 303.64,755.66 C303.64,753.419989 304.319993,751.400009 305.68,749.6 C307.040007,747.799991 308.819989,746.540004 311.02,745.82 C309.01999,744.819995 307.500005,743.660007 306.46,742.34 C305.219994,740.739992 304.6,738.780012 304.6,736.46 C304.6,733.339984 305.789988,730.78001 308.17,728.78 C310.550012,726.77999 313.339984,725.78 316.54,725.78 C319.700016,725.78 322.359989,726.719991 324.52,728.6 C326.880012,730.64001 328.06,733.319983 328.06,736.64 C328.06,738.840011 327.440006,740.789992 326.2,742.49 C324.959994,744.190008 323.480009,745.299997 321.76,745.82 C324.080012,746.740005 325.909993,748.059991 327.25,749.78 C328.590007,751.500009 329.26,753.659987 329.26,756.26 Z M324.34,736.58 C324.34,734.459989 323.570008,732.690007 322.03,731.27 C320.489992,729.849993 318.620011,729.14 316.42,729.14 C314.219989,729.14 312.320008,729.839993 310.72,731.24 C309.119992,732.640007 308.32,734.419989 308.32,736.58 C308.32,738.860011 309.079992,740.739993 310.6,742.22 C312.120008,743.700007 314.019989,744.44 316.3,744.44 C318.500011,744.44 320.389992,743.690007 321.97,742.19 C323.550008,740.689993 324.34,738.820011 324.34,736.58 Z M325.6,756.08 C325.6,753.519987 324.710009,751.460008 322.93,749.9 C321.149991,748.339992 319.020012,747.56 316.54,747.56 C314.099988,747.56 311.970009,748.319992 310.15,749.84 C308.329991,751.360008 307.42,753.319988 307.42,755.72 C307.42,758.320013 308.269992,760.409992 309.97,761.99 C311.670008,763.570008 313.859987,764.36 316.54,764.36 C319.180013,764.36 321.349991,763.590008 323.05,762.05 C324.750008,760.509992 325.6,758.520012 325.6,756.08 Z M360.94,746.66 C360.94,751.780026 359.92001,756.35998 357.88,760.4 C355.399988,765.320025 352.020021,767.78 347.74,767.78 C343.339978,767.78 339.980012,765.560022 337.66,761.12 C335.65999,757.319981 334.66,752.480029 334.66,746.6 C334.66,741.279973 335.67999,736.66002 337.72,732.74 C340.120012,728.099977 343.479978,725.78 347.8,725.78 C352.440023,725.78 355.919988,728.219976 358.24,733.1 C360.040009,736.900019 360.94,741.419974 360.94,746.66 Z M357.16,746.66 C357.16,742.099977 356.500007,738.260016 355.18,735.14 C353.499992,731.13998 351.020016,729.14 347.74,729.14 C344.699985,729.14 342.320009,731.15998 340.6,735.2 C339.159993,738.560017 338.44,742.379979 338.44,746.66 C338.44,751.140022 339.079994,754.959984 340.36,758.12 C342.040008,762.280021 344.519984,764.36 347.8,764.36 C350.920016,764.36 353.339991,762.32002 355.06,758.24 C356.460007,754.879983 357.16,751.020022 357.16,746.66 Z" id="$000" fill="#000000"></path>
            </g>
        </g>
    </g>
</svg>