<?xml version="1.0" encoding="UTF-8"?>
<svg width="480px" height="800px" viewBox="0 0 480 800" version="1.1" xmlns="http://www.w3.org/2000/svg" xmlns:xlink="http://www.w3.org/1999/xlink">
    <!-- Generator: Sketch 48.2 (47327) - http://www.bohemiancoding.com/sketch -->
    <title>Space/Property/Meditteranean Avenue</title>
    <desc>Created with Sketch.</desc>
    <defs>
        <rect id="path-1" x="0" y="164" width="480" height="24"></rect>
        <rect id="path-2" x="0" y="0" width="480" height="164"></rect>
        <rect id="path-3" x="0" y="188" width="480" height="612"></rect>
    </defs>
    <g id="Property-Spaces" stroke="none" stroke-width="1" fill="none" fill-rule="evenodd" transform="translate(-1199.000000, -67.000000)">
        <g id="Space/Property/Meditteranean-Avenue" transform="translate(1199.000000, 67.000000)">
            <g id="Squared-Black-Separator">
                <use fill="#000000" fill-rule="evenodd" xlink:href="#path-1"></use>
                <rect stroke="#000000" stroke-width="1" x="0.5" y="164.5" width="479" height="23"></rect>
            </g>
            <g id="Property-Square/Top-Color/Purple">
                <g>
                    <use fill="#590C38" fill-rule="evenodd" xlink:href="#path-2"></use>
                    <rect stroke="#590C38" stroke-width="1" x="0.5" y="0.5" width="479" height="163"></rect>
                </g>
            </g>
            <g id="Squared-Teal-Field">
                <use fill="#CBE8E0" fill-rule="evenodd" xlink:href="#path-3"></use>
                <rect stroke="#CBE8E0" stroke-width="1" x="0.5" y="188.5" width="479" height="611"></rect>
            </g>
            <path d="M60.87,357.58 L56.91,358.36 L51.33,328.48 L38.55,358.78 L25.77,328.48 L20.07,358.36 L16.23,357.58 L24.51,316.3 L38.55,349.54 L52.65,316.3 L60.87,357.58 Z M93.15,354.34 L92.19,358 L68.37,358 L68.37,317.56 L91.23,317.56 L92.19,321.16 L72.15,321.16 L72.15,335.74 L89.25,335.74 L89.25,339.4 L72.15,339.4 L72.15,354.34 L93.15,354.34 Z M130.65,337.78 C130.65,343.86003 128.510021,348.799981 124.23,352.6 C120.18998,356.200018 115.250029,358 109.41,358 L100.41,358 L100.41,317.56 L109.41,317.56 C115.050028,317.56 119.88998,319.279983 123.93,322.72 C128.410022,326.560019 130.65,331.579969 130.65,337.78 Z M126.57,337.66 C126.57,332.859976 124.940016,328.910015 121.68,325.81 C118.419984,322.709985 114.510023,321.16 109.95,321.16 L104.19,321.16 L104.19,354.34 L109.17,354.34 C113.890024,354.34 117.869984,352.980014 121.11,350.26 C124.750018,347.179985 126.57,342.980027 126.57,337.66 Z M142.29,357.64 L138.51,358.42 L138.51,317.98 L142.29,317.2 L142.29,357.64 Z M174.27,321.22 L163.47,321.22 L163.47,357.64 L159.63,358.42 L159.63,321.22 L147.87,321.22 L148.89,317.56 L174.27,317.56 L174.27,321.22 Z M205.59,354.34 L204.63,358 L180.81,358 L180.81,317.56 L203.67,317.56 L204.63,321.16 L184.59,321.16 L184.59,335.74 L201.69,335.74 L201.69,339.4 L184.59,339.4 L184.59,354.34 L205.59,354.34 Z M236.49,356.8 L232.89,358.54 L216.63,338.8 L216.63,357.64 L212.85,358.42 L212.85,317.5 L219.51,317.5 C223.910022,317.5 227.349988,318.53999 229.83,320.62 C232.310012,322.70001 233.55,325.73998 233.55,329.74 C233.55,332.900016 232.600009,335.51999 230.7,337.6 C228.79999,339.68001 226.490014,340.899998 223.77,341.26 L236.49,356.8 Z M229.47,329.74 C229.47,327.179987 228.650008,325.120008 227.01,323.56 C225.369992,321.999992 223.170014,321.22 220.41,321.22 L216.63,321.22 L216.63,338.2 L220.71,338.2 C223.310013,338.2 225.419992,337.450007 227.04,335.95 C228.660008,334.449993 229.47,332.380013 229.47,329.74 Z M267.39,356.8 L263.79,358.54 L247.53,338.8 L247.53,357.64 L243.75,358.42 L243.75,317.5 L250.41,317.5 C254.810022,317.5 258.249988,318.53999 260.73,320.62 C263.210012,322.70001 264.45,325.73998 264.45,329.74 C264.45,332.900016 263.500009,335.51999 261.6,337.6 C259.699991,339.68001 257.390014,340.899998 254.67,341.26 L267.39,356.8 Z M260.37,329.74 C260.37,327.179987 259.550008,325.120008 257.91,323.56 C256.269992,321.999992 254.070014,321.22 251.31,321.22 L247.53,321.22 L247.53,338.2 L251.61,338.2 C254.210013,338.2 256.319992,337.450007 257.94,335.95 C259.560008,334.449993 260.37,332.380013 260.37,329.74 Z M310.35,357.4 L306.51,358.42 L298.35,341.86 L281.61,341.86 L273.21,358.42 L269.37,357.4 L290.07,316.36 L310.35,357.4 Z M296.55,338.2 L290.01,324.58 L283.29,338.2 L296.55,338.2 Z M346.41,358.42 L319.35,326.44 L319.35,357.64 L315.57,358.42 L315.57,316.36 L342.81,348.7 L342.81,317.98 L346.41,317.2 L346.41,358.42 Z M381.69,354.34 L380.73,358 L356.91,358 L356.91,317.56 L379.77,317.56 L380.73,321.16 L360.69,321.16 L360.69,335.74 L377.79,335.74 L377.79,339.4 L360.69,339.4 L360.69,354.34 L381.69,354.34 Z M424.65,357.4 L420.81,358.42 L412.65,341.86 L395.91,341.86 L387.51,358.42 L383.67,357.4 L404.37,316.36 L424.65,357.4 Z M410.85,338.2 L404.31,324.58 L397.59,338.2 L410.85,338.2 Z M460.71,358.42 L433.65,326.44 L433.65,357.64 L429.87,358.42 L429.87,316.36 L457.11,348.7 L457.11,317.98 L460.71,317.2 L460.71,358.42 Z M169.5,424.4 L165.66,425.42 L157.5,408.86 L140.76,408.86 L132.36,425.42 L128.52,424.4 L149.22,383.36 L169.5,424.4 Z M155.7,405.2 L149.16,391.58 L142.44,405.2 L155.7,405.2 Z M207.18,385.28 L187.98,426.62 L169.5,385.28 L173.28,384.2 L187.98,417.44 L203.4,384.2 L207.18,385.28 Z M237.24,421.34 L236.28,425 L212.46,425 L212.46,384.56 L235.32,384.56 L236.28,388.16 L216.24,388.16 L216.24,402.74 L233.34,402.74 L233.34,406.4 L216.24,406.4 L216.24,421.34 L237.24,421.34 Z M275.28,425.42 L248.22,393.44 L248.22,424.64 L244.44,425.42 L244.44,383.36 L271.68,415.7 L271.68,384.98 L275.28,384.2 L275.28,425.42 Z M314.64,411.92 C314.64,416.120021 313.240014,419.459988 310.44,421.94 C307.799987,424.300012 304.44002,425.48 300.36,425.48 C295.479976,425.48 291.770013,424.290012 289.23,421.91 C286.689987,419.529988 285.42,416.200021 285.42,411.92 L285.42,384.98 L289.2,384.2 L289.2,411.74 C289.2,414.860016 290.16999,417.269992 292.11,418.97 C294.05001,420.670008 296.799982,421.52 300.36,421.52 C303.520016,421.52 306.049991,420.630009 307.95,418.85 C309.850009,417.069991 310.8,414.700015 310.8,411.74 L310.8,384.98 L314.64,384.2 L314.64,411.92 Z M349.5,421.34 L348.54,425 L324.72,425 L324.72,384.56 L347.58,384.56 L348.54,388.16 L328.5,388.16 L328.5,402.74 L345.6,402.74 L345.6,406.4 L328.5,406.4 L328.5,421.34 L349.5,421.34 Z" id="PROPERTY-NAME" fill="#000000"></path>
            <path d="M132.7575,744.75 C132.7575,747.840015 131.617511,750.35999 129.3375,752.31 C127.29749,754.050009 124.972513,754.92 122.3625,754.92 L118.9875,754.92 L118.9875,764.73 L116.1525,765.315 L116.1525,734.58 L121.1475,734.58 C124.417516,734.58 127.132489,735.464991 129.2925,737.235 C131.602512,739.125009 132.7575,741.629984 132.7575,744.75 Z M129.6525,744.705 C129.6525,742.424989 128.857508,740.632507 127.2675,739.3275 C125.677492,738.022493 123.592513,737.37 121.0125,737.37 L118.9875,737.37 L118.9875,752.085 L121.1025,752.085 C123.682513,752.085 125.752492,751.425007 127.3125,750.105 C128.872508,748.784993 129.6525,746.985011 129.6525,744.705 Z M156.1125,764.1 L153.4125,765.405 L141.2175,750.6 L141.2175,764.73 L138.3825,765.315 L138.3825,734.625 L143.3775,734.625 C146.677516,734.625 149.257491,735.404992 151.1175,736.965 C152.977509,738.525008 153.9075,740.804985 153.9075,743.805 C153.9075,746.175012 153.195007,748.139992 151.77,749.7 C150.344993,751.260008 148.61251,752.174999 146.5725,752.445 L156.1125,764.1 Z M150.8475,743.805 C150.8475,741.88499 150.232506,740.340006 149.0025,739.17 C147.772494,737.999994 146.12251,737.415 144.0525,737.415 L141.2175,737.415 L141.2175,750.15 L144.2775,750.15 C146.22751,750.15 147.809994,749.587506 149.025,748.4625 C150.240006,747.337494 150.8475,745.78501 150.8475,743.805 Z M164.3925,764.73 L161.5575,765.315 L161.5575,734.985 L164.3925,734.4 L164.3925,764.73 Z M192.2925,760.455 L191.7525,764.1 C190.822495,764.670003 189.840005,765.089999 188.805,765.36 C187.769995,765.630001 186.562507,765.765 185.1825,765.765 C181.072479,765.765 177.555015,764.160016 174.63,760.95 C171.704985,757.739984 170.2425,754.050021 170.2425,749.88 C170.2425,745.589979 171.697485,741.855016 174.6075,738.675 C177.517515,735.494984 181.102479,733.905 185.3625,733.905 C186.442505,733.905 187.514995,734.017499 188.58,734.2425 C189.645005,734.467501 190.702495,734.819998 191.7525,735.3 L192.2925,738.81 C190.192489,737.519994 187.897512,736.875 185.4075,736.875 C181.867482,736.875 178.942512,738.209987 176.6325,740.88 C174.442489,743.430013 173.3475,746.444983 173.3475,749.925 C173.3475,753.525018 174.517488,756.569988 176.8575,759.06 C179.197512,761.550012 182.002484,762.795 185.2725,762.795 C186.532506,762.795 187.717494,762.622502 188.8275,762.2775 C189.937506,761.932498 191.092494,761.325004 192.2925,760.455 Z M216.3225,762.255 L215.6025,765 L197.7375,765 L197.7375,734.67 L214.8825,734.67 L215.6025,737.37 L200.5725,737.37 L200.5725,748.305 L213.3975,748.305 L213.3975,751.05 L200.5725,751.05 L200.5725,762.255 L216.3225,762.255 Z" id="PRICE" fill="#000000"></path>
            <path d="M264.52,752.42 C264.52,755.060013 263.56001,757.239991 261.64,758.96 C259.879991,760.560008 257.640014,761.559998 254.92,761.96 L254.92,767.3 L252.22,767.9 L252.22,761.96 C249.659987,761.96 247.200012,761.060009 244.84,759.26 C244.079996,758.659997 243.160005,757.760006 242.08,756.56 L244.48,754.28 C245.520005,755.600007 246.709993,756.689996 248.05,757.55 C249.390007,758.410004 250.779993,758.84 252.22,758.84 L252.22,745.82 C249.299985,745.139997 247.120007,744.180006 245.68,742.94 C243.879991,741.379992 242.98,739.200014 242.98,736.4 C242.98,733.679986 243.889991,731.430009 245.71,729.65 C247.530009,727.869991 249.699987,726.98 252.22,726.98 L252.22,723.68 L254.92,723.2 L254.92,726.98 C256.680009,727.180001 258.299993,727.619997 259.78,728.3 C261.260007,728.980003 262.519995,729.959994 263.56,731.24 L261.46,733.76 C260.459995,732.639994 259.500005,731.820003 258.58,731.3 C257.419994,730.619997 256.220006,730.28 254.98,730.28 L254.98,742.52 C257.900015,743.040003 260.159992,744.059992 261.76,745.58 C263.600009,747.300009 264.52,749.579986 264.52,752.42 Z M252.22,742.22 L252.22,730.28 C250.539992,730.28 249.130006,730.889994 247.99,732.11 C246.849994,733.330006 246.28,734.819991 246.28,736.58 C246.28,738.180008 246.839994,739.459995 247.96,740.42 C248.920005,741.260004 250.339991,741.859998 252.22,742.22 Z M261.16,752.6 C261.16,750.879991 260.570006,749.430006 259.39,748.25 C258.209994,747.069994 256.740009,746.360001 254.98,746.12 L254.92,758.84 C256.720009,758.599999 258.209994,757.940005 259.39,756.86 C260.570006,755.779995 261.16,754.360009 261.16,752.6 Z M298.3,753.68 C298.3,757.280018 297.030013,760.529985 294.49,763.43 C291.949987,766.330014 288.900018,767.78 285.34,767.78 C281.579981,767.78 278.450013,766.370014 275.95,763.55 C273.449988,760.729986 272.2,757.400019 272.2,753.56 C272.2,748.479975 273.999982,743.080029 277.6,737.36 C280.600015,732.559976 284.359977,728.240019 288.88,724.4 L291.76,726.38 C288.799985,729.140014 286.480008,731.459991 284.8,733.34 C282.239987,736.180014 280.260007,738.939987 278.86,741.62 C279.980006,740.939997 281.099994,740.380002 282.22,739.94 C283.340006,739.499998 284.459994,739.28 285.58,739.28 C289.50002,739.28 292.639988,740.719986 295,743.6 C297.200011,746.280013 298.3,749.63998 298.3,753.68 Z M294.58,753.68 C294.58,750.719985 293.760008,748.20001 292.12,746.12 C290.359991,743.879989 288.160013,742.76 285.52,742.76 C282.679986,742.76 280.380009,743.849989 278.62,746.03 C276.859991,748.210011 275.98,750.739986 275.98,753.62 C275.98,756.540015 276.829992,759.059989 278.53,761.18 C280.230008,763.300011 282.519986,764.36 285.4,764.36 C288.040013,764.36 290.229991,763.270011 291.97,761.09 C293.710009,758.909989 294.58,756.440014 294.58,753.68 Z M329.62,746.66 C329.62,751.780026 328.60001,756.35998 326.56,760.4 C324.079988,765.320025 320.700021,767.78 316.42,767.78 C312.019978,767.78 308.660012,765.560022 306.34,761.12 C304.33999,757.319981 303.34,752.480029 303.34,746.6 C303.34,741.279973 304.35999,736.66002 306.4,732.74 C308.800012,728.099977 312.159978,725.78 316.48,725.78 C321.120023,725.78 324.599988,728.219976 326.92,733.1 C328.720009,736.900019 329.62,741.419974 329.62,746.66 Z M325.84,746.66 C325.84,742.099977 325.180007,738.260016 323.86,735.14 C322.179992,731.13998 319.700016,729.14 316.42,729.14 C313.379985,729.14 311.000009,731.15998 309.28,735.2 C307.839993,738.560017 307.12,742.379979 307.12,746.66 C307.12,751.140022 307.759994,754.959984 309.04,758.12 C310.720008,762.280021 313.199984,764.36 316.48,764.36 C319.600016,764.36 322.019991,762.32002 323.74,758.24 C325.140007,754.879983 325.84,751.020022 325.84,746.66 Z" id="$000" fill="#000000"></path>
        </g>
    </g>
</svg>