<?xml version="1.0" encoding="UTF-8"?>
<svg width="800px" height="480px" viewBox="0 0 800 480" version="1.1" xmlns="http://www.w3.org/2000/svg" xmlns:xlink="http://www.w3.org/1999/xlink">
    <!-- Generator: Sketch 48.2 (47327) - http://www.bohemiancoding.com/sketch -->
    <title>Space/Property/New York Avenue</title>
    <desc>Created with Sketch.</desc>
    <defs>
        <rect id="path-1" x="0" y="164" width="480" height="24"></rect>
        <rect id="path-2" x="0" y="0" width="480" height="164"></rect>
        <rect id="path-3" x="0" y="188" width="480" height="612"></rect>
    </defs>
    <g id="Property-Spaces" stroke="none" stroke-width="1" fill="none" fill-rule="evenodd" transform="translate(-1094.000000, -2401.000000)">
        <g id="Space/Property/New-York-Avenue" transform="translate(1494.000000, 2641.000000) rotate(90.000000) translate(-1494.000000, -2641.000000) translate(1254.000000, 2241.000000)">
            <g id="Property-Square">
                <g id="Squared-Black-Separator">
                    <use fill="#000000" fill-rule="evenodd" xlink:href="#path-1"></use>
                    <rect stroke="#000000" stroke-width="1" x="0.5" y="164.5" width="479" height="23"></rect>
                </g>
                <g id="Property-Square/Top-Color/Orange">
                    <g>
                        <use fill="#F57F23" fill-rule="evenodd" xlink:href="#path-2"></use>
                        <rect stroke="#F57F23" stroke-width="1" x="0.5" y="0.5" width="479" height="163"></rect>
                    </g>
                </g>
                <g id="Squared-Teal-Field">
                    <use fill="#CBE8E0" fill-rule="evenodd" xlink:href="#path-3"></use>
                    <rect stroke="#CBE8E0" stroke-width="1" x="0.5" y="188.5" width="479" height="611"></rect>
                </g>
                <path d="M133.29,358.42 L106.23,326.44 L106.23,357.64 L102.45,358.42 L102.45,316.36 L129.69,348.7 L129.69,317.98 L133.29,317.2 L133.29,358.42 Z M168.57,354.34 L167.61,358 L143.79,358 L143.79,317.56 L166.65,317.56 L167.61,321.16 L147.57,321.16 L147.57,335.74 L164.67,335.74 L164.67,339.4 L147.57,339.4 L147.57,354.34 L168.57,354.34 Z M223.29,317.98 L205.47,359.62 L197.07,340.48 L188.91,359.62 L170.97,317.98 L175.05,317.2 L188.91,350.26 L195.03,336.04 L187.35,317.98 L191.07,317.2 L197.07,331.18 L203.19,317.2 L206.49,317.98 L199.17,335.74 L205.47,350.26 L219.39,317.2 L223.29,317.98 Z M272.55,317.98 L251.43,358.78 L247.41,357.58 L255.21,343 L240.51,317.98 L244.53,316.96 L257.37,338.86 L268.77,316.96 L272.55,317.98 Z M317.19,337.72 C317.19,343.440029 315.090021,348.419979 310.89,352.66 C306.689979,356.900021 301.730029,359.02 296.01,359.02 C290.129971,359.02 285.100021,356.950021 280.92,352.81 C276.739979,348.669979 274.65,343.660029 274.65,337.78 C274.65,331.939971 276.729979,326.940021 280.89,322.78 C285.050021,318.619979 290.049971,316.54 295.89,316.54 C301.85003,316.54 306.889979,318.57998 311.01,322.66 C315.130021,326.74002 317.19,331.75997 317.19,337.72 Z M313.05,337.78 C313.05,332.859975 311.360017,328.750017 307.98,325.45 C304.599983,322.149983 300.590023,320.5 295.95,320.5 C291.189976,320.5 287.140017,322.189983 283.8,325.57 C280.459983,328.950017 278.79,333.019976 278.79,337.78 C278.79,342.500024 280.469983,346.559983 283.83,349.96 C287.190017,353.360017 291.209977,355.06 295.89,355.06 C300.650024,355.06 304.699983,353.350017 308.04,349.93 C311.380017,346.509983 313.05,342.460023 313.05,337.78 Z M348.63,356.8 L345.03,358.54 L328.77,338.8 L328.77,357.64 L324.99,358.42 L324.99,317.5 L331.65,317.5 C336.050022,317.5 339.489988,318.53999 341.97,320.62 C344.450012,322.70001 345.69,325.73998 345.69,329.74 C345.69,332.900016 344.740009,335.51999 342.84,337.6 C340.93999,339.68001 338.630014,340.899998 335.91,341.26 L348.63,356.8 Z M341.61,329.74 C341.61,327.179987 340.790008,325.120008 339.15,323.56 C337.509992,321.999992 335.310014,321.22 332.55,321.22 L328.77,321.22 L328.77,338.2 L332.85,338.2 C335.450013,338.2 337.559992,337.450007 339.18,335.95 C340.800008,334.449993 341.61,332.380013 341.61,329.74 Z M382.41,356.8 L378.45,358.42 L359.67,336.94 L359.67,357.64 L355.89,358.42 L355.89,317.98 L359.67,317.2 L359.67,336.22 L376.59,317.2 L380.79,317.98 L364.77,336.22 L382.41,356.8 Z M169.5,424.4 L165.66,425.42 L157.5,408.86 L140.76,408.86 L132.36,425.42 L128.52,424.4 L149.22,383.36 L169.5,424.4 Z M155.7,405.2 L149.16,391.58 L142.44,405.2 L155.7,405.2 Z M207.18,385.28 L187.98,426.62 L169.5,385.28 L173.28,384.2 L187.98,417.44 L203.4,384.2 L207.18,385.28 Z M237.24,421.34 L236.28,425 L212.46,425 L212.46,384.56 L235.32,384.56 L236.28,388.16 L216.24,388.16 L216.24,402.74 L233.34,402.74 L233.34,406.4 L216.24,406.4 L216.24,421.34 L237.24,421.34 Z M275.28,425.42 L248.22,393.44 L248.22,424.64 L244.44,425.42 L244.44,383.36 L271.68,415.7 L271.68,384.98 L275.28,384.2 L275.28,425.42 Z M314.64,411.92 C314.64,416.120021 313.240014,419.459988 310.44,421.94 C307.799987,424.300012 304.44002,425.48 300.36,425.48 C295.479976,425.48 291.770013,424.290012 289.23,421.91 C286.689987,419.529988 285.42,416.200021 285.42,411.92 L285.42,384.98 L289.2,384.2 L289.2,411.74 C289.2,414.860016 290.16999,417.269991 292.11,418.97 C294.05001,420.670008 296.799982,421.52 300.36,421.52 C303.520016,421.52 306.049991,420.630009 307.95,418.85 C309.850009,417.069991 310.8,414.700015 310.8,411.74 L310.8,384.98 L314.64,384.2 L314.64,411.92 Z M349.5,421.34 L348.54,425 L324.72,425 L324.72,384.56 L347.58,384.56 L348.54,388.16 L328.5,388.16 L328.5,402.74 L345.6,402.74 L345.6,406.4 L328.5,406.4 L328.5,421.34 L349.5,421.34 Z" id="PROPERTY-NAME" fill="#000000"></path>
                <path d="M132.7575,744.75 C132.7575,747.840015 131.617511,750.35999 129.3375,752.31 C127.29749,754.050009 124.972513,754.92 122.3625,754.92 L118.9875,754.92 L118.9875,764.73 L116.1525,765.315 L116.1525,734.58 L121.1475,734.58 C124.417516,734.58 127.132489,735.464991 129.2925,737.235 C131.602512,739.125009 132.7575,741.629984 132.7575,744.75 Z M129.6525,744.705 C129.6525,742.424989 128.857508,740.632507 127.2675,739.3275 C125.677492,738.022493 123.592513,737.37 121.0125,737.37 L118.9875,737.37 L118.9875,752.085 L121.1025,752.085 C123.682513,752.085 125.752492,751.425007 127.3125,750.105 C128.872508,748.784993 129.6525,746.985011 129.6525,744.705 Z M156.1125,764.1 L153.4125,765.405 L141.2175,750.6 L141.2175,764.73 L138.3825,765.315 L138.3825,734.625 L143.3775,734.625 C146.677516,734.625 149.257491,735.404992 151.1175,736.965 C152.977509,738.525008 153.9075,740.804985 153.9075,743.805 C153.9075,746.175012 153.195007,748.139992 151.77,749.7 C150.344993,751.260008 148.61251,752.174999 146.5725,752.445 L156.1125,764.1 Z M150.8475,743.805 C150.8475,741.88499 150.232506,740.340006 149.0025,739.17 C147.772494,737.999994 146.12251,737.415 144.0525,737.415 L141.2175,737.415 L141.2175,750.15 L144.2775,750.15 C146.22751,750.15 147.809994,749.587506 149.025,748.4625 C150.240006,747.337494 150.8475,745.78501 150.8475,743.805 Z M164.3925,764.73 L161.5575,765.315 L161.5575,734.985 L164.3925,734.4 L164.3925,764.73 Z M192.2925,760.455 L191.7525,764.1 C190.822495,764.670003 189.840005,765.089999 188.805,765.36 C187.769995,765.630001 186.562507,765.765 185.1825,765.765 C181.072479,765.765 177.555015,764.160016 174.63,760.95 C171.704985,757.739984 170.2425,754.050021 170.2425,749.88 C170.2425,745.589979 171.697485,741.855016 174.6075,738.675 C177.517515,735.494984 181.102479,733.905 185.3625,733.905 C186.442505,733.905 187.514995,734.017499 188.58,734.2425 C189.645005,734.467501 190.702495,734.819998 191.7525,735.3 L192.2925,738.81 C190.192489,737.519994 187.897512,736.875 185.4075,736.875 C181.867482,736.875 178.942512,738.209987 176.6325,740.88 C174.442489,743.430013 173.3475,746.444983 173.3475,749.925 C173.3475,753.525018 174.517488,756.569988 176.8575,759.06 C179.197512,761.550012 182.002484,762.795 185.2725,762.795 C186.532506,762.795 187.717494,762.622502 188.8275,762.2775 C189.937506,761.932498 191.092494,761.325004 192.2925,760.455 Z M216.3225,762.255 L215.6025,765 L197.7375,765 L197.7375,734.67 L214.8825,734.67 L215.6025,737.37 L200.5725,737.37 L200.5725,748.305 L213.3975,748.305 L213.3975,751.05 L200.5725,751.05 L200.5725,762.255 L216.3225,762.255 Z" id="PRICE" fill="#000000"></path>
                <path d="M264.52,752.42 C264.52,755.060013 263.56001,757.239991 261.64,758.96 C259.879991,760.560008 257.640014,761.559998 254.92,761.96 L254.92,767.3 L252.22,767.9 L252.22,761.96 C249.659987,761.96 247.200012,761.060009 244.84,759.26 C244.079996,758.659997 243.160005,757.760006 242.08,756.56 L244.48,754.28 C245.520005,755.600007 246.709993,756.689996 248.05,757.55 C249.390007,758.410004 250.779993,758.84 252.22,758.84 L252.22,745.82 C249.299985,745.139997 247.120007,744.180006 245.68,742.94 C243.879991,741.379992 242.98,739.200014 242.98,736.4 C242.98,733.679986 243.889991,731.430009 245.71,729.65 C247.530009,727.869991 249.699987,726.98 252.22,726.98 L252.22,723.68 L254.92,723.2 L254.92,726.98 C256.680009,727.180001 258.299993,727.619997 259.78,728.3 C261.260007,728.980003 262.519995,729.959994 263.56,731.24 L261.46,733.76 C260.459995,732.639994 259.500005,731.820003 258.58,731.3 C257.419994,730.619997 256.220006,730.28 254.98,730.28 L254.98,742.52 C257.900015,743.040003 260.159992,744.059992 261.76,745.58 C263.600009,747.300009 264.52,749.579986 264.52,752.42 Z M252.22,742.22 L252.22,730.28 C250.539992,730.28 249.130006,730.889994 247.99,732.11 C246.849994,733.330006 246.28,734.819991 246.28,736.58 C246.28,738.180008 246.839994,739.459995 247.96,740.42 C248.920005,741.260004 250.339991,741.859998 252.22,742.22 Z M261.16,752.6 C261.16,750.879991 260.570006,749.430006 259.39,748.25 C258.209994,747.069994 256.740009,746.360001 254.98,746.12 L254.92,758.84 C256.720009,758.599999 258.209994,757.940005 259.39,756.86 C260.570006,755.779995 261.16,754.360009 261.16,752.6 Z M298,738.44 C298,741.120013 297.00001,744.019984 295,747.14 C293.519993,749.460012 291.200016,752.239984 288.04,755.48 L280.12,763.4 L297.94,763.4 L297.22,767 L272.44,767 L288.76,749.6 C290.960011,747.239988 292.479996,745.08001 293.32,743.12 C293.920003,741.679993 294.22,740.120008 294.22,738.44 C294.22,735.839987 293.330009,733.670009 291.55,731.93 C289.769991,730.189991 287.680012,729.32 285.28,729.32 C282.759987,729.32 280.640009,730.179991 278.92,731.9 C277.199991,733.620009 276.34,735.719988 276.34,738.2 C276.34,740.760013 277.119992,742.919991 278.68,744.68 C280.240008,746.440009 282.439986,747.539998 285.28,747.98 L282.76,750.92 C279.599984,750.199996 277.110009,748.710011 275.29,746.45 C273.469991,744.189989 272.56,741.380017 272.56,738.02 C272.56,734.739984 273.849987,731.910012 276.43,729.53 C279.010013,727.149988 282.099982,725.96 285.7,725.96 C289.300018,725.96 292.279988,727.259987 294.64,729.86 C296.880011,732.300012 298,735.159984 298,738.44 Z M329.62,746.66 C329.62,751.780026 328.60001,756.35998 326.56,760.4 C324.079988,765.320025 320.700021,767.78 316.42,767.78 C312.019978,767.78 308.660012,765.560022 306.34,761.12 C304.33999,757.319981 303.34,752.480029 303.34,746.6 C303.34,741.279973 304.35999,736.66002 306.4,732.74 C308.800012,728.099977 312.159978,725.78 316.48,725.78 C321.120023,725.78 324.599988,728.219976 326.92,733.1 C328.720009,736.900019 329.62,741.419974 329.62,746.66 Z M325.84,746.66 C325.84,742.099977 325.180007,738.260016 323.86,735.14 C322.179992,731.13998 319.700016,729.14 316.42,729.14 C313.379985,729.14 311.000009,731.15998 309.28,735.2 C307.839993,738.560017 307.12,742.379979 307.12,746.66 C307.12,751.140022 307.759994,754.959984 309.04,758.12 C310.720008,762.280021 313.199984,764.36 316.48,764.36 C319.600016,764.36 322.019991,762.32002 323.74,758.24 C325.140007,754.879983 325.84,751.020022 325.84,746.66 Z M360.94,746.66 C360.94,751.780026 359.92001,756.35998 357.88,760.4 C355.399988,765.320025 352.020021,767.78 347.74,767.78 C343.339978,767.78 339.980012,765.560022 337.66,761.12 C335.65999,757.319981 334.66,752.480029 334.66,746.6 C334.66,741.279973 335.67999,736.66002 337.72,732.74 C340.120012,728.099977 343.479978,725.78 347.8,725.78 C352.440023,725.78 355.919988,728.219976 358.24,733.1 C360.040009,736.900019 360.94,741.419974 360.94,746.66 Z M357.16,746.66 C357.16,742.099977 356.500007,738.260016 355.18,735.14 C353.499992,731.13998 351.020016,729.14 347.74,729.14 C344.699985,729.14 342.320009,731.15998 340.6,735.2 C339.159993,738.560017 338.44,742.379979 338.44,746.66 C338.44,751.140022 339.079994,754.959984 340.36,758.12 C342.040008,762.280021 344.519984,764.36 347.8,764.36 C350.920016,764.36 353.339991,762.32002 355.06,758.24 C356.460007,754.879983 357.16,751.020022 357.16,746.66 Z" id="$000" fill="#000000"></path>
            </g>
        </g>
    </g>
</svg>