<?xml version="1.0" encoding="UTF-8"?>
<svg width="800px" height="480px" viewBox="0 0 800 480" version="1.1" xmlns="http://www.w3.org/2000/svg" xmlns:xlink="http://www.w3.org/1999/xlink">
    <!-- Generator: Sketch 48.2 (47327) - http://www.bohemiancoding.com/sketch -->
    <title>Space/Property/Tennessee Avenue</title>
    <desc>Created with Sketch.</desc>
    <defs>
        <rect id="path-1" x="0" y="164" width="480" height="24"></rect>
        <rect id="path-2" x="0" y="0" width="480" height="164"></rect>
        <rect id="path-3" x="0" y="188" width="480" height="612"></rect>
    </defs>
    <g id="Property-Spaces" stroke="none" stroke-width="1" fill="none" fill-rule="evenodd" transform="translate(-1094.000000, -1761.000000)">
        <g id="Space/Property/Tennessee-Avenue" transform="translate(1494.000000, 2001.000000) rotate(90.000000) translate(-1494.000000, -2001.000000) translate(1254.000000, 1601.000000)">
            <g id="Property-Square">
                <g id="Squared-Black-Separator">
                    <use fill="#000000" fill-rule="evenodd" xlink:href="#path-1"></use>
                    <rect stroke="#000000" stroke-width="1" x="0.5" y="164.5" width="479" height="23"></rect>
                </g>
                <g id="Property-Square/Top-Color/Orange">
                    <g>
                        <use fill="#F57F23" fill-rule="evenodd" xlink:href="#path-2"></use>
                        <rect stroke="#F57F23" stroke-width="1" x="0.5" y="0.5" width="479" height="163"></rect>
                    </g>
                </g>
                <g id="Squared-Teal-Field">
                    <use fill="#CBE8E0" fill-rule="evenodd" xlink:href="#path-3"></use>
                    <rect stroke="#CBE8E0" stroke-width="1" x="0.5" y="188.5" width="479" height="611"></rect>
                </g>
                <path d="M117.12,321.22 L106.32,321.22 L106.32,357.64 L102.48,358.42 L102.48,321.22 L90.72,321.22 L91.74,317.56 L117.12,317.56 L117.12,321.22 Z M148.44,354.34 L147.48,358 L123.66,358 L123.66,317.56 L146.52,317.56 L147.48,321.16 L127.44,321.16 L127.44,335.74 L144.54,335.74 L144.54,339.4 L127.44,339.4 L127.44,354.34 L148.44,354.34 Z M186.48,358.42 L159.42,326.44 L159.42,357.64 L155.64,358.42 L155.64,316.36 L182.88,348.7 L182.88,317.98 L186.48,317.2 L186.48,358.42 Z M227.76,358.42 L200.7,326.44 L200.7,357.64 L196.92,358.42 L196.92,316.36 L224.16,348.7 L224.16,317.98 L227.76,317.2 L227.76,358.42 Z M263.04,354.34 L262.08,358 L238.26,358 L238.26,317.56 L261.12,317.56 L262.08,321.16 L242.04,321.16 L242.04,335.74 L259.14,335.74 L259.14,339.4 L242.04,339.4 L242.04,354.34 L263.04,354.34 Z M292.62,347.26 C292.62,350.780018 291.370013,353.599989 288.87,355.72 C286.369988,357.840011 283.260019,358.9 279.54,358.9 C276.659986,358.9 274.140011,358.220007 271.98,356.86 C270.299992,355.819995 268.660008,354.180011 267.06,351.94 L270.18,349.36 C271.500007,351.28001 272.799994,352.639996 274.08,353.44 C275.640008,354.440005 277.479989,354.94 279.6,354.94 C281.920012,354.94 283.939991,354.340006 285.66,353.14 C287.58001,351.779993 288.54,349.960011 288.54,347.68 C288.54,344.359983 286.760018,341.960007 283.2,340.48 C279.879983,339.319994 276.580016,338.160006 273.3,337 C269.699982,335.07999 267.9,331.960022 267.9,327.64 C267.9,324.519984 269.109988,321.900011 271.53,319.78 C273.950012,317.659989 276.879983,316.6 280.32,316.6 C282.560011,316.6 284.559991,317.009996 286.32,317.83 C288.080009,318.650004 289.759992,319.899992 291.36,321.58 L288.6,324.52 C287.439994,323.239994 286.170007,322.260003 284.79,321.58 C283.409993,320.899997 281.920008,320.56 280.32,320.56 C278.159989,320.56 276.240008,321.209993 274.56,322.51 C272.879992,323.810006 272.04,325.519989 272.04,327.64 C272.04,330.760016 273.819982,332.999993 277.38,334.36 C280.660016,335.520006 283.959983,336.679994 287.28,337.84 C290.840018,339.76001 292.62,342.899978 292.62,347.26 Z M322.86,347.26 C322.86,350.780018 321.610013,353.599989 319.11,355.72 C316.609988,357.840011 313.500019,358.9 309.78,358.9 C306.899986,358.9 304.380011,358.220007 302.22,356.86 C300.539992,355.819995 298.900008,354.180011 297.3,351.94 L300.42,349.36 C301.740007,351.28001 303.039994,352.639996 304.32,353.44 C305.880008,354.440005 307.719989,354.94 309.84,354.94 C312.160012,354.94 314.179991,354.340006 315.9,353.14 C317.82001,351.779993 318.78,349.960011 318.78,347.68 C318.78,344.359983 317.000018,341.960007 313.44,340.48 C310.119983,339.319994 306.820016,338.160006 303.54,337 C299.939982,335.07999 298.14,331.960022 298.14,327.64 C298.14,324.519984 299.349988,321.900011 301.77,319.78 C304.190012,317.659989 307.119983,316.6 310.56,316.6 C312.800011,316.6 314.799991,317.009996 316.56,317.83 C318.320009,318.650004 319.999992,319.899992 321.6,321.58 L318.84,324.52 C317.679994,323.239994 316.410007,322.260003 315.03,321.58 C313.649993,320.899997 312.160008,320.56 310.56,320.56 C308.399989,320.56 306.480008,321.209993 304.8,322.51 C303.119992,323.810006 302.28,325.519989 302.28,327.64 C302.28,330.760016 304.059982,332.999993 307.62,334.36 C310.900016,335.520006 314.199983,336.679994 317.52,337.84 C321.080018,339.76001 322.86,342.899978 322.86,347.26 Z M355.56,354.34 L354.6,358 L330.78,358 L330.78,317.56 L353.64,317.56 L354.6,321.16 L334.56,321.16 L334.56,335.74 L351.66,335.74 L351.66,339.4 L334.56,339.4 L334.56,354.34 L355.56,354.34 Z M387.6,354.34 L386.64,358 L362.82,358 L362.82,317.56 L385.68,317.56 L386.64,321.16 L366.6,321.16 L366.6,335.74 L383.7,335.74 L383.7,339.4 L366.6,339.4 L366.6,354.34 L387.6,354.34 Z M169.5,424.4 L165.66,425.42 L157.5,408.86 L140.76,408.86 L132.36,425.42 L128.52,424.4 L149.22,383.36 L169.5,424.4 Z M155.7,405.2 L149.16,391.58 L142.44,405.2 L155.7,405.2 Z M207.18,385.28 L187.98,426.62 L169.5,385.28 L173.28,384.2 L187.98,417.44 L203.4,384.2 L207.18,385.28 Z M237.24,421.34 L236.28,425 L212.46,425 L212.46,384.56 L235.32,384.56 L236.28,388.16 L216.24,388.16 L216.24,402.74 L233.34,402.74 L233.34,406.4 L216.24,406.4 L216.24,421.34 L237.24,421.34 Z M275.28,425.42 L248.22,393.44 L248.22,424.64 L244.44,425.42 L244.44,383.36 L271.68,415.7 L271.68,384.98 L275.28,384.2 L275.28,425.42 Z M314.64,411.92 C314.64,416.120021 313.240014,419.459988 310.44,421.94 C307.799987,424.300012 304.44002,425.48 300.36,425.48 C295.479976,425.48 291.770013,424.290012 289.23,421.91 C286.689987,419.529988 285.42,416.200021 285.42,411.92 L285.42,384.98 L289.2,384.2 L289.2,411.74 C289.2,414.860016 290.16999,417.269991 292.11,418.97 C294.05001,420.670008 296.799982,421.52 300.36,421.52 C303.520016,421.52 306.049991,420.630009 307.95,418.85 C309.850009,417.069991 310.8,414.700015 310.8,411.74 L310.8,384.98 L314.64,384.2 L314.64,411.92 Z M349.5,421.34 L348.54,425 L324.72,425 L324.72,384.56 L347.58,384.56 L348.54,388.16 L328.5,388.16 L328.5,402.74 L345.6,402.74 L345.6,406.4 L328.5,406.4 L328.5,421.34 L349.5,421.34 Z" id="PROPERTY-NAME" fill="#000000"></path>
                <path d="M132.7575,744.75 C132.7575,747.840015 131.617511,750.35999 129.3375,752.31 C127.29749,754.050009 124.972513,754.92 122.3625,754.92 L118.9875,754.92 L118.9875,764.73 L116.1525,765.315 L116.1525,734.58 L121.1475,734.58 C124.417516,734.58 127.132489,735.464991 129.2925,737.235 C131.602512,739.125009 132.7575,741.629984 132.7575,744.75 Z M129.6525,744.705 C129.6525,742.424989 128.857508,740.632507 127.2675,739.3275 C125.677492,738.022493 123.592513,737.37 121.0125,737.37 L118.9875,737.37 L118.9875,752.085 L121.1025,752.085 C123.682513,752.085 125.752492,751.425007 127.3125,750.105 C128.872508,748.784993 129.6525,746.985011 129.6525,744.705 Z M156.1125,764.1 L153.4125,765.405 L141.2175,750.6 L141.2175,764.73 L138.3825,765.315 L138.3825,734.625 L143.3775,734.625 C146.677516,734.625 149.257491,735.404992 151.1175,736.965 C152.977509,738.525008 153.9075,740.804985 153.9075,743.805 C153.9075,746.175012 153.195007,748.139992 151.77,749.7 C150.344993,751.260008 148.61251,752.174999 146.5725,752.445 L156.1125,764.1 Z M150.8475,743.805 C150.8475,741.88499 150.232506,740.340006 149.0025,739.17 C147.772494,737.999994 146.12251,737.415 144.0525,737.415 L141.2175,737.415 L141.2175,750.15 L144.2775,750.15 C146.22751,750.15 147.809994,749.587506 149.025,748.4625 C150.240006,747.337494 150.8475,745.78501 150.8475,743.805 Z M164.3925,764.73 L161.5575,765.315 L161.5575,734.985 L164.3925,734.4 L164.3925,764.73 Z M192.2925,760.455 L191.7525,764.1 C190.822495,764.670003 189.840005,765.089999 188.805,765.36 C187.769995,765.630001 186.562507,765.765 185.1825,765.765 C181.072479,765.765 177.555015,764.160016 174.63,760.95 C171.704985,757.739984 170.2425,754.050021 170.2425,749.88 C170.2425,745.589979 171.697485,741.855016 174.6075,738.675 C177.517515,735.494984 181.102479,733.905 185.3625,733.905 C186.442505,733.905 187.514995,734.017499 188.58,734.2425 C189.645005,734.467501 190.702495,734.819998 191.7525,735.3 L192.2925,738.81 C190.192489,737.519994 187.897512,736.875 185.4075,736.875 C181.867482,736.875 178.942512,738.209987 176.6325,740.88 C174.442489,743.430013 173.3475,746.444983 173.3475,749.925 C173.3475,753.525018 174.517488,756.569988 176.8575,759.06 C179.197512,761.550012 182.002484,762.795 185.2725,762.795 C186.532506,762.795 187.717494,762.622502 188.8275,762.2775 C189.937506,761.932498 191.092494,761.325004 192.2925,760.455 Z M216.3225,762.255 L215.6025,765 L197.7375,765 L197.7375,734.67 L214.8825,734.67 L215.6025,737.37 L200.5725,737.37 L200.5725,748.305 L213.3975,748.305 L213.3975,751.05 L200.5725,751.05 L200.5725,762.255 L216.3225,762.255 Z" id="PRICE" fill="#000000"></path>
                <path d="M264.52,752.42 C264.52,755.060013 263.56001,757.239991 261.64,758.96 C259.879991,760.560008 257.640014,761.559998 254.92,761.96 L254.92,767.3 L252.22,767.9 L252.22,761.96 C249.659987,761.96 247.200012,761.060009 244.84,759.26 C244.079996,758.659997 243.160005,757.760006 242.08,756.56 L244.48,754.28 C245.520005,755.600007 246.709993,756.689996 248.05,757.55 C249.390007,758.410004 250.779993,758.84 252.22,758.84 L252.22,745.82 C249.299985,745.139997 247.120007,744.180006 245.68,742.94 C243.879991,741.379992 242.98,739.200014 242.98,736.4 C242.98,733.679986 243.889991,731.430009 245.71,729.65 C247.530009,727.869991 249.699987,726.98 252.22,726.98 L252.22,723.68 L254.92,723.2 L254.92,726.98 C256.680009,727.180001 258.299993,727.619997 259.78,728.3 C261.260007,728.980003 262.519995,729.959994 263.56,731.24 L261.46,733.76 C260.459995,732.639994 259.500005,731.820003 258.58,731.3 C257.419994,730.619997 256.220006,730.28 254.98,730.28 L254.98,742.52 C257.900015,743.040003 260.159992,744.059992 261.76,745.58 C263.600009,747.300009 264.52,749.579986 264.52,752.42 Z M252.22,742.22 L252.22,730.28 C250.539992,730.28 249.130006,730.889994 247.99,732.11 C246.849994,733.330006 246.28,734.819991 246.28,736.58 C246.28,738.180008 246.839994,739.459995 247.96,740.42 C248.920005,741.260004 250.339991,741.859998 252.22,742.22 Z M261.16,752.6 C261.16,750.879991 260.570006,749.430006 259.39,748.25 C258.209994,747.069994 256.740009,746.360001 254.98,746.12 L254.92,758.84 C256.720009,758.599999 258.209994,757.940005 259.39,756.86 C260.570006,755.779995 261.16,754.360009 261.16,752.6 Z M290.32,766.64 L286.66,767.42 L286.66,731.96 L276.22,737.66 L275.14,735.2 L290.32,725.78 L290.32,766.64 Z M329.26,756.26 C329.26,759.660017 328.040012,762.429989 325.6,764.57 C323.159988,766.710011 320.140018,767.78 316.54,767.78 C312.739981,767.78 309.640012,766.700011 307.24,764.54 C304.839988,762.379989 303.64,759.420019 303.64,755.66 C303.64,753.419989 304.319993,751.400009 305.68,749.6 C307.040007,747.799991 308.819989,746.540004 311.02,745.82 C309.01999,744.819995 307.500005,743.660007 306.46,742.34 C305.219994,740.739992 304.6,738.780012 304.6,736.46 C304.6,733.339984 305.789988,730.78001 308.17,728.78 C310.550012,726.77999 313.339984,725.78 316.54,725.78 C319.700016,725.78 322.359989,726.719991 324.52,728.6 C326.880012,730.64001 328.06,733.319983 328.06,736.64 C328.06,738.840011 327.440006,740.789992 326.2,742.49 C324.959994,744.190008 323.480009,745.299997 321.76,745.82 C324.080012,746.740005 325.909993,748.059991 327.25,749.78 C328.590007,751.500009 329.26,753.659987 329.26,756.26 Z M324.34,736.58 C324.34,734.459989 323.570008,732.690007 322.03,731.27 C320.489992,729.849993 318.620011,729.14 316.42,729.14 C314.219989,729.14 312.320008,729.839993 310.72,731.24 C309.119992,732.640007 308.32,734.419989 308.32,736.58 C308.32,738.860011 309.079992,740.739993 310.6,742.22 C312.120008,743.700007 314.019989,744.44 316.3,744.44 C318.500011,744.44 320.389992,743.690007 321.97,742.19 C323.550008,740.689993 324.34,738.820011 324.34,736.58 Z M325.6,756.08 C325.6,753.519987 324.710009,751.460008 322.93,749.9 C321.149991,748.339992 319.020012,747.56 316.54,747.56 C314.099988,747.56 311.970009,748.319992 310.15,749.84 C308.329991,751.360008 307.42,753.319988 307.42,755.72 C307.42,758.320013 308.269992,760.409992 309.97,761.99 C311.670008,763.570008 313.859987,764.36 316.54,764.36 C319.180013,764.36 321.349991,763.590008 323.05,762.05 C324.750008,760.509992 325.6,758.520012 325.6,756.08 Z M360.94,746.66 C360.94,751.780026 359.92001,756.35998 357.88,760.4 C355.399988,765.320025 352.020021,767.78 347.74,767.78 C343.339978,767.78 339.980012,765.560022 337.66,761.12 C335.65999,757.319981 334.66,752.480029 334.66,746.6 C334.66,741.279973 335.67999,736.66002 337.72,732.74 C340.120012,728.099977 343.479978,725.78 347.8,725.78 C352.440023,725.78 355.919988,728.219976 358.24,733.1 C360.040009,736.900019 360.94,741.419974 360.94,746.66 Z M357.16,746.66 C357.16,742.099977 356.500007,738.260016 355.18,735.14 C353.499992,731.13998 351.020016,729.14 347.74,729.14 C344.699985,729.14 342.320009,731.15998 340.6,735.2 C339.159993,738.560017 338.44,742.379979 338.44,746.66 C338.44,751.140022 339.079994,754.959984 340.36,758.12 C342.040008,762.280021 344.519984,764.36 347.8,764.36 C350.920016,764.36 353.339991,762.32002 355.06,758.24 C356.460007,754.879983 357.16,751.020022 357.16,746.66 Z" id="$000" fill="#000000"></path>
            </g>
        </g>
    </g>
</svg>