<?xml version="1.0" encoding="UTF-8"?>
<svg width="119px" height="46px" viewBox="0 0 119 46" version="1.1" xmlns="http://www.w3.org/2000/svg" xmlns:xlink="http://www.w3.org/1999/xlink">
    <!-- Generator: Sketch 48.2 (47327) - http://www.bohemiancoding.com/sketch -->
    <title>$000</title>
    <desc>Created with Sketch.</desc>
    <defs></defs>
    <g id="Property-Spaces" stroke="none" stroke-width="1" fill="none" fill-rule="evenodd" transform="translate(-1346.000000, -3166.000000)">
        <g id="Space/Property/Illinois-Avenue" transform="translate(1467.000000, 3535.000000) rotate(180.000000) translate(-1467.000000, -3535.000000) translate(1227.000000, 3135.000000)" fill="#000000">
            <g id="Property-Square">
                <path d="M264.52,752.42 C264.52,755.060013 263.56001,757.239991 261.64,758.96 C259.879991,760.560008 257.640014,761.559998 254.92,761.96 L254.92,767.3 L252.22,767.9 L252.22,761.96 C249.659987,761.96 247.200012,761.060009 244.84,759.26 C244.079996,758.659997 243.160005,757.760006 242.08,756.56 L244.48,754.28 C245.520005,755.600007 246.709993,756.689996 248.05,757.55 C249.390007,758.410004 250.779993,758.84 252.22,758.84 L252.22,745.82 C249.299985,745.139997 247.120007,744.180006 245.68,742.94 C243.879991,741.379992 242.98,739.200014 242.98,736.4 C242.98,733.679986 243.889991,731.430009 245.71,729.65 C247.530009,727.869991 249.699987,726.98 252.22,726.98 L252.22,723.68 L254.92,723.2 L254.92,726.98 C256.680009,727.180001 258.299993,727.619997 259.78,728.3 C261.260007,728.980003 262.519995,729.959994 263.56,731.24 L261.46,733.76 C260.459995,732.639994 259.500005,731.820003 258.58,731.3 C257.419994,730.619997 256.220006,730.28 254.98,730.28 L254.98,742.52 C257.900015,743.040003 260.159992,744.059992 261.76,745.58 C263.600009,747.300009 264.52,749.579986 264.52,752.42 Z M252.22,742.22 L252.22,730.28 C250.539992,730.28 249.130006,730.889994 247.99,732.11 C246.849994,733.330006 246.28,734.819991 246.28,736.58 C246.28,738.180008 246.839994,739.459995 247.96,740.42 C248.920005,741.260004 250.339991,741.859998 252.22,742.22 Z M261.16,752.6 C261.16,750.879991 260.570006,749.430006 259.39,748.25 C258.209994,747.069994 256.740009,746.360001 254.98,746.12 L254.92,758.84 C256.720009,758.599999 258.209994,757.940005 259.39,756.86 C260.570006,755.779995 261.16,754.360009 261.16,752.6 Z M298,738.44 C298,741.120013 297.00001,744.019984 295,747.14 C293.519993,749.460012 291.200016,752.239984 288.04,755.48 L280.12,763.4 L297.94,763.4 L297.22,767 L272.44,767 L288.76,749.6 C290.960011,747.239988 292.479996,745.08001 293.32,743.12 C293.920003,741.679993 294.22,740.120008 294.22,738.44 C294.22,735.839987 293.330009,733.670009 291.55,731.93 C289.769991,730.189991 287.680012,729.32 285.28,729.32 C282.759987,729.32 280.640009,730.179991 278.92,731.9 C277.199991,733.620009 276.34,735.719988 276.34,738.2 C276.34,740.760013 277.119992,742.919991 278.68,744.68 C280.240008,746.440009 282.439986,747.539998 285.28,747.98 L282.76,750.92 C279.599984,750.199996 277.110009,748.710011 275.29,746.45 C273.469991,744.189989 272.56,741.380017 272.56,738.02 C272.56,734.739984 273.849987,731.910012 276.43,729.53 C279.010013,727.149988 282.099982,725.96 285.7,725.96 C289.300018,725.96 292.279988,727.259987 294.64,729.86 C296.880011,732.300012 298,735.159984 298,738.44 Z M330.34,752.96 L329.62,756.56 L323.32,756.56 L323.32,767.54 L319.72,768.08 L319.72,756.56 L302.68,756.56 L323.32,725.48 L323.32,752.96 L330.34,752.96 Z M319.72,752.96 L319.72,735.98 L308.44,752.96 L319.72,752.96 Z M360.94,746.66 C360.94,751.780026 359.92001,756.35998 357.88,760.4 C355.399988,765.320025 352.020021,767.78 347.74,767.78 C343.339978,767.78 339.980012,765.560022 337.66,761.12 C335.65999,757.319981 334.66,752.480029 334.66,746.6 C334.66,741.279973 335.67999,736.66002 337.72,732.74 C340.120012,728.099977 343.479978,725.78 347.8,725.78 C352.440023,725.78 355.919988,728.219976 358.24,733.1 C360.040009,736.900019 360.94,741.419974 360.94,746.66 Z M357.16,746.66 C357.16,742.099977 356.500007,738.260016 355.18,735.14 C353.499992,731.13998 351.020016,729.14 347.74,729.14 C344.699985,729.14 342.320009,731.15998 340.6,735.2 C339.159993,738.560017 338.44,742.379979 338.44,746.66 C338.44,751.140022 339.079994,754.959984 340.36,758.12 C342.040008,762.280021 344.519984,764.36 347.8,764.36 C350.920016,764.36 353.339991,762.32002 355.06,758.24 C356.460007,754.879983 357.16,751.020022 357.16,746.66 Z" id="$000"></path>
            </g>
        </g>
    </g>
</svg>