<?xml version="1.0" encoding="UTF-8"?>
<svg width="222px" height="111px" viewBox="0 0 222 111" version="1.1" xmlns="http://www.w3.org/2000/svg" xmlns:xlink="http://www.w3.org/1999/xlink">
    <!-- Generator: Sketch 48.2 (47327) - http://www.bohemiancoding.com/sketch -->
    <title>PROPERTY NAME</title>
    <desc>Created with Sketch.</desc>
    <defs></defs>
    <g id="Property-Spaces" stroke="none" stroke-width="1" fill="none" fill-rule="evenodd" transform="translate(-1357.000000, -3508.000000)">
        <g id="Space/Property/Illinois-Avenue" transform="translate(1467.000000, 3535.000000) rotate(180.000000) translate(-1467.000000, -3535.000000) translate(1227.000000, 3135.000000)" fill="#000000">
            <g id="Property-Square">
                <path d="M142.62,357.64 L138.84,358.42 L138.84,317.98 L142.62,317.2 L142.62,357.64 Z M172.86,354.34 L171.54,358 L153.18,358 L153.18,317.98 L156.96,317.2 L156.96,354.34 L172.86,354.34 Z M198.24,354.34 L196.92,358 L178.56,358 L178.56,317.98 L182.34,317.2 L182.34,354.34 L198.24,354.34 Z M207.72,357.64 L203.94,358.42 L203.94,317.98 L207.72,317.2 L207.72,357.64 Z M249.06,358.42 L222,326.44 L222,357.64 L218.22,358.42 L218.22,316.36 L245.46,348.7 L245.46,317.98 L249.06,317.2 L249.06,358.42 Z M299.34,337.72 C299.34,343.440029 297.240021,348.419979 293.04,352.66 C288.839979,356.900021 283.880029,359.02 278.16,359.02 C272.279971,359.02 267.250021,356.950021 263.07,352.81 C258.889979,348.669979 256.8,343.660029 256.8,337.78 C256.8,331.939971 258.879979,326.940021 263.04,322.78 C267.200021,318.619979 272.199971,316.54 278.04,316.54 C284.00003,316.54 289.039979,318.57998 293.16,322.66 C297.280021,326.74002 299.34,331.75997 299.34,337.72 Z M295.2,337.78 C295.2,332.859975 293.510017,328.750017 290.13,325.45 C286.749983,322.149983 282.740023,320.5 278.1,320.5 C273.339976,320.5 269.290017,322.189983 265.95,325.57 C262.609983,328.950017 260.94,333.019976 260.94,337.78 C260.94,342.500024 262.619983,346.559983 265.98,349.96 C269.340017,353.360017 273.359977,355.06 278.04,355.06 C282.800024,355.06 286.849983,353.350017 290.19,349.93 C293.530017,346.509983 295.2,342.460023 295.2,337.78 Z M310.92,357.64 L307.14,358.42 L307.14,317.98 L310.92,317.2 L310.92,357.64 Z M343.8,347.26 C343.8,350.780018 342.550012,353.599989 340.05,355.72 C337.549988,357.840011 334.440019,358.9 330.72,358.9 C327.839986,358.9 325.320011,358.220007 323.16,356.86 C321.479992,355.819995 319.840008,354.180011 318.24,351.94 L321.36,349.36 C322.680007,351.28001 323.979994,352.639996 325.26,353.44 C326.820008,354.440005 328.659989,354.94 330.78,354.94 C333.100012,354.94 335.119991,354.340006 336.84,353.14 C338.76001,351.779993 339.72,349.960011 339.72,347.68 C339.72,344.359983 337.940018,341.960007 334.38,340.48 C331.059983,339.319994 327.760016,338.160006 324.48,337 C320.879982,335.07999 319.08,331.960022 319.08,327.64 C319.08,324.519984 320.289988,321.900011 322.71,319.78 C325.130012,317.659989 328.059983,316.6 331.5,316.6 C333.740011,316.6 335.739991,317.009996 337.5,317.83 C339.260009,318.650004 340.939992,319.899992 342.54,321.58 L339.78,324.52 C338.619994,323.239994 337.350007,322.260003 335.97,321.58 C334.589993,320.899997 333.100008,320.56 331.5,320.56 C329.339989,320.56 327.420008,321.209993 325.74,322.51 C324.059992,323.810006 323.22,325.519989 323.22,327.64 C323.22,330.760016 324.999982,332.999993 328.56,334.36 C331.840016,335.520006 335.139983,336.679994 338.46,337.84 C342.020018,339.76001 343.8,342.899978 343.8,347.26 Z M169.5,424.4 L165.66,425.42 L157.5,408.86 L140.76,408.86 L132.36,425.42 L128.52,424.4 L149.22,383.36 L169.5,424.4 Z M155.7,405.2 L149.16,391.58 L142.44,405.2 L155.7,405.2 Z M207.18,385.28 L187.98,426.62 L169.5,385.28 L173.28,384.2 L187.98,417.44 L203.4,384.2 L207.18,385.28 Z M237.24,421.34 L236.28,425 L212.46,425 L212.46,384.56 L235.32,384.56 L236.28,388.16 L216.24,388.16 L216.24,402.74 L233.34,402.74 L233.34,406.4 L216.24,406.4 L216.24,421.34 L237.24,421.34 Z M275.28,425.42 L248.22,393.44 L248.22,424.64 L244.44,425.42 L244.44,383.36 L271.68,415.7 L271.68,384.98 L275.28,384.2 L275.28,425.42 Z M314.64,411.92 C314.64,416.120021 313.240014,419.459988 310.44,421.94 C307.799987,424.300012 304.44002,425.48 300.36,425.48 C295.479976,425.48 291.770013,424.290012 289.23,421.91 C286.689987,419.529988 285.42,416.200021 285.42,411.92 L285.42,384.98 L289.2,384.2 L289.2,411.74 C289.2,414.860016 290.16999,417.269991 292.11,418.97 C294.05001,420.670008 296.799982,421.52 300.36,421.52 C303.520016,421.52 306.049991,420.630009 307.95,418.85 C309.85001,417.069991 310.8,414.700015 310.8,411.74 L310.8,384.98 L314.64,384.2 L314.64,411.92 Z M349.5,421.34 L348.54,425 L324.72,425 L324.72,384.56 L347.58,384.56 L348.54,388.16 L328.5,388.16 L328.5,402.74 L345.6,402.74 L345.6,406.4 L328.5,406.4 L328.5,421.34 L349.5,421.34 Z" id="PROPERTY-NAME"></path>
            </g>
        </g>
    </g>
</svg>