<?xml version="1.0" encoding="UTF-8"?>
<svg width="801px" height="481px" viewBox="0 0 801 481" version="1.1" xmlns="http://www.w3.org/2000/svg" xmlns:xlink="http://www.w3.org/1999/xlink">
    <!-- Generator: Sketch 48.2 (47327) - http://www.bohemiancoding.com/sketch -->
    <title>Space/Card/Community Chest/LeftSide</title>
    <desc>Created with Sketch.</desc>
    <defs>
        <rect id="path-1" x="0" y="0" width="480" height="800"></rect>
    </defs>
    <g id="Card-Drawing-Spaces" stroke="none" stroke-width="1" fill="none" fill-rule="evenodd" transform="translate(-48.000000, -893.000000)">
        <g id="Space/Card/Community-Chest" transform="translate(448.500000, 1134.000000) rotate(90.000000) translate(-448.500000, -1134.000000) translate(208.000000, 734.000000)">
            <g>
                <g id="Squared-Full-Height-Teal-Field">
                    <use fill="#CBE8E0" fill-rule="evenodd" xlink:href="#path-1"></use>
                    <rect stroke="#CBE8E0" stroke-width="1" x="0.5" y="0.5" width="479" height="799"></rect>
                </g>
                <text id="COMMUNITY-CHEST" font-family="KabobLight" font-size="60" font-weight="300" fill="#000000">
                    <tspan x="74.17" y="102">COMMUNITY</tspan>
                    <tspan x="158.41" y="169">CHEST</tspan>
                </text>
                <text id="FOLLOW-INSTRUCTIONS-ON-TOP-CARD" font-family="KabobLight" font-size="60" font-weight="300" fill="#000000">
                    <tspan x="128.29" y="619">FOLLOW</tspan>
                    <tspan x="51.52" y="686">INSTRUCTIONS</tspan>
                    <tspan x="55.24" y="753">ON TOP CARD</tspan>
                </text>
                <g id="Chest" transform="translate(62.000000, 266.000000)" fill-rule="nonzero">
                    <path d="M327.131789,7.60371932 C329.031789,7.90371932 331.531789,7.60371932 332.731789,8.70371932 C340.031789,15.4037193 347.131789,22.3037193 354.031789,29.4037193 C356.931789,32.4037193 357.931789,36.5037193 355.931789,40.4037193 C353.631789,45.1037193 351.131789,49.8037193 348.331789,54.2037193 C337.031789,72.0037193 325.531789,89.8037193 314.231789,107.603719 C310.331789,113.703719 306.331789,119.703719 303.731789,126.603719 C301.331789,133.103719 296.731789,137.703719 288.931789,137.903719 C287.931789,137.903719 286.931789,139.303719 285.831789,140.103719 C284.631789,141.503719 283.031789,141.803719 281.331789,141.303719 C278.331789,139.903719 275.331789,137.903719 271.831789,139.903719 C263.931789,153.603719 267.831789,168.503719 267.831789,182.803719 C267.831789,200.203719 261.231789,211.803719 245.331789,218.803719 C233.831789,223.903719 223.031789,230.603719 211.231789,235.103719 C191.731789,242.503719 185.731789,238.703719 184.531789,218.203719 C184.131789,212.303719 184.131789,206.303719 184.231789,200.303719 C184.831789,185.403719 184.631789,170.503719 183.731789,155.703719 C186.331789,144.303719 196.431789,143.303719 205.031789,140.503719 C216.931789,136.603719 229.731789,135.303719 240.831789,126.503719 C236.631789,111.803719 228.431789,105.803719 213.131789,111.203719 C199.831789,116.003719 186.131789,118.603719 172.131789,114.003719 C161.631789,110.603719 155.931789,116.403719 151.031789,124.203719 C145.931789,127.103719 142.031789,122.203719 137.331789,122.203719 C129.531789,120.703719 121.131789,122.603719 114.131789,117.203719 C112.731789,106.203719 122.831789,108.603719 128.031789,105.303719 C148.031789,103.903719 153.231789,90.1037193 154.731789,73.2037193 C155.931789,69.5037193 157.831789,66.1037193 160.531789,63.3037193 C162.031789,62.1037193 163.731789,61.3037193 165.531789,60.6037193 C171.631789,58.9037193 178.431789,59.7037193 183.831789,55.5037193 C204.131789,49.7037193 220.131789,56.1037193 229.231789,75.6037193 C236.431789,91.1037193 248.431789,101.803719 260.731789,115.703719 C263.431789,88.7037193 281.831789,71.7037193 291.531789,51.0037193 C290.131789,42.0037193 278.931789,46.1037193 277.031789,38.7037193 C283.331789,25.6037193 298.331789,35.4037193 306.331789,27.4037193 C306.831789,12.3037193 294.831789,19.6037193 288.331789,17.4037193 C281.831789,15.2037193 271.031789,20.8037193 270.931789,7.40371932 C289.831789,5.80371932 308.531789,5.20371932 327.131789,7.60371932 Z" id="Shape" fill="#0C0E13"></path>
                    <path d="M130.3,107.655393 C129.4,110.055393 128,111.855393 125.1,112.055393 C122.7,112.155393 120.1,111.855393 117.8,112.455393 C116.3,112.855393 115.2,114.655393 113.9,115.855393 C110.1,125.255393 87.5,123.755393 98.9,141.855393 C97.6,146.255393 93.9,147.455393 90.1,148.455393 C85.2,149.255393 80.2,149.155393 75.3,148.355393 C71.5,147.755393 67.9,146.455393 64.2,145.355393 C53.9,141.655393 43,139.955393 32.2,138.455393 C28.5,137.955393 24.9,136.855393 21.4,135.755393 C18.1,135.255393 14.6,134.555393 12.7,138.355393 C11.1,141.355393 11.4,144.855393 11.2,148.155393 C7.2,204.155393 10.9,208.955393 65.4,222.855393 C90.5,229.255393 116.4,233.355393 140.4,243.755393 C146.4,246.755393 152.7,248.855393 158.9,251.355393 C160.7,251.955393 162.5,252.655393 164.2,253.455393 C168.9,257.055393 178.7,254.455393 178,264.655393 C175,268.055393 171.3,268.655393 167.2,267.255393 C145.8,260.255393 123.9,254.655393 102.3,248.255393 C75.6,240.355393 48.8,232.655393 22.1,224.855393 C19.6,224.155393 16.9,223.655393 14.4,222.755393 C2.6,218.555393 1.2,219.155393 1.1,204.455393 C0.8,179.155393 0.3,153.955393 0,128.655393 C0,126.155393 0.9,123.555393 1.7,121.055393 C2.4,118.855393 6.4,116.855393 8.2,117.455393 C13.2,119.255393 18.1,121.155393 22.9,122.955393 C46.5,117.555393 69.8,112.255393 93,106.855393 C95.7,106.255393 97.8,104.455393 98.1,101.455393 C98.5,97.9553927 100.2,95.2553927 102.3,92.5553927 C105.2,91.1553927 107.4,92.6553927 109.6,94.2553927 C116.2,100.955393 122.9,95.6553927 129.5,94.3553927 C132.5,94.6553927 134.6,96.1553927 135.7,99.0553927 C136.6,103.555393 133.8,105.855393 130.3,107.655393 Z" id="Shape" fill="#070707"></path>
                    <path d="M277.041137,132 C282.141137,132.2 281.641137,136.1 281.941137,139.5 C286.241137,147.1 281.141137,155.9 285.241137,163.5 C285.341137,179.4 285.441137,195.3 285.341137,211.1 C285.341137,214.5 283.141137,217.5 280.041137,219.1 C274.841137,221.9 269.341137,224.4 263.941137,226.8 C242.841137,236.3 221.741137,245.9 200.641137,255.2 C197.041137,256.8 193.241137,257.7 189.541137,259 C186.241137,257.7 184.141137,255.6 185.341137,251.7 C202.841137,234.3 226.741137,229 248.241137,219.8 C266.341137,212.1 273.241137,201.7 272.741137,182.4 C272.341137,165.8 268.141137,148.2 277.041137,132 Z" id="Shape" fill="#262827"></path>
                    <path d="M177.378372,264.163682 C176.078372,262.863682 174.978372,260.763682 173.378372,260.363682 C170.878372,259.663682 168.078372,260.363682 165.578372,259.763682 C163.978372,259.363682 162.678372,257.563682 161.178372,256.363682 C157.178372,227.663682 162.178372,198.763682 158.378372,170.163682 C156.578372,166.363682 153.378372,163.463682 151.478372,159.763682 C150.578372,156.663682 150.878372,153.663682 152.978372,151.063682 C163.778372,148.863682 174.678372,147.363682 185.278372,152.263682 C187.578372,156.763682 189.878372,161.063682 189.578372,166.663682 C188.778372,178.163682 188.878372,189.663682 188.578372,201.263682 C176.778372,197.163682 182.578372,185.563682 178.178372,176.563682 C180.578372,203.063682 175.078372,228.363682 181.978372,253.063682 C182.978372,255.763682 184.578372,258.063682 185.978372,260.463682 C183.978372,263.563682 180.878372,264.263682 177.378372,264.163682 Z" id="Shape" fill="#212020"></path>
                    <path d="M326.6,7.36015091 C311,7.56015091 295.4,7.76015091 279.8,8.06015091 C277.2,8.06015091 274.6,8.16015091 272.1,8.76015091 C271.1,8.96015091 270.4,10.4601509 269.5,11.4601509 C266.5,15.5601509 262,17.1601509 257.3,17.2601509 C231.5,17.8601509 205.7,17.7601509 181,8.16015091 C184.1,-4.13984909 193.8,3.36015091 200.2,2.36015091 C207.6,1.26015091 215.6,0.760150905 223.2,3.46015091 C225.8,3.26015091 228.4,2.76015091 231,2.86015091 C260.4,3.56015091 289.8,4.36015091 319.3,5.06015091 C322,5.16015091 324.5,5.66015091 326.6,7.36015091 Z" id="Shape" fill="#2A2B2B"></path>
                    <path d="M113.482588,75.1971095 C113.682588,74.5971095 113.682588,73.7971095 113.982588,73.2971095 C127.382588,52.8971095 140.782588,32.5971095 154.182588,12.1971095 C157.982588,11.2971095 159.582588,13.5971095 160.682588,16.6971095 C152.282588,42.3971095 138.182588,64.4971095 117.282588,81.8971095 C114.182588,80.6971095 111.982588,78.9971095 113.482588,75.1971095 Z" id="Shape" fill="#292B2B"></path>
                    <path d="M158.3,17.416 C157.8,14.916 156.6,13.016 154,12.416 C155,8.416 157.6,5.516 160.4,2.816 C161.7,1.516 163.7,1.016 165.5,0.216 C166.1,-0.084 166.8,0.016 167.4,0.016 C184.4,0.616 201.3,1.116 218.3,1.816 C220.1,1.916 221.9,3.216 223.7,3.916 C211.3,4.116 198.8,4.116 186.4,4.616 C184.9,4.716 183.4,6.716 181.9,7.816 C175.4,14.516 167.3,17.116 158.3,17.416 Z" id="Shape" fill="#2B2E2D"></path>
                    <path d="M113,75 C113.6,77.5 114.8,79.5 117.6,80 C119.5,89.4 116.1,95.3 106.3,96.9 C105.5,94.8 104.5,92.8 102,92.2 C104.3,85.6 107.5,79.6 113,75 Z" id="Shape" fill="#3C3F3E"></path>
                    <path d="M285.433333,164.1 C284.233333,162.6 282.133333,161.2 282.133333,159.7 C281.833333,153.2 282.133333,146.6 282.133333,140 C283.333333,140.1 284.633333,140.2 285.833333,140.2 C285.733333,148.2 285.533333,156.1 285.433333,164.1 Z" id="Shape" fill="#1B1E1D"></path>
                    <path d="M186.7,260.5 C184.6,259.9 182.8,258.9 182,256.6 L183.1,255 L185,255.5 C187.1,256.2 189.1,257.1 189.7,259.5 C189,260.5 188,260.8 186.7,260.5 Z" id="Shape" fill="#070707"></path>
                    <path d="M165.558451,64.3 C164.258451,64.4 162.958451,64.7 161.758451,65.2 C155.858451,53.8 166.358451,48 170.458451,39.9 C171.858451,38.3 173.358451,36.9 175.158451,35.6 C177.958451,33.7 181.058451,32.6 184.458451,32 C210.058451,36.1 235.858451,34.5 261.558451,35 C267.558451,35.1 273.558451,35.4 278.158451,40.1 C284.058451,40.3 290.058451,40.4 295.958451,40.6 C301.158451,40.8 302.458451,43.4 299.758451,48.4 C297.858451,51.8 295.958451,55.4 293.658451,58.5 C285.158451,70.2 279.158451,83.5 270.358451,95.1 C269.558451,96.1 269.558451,97.7 268.758451,98.7 C265.358451,103.5 265.058451,108.2 268.058451,113.5 C269.258451,115.6 269.458451,118.5 269.558451,121.1 C269.558451,122 268.158451,123.6 267.158451,123.8 C264.658451,124.4 261.858451,124.9 259.558451,123.2 C257.458451,121.6 255.158451,120 253.858451,117.8 C248.058451,108 240.058451,100.1 232.058451,92.4 C227.958451,88.5 225.758451,84.2 226.058451,78.4 C226.358451,74 223.358451,70.9 220.158451,68.6 C214.858451,64.7 209.558451,60.6 203.758451,57.8 C198.458451,55.2 192.358451,54.9 186.958451,58.7 C186.458451,59.1 186.158451,59.8 185.858451,60.3 C179.758451,65.3 171.658451,59.7 165.558451,64.3 Z" id="Shape" fill="#274DA0"></path>
                    <path d="M106,96.5 C111.7,92.2 114.6,85.9 117.3,79.6 C129.2,63.8 139.1,46.7 150,30.2 C152.9,25.8 156.7,22 157.8,16.6 C159.5,14.7 161.3,12.8 162.9,10.8 C164.7,8.7 166.9,7.6 169.7,7.5 C173.6,7.3 177.5,7.2 181.4,7 C208.8,8.6 236.2,10.2 263.6,11.7 C265.5,11.8 267.5,11.3 269.4,11.1 C278,11.6 286.7,12 295.3,12.7 C301.9,13.2 308.5,14 315.2,14.7 C316.7,14.9 318.2,17.9 317.6,19.4 C316,23 314.4,26.6 312.8,30.2 C296.7,37.3 279.4,33.7 262.7,35.1 C242.3,36.8 221.6,36.2 201.1,35.1 C193.5,33.1 185.9,30.2 177.7,32.4 C175.3,33.7 173.3,35.5 171.4,37.3 C169.6,39.2 168,41.3 166.4,43.4 C154.7,61.2 147.3,82.1 129.4,95.6 C127.7,97.6 126.2,99.8 124.3,101.6 C123.4,102.5 122.1,103.5 120.9,103.5 C114.9,103.7 108.9,103.2 106,96.5 Z" id="Shape" fill="#FCFCFC"></path>
                    <path d="M194.110068,189.263826 C194.110068,180.563826 194.310068,171.963826 194.010068,163.263826 C193.810068,158.263826 196.610068,156.063826 200.610068,154.563826 C205.510068,152.663826 210.410068,150.363826 215.510068,149.263826 C225.910068,147.063826 235.910068,143.763826 245.810068,140.263826 C247.010068,139.863826 248.510068,139.963826 249.710068,140.263826 C250.810068,140.563826 252.410068,141.463826 252.610068,142.363826 C253.210068,145.563826 253.710068,148.863826 253.710068,152.063826 C254.110068,193.163826 254.210068,197.663826 251.710068,199.463826 C238.110068,209.163826 222.310068,214.463826 207.710068,222.363826 C204.710068,223.963826 201.310068,224.363826 198.110068,223.363826 C197.010068,223.063826 195.710068,221.963826 195.310068,220.963826 C194.610068,219.163826 194.410068,217.163826 194.310068,215.163826 C194.210068,206.463826 194.310068,197.863826 194.310068,189.163826 C194.310068,189.263826 194.210068,189.263826 194.110068,189.263826 Z" id="Shape" fill="#274D9F"></path>
                    <path d="M185.347546,152.1 C179.247546,151 174.447546,155.9 168.347546,155.4 C163.147546,155 158.747546,151.1 153.247546,152.1 C132.747546,145.6 142.847546,134.3 148.847546,123.7 C149.847546,119.2 150.647546,114.7 151.847546,110.3 C152.547546,107.7 155.547546,105.9 157.747546,106.6 C166.747546,109.3 176.047546,110.4 185.247546,110.4 C199.947546,110.4 214.347546,108.4 227.047546,99 C236.047546,106.5 243.447546,114.9 248.947546,124.9 C250.747546,128.1 249.547546,131.1 245.647546,132.4 C233.647546,136.3 221.547546,139.8 209.647546,143.9 C201.647546,146.5 192.947546,147.6 185.347546,152.1 Z" id="Shape" fill="#FDFDFD"></path>
                    <path d="M184.6,255.1 C183.4,254.8 182.4,255.2 181.6,256.2 C180.9,256.2 180.3,256.2 179.6,256.1 C175.1,255.5 173.9,254.8 173.8,252.4 C173.6,243.1 173.4,233.8 173.3,224.5 C173.1,205.9 173,187.3 173,168.7 C173,163.6 175.4,161.4 182,160.2 C183.4,159.9 186.2,162 186.3,163.4 C186.5,172.7 186.8,182 187,191.3 C187.1,194.6 186.9,197.9 188.8,200.9 C188.7,210.9 188.6,220.8 188.6,230.8 C188.6,234.9 191.5,237 195,235.4 C215.5,225.9 236,216.3 256.5,206.7 C259.9,205.1 261.1,202.1 261.2,198.6 C261.3,180.6 261.2,162.6 261.3,144.6 C261.3,141.3 261.6,138 262.2,134.8 C262.4,133.8 263.9,132.5 264.9,132.4 C268.9,132 272.9,132.1 276.9,132 C277.2,134.6 277.8,137.3 277.8,139.9 C277.7,161.9 277.4,183.8 277.3,205.8 C277.3,210.4 275,213.2 271,215 C246.1,226.1 221.2,237 196.5,248.4 C192.3,250.1 187.3,250.8 184.6,255.1 Z" id="Shape" fill="#F2F2F2"></path>
                    <path d="M97.4945463,140.4 C94.4945463,139.2 91.3945463,138.2 88.3945463,136.9 C85.7945463,135.8 85.3945463,132.8 86.7945463,130.4 C89.5945463,125.7 93.5945463,122.5 98.5945463,120.7 C103.494546,118.9 108.494546,117.5 113.494546,116 C122.694546,116.1 131.894546,116.3 141.094546,116.4 C147.794546,128.5 146.294546,142.9 136.094546,148.3 C124.194546,154.6 108.994546,150.4 97.4945463,140.4 Z" id="Shape" fill="#F6F6F6"></path>
                    <path d="M97.7,140.1 C101.6,140.5 105.5,140.6 109.3,141.3 C117.6,142.9 125.9,144.8 134.2,146.4 C135.1,146.6 136.9,145.5 137.2,144.5 C140.5,135.3 143.9,126.1 141.3,116 C143.9,116.3 145.1,117.8 145.9,120.3 C146.4,121.7 148.1,122.7 149.3,123.8 C150.5,129.8 147.5,135.1 146.4,140.7 C145.3,146.3 145.9,147.5 152,151.2 C152.5,151.5 153.1,151.8 153.7,152.1 C153.9,155.1 154.1,158.1 154.4,161.1 C160.6,173.3 155.2,179.3 143.2,178.9 C127.5,178.3 110.6,178.6 103.1,159.8 C100.4,152.9 90,152.7 89,144.1 C92.3,143.4 96.4,144.6 97.7,140.1 Z" id="Shape" fill="#181A20"></path>
                    <path d="M196.033333,31.6144575 C201.333333,31.4144575 206.633333,30.9144575 211.933333,30.9144575 C240.533333,31.3144575 269.233333,31.8144575 297.833333,32.3144575 C303.133333,32.4144575 308.533333,32.7144575 313.633333,30.6144575 C313.533333,33.4144575 312.333333,35.7144575 309.333333,35.8144575 C300.433333,36.1144575 291.433333,35.9144575 282.533333,36.3144575 C281.133333,36.4144575 279.833333,38.5144575 278.433333,39.7144575 C254.433333,39.7144575 230.433333,39.8144575 206.533333,39.7144575 C204.533333,39.7144575 202.333333,39.8144575 200.633333,38.9144575 C193.733333,35.4144575 186.233333,36.9144575 179.033333,36.4144575 C177.033333,37.1144575 175.533333,38.4144575 174.333333,40.1144575 C172.833333,41.6144575 171.233333,41.7144575 169.533333,40.4144575 C168.733333,38.6144575 168.833333,36.8144575 169.833333,35.1144575 C169.933333,33.1144575 170.733333,31.7144575 172.933333,31.6144575 C180.533333,29.3144575 188.333333,29.6144575 196.033333,31.6144575 Z" id="Shape" fill="#151C2A"></path>
                    <path d="M283,89.9263137 C285.2,86.1263137 287.1,82.6263137 289.2,79.4263137 C291.2,76.4263137 295,76.2263137 297.6,78.7263137 C302,82.7263137 305.6,87.3263137 308.4,92.6263137 C310.5,96.5263137 310.5,100.226314 307.9,103.626314 C305.7,106.726314 303.4,110.026314 299.6,111.526314 C291.8,105.926314 288.4,97.2263137 283,89.9263137 Z" id="Shape" fill="#254A97"></path>
                    <path d="M169.9,40.1128025 C171.3,40.1128025 172.6,40.2128025 174,40.2128025 C171.2,45.7128025 168.6,51.4128025 164.3,56.0128025 C162,58.5128025 161.8,61.6128025 161.8,64.8128025 C162.1,68.0128025 161.9,70.9128025 158.3,72.2128025 C149.2,80.7128025 150,97.7128025 134,100.112802 C133.6,97.9128025 132.3,96.5128025 130,96.1128025 C130.7,94.3128025 131.2,92.4128025 132.2,90.8128025 C142.5,74.8128025 152.9,58.8128025 163.3,42.9128025 C164,41.8128025 165.2,41.1128025 166.1,40.2128025 C167.3,38.6128025 168.6,38.6128025 169.9,40.1128025 Z" id="Shape" fill="#19202E"></path>
                    <path d="M304.762562,55 C305.962562,55.2 307.662562,55 308.362562,55.7 C313.862562,61.4 319.162562,67.2 324.362562,73.1 C325.062562,73.9 325.362562,75.8 324.862562,76.8 C323.062562,80.3 321.062562,83.6 318.762562,86.8 C318.262562,87.5 315.862562,87.8 315.262562,87.3 C311.362562,83.8 307.562562,80.1 304.062562,76.3 C295.662562,67.3 296.562562,67.6 303.262562,56 C303.462562,55.5 304.262562,55.4 304.762562,55 Z" id="Shape" fill="#BDBEC0"></path>
                    <path d="M133.7,100.169347 C138.8,97.9693466 139.5,92.1693466 142.8,88.3693466 C147.3,83.1693466 150.4,76.7693466 154.2,70.9693466 C155.2,69.4693466 155.5,69.5693466 158.1,72.2693466 C157.9,76.1693466 157.2,80.0693466 157.5,83.9693466 C158.1,90.9693466 155,95.8693466 150.8,101.269347 C144.9,108.769347 138,109.069347 130,107.669347 C131.2,105.169347 132.5,102.669347 133.7,100.169347 Z" id="Shape" fill="#244690"></path>
                    <path d="M347.517097,35.3283951 C347.417097,37.9283951 342.517097,44.2283951 340.317097,44.3283951 C339.117097,44.4283951 337.617097,44.2283951 336.617097,43.5283951 C332.417097,40.3283951 328.217097,36.9283951 324.117097,33.5283951 C321.417097,31.2283951 321.317097,28.6283951 323.717097,24.7283951 C324.717097,23.0283951 325.817097,21.3283951 327.317097,20.0283951 C328.117097,19.3283951 330.017097,18.7283951 330.817097,19.1283951 C337.317097,22.6283951 342.617097,27.6283951 347.117097,33.5283951 C347.517097,34.0283951 347.417097,34.7283951 347.517097,35.3283951 Z" id="Shape" fill="#E1E1E1"></path>
                    <path d="M328.549548,66.2059644 C323.349548,60.4059644 318.449548,55.0059644 313.649548,49.6059644 C310.749548,46.4059644 311.749548,42.1059644 316.049548,40.5059644 C317.149548,40.1059644 318.849548,39.7059644 319.849548,40.3059644 C325.649548,43.5059644 331.449548,46.7059644 335.949548,51.7059644 C337.849548,53.8059644 338.249548,56.6059644 336.649548,58.8059644 C334.249548,62.0059644 332.049548,65.1059644 328.549548,66.2059644 Z" id="Shape" fill="#254894"></path>
                    <path d="M293.297726,127.637498 C291.997726,128.537498 290.897726,128.337498 289.897726,126.937498 C284.997726,119.937498 279.897726,113.037498 275.297726,105.837498 C274.497726,104.637498 275.497726,102.137498 276.097726,100.337498 C276.697726,98.4374977 279.897726,97.3374977 280.597726,98.4374977 C285.797726,106.037498 290.997726,113.637498 296.197726,121.337498 C297.497726,123.237498 295.997726,126.537498 293.297726,127.637498 Z" id="Shape" fill="#D3D3D3"></path>
                    <path d="M177.429651,90.7609977 C175.429651,91.4609977 173.729651,92.3609977 171.929651,92.6609977 C167.329651,93.3609977 163.629651,90.6609977 164.029651,86.7609977 C164.529651,82.2609977 165.229651,77.8609977 166.329651,73.4609977 C166.729651,71.8609977 168.729651,70.6609977 170.129651,69.5609977 C171.429651,68.5609977 172.629651,68.9609977 173.329651,70.2609977 C173.629651,70.7609977 174.229651,71.2609977 174.329651,71.8609977 C175.429651,78.0609977 176.429651,84.2609977 177.429651,90.7609977 Z" id="Shape" fill="#F6F6F6"></path>
                    <path d="M207.433341,70 C209.633341,70.8 211.733341,71.1 213.333341,72.1 C214.933341,73.1 216.433341,74.5 217.533341,76.1 C219.333341,78.7 218.933341,83.2 216.933341,85.4 C215.033341,87.6 212.433341,88.2 209.733341,87.6 C208.633341,87.4 206.933341,86.5 206.733341,85.6 C205.533341,80.5 205.833341,75.3 207.433341,70 Z" id="Shape" fill="#ECEBEB"></path>
                    <path d="M206.333333,100.346492 C204.433333,102.346492 202.033333,103.446492 199.333333,103.446492 C192.133333,103.446492 184.933333,103.246492 177.633333,103.146492 C176.233333,102.446492 175.733333,101.746492 176.133333,100.946492 C176.533333,100.146492 177.033333,99.7464915 177.433333,99.7464915 C180.433333,98.8464915 183.533333,98.0464915 186.533333,97.1464915 C190.233333,95.9464915 193.933333,95.6464915 197.733333,96.4464915 C200.233333,98.5464915 204.633333,96.4464915 206.333333,100.346492 Z" id="Shape" fill="#A3A3A3"></path>
                    <path d="M165,64 C166.4,61.5 168.4,60.3 171.4,60.3 C176,60.3 180.6,60.1 185.2,60 C184.3,62.6 182.7,64.2 179.9,64.2 C174.9,64.2 170,64.1 165,64 Z" id="Shape" fill="#19202E"></path>
                    <path d="M193.781799,79.8 C190.581799,79.8 187.381799,80 184.581799,81.9 C184.381799,82 182.881799,80.7 182.381799,79.9 C181.581799,78.6 182.081799,76.8 183.481799,76.7 C187.381799,76.4 190.581799,74.7 193.881799,73 C195.781799,75.3 195.781799,77.5 193.781799,79.8 Z" id="Shape" fill="#BEBEBE"></path>
                    <path d="M206.5,100.567045 C203.6,99.2670455 199.5,100.867045 198,96.6670455 C201.8,96.1670455 205.6,95.6670455 209.4,95.1670455 C213.3,94.4670455 214.6,95.9670455 213.3,99.6670455 C211,99.9670455 208.7,100.267045 206.5,100.567045 Z" id="Shape" fill="#D3D2D2"></path>
                    <path d="M212.9,99.70625 C213.2,96.80625 210.7,96.30625 209,95.20625 C210.8,91.90625 213.8,91.70625 217.1,92.20625 C219.1,92.50625 220,94.40625 218.9,96.10625 C217.4,98.20625 215.7,99.90625 212.9,99.70625 Z" id="Shape" fill="#565656"></path>
                    <path d="M194,79.0546398 C194,76.7546398 194.1,74.5546398 194.1,72.2546398 C194.5,70.6546398 195.7,69.4546398 196.9,70.2546398 C199.4,71.8546398 199.4,74.7546398 198.6,77.1546398 C198,79.2546398 196.1,79.7546398 194,79.0546398 Z" id="Shape" fill="#F4F4F4"></path>
                    <path d="M178,100.037394 C177.9,101.137394 178,102.337394 178.2,103.437394 C176.9,103.537394 175.6,103.837394 174.4,103.637394 C173.2,103.437394 172.1,102.637394 171,102.037394 C172.1,101.337394 173,100.437394 174.2,100.137394 C175.4,99.8373939 176.7,100.137394 178,100.037394 Z" id="Shape" fill="#7B7B7B"></path>
                    <path d="M190.713006,89 C191.313006,89.4 191.913006,89.8 192.413006,90.2 C192.013006,90.5 191.513006,91.1 191.113006,91.1 C190.713006,91.1 190.213006,90.5 190.013006,90 C189.913006,89.8 190.413006,89.3 190.713006,89 Z" id="Shape" fill="#898888"></path>
                    <path d="M24.6605594,132 C27.4605594,133.3 30.1605594,134.5 32.9605594,135.8 C42.7605594,145.1 52.7605594,152.3 65.1605594,139.8 C67.9605594,141.2 70.6605594,142.6 73.4605594,144 C85.7605594,154.4 101.560559,160.8 108.360559,177.6 C111.160559,184.6 120.360559,184.9 127.260559,186.8 C155.860559,194.7 155.860559,194.7 158.760559,223.3 C159.060559,226.6 160.060559,229.7 160.660559,233 C160.760559,240.5 162.460559,248.3 158.160559,255.3 C153.260559,253.9 148.360559,252.7 143.560559,251.1 C142.560559,250.8 141.860559,249.3 141.060559,248.4 C138.760559,238.2 129.460559,238.6 122.260559,236.7 C94.7605594,229.4 67.2605594,222.3 39.7605594,215.2 C26.0605594,211.6 18.7605594,204.5 19.7605594,190.3 C21.1605594,170.8 14.7605594,150.7 24.6605594,132 Z" id="Shape" fill="#11141A"></path>
                    <path d="M25.4,132.560355 C25.7,141.160355 26.2,149.760355 26.3,158.360355 C26.5,172.960355 26.5,187.460355 26.6,202.060355 C26.6,204.560355 28.7,207.060355 31.2,207.760355 C57.4,214.660355 83.6,221.560355 109.9,228.460355 C121.4,231.460355 133,234.460355 144.4,237.560355 C146.2,238.060355 147.8,239.460355 149.4,240.460355 C150.6,241.260355 151.4,244.560355 150.6,245.860355 C149.9,246.860355 148.8,248.060355 147.7,248.260355 C145.8,248.760355 143.8,248.660355 141.8,248.760355 C134.2,246.460355 126.7,243.860355 119.1,241.760355 C86.5,233.160355 53.9,224.760355 21.2,216.260355 C19.3,215.760355 17.3,215.360355 15.4,214.860355 C10.8,213.560355 8.6,210.960355 8.4,206.560355 C7.9,193.360355 7.4,180.060355 7.2,166.860355 C7,154.260355 7,141.660355 7,129.160355 C7,127.160355 9.2,125.460355 10.9,126.160355 C15.8,128.360355 20.6,130.460355 25.4,132.560355 Z" id="Shape" fill="#F5F5F5"></path>
                    <path d="M156.5,232.3 C154.9,231.1 153.6,229.7 153.6,227.5 C153.5,219.6 153.5,211.7 153.4,203.8 C153.3,200.4 151,197.5 147.7,196.7 C134.9,193.8 122,190.8 109.2,188.1 C104.8,187.2 101.8,185.6 101.8,180.6 C101.8,179.3 101.7,177.9 101.3,176.7 C98.9,167.9 94.1,161.3 84.9,158.6 C82.4,157.9 79.9,157 77.4,156.2 C74.3,155.2 74,152.6 74,149.9 C74,147.9 74,145.9 74,144 C79,144.1 84,144.1 89,144.2 C93.2,148.2 98.8,147.3 103.9,148.5 C107.7,149.4 109.5,151.4 109.9,155.2 C110.2,159.1 110.4,163 111,166.9 C111.2,167.9 112.4,169.1 113.5,169.6 C115.2,170.4 117.2,170.9 119.1,171.2 C128.9,172.5 138.6,173.7 148.4,174.9 C151.9,175.3 154.1,173.4 154.3,169 C154.5,166.4 154.4,163.7 154.4,161.1 C157.2,160.9 160.2,159.7 162,163.1 C165.6,183.9 162.9,204.8 163.5,225.7 C163.5,230 162.1,233.5 156.5,232.3 Z" id="Shape" fill="#F7F7F7"></path>
                    <path d="M66.2,140.117142 C66.1,142.717142 66,145.317142 66,147.917142 C66,150.217142 64.1,152.017142 62.6,152.017142 C54.9,152.117142 47.2,152.917142 39.7,149.117142 C35.4,146.917142 34.2,144.217142 34.2,140.117142 C34.2,138.817142 34.1,137.517142 34,136.217142 C34.9,135.417142 36.1,133.817142 36.7,134.017142 C41.5,135.817142 46.6,135.717142 51.6,136.417142 C56.5,137.117142 61.3,138.817142 66.2,140.117142 Z" id="Shape" fill="#254894"></path>
                    <path d="M157,232.3 C159.7,231.4 161.8,229.8 161.9,226.8 C162.1,218.2 162,209.5 162.1,200.9 C162.2,188.3 162.3,175.7 162.4,163 C163.3,163.8 164.6,164.5 165.1,165.6 C165.7,166.7 165.7,168.2 165.7,169.5 C165.9,195.1 166.1,220.8 166.3,246.4 C166.3,248.4 166.1,250.3 165.9,252.3 C165.6,254.5 163.8,255.4 162.1,256.2 C161.4,255.3 160.4,254.9 159.3,255.2 C159.1,252 158.7,248.7 158.9,245.6 C159.2,241 158.4,236.6 157,232.3 Z" id="Shape" fill="#F2F2F2"></path>
                    <path d="M174,39.7213923 C174.5,37.0213923 176.1,35.8213923 178.7,36.0213923 C177.1,37.2213923 175.6,38.5213923 174,39.7213923 Z" id="Shape" fill="#19202E"></path>
                    <path d="M195.1,31.3402128 C187.4,31.3402128 179.7,31.3402128 172,31.3402128 C173,30.6402128 174,29.5402128 175.1,29.4402128 C181.8,28.9402128 188.6,28.2402128 195.1,31.3402128 Z" id="Shape" fill="#242425"></path>
                    <path d="M169.8,39.9 C168.5,39.9 167.2,39.9 166,40 C166.1,37.6 167.3,36 169.5,35 C169.5,36.6 169.7,38.3 169.8,39.9 Z" id="Shape" fill="#242425"></path>
                    <path d="M126.616897,152 C131.116897,153.3 137.316897,155.2 143.416897,157.1 C145.916897,157.9 146.316897,163.6 144.116897,165.6 C143.616897,166 143.016897,166.8 142.616897,166.7 C135.616897,165 128.716897,163.5 121.516897,163.3 C119.416897,163.3 117.816897,160.1 118.016897,157.2 C118.216897,154.3 120.216897,152.2 122.816897,152.2 C123.416897,152.1 124.016897,152.1 126.616897,152 Z" id="Shape" fill="#254A97"></path>
                    <path d="M77.3890926,207.5672 C80.3890926,206.2672 83.3890926,204.7672 86.4890926,203.8672 C89.0890926,203.1672 91.8890926,202.7672 93.5890926,200.6672 C99.1890926,193.6672 106.689093,194.3672 113.689093,196.3672 C119.489093,197.9672 125.089093,199.2672 130.989093,200.0672 C134.789093,200.5672 138.589093,202.2672 141.989093,204.0672 C143.489093,204.7672 144.989093,206.9672 144.989093,208.5672 C145.289093,213.8672 145.089093,219.1672 144.689093,224.3672 C144.589093,225.3672 143.089093,226.7672 142.089093,226.9672 C139.489093,227.3672 136.489093,227.8672 134.289093,226.9672 C126.389093,223.5672 117.389093,223.8672 109.789093,219.8672 C103.689093,219.7672 98.7890926,215.8672 92.6890926,215.2672 C87.5890926,214.7672 82.5890926,212.5672 77.5890926,211.0672 C76.1890926,210.2672 75.6890926,209.5672 76.1890926,208.7672 C76.4890926,207.9672 76.8890926,207.5672 77.3890926,207.5672 Z" id="Shape" fill="#264C9D"></path>
                    <path d="M93.7035419,182.814203 C93.6035419,191.814203 86.6035419,199.014203 77.3035419,199.714203 C68.1035419,200.414203 59.8035419,191.714203 60.0035419,181.814203 C60.2035419,172.814203 67.6035419,165.214203 76.4035419,165.014203 C86.0035419,164.614203 93.8035419,172.714203 93.7035419,182.814203 Z" id="Shape" fill="#F5F5F5"></path>
                    <path d="M78,207.855556 C78,209.055556 78,210.155556 78,211.355556 C70.6,211.755556 64.4,206.155556 56.9,207.155556 C52.3,204.055556 47,203.955556 41.7,203.155556 C37.1,202.455556 34.1,198.255556 34,193.055556 C34,191.055556 34,189.055556 34.5,187.155556 C34.8,186.055556 36,184.455556 37,184.355556 C40.3,183.955556 43.6,183.955556 46.9,184.055556 C49.6,184.155556 52.1,184.755556 53.3,187.655556 C53.8,188.855556 54.6,189.955556 55.1,191.155556 C58.3,199.055556 63.4,204.455556 72.5,205.255556 C74.5,205.555556 76.2,207.055556 78,207.855556 Z" id="Shape" fill="#244791"></path>
                    <path d="M60.516,161.428868 C58.916,164.528868 58.216,166.428868 57.016,168.028868 C54.816,171.128868 54.116,176.428868 49.916,176.928868 C45.516,177.428868 40.816,176.128868 36.416,175.228868 C35.516,175.028868 34.316,173.328868 34.216,172.328868 C33.916,168.428868 34.016,164.428868 34.016,160.528868 C34.016,158.828868 36.416,156.728868 38.016,157.028868 C38.616,157.128868 39.316,156.928868 40.016,157.028868 C46.316,158.328868 52.716,159.728868 60.516,161.428868 Z" id="Shape" fill="#ECECEC"></path>
                </g>
            </g>
        </g>
    </g>
</svg>