<?xml version="1.0" encoding="UTF-8"?>
<svg width="800px" height="480px" viewBox="0 0 800 480" version="1.1" xmlns="http://www.w3.org/2000/svg" xmlns:xlink="http://www.w3.org/1999/xlink">
    <!-- Generator: Sketch 48.2 (47327) - http://www.bohemiancoding.com/sketch -->
    <title>Space/Utility/Electric Company</title>
    <desc>Created with Sketch.</desc>
    <defs>
        <rect id="path-1" x="0" y="0" width="480" height="800"></rect>
    </defs>
    <g id="Utility-Spaces" stroke="none" stroke-width="1" fill="none" fill-rule="evenodd" transform="translate(-56.000000, -37.000000)">
        <g id="Space/Utility/Electric-Company" transform="translate(456.000000, 277.000000) rotate(90.000000) translate(-456.000000, -277.000000) translate(216.000000, -123.000000)">
            <g id="Electric-Company">
                <g id="Squared-Full-Height-Teal-Field">
                    <use fill="#CBE8E0" fill-rule="evenodd" xlink:href="#path-1"></use>
                    <rect stroke="#CBE8E0" stroke-width="1" x="0.5" y="0.5" width="479" height="799"></rect>
                </g>
                <text id="UTILITY-NAME" font-family="KabobLight" font-size="60" font-weight="300" fill="#000000">
                    <tspan x="124.77" y="129">ELECTRIC</tspan>
                    <tspan x="105.99" y="196">COMPANY</tspan>
                </text>
                <text id="PRICE" font-family="KabobLight" font-size="45" font-weight="300" fill="#000000">
                    <tspan x="113.1925" y="769">PRICE</tspan>
                </text>
                <text id="$000" font-family="KabobLight" font-size="60" font-weight="300" fill="#000000">
                    <tspan x="238" y="779">$150</tspan>
                </text>
                <g id="Lightbulb" transform="translate(240.500000, 461.232930) rotate(-90.000000) translate(-240.500000, -461.232930) translate(43.000000, 296.232930)" fill-rule="nonzero">
                    <path d="M33.8,186.7 C33.6,191.3 33.7,196 33,200.5 C32.8,202 30.4,203.4 28.8,204.2 C28,204.6 26.4,203.6 25.3,202.9 C24.2,202.2 23.3,201.2 22.5,200.1 C15.8,190.2 9,180.3 2.4,170.4 C1.3,168.8 0.8,166.8 0,165 C10.7,146.2 19.8,133.2 28.9,124 C29.6,128.9 30.2,133.3 30.8,137.7 C37.2,145.1 35.4,153.2 33.4,161.7 C31.4,169.9 31.1,178.4 33.8,186.7 Z" id="Shape" fill="#090A0A"></path>
                    <path d="M91.8076659,118.496656 C98.1076659,118.696656 103.107666,114.996656 108.407666,112.496656 C140.507666,97.1966557 173.907666,85.2966557 208.107666,75.3966557 C212.507666,74.0966557 217.107666,73.7966557 221.607666,73.0966557 C224.407666,72.0966557 227.307666,71.5966557 230.307666,72.3966557 C231.807666,73.7966557 232.307666,75.5966557 231.907666,77.5966557 C230.007666,79.9966557 227.407666,81.2966557 224.607666,82.0966557 C221.007666,83.0966557 217.407666,84.2966557 213.907666,85.8966557 C185.607666,97.3966557 155.507666,104.396656 127.907666,117.996656 C120.907666,121.496656 111.607666,122.596656 109.907666,131.996656 C108.007666,142.296656 120.807666,140.096656 123.907666,146.596656 C123.307666,151.696656 119.407666,152.996656 115.207666,154.096656 C90.8076659,157.496656 96.1076659,136.296656 90.5076659,124.196656 C89.5076659,121.896656 90.0076659,119.996656 91.8076659,118.496656 Z" id="Shape" fill="#232414"></path>
                    <path d="M228.8,258.518996 C224.9,258.018996 220.9,258.118996 217.1,257.018996 C175.3,245.018996 135.3,228.518996 96.7,208.818996 C95.6,208.218996 94.9,207.018996 94,206.018996 C94.4,205.018996 94.8,204.118996 95.2,203.118996 C96.6,201.418996 98.4,200.418996 100.5,200.018996 C108.8,199.718996 116.1,203.018996 123.2,206.618996 C154.6,222.818996 187.9,234.118996 221.6,244.318996 C228.4,246.418996 236.2,247.218996 239.4,255.318996 C237.2,261.218996 232.9,259.718996 228.8,258.518996 Z" id="Shape" fill="#232313"></path>
                    <path d="M387.2,203.3 C386.5,215.2 380.5,224.8 373.6,233.7 C356.1,256.1 332.8,267 304.3,266.7 C295.3,268.9 286.2,268.9 277.2,266.7 C271,267.7 265,267.1 259,265.5 C260.6,255.9 268.8,258.2 274.9,256.7 C284.5,256.5 294,256.7 303.6,256.6 C308.5,256.7 313.4,256.5 318,254.5 C343.9,246.7 364.7,233 374.8,206.4 C376.4,202 379,198.1 384.2,197 C387.3,198 389.2,199.6 387.2,203.3 Z" id="Shape" fill="#232416"></path>
                    <path d="M230.589093,77.2723168 C230.589093,76.1723168 230.589093,75.0723168 230.589093,73.9723168 C229.189093,73.1723168 228.689093,72.4723168 229.189093,71.6723168 C229.689093,70.8723168 230.089093,70.5723168 230.589093,70.5723168 C254.289093,63.8723168 278.589093,61.2723168 303.189093,62.1723168 C313.189093,62.5723168 322.689093,65.5723168 332.389093,67.2723168 C333.589093,67.4723168 334.589093,68.6723168 335.589093,69.4723168 C333.189093,73.9723168 329.189093,75.9723168 324.389093,76.9723168 C298.589093,75.3723168 272.889093,74.6723168 247.289093,80.0723168 C241.789093,81.1723168 235.489093,82.4723168 230.589093,77.2723168 Z" id="Shape" fill="#272816"></path>
                    <path d="M327,73.8 C328.8,69.6 332.8,70.7 336.1,70 C338.7,70.5 341.5,70.4 343.8,71.5 C367.8,82.7 384.5,100 389.8,126.8 C387.6,130.7 391.6,136.7 385.6,139.4 C385,139.2 383.9,139.1 383.8,138.7 C374.2,108.9 352.8,89.4 327,73.8 Z" id="Shape" fill="#242516"></path>
                    <path d="M78.7019171,194.933824 C78.6019171,196.933824 78.6019171,198.933824 78.4019171,200.933824 C78.0019171,205.033824 78.0019171,205.033824 71.6019171,205.833824 C59.8019171,188.233824 67.9019171,168.633824 65.6019171,150.033824 C65.7019171,145.333824 66.1019171,140.533824 68.6019171,136.333824 C70.0019171,134.033824 72.0019171,133.433824 74.5019171,134.533824 C75.0019171,139.733824 75.4019171,144.933824 75.9019171,150.033824 C81.9019171,157.433824 81.2019171,165.833824 79.2019171,174.133824 C77.4019171,181.133824 75.6019171,187.933824 78.7019171,194.933824 Z" id="Shape" fill="#2B302E"></path>
                    <path d="M34.5542969,187.3 C33.8542969,186.2 32.7542969,185.1 32.6542969,183.9 C31.5542969,168.7 30.1542969,153.5 31.6542969,138.3 C33.6542969,137.5 34.5542969,135.8 34.7542969,133.8 C35.0542969,131.2 35.2542969,128.6 35.5542969,126 C50.2542969,137.2 46.4542969,149.8 38.4542969,162.7 C37.4542969,164.3 35.6542969,165.8 35.4542969,167.4 C34.8542969,174 34.7542969,180.7 34.5542969,187.3 Z" id="Shape" fill="#9EB4AE"></path>
                    <path d="M167.4766,58.4041667 C167.0766,58.9041667 166.7766,59.8041667 166.2766,59.9041667 C165.1766,60.1041667 163.4766,60.3041667 163.0766,59.7041667 C154.9766,47.8041667 146.9766,35.9041667 139.1766,23.9041667 C138.6766,23.1041667 139.3766,21.5041667 139.5766,20.2041667 C139.8766,18.5041667 142.6766,18.6041667 144.1766,20.5041667 C145.4766,22.0041667 146.7766,23.4041667 147.8766,25.0041667 C152.1766,31.5041667 156.4766,38.1041667 160.7766,44.7041667 C162.8766,48.0041667 165.1766,51.2041667 167.0766,54.6041667 C167.6766,55.6041667 167.3766,57.1041667 167.4766,58.4041667 Z" id="Shape" fill="#3A4240"></path>
                    <path d="M94.0855755,206 C92.1855755,205.9 90.1855755,206.1 88.2855755,205.8 C85.0855755,205.4 83.2855755,203.8 83.0855755,201.1 C82.8855755,197.3 83.0855755,193.4 83.1855755,189.6 C85.5855755,185.3 84.0855755,180.5 84.8855755,176 C85.6855755,170.3 85.6855755,164.2 91.8855755,161 C104.385576,169.6 99.9855755,181.8 97.3855755,192.7 C96.3855755,197 94.5855755,200.9 95.6855755,205.4 L94.0855755,206 Z" id="Shape" fill="#404946"></path>
                    <path d="M89.8058408,58.1333333 C90.6058408,58.1333333 91.5058408,57.8333333 91.9058408,58.1333333 C101.205841,66.5333333 110.305841,75.0333333 117.705841,85.2333333 C118.105841,85.8333333 117.505841,87.8333333 116.805841,88.5333333 C116.105841,89.2333333 114.505841,89.4333333 113.405841,89.1333333 C112.205841,88.8333333 111.105841,87.8333333 110.205841,86.9333333 C106.905841,83.7333333 103.605841,80.4333333 100.505841,77.0333333 C96.1058408,72.1333333 92.0058408,67.0333333 87.7058408,62.0333333 C86.6058408,60.6333333 86.8058408,59.5333333 88.2058408,58.8333333 C88.9058408,58.5333333 89.4058408,58.3333333 89.8058408,58.1333333 Z" id="Shape" fill="#424A48"></path>
                    <path d="M77.8,194.279688 C76.9,192.579688 75.2,190.879688 75.2,189.179688 C75,175.879687 75,162.679688 75,149.379687 C77.3,148.979688 77.8,147.179687 78.4,145.379687 C81,144.479688 83,145.179687 84.5,147.479688 C87.7,158.079688 88.4,168.379687 81.5,177.979688 C79.6,178.879687 78.6,180.579688 78.4,182.579688 C78.1,186.379687 78,190.379687 77.8,194.279688 Z" id="Shape" fill="#A4BBB4"></path>
                    <path d="M386.300473,139.1 C386.500473,136.2 386.500473,133.2 387.100473,130.3 C387.400473,128.8 388.800473,127.4 389.800473,126 C391.800473,130.4 392.400473,135 391.600473,139.8 C393.800473,154.3 394.000473,168.7 391.600473,183.2 C392.300473,186.8 391.900473,190.3 390.400473,193.6 C382.000473,192.8 383.200473,185.7 381.700473,180.4 C382.200473,166.5 377.800473,152 386.300473,139.1 Z" id="Shape" fill="#232416"></path>
                    <path d="M90.9887024,162.4 C90.7887024,166.2 90.5887024,170.1 90.1887024,173.9 C89.9887024,175.9 88.9887024,177.4 86.8887024,177.9 C81.7887024,164 86.1887024,149.2 82.4887024,135.2 C82.7887024,129.8 81.6887024,124.4 82.0887024,119 C85.1887024,119.1 88.1887024,119.2 91.2887024,119.3 C91.0887024,120.4 91.0887024,121.5 91.2887024,122.6 C95.1887024,135.9 97.3887024,149.2 90.9887024,162.4 Z" id="Shape" fill="#8EA29C"></path>
                    <path d="M69.5206676,285.681621 C67.9206676,284.881621 67.5206676,283.781621 68.6206676,282.581621 C77.7206676,273.081621 86.8206676,263.681621 96.0206676,254.281621 C96.6206676,253.681621 98.4206676,254.181621 99.6206676,254.481621 C101.420668,254.981621 101.620668,255.981621 100.420668,257.481621 C92.2206676,267.781621 82.8206676,276.981621 73.1206676,285.781621 C72.4206676,286.381621 70.7206676,285.781621 69.5206676,285.681621 Z" id="Shape" fill="#303635"></path>
                    <path d="M276,261.11773 C271.7,261.41773 267.3,261.41773 263,262.11773 C261.5,262.31773 260.2,264.11773 258.8,265.21773 C247.2,264.51773 236.7,262.11773 229,258.51773 C232.4,257.71773 236.6,258.91773 238.6,254.71773 C252.4,249.31773 265.3,248.51773 276,261.11773 Z" id="Shape" fill="#282A19"></path>
                    <path d="M70.2628373,147 C70.5628373,166.6 70.8628373,186.3 71.1628373,205.9 C69.4628373,205.9 67.8628373,206 66.1628373,206 C58.4628373,192.6 61.8628373,178 61.1628373,163.8 C62.5628373,157.3 59.3628373,148.3 70.2628373,147 Z" id="Shape" fill="#82938E"></path>
                    <path d="M86.0520256,130 C86.3520256,145.7 86.6520256,161.4 86.9520256,177 C86.7520256,179.6 86.7520256,182.3 86.4520256,184.9 C86.2520256,187 85.2520256,188.6 83.1520256,189.4 C82.6520256,185.6 82.2520256,181.7 81.7520256,177.9 C81.7520256,167.4 81.8520256,157 81.8520256,146.5 C81.4520256,140.6 75.9520256,133.3 86.0520256,130 Z" id="Shape" fill="#2E3432"></path>
                    <path d="M46.8800341,205.263321 C45.2800341,204.563321 43.1800341,204.263321 42.0800341,203.063321 C40.8800341,201.763321 40.0800341,199.663321 39.9800341,197.863321 C39.3800341,189.663321 38.2800341,181.563321 39.6800341,173.363321 C41.5800341,171.963321 43.5800341,171.663321 45.7800341,172.363321 C49.9800341,174.863321 51.1800341,179.063321 51.8800341,183.463321 C52.3800341,191.263321 53.0800341,199.063321 46.8800341,205.263321 Z" id="Shape" fill="#434C49"></path>
                    <path d="M42.4,174.051604 C41.3,174.051604 40.3,174.051604 39.2,173.951604 C38.8,170.051604 38.3,166.251604 37.9,162.351604 C39.2,151.151604 38.5,139.851604 37.3,128.751604 C37.2,127.651604 35.8,126.651604 35,125.651604 C35.3,124.851604 35.4,123.951604 35.2,123.151604 C45.6,116.751604 45.9,126.151604 47.1,131.551604 C49.1,141.051604 48.2,150.951604 47.9,160.651604 C47.7,165.651604 46.4,170.351604 42.4,174.051604 Z" id="Shape" fill="#1C1F1E"></path>
                    <path d="M131,306.197056 C135.7,297.497056 141.2,289.497056 148.2,282.497056 C148.9,281.897056 150.7,281.897056 151.7,282.197056 C153.2,282.697056 153.7,283.897056 153.2,285.097056 C153,285.697056 152.7,286.297056 152.4,286.897056 C147.5,295.397056 141.2,302.997056 134.7,310.297056 C132.3,310.097056 132,307.797056 131,306.197056 Z" id="Shape" fill="#404946"></path>
                    <path d="M42.9187015,161.703585 C42.6187015,150.003585 42.3187015,138.403585 42.0187015,126.703585 C41.9187015,123.703585 40.3187015,122.903585 35.0187015,123.003585 C34.8187015,119.903585 36.2187015,117.903585 39.4187015,118.003585 C42.0187015,118.003585 44.7187015,118.603585 47.3187015,118.903585 C54.0187015,127.803585 51.0187015,138.103585 51.6187015,147.903585 C51.5187015,152.403585 50.9187015,156.703585 48.5187015,160.603585 C46.9187015,162.703585 45.1187015,163.103585 42.9187015,161.703585 Z" id="Shape" fill="#94A8A2"></path>
                    <path d="M362.9,289 C368.5,295.5 373.8,302.3 378.4,309.5 C379,310.5 379.2,312.1 379,313.3 C378.8,314.4 377.9,315.5 377.1,316.4 C376.9,316.6 375.8,316.1 375.3,315.8 C370.2,312.3 367.6,306.8 364.3,301.9 C362.5,299.2 360.8,296.4 359,293.6 C360,291.8 360.4,289.4 362.9,289 Z" id="Shape" fill="#434B49"></path>
                    <path d="M62.2851087,202.285714 C59.6851087,203.485714 57.0851087,204.685714 54.4851087,205.885714 C49.8851087,200.185714 50.9851087,193.685714 51.4851087,187.185714 C52.9851087,181.785714 54.3851087,176.485714 59.4851087,173.085714 C61.9851087,172.685714 63.6851087,173.685714 64.5851087,176.085714 C63.6851087,184.785714 67.2851087,193.885714 62.2851087,202.285714 Z" id="Shape" fill="#A6BDB7"></path>
                    <path d="M301.665956,9.44460772 C300.465956,18.4446077 298.765956,27.2446077 294.565956,35.3446077 C294.165956,36.0446077 292.465956,36.1446077 291.365956,36.2446077 C291.065956,36.2446077 290.565956,35.2446077 290.365956,34.6446077 C290.165956,34.0446077 289.865956,33.3446077 290.065956,32.8446077 C291.665956,25.9446077 293.165956,18.9446077 294.865956,12.0446077 C295.165956,10.9446077 296.365956,10.0446077 297.165956,9.04460772 C298.765956,7.54460772 300.265956,7.64460772 301.665956,9.44460772 Z" id="Shape" fill="#282D2C"></path>
                    <path d="M62.1123032,202.6 C62.1123032,193.4 62.2123032,184.2 62.2123032,175 C60.0123032,169.8 57.2123032,164.4 66.2123032,163 C66.2123032,177.3 66.2123032,191.7 66.2123032,206 C63.6123032,206.2 62.8123032,204.4 62.1123032,202.6 Z" id="Shape" fill="#1B1E1D"></path>
                    <path d="M391,183.4 C391,168.9 391,154.5 391,140 C391.8,141.7 393.2,143.4 393.4,145.2 C394.7,156.2 394.6,167.1 393.2,178.1 C393,180 391.7,181.7 391,183.4 Z" id="Shape" fill="#242516"></path>
                    <path d="M279.210528,322.020702 C278.110528,312.920702 277.110528,303.720702 276.010528,294.620702 C275.810528,292.920702 278.510528,290.420702 279.810528,291.120702 C280.810528,291.720702 281.910528,292.520702 282.410528,293.520702 C283.010528,294.620702 283.010528,296.120702 283.010528,297.420702 C283.110528,300.020702 283.110528,302.720702 283.210528,305.320702 C283.510528,311.320702 289.110528,318.620702 279.210528,322.020702 Z" id="Shape" fill="#303634"></path>
                    <path d="M219.267277,302.537691 C219.067277,305.637691 218.767277,308.837691 218.567277,311.937691 C218.367277,314.537691 217.367277,316.837691 215.467277,318.637691 C212.767277,318.137691 212.567277,315.537691 211.267277,313.737691 C211.167277,312.437691 210.867277,311.137691 211.067277,310.037691 C212.467277,303.237691 213.967277,296.537691 215.467277,289.837691 C217.567277,287.337691 219.667277,287.437691 221.867277,289.837691 C221.767277,291.137691 221.667277,292.437691 221.667277,293.737691 C220.367277,296.437691 220.567277,299.637691 219.267277,302.537691 Z" id="Shape" fill="#3B4341"></path>
                    <path d="M86.6,130.8 C85.5,132.1 83.5,133.2 83.3,134.7 C82.6,138.9 82.7,143.2 82.4,147.4 C81.4,146.7 80.4,146.4 79.2,146.2 C79.1,138.4 79,130.7 79,122.9 C79,120.8 80.7,119.6 82.6,119 C84.9,122.7 88.4,125.9 86.6,130.8 Z" id="Shape" fill="#495450"></path>
                    <path d="M365.906395,34.1 C363.906395,41.1 359.506395,46.7 355.406395,52.4 C354.906395,53.1 352.906395,53.4 352.306395,53 C351.506395,52.4 350.706395,50.6 351.106395,49.7 C354.006395,42.6 357.206395,35.6 362.806395,30 C364.506395,30.8 365.606395,32.2 365.906395,34.1 Z" id="Shape" fill="#333937"></path>
                    <path d="M279.2,321.6 C280.3,320.3 282.2,319.1 282.4,317.7 C283,313.5 283,309.2 283.3,305 C284,306.1 285.1,307.1 285.2,308.3 C285.8,314.1 286.2,319.9 286.6,325.7 C286.7,327.4 284.3,329.6 282.8,329.2 C280.9,328.7 279.1,328 279,325.6 C279,324.2 279.1,322.9 279.2,321.6 Z" id="Shape" fill="#505B58"></path>
                    <path d="M55.8557945,185.601096 C55.4557945,192.301096 55.0557945,199.001096 54.7557945,205.701096 L53.1557945,205.901096 L51.6557945,205.401096 C46.7557945,198.701096 50.3557945,191.001096 49.2557945,183.901096 C49.2557945,180.701096 49.1557945,177.601096 49.9557945,174.501096 C51.6557945,172.901096 53.5557945,172.601096 55.6557945,173.501096 C57.5557945,177.401096 57.3557945,181.501096 55.8557945,185.601096 Z" id="Shape" fill="#222624"></path>
                    <path d="M231.420201,21.562718 C235.320201,28.762718 236.420201,33.162718 235.920201,39.662718 C235.920201,40.062718 234.920201,40.462718 234.320201,40.562718 C233.720201,40.662718 232.620201,40.662718 232.420201,40.462718 C229.820201,34.462718 226.720201,28.562718 227.020201,21.662718 C228.520201,19.462718 229.920201,19.462718 231.420201,21.562718 Z" id="Shape" fill="#272C2A"></path>
                    <path d="M47.7015432,150.209017 C47.0015432,139.809017 46.4015432,129.509017 48.1015432,119.209017 C48.8015432,119.009017 49.5015432,118.909017 50.2015432,119.109017 C55.4015432,122.509017 56.0015432,127.909017 56.3015432,133.409017 C56.4015432,138.809017 56.2015432,144.209017 53.3015432,149.109017 C51.7015432,151.109017 49.8015432,151.509017 47.7015432,150.209017 Z" id="Shape" fill="#1F2322"></path>
                    <path d="M59.8,119 C61.7,119.1 62.8,120.3 63.5,122 C68.5,128 66.8,135 66.5,141.9 C65,145.9 65.5,151.6 58.6,150.9 C54.1,146.2 55.3,140.2 55,134.6 C55.2,129 54.2,122.9 59.8,119 Z" id="Shape" fill="#202423"></path>
                    <path d="M60,119 C59.4,124.2 58.9,129.4 58.3,134.6 C57.4,135.8 56.2,136.4 54.7,136.6 C53.2,136.3 52.2,135.5 51.6,134.1 C51.1,129.1 50.5,124.1 50,119.1 C53.4,119 56.7,119 60,119 Z" id="Shape" fill="#A0B6B0"></path>
                    <path d="M362.990018,289.094586 C362.590018,291.394586 361.490018,293.094586 359.090018,293.594586 C356.390018,289.894586 353.590018,286.294586 351.190018,282.494586 C350.690018,281.794586 351.290018,280.094586 351.690018,279.094586 C352.390018,277.494586 355.090018,277.694586 356.590018,279.394586 C356.990018,279.894586 357.590018,280.194586 357.990018,280.794586 C359.690018,283.494586 361.290018,286.294586 362.990018,289.094586 Z" id="Shape" fill="#383F3D"></path>
                    <path d="M49.7,182.46274 C50,190.26274 50.4,197.96274 50.7,205.76274 C49.1,205.86274 47.6,205.86274 46,205.96274 C46.2,198.16274 46.3,190.26274 46.5,182.46274 C47.7,180.46274 48.7,180.56274 49.7,182.46274 Z" id="Shape" fill="#80908C"></path>
                    <path d="M385.908338,181 C386.108338,183.4 386.408338,185.8 386.408338,188.2 C386.408338,190.9 387.408338,192.8 389.808338,194 C390.408338,197.6 389.608338,200.7 387.008338,203.3 C386.508338,200.7 385.208338,198.8 382.508338,198.2 C377.908338,191.2 376.708338,185 385.908338,181 Z" id="Shape" fill="#242516"></path>
                    <path d="M74.3384158,133.62331 L72.6384158,133.52331 L70.9384158,133.52331 C68.0384158,132.92331 66.3384158,131.22331 65.2384158,128.52331 C64.9384158,125.92331 64.6384158,123.22331 66.2384158,120.82331 C66.9384158,118.92331 68.2384158,117.82331 70.4384158,118.02331 C72.1384158,118.82331 73.4384158,120.02331 74.4384158,121.62331 C74.4384158,125.72331 74.4384158,129.72331 74.3384158,133.62331 Z" id="Shape" fill="#454E4B"></path>
                    <path d="M277,267 C286,267 295.1,267 304.1,267 C295.1,270.8 286.1,270.6 277,267 Z" id="Shape" fill="#282A19"></path>
                    <path d="M231.074282,22.2649137 C229.574282,22.3649137 228.174282,22.3649137 226.674282,22.4649137 C225.074282,18.5649137 222.274282,15.0649137 223.174282,10.4649137 C224.474282,8.56491367 225.874282,8.56491367 227.374282,10.1649137 C231.674282,13.2649137 230.874282,17.9649137 231.074282,22.2649137 Z" id="Shape" fill="#1C201F"></path>
                    <path d="M66.1,122 C66.4,124.8 66.7,127.7 67,130.5 C67.7,135.1 72.8,141.2 63,142.1 C63.1,135.4 63.2,128.7 63.3,122.1 C64.3,122.2 65.2,122.2 66.1,122 Z" id="Shape" fill="#82938E"></path>
                    <path d="M365.2,33.44375 C363.2,32.84375 362.5,31.14375 362,29.34375 C362.3,26.74375 363.2,24.34375 365.4,22.84375 C366.3,22.24375 367.9,21.74375 368.6,22.14375 C369.4,22.64375 370.1,24.44375 369.8,25.14375 C368.6,28.04375 366.8,30.74375 365.2,33.44375 Z" id="Shape" fill="#171A19"></path>
                    <path d="M130.702519,306 C133.002519,306.5 134.102519,308 134.502519,310.2 C133.002519,312.3 131.602519,314.5 129.902519,316.4 C128.802519,317.6 127.402519,317.3 126.702519,316 C126.402519,315.5 126.002519,314.9 126.002519,314.3 C125.902519,310.7 128.802519,308.6 130.702519,306 Z" id="Shape" fill="#2B302F"></path>
                    <path d="M227.762015,10.0110253 C226.362015,10.1110253 224.962015,10.2110253 223.562015,10.3110253 C222.362015,7.41102529 221.062015,4.41102529 222.962015,1.31102529 C223.262015,0.811025293 223.762015,0.111025293 224.362015,0.0110252929 C224.762015,-0.0889747071 225.362015,0.511025293 225.762015,1.01102529 C227.762015,3.61102529 227.762015,6.81102529 227.762015,10.0110253 Z" id="Shape" fill="#161919"></path>
                    <path d="M211,314 C213.5,314.7 214.3,316.8 215.2,318.9 C215,320.2 215.1,321.6 214.5,322.7 C214,323.6 212.7,324.1 211.7,324.8 C211.1,323.8 210,322.7 210,321.7 C210.1,319.1 210.7,316.6 211,314 Z" id="Shape" fill="#212524"></path>
                    <path d="M219.537847,303 C218.937847,299.6 218.037847,296.2 221.937847,294 C222.937847,297.5 221.837847,300.4 219.537847,303 Z" id="Shape" fill="#535E5B"></path>
                    <path d="M221.418976,290.7 C219.318976,290.7 217.218976,290.7 215.018976,290.7 C214.818976,288.3 216.218976,287 218.318976,287 C220.618976,287 221.918976,288.3 221.418976,290.7 Z" id="Shape" fill="#535E5B"></path>
                    <path d="M302.5,10.4064276 C301,10.3064276 299.5,10.2064276 298,10.1064276 C298.2,8.80642758 298.2,7.50642758 298.5,6.20642758 C299.1,3.60642758 300.6,2.50642758 302.1,3.20642758 C303.5,3.90642758 303.9,5.00642758 303.5,6.50642758 C303.1,7.90642758 302.8,9.20642758 302.5,10.4064276 Z" id="Shape" fill="#191C1B"></path>
                    <path d="M230.4,70.2401419 C230.4,71.3401419 230.4,72.5401419 230.4,73.6401419 C227.3,73.4401419 224.2,73.2401419 221,73.0401419 C223.6,70.3401419 226.8,69.5401419 230.4,70.2401419 Z" id="Shape" fill="#33331A"></path>
                    <path d="M74,122.710294 C72.7,121.510294 71.4,120.310294 70,119.110294 C72.9,118.610294 74.2,119.810294 74,122.710294 Z" id="Shape" fill="#82938E"></path>
                    <path d="M386.488972,181.040259 C382.488972,186.140259 383.288972,192.340259 382.988972,198.140259 C381.288972,202.440259 379.788972,206.740259 377.988972,211.040259 C368.888972,232.040259 354.288972,247.240259 332.088972,254.340259 C327.688972,255.740259 323.388972,257.240259 318.988972,258.740259 C314.688972,261.040259 309.688972,259.640259 305.388972,261.540259 C295.788972,261.440259 286.188972,261.340259 276.488972,261.340259 C275.388972,260.740259 274.288972,259.740259 273.088972,259.540259 C267.388972,258.840259 261.588972,257.840259 255.888972,257.740259 C250.088972,257.640259 244.988972,253.840259 238.988972,254.840259 C225.188972,250.740259 211.288972,246.740259 197.488972,242.440259 C174.188972,235.240259 151.688972,226.040259 129.688972,215.640259 C119.588972,210.840259 109.588972,205.940259 99.4889719,201.140259 C95.7889719,197.240259 96.7889719,193.140259 98.7889719,188.940259 C105.688972,183.540259 113.988972,184.940259 121.888972,184.740259 C146.388972,184.040259 171.188972,187.540259 194.788972,177.340259 C202.688972,173.940259 210.588972,177.840259 217.688972,181.540259 C240.288972,193.140259 264.088972,201.640259 288.188972,209.340259 C300.188972,212.740259 312.088972,217.740259 324.888972,215.040259 C331.088972,213.740259 338.788972,212.340259 339.688972,204.040259 C340.388972,197.040259 334.688972,193.840259 329.388972,190.840259 C320.688972,185.840259 311.388972,182.540259 301.888972,179.540259 C299.088972,178.740259 296.488972,177.540259 293.988972,175.840259 C291.088972,173.040259 288.888972,169.940259 290.488972,165.540259 C301.688972,156.440259 319.288972,157.740259 327.088972,143.040259 C332.788972,130.340259 324.988972,125.840259 314.788972,123.940259 C305.688972,122.240259 296.188972,123.240259 286.888972,123.340259 C280.888972,123.140259 275.188972,124.340259 270.088972,127.540259 C247.588972,135.640259 225.188972,144.140259 202.488972,150.940259 C176.488972,158.740259 149.188972,152.740259 122.888972,146.740259 C116.988972,146.440259 110.988972,146.340259 105.088972,145.840259 C104.088972,145.740259 102.888972,144.240259 102.388972,143.140259 C101.888972,142.040259 101.988972,140.540259 101.988972,139.240259 C102.288972,122.340259 101.488972,124.640259 114.888972,118.440259 C142.488972,105.740259 170.888972,95.0402589 199.988972,86.2402589 C204.988972,84.7402589 210.088972,83.0402589 215.088972,81.4402589 C217.888972,79.9402589 221.188972,79.9402589 224.088972,78.5402589 C226.388972,78.1402589 228.688972,77.7402589 231.088972,77.3402589 C240.788972,75.9402589 250.588972,74.7402589 260.288972,72.9402589 C281.988972,68.9402589 303.488972,68.9402589 325.088972,73.4402589 C325.688972,73.5402589 326.388972,73.3402589 327.088972,73.3402589 C331.388972,74.9402589 335.688972,76.5402589 339.888972,78.2402589 C363.688972,87.8402589 377.788972,105.440259 382.988972,130.340259 C383.688972,133.540259 383.988972,136.840259 386.288972,139.440259 C386.388972,153.340259 386.488972,167.140259 386.488972,181.040259 Z" id="Shape" fill="#FDE703"></path>
                    <path d="M122.265104,146.564989 C137.365104,144.564989 152.565104,145.364989 167.665104,146.364989 C174.165104,146.764989 180.565104,148.864989 187.065104,150.064989 C190.365104,150.664989 193.565104,150.164989 196.665104,148.564989 C218.365104,137.264989 241.465104,129.964989 265.265104,124.364989 C267.165104,123.964989 268.765104,122.664989 270.565104,121.764989 C272.965104,119.464989 275.765104,119.864989 278.665104,120.464989 C282.165104,121.764989 286.165104,122.564989 287.565104,126.864989 C285.065104,134.964989 277.465104,134.264989 271.465104,135.664989 C254.165104,139.664989 237.265104,144.764989 220.765104,151.264989 C215.265104,153.364989 207.165104,153.364989 207.265104,162.464989 C214.465104,168.164989 227.965104,160.164989 231.365104,173.664989 C229.565104,175.664989 227.365104,176.864989 226.765104,176.864989 C247.865104,191.964989 278.165104,191.864989 299.565104,211.264989 C297.465104,216.764989 293.565104,215.764989 289.365104,214.264989 C286.165104,213.764989 282.765104,213.764989 279.665104,212.764989 C259.065104,205.964989 238.865104,197.664989 219.465104,188.064989 C213.565104,185.164989 207.665104,182.164989 201.965104,179.364989 C197.465104,179.064989 194.765104,182.464989 191.165104,183.764989 C182.465104,186.864989 173.665104,189.764989 164.365104,189.864989 C149.865104,190.164989 135.365104,190.264989 120.765104,190.464989 C113.565104,190.564989 106.265104,190.664989 99.0651037,190.764989 C96.1651037,185.664989 99.7651037,182.764989 102.965104,179.864989 C118.965104,173.464989 135.765104,177.464989 152.165104,176.364989 C161.865104,175.764989 171.965104,177.264989 181.865104,170.564989 C177.065104,158.864989 167.265104,160.164989 158.565104,159.364989 C144.265104,157.964989 129.365104,162.264989 115.465104,155.364989 C113.665104,153.764989 113.465104,151.864989 114.665104,149.864989 C117.365104,149.764989 120.765104,150.364989 122.265104,146.564989 Z" id="Shape" fill="#201E04"></path>
                    <path d="M102.96585,181.8 C101.76585,184.8 100.56585,187.7 99.3658498,190.7 C99.3658498,194.1 99.4658498,197.5 99.4658498,200.9 C99.0658498,202.9 98.4658498,204.8 96.1658498,205.4 C94.6658498,204.2 93.2658498,202.6 91.4658498,201.8 C90.1658498,201.2 88.6658498,200.7 89.0658498,199.2 C89.2658498,198.3 90.9658498,197.8 91.8658498,197 C92.7658498,196.2 94.2658498,195.1 94.2658498,194.2 C94.3658498,184.3 94.2658498,174.4 93.9658498,164.5 C93.9658498,163.5 92.2658498,162.6 91.3658498,161.7 C91.1658498,151.1 90.8658498,140.4 90.7658498,129.8 C90.7658498,127.2 91.4658498,124.6 91.7658498,122 C92.3658498,122.1 93.0658498,122.1 93.6658498,122.2 C96.5658498,122.5 98.5658498,124 98.7658498,126.9 C99.0658498,133.3 99.0658498,139.7 99.2658498,146.1 C99.2658498,147.2 101.96585,149.5 103.36585,149.6 C107.16585,149.8 111.06585,149.9 114.86585,150.1 C114.86585,151.3 114.86585,152.4 114.86585,153.6 C113.16585,156.8 109.86585,158 107.16585,159.9 C101.36585,165.5 104.86585,173 103.26585,179.4 C103.16585,180.1 103.06585,181 102.96585,181.8 Z" id="Shape" fill="#1E1D09"></path>
                    <path d="M224,78.4196361 C221.5,81.0196361 218.5,81.9196361 215,81.3196361 C217,76.9196361 220.6,78.0196361 224,78.4196361 Z" id="Shape" fill="#33331A"></path>
                    <path d="M305,261.077311 C309,257.577311 313.8,257.777311 318.6,258.277311 C317.3,260.777311 315.4,261.977311 312.6,261.677311 C310,261.477311 307.5,261.277311 305,261.077311 Z" id="Shape" fill="#282A19"></path>
                    <path d="M63.0657071,141.6 C65.1657071,141.1 66.3657071,139.7 66.6657071,137.7 C66.9657071,135.1 66.9657071,132.5 67.0657071,130 C69.2657071,130.5 70.4657071,131.9 70.8657071,134.1 C70.7657071,138.2 70.5657071,142.4 70.4657071,146.5 C68.3657071,147 67.0657071,148.5 66.9657071,150.6 C66.6657071,154.5 66.5657071,158.5 66.3657071,162.5 C64.2657071,163.1 63.3657071,164.7 63.0657071,166.7 C62.7657071,169.3 62.5657071,171.9 62.3657071,174.5 C61.3657071,174.1 60.3657071,173.7 59.2657071,173.4 C52.6657071,165.5 51.7657071,157.6 59.4657071,149.8 C63.3657071,148.3 62.2657071,144.6 63.0657071,141.6 Z" id="Shape" fill="#4C5653"></path>
                    <path d="M49.7,182.6 C49.7,182.6 48.1,182.5 48.1,182.5 L46.5,182.6 C46,179.3 46.6,175.4 42,174.3 C42.3,170.2 42.5,166.1 42.8,162 C43.8,162.2 44.9,162.3 46,162.2 C51.8,164.7 54.1,168.5 50.5,174.5 C50.3,177.2 50,179.9 49.7,182.6 Z" id="Shape" fill="#626F6B"></path>
                    <path d="M50.5,174.2 C50.8,169.4 47.8,165.9 46,161.9 C46.3,157.9 46.5,153.9 46.8,150 C47.9,150.1 49,150.1 50,150.1 C53.9,152.3 54.9,156.3 56,160.2 C55.4,164.9 58.2,170.3 53.5,174.3 L51.9,174.3 L50.5,174.2 Z" id="Shape" fill="#383E3C"></path>
                    <path d="M54.5257474,174.1 C54.5257474,168.8 54.5257474,163.5 54.6257474,158.2 C52.7257474,150.1 52.0257474,142 55.1257474,134 C56.2257474,134 57.3257474,134.1 58.4257474,134.2 C58.9257474,139.4 59.3257474,144.6 59.8257474,149.8 C59.7257474,157.7 59.6257474,165.5 59.6257474,173.4 C59.4257474,176 59.3257474,178.6 59.0257474,181.2 C58.8257474,183.2 57.9257474,184.8 55.9257474,185.7 C55.4257474,181.8 54.9257474,178 54.5257474,174.1 Z" id="Shape" fill="#C3DED7"></path>
                    <path d="M54.1,134.4 C53.9,142.5 53.8,150.5 53.6,158.6 C50,156.9 50.5,153.4 50,150.3 C50.3,144.9 50.5,139.4 50.8,134 C51.9,134.4 53,134.5 54.1,134.4 Z" id="Shape" fill="#687772"></path>
                    <path d="M230.9,173.9 C229.4,172.7 228,170.7 226.5,170.6 C218.6,170.2 210.7,170.4 202.8,170.1 C200.7,170 199.7,168 199,166.1 C204.2,160.7 211.1,160.8 217.6,161 C255.2,161.9 291.7,157.1 326.2,141 C329.9,141.5 333.2,142.4 331.4,147.4 C329.7,152.1 325.8,154.9 321.8,157.2 C312.5,162.4 302.8,166.7 291.8,166.9 C287.8,172.4 284.9,179.3 276.6,179.5 C261.1,179 245,184.9 230.9,173.9 Z" id="Shape" fill="#282504"></path>
                    <path d="M289,214.9 C292.3,214.2 296.3,215.3 298.2,211.1 C306.3,202.8 319.7,214.4 327.9,202.7 C321.2,188.2 300.8,193.6 293.4,180.3 C294.3,175.1 299.6,177.3 302.2,175 C312.5,177.1 322.1,181.2 331.4,186.1 C334.3,187.6 337.3,189.3 339.6,191.5 C348.6,200.3 349.1,210.2 336.3,216.9 C328.9,220.8 320.4,222.9 311.6,220.8 C305.9,219.4 300,218.9 294.2,217.7 C292.2,217.4 290.6,215.9 289,214.9 Z" id="Shape" fill="#282505"></path>
                    <path d="M331.249305,147.003422 C330.649305,144.503422 329.449305,142.603422 326.749305,142.103422 C319.949305,132.803422 310.049305,130.403422 299.449305,129.303422 C294.749305,128.103422 290.649305,125.903422 286.749305,123.103422 C285.549305,121.303422 285.749305,119.703422 287.649305,118.503422 C296.049305,118.303422 304.549305,118.203422 312.949305,118.003422 C319.049305,117.903422 324.449305,120.003422 329.449305,123.203422 C332.849305,125.403422 335.149305,128.603422 335.349305,132.803422 C335.449305,136.003422 335.349305,139.303422 334.649305,142.403422 C334.149305,144.103422 332.349305,145.503422 331.249305,147.003422 Z" id="Shape" fill="#373305"></path>
                    <path d="M281,174.6 C283.7,173.9 286.1,172.8 284.6,169.4 C283.8,167.7 283.9,166.6 285.7,166.3 C287.6,166 289.6,166.1 291.6,166 C291.8,167.1 291.7,168.3 292.3,169.1 C293.4,170.5 294.8,171.7 296.1,172.9 C294.6,175.5 292.5,177.5 290.2,179.3 C285.7,180.4 282.4,179.3 281,174.6 Z" id="Shape" fill="#282505"></path>
                    <path d="M287.9,118.3 C287.4,119.4 286.8,120.4 286.2,121.4 C284.3,124.6 281.9,124 279.2,122.5 C276.5,122.3 273.8,122.2 271,122 C272,119.5 273.7,118 276.6,118 C280.4,118.1 284.1,118.2 287.9,118.3 Z" id="Shape" fill="#F9E403"></path>
                    <path d="M291,177.6 C291.7,174.8 293.8,173.7 296.4,173 C298.6,173.5 300.7,173.9 302.9,174.4 C301.3,178.6 297.4,177.6 294.1,178.2 L292.3,178.9 L291,177.6 Z" id="Shape" fill="#282504"></path>
                    <path d="M298.328876,125.61267 C304.928876,126.01267 311.428876,126.31267 318.028876,126.91267 C323.328876,127.41267 326.328876,131.61267 326.628876,138.11267 C326.628876,139.41267 326.528876,140.71267 326.528876,142.11267 C319.828876,150.11267 310.728876,154.01267 301.128876,156.81267 C291.628876,159.61267 282.028876,162.51267 271.928876,162.41267 C252.328876,166.71267 232.428876,166.01267 212.528876,166.41267 C207.928876,166.51267 203.228876,166.01267 198.628876,165.71267 C198.328876,165.11267 198.028876,164.51267 197.728876,163.91267 C197.128876,162.81267 196.128876,161.71267 196.028876,160.51267 C195.728876,158.21267 197.828876,157.11267 199.428876,156.31267 C205.928876,153.01267 212.328876,149.51267 219.228876,147.01267 C239.828876,139.61267 260.328876,132.21267 282.228876,129.21267 C284.028876,129.01267 285.728876,127.41267 287.428876,126.51267 C290.728876,122.81267 294.528876,123.81267 298.328876,125.61267 Z" id="Shape" fill="#F9E403"></path>
                    <path d="M290.741136,177.604652 C291.641136,178.404652 292.741136,178.604652 293.841136,178.204652 C296.141136,179.304652 298.341136,180.804652 300.741136,181.604652 C311.341136,184.904652 321.841136,188.504652 331.341136,194.404652 C333.441136,195.704652 335.141136,197.804652 336.941136,199.704652 C338.541136,201.404652 337.941136,205.204652 336.041136,206.804652 C331.341136,210.704652 325.941136,212.904652 319.941136,212.804652 C315.441136,212.804652 310.941136,211.904652 306.441136,211.404652 C303.841136,211.104652 301.341136,210.904652 298.741136,210.604652 C271.941136,202.904652 246.341136,192.304652 221.241136,180.204652 C219.241136,179.204652 216.641136,178.204652 217.041136,174.804652 C221.641136,174.304652 226.241136,173.804652 230.841136,173.304652 C234.741136,173.404652 238.641136,173.904652 242.441136,173.604652 C255.441136,172.404652 268.341136,173.104652 281.141136,174.704652 C283.741136,177.404652 287.141136,178.004652 290.741136,177.604652 Z" id="Shape" fill="#F8E303"></path>
                    <path d="M103.737116,154.9 C107.237116,154.6 110.737116,154.3 114.337116,154 C124.937116,154.1 135.537116,154.1 146.237116,154.3 C153.537116,154.4 160.837116,154.6 168.137116,155 C171.437116,155.2 174.737116,155.8 177.937116,156.7 C181.637116,157.8 185.437116,158.9 186.737116,163.7 C187.337116,166.1 189.637116,168.1 191.137116,170.2 C192.537116,172.1 191.437116,175.8 189.237116,176.6 C182.437116,179.1 175.637116,181.9 168.237116,182.2 C162.237116,182.5 156.237116,183 150.337116,183 C134.437116,183 118.437116,182.7 102.537116,182.5 C100.337116,173.2 97.6371157,163.8 103.737116,154.9 Z" id="Shape" fill="#FAE403"></path>
                    <path d="M298.7,125.2 C295,125.5 291.3,125.8 287.6,126 C284.5,125.2 280.5,126.4 279,122.1 C281.3,121.7 283.6,121.4 286,121 C289,121.3 292,121.2 294.9,121.9 C296.3,122.3 297.4,124 298.7,125.2 Z" id="Shape" fill="#0E0C03"></path>
                    <path d="M103.625,154 C100.025,163 100.425,172.3 102.125,181.6 C101.125,180.9 99.425,180.3 99.225,179.4 C97.525,171.9 97.725,164.2 99.025,156.7 C99.425,154.5 101.825,154.3 103.625,154 Z" id="Shape" fill="#201E04"></path>
                </g>
            </g>
        </g>
    </g>
</svg>