<?xml version="1.0" encoding="UTF-8"?>
<svg width="480px" height="800px" viewBox="0 0 480 800" version="1.1" xmlns="http://www.w3.org/2000/svg" xmlns:xlink="http://www.w3.org/1999/xlink">
    <!-- Generator: Sketch 48.2 (47327) - http://www.bohemiancoding.com/sketch -->
    <title>Space/Utility/Water Works</title>
    <desc>Created with Sketch.</desc>
    <defs>
        <rect id="path-1" x="0" y="0" width="480" height="800"></rect>
    </defs>
    <g id="Utility-Spaces" stroke="none" stroke-width="1" fill="none" fill-rule="evenodd" transform="translate(-918.000000, -37.000000)">
        <g id="Space/Utility/Water-Works" transform="translate(1158.000000, 437.000000) rotate(180.000000) translate(-1158.000000, -437.000000) translate(918.000000, 37.000000)">
            <g id="Water-Works">
                <g id="Squared-Full-Height-Teal-Field">
                    <use fill="#CBE8E0" fill-rule="evenodd" xlink:href="#path-1"></use>
                    <rect stroke="#CBE8E0" stroke-width="1" x="0.5" y="0.5" width="479" height="799"></rect>
                </g>
                <text id="UTILITY-NAME" font-family="KabobLight" font-size="60" font-weight="300" fill="#000000">
                    <tspan x="147.48" y="129">WATER</tspan>
                    <tspan x="142.98" y="196">WORKS</tspan>
                </text>
                <text id="PRICE" font-family="KabobLight" font-size="45" font-weight="300" fill="#000000">
                    <tspan x="113.1925" y="769">PRICE</tspan>
                </text>
                <text id="$000" font-family="KabobLight" font-size="60" font-weight="300" fill="#000000">
                    <tspan x="238" y="779">$150</tspan>
                </text>
                <g id="Faucet" transform="translate(240.500000, 461.232930) rotate(-180.000000) translate(-240.500000, -461.232930) translate(70.000000, 331.232930)" fill-rule="nonzero">
                    <path d="M126.280766,165.402153 C126.780766,162.002153 127.280766,158.502153 127.780766,155.102153 C126.880766,144.302153 119.880766,148.902153 114.380766,149.902153 C95.7807664,149.902153 77.0807664,149.802153 58.4807664,149.902153 C51.7807664,149.902153 45.2807664,148.802153 38.7807664,147.102153 C25.8807664,143.702153 16.2807664,136.202153 9.48076641,124.802153 C3.48076641,114.802153 0.480766407,103.802153 0.280766407,92.5021535 C-0.219233593,63.9021535 0.0807664068,35.3021535 0.180766407,6.60215347 C0.180766407,3.30215347 3.28076641,-0.0978465298 6.38076641,0.00215347017 C18.9807664,0.50215347 31.5807664,1.00215347 44.1807664,1.90215347 C45.4807664,2.00215347 47.4807664,4.40215347 47.6807664,5.90215347 C48.1807664,10.5021535 48.0807664,15.2021535 48.0807664,19.9021535 C48.0807664,33.9021535 48.0807664,47.9021535 48.0807664,61.8021535 C48.0807664,64.5021535 48.0807664,67.1021535 48.0807664,69.8021535 C47.9807664,88.4021535 62.1807664,95.7021535 74.3807664,97.1021535 C80.9807664,97.8021535 87.6807664,97.2021535 94.2807664,96.9021535 C102.880766,96.6021535 111.580766,95.8021535 120.180766,95.9021535 C126.980766,96.0021535 131.580766,94.3021535 133.680766,87.2021535 C134.680766,83.7021535 138.080766,82.5021535 141.680766,82.5021535 C152.980766,82.5021535 164.280766,82.6021535 175.680766,82.5021535 C184.380766,82.4021535 191.080766,86.1021535 195.880766,93.2021535 C196.580766,94.3021535 197.480766,95.4021535 197.980766,96.6021535 C199.580766,99.9021535 202.080766,101.502153 205.780766,101.602153 C215.080766,101.702153 224.380766,101.902153 233.780766,102.002153 C242.480766,102.102153 251.080766,102.302153 259.780766,102.302153 C271.680766,102.302153 274.680766,104.502153 275.580766,89.1021535 C276.180766,78.7021535 282.780766,72.3021535 293.080766,70.0021535 C296.980766,69.1021535 300.780766,67.9021535 304.780766,67.4021535 C321.780766,65.4021535 334.680766,74.8021535 338.880766,91.3021535 C340.180766,96.4021535 340.380766,101.802153 340.380766,107.102153 C340.380766,122.402153 340.180766,137.702153 339.780766,153.002153 C339.180766,174.602153 322.380766,192.102153 300.580766,193.202153 C289.880766,193.802153 281.180766,189.202153 275.780766,179.502153 C272.180766,173.002153 271.080766,165.702153 270.480766,158.402153 C270.380766,156.802153 268.080766,154.902153 266.380766,154.802153 C265.680766,154.702153 265.080766,154.602153 264.380766,154.602153 C241.780766,154.702153 219.080766,154.902153 196.480766,155.102153 C193.680766,155.102153 191.480766,157.202153 191.180766,159.902153 C190.780766,163.902153 190.580766,167.902153 189.980766,171.802153 C189.780766,172.902153 188.380766,173.702153 187.580766,174.702153 C184.580766,176.302153 185.380766,180.302153 182.880766,182.302153 L182.780766,182.402153 C166.980766,180.202153 151.180766,178.202153 135.280766,181.302153 C132.080766,181.602153 129.180766,180.702153 126.680766,178.702153 L126.680766,178.802153 C125.680766,174.202153 125.480766,169.802153 126.280766,165.402153 Z" id="Shape" fill="#030303"></path>
                    <path d="M166.258051,198.4 C166.358051,209.1 166.358051,219.7 166.458051,230.4 C166.458051,232 168.658051,234.3 170.258051,234.4 C171.558051,234.5 172.958051,234.7 174.258051,234.7 C177.558051,234.8 180.958051,234.5 184.258051,234.8 C189.958051,235.3 194.258051,233.4 198.658051,229.5 C204.558051,224.4 211.058051,225.8 215.858051,232.1 C218.858051,236.1 219.058051,241 216.258051,245.1 C213.458051,249.2 208.558051,251.4 204.158051,250.4 C203.558051,250.3 202.858051,250.2 202.158051,250 C197.658051,248.6 195.058051,243.7 190.058051,243.5 C183.358051,243.3 176.758051,243.3 170.058051,243.4 C166.458051,243.5 163.858051,245.5 162.858051,249.2 C161.758051,253.2 159.858051,256.5 156.258051,258.8 C153.658051,260.5 148.858051,259.8 147.558051,257.1 C146.158051,254.1 144.958051,251 143.758051,247.9 C142.358051,244.3 139.758051,243 136.058051,243 C128.758051,243 121.358051,243.1 114.058051,242.8 C108.458051,242.5 103.558051,243.6 99.6580512,247.9 C98.8580512,248.8 97.4580512,249.3 96.2580512,249.9 C92.3580512,251.6 86.4580512,250.1 83.5580512,246.5 C81.0580512,243.3 78.8580512,239.9 80.6580512,235.6 C83.0580512,229.7 87.7580512,226.2 92.5580512,226.4 C96.0580512,226.6 98.9580512,228.2 101.358051,230.6 C103.858051,233.2 106.858051,234.2 110.258051,234.2 C117.558051,234.2 124.958051,234.4 132.258051,234.4 C141.558051,234.4 142.358051,233.6 142.458051,224.3 C142.558051,217 142.858051,209.6 142.958051,202.3 C145.358051,196.3 150.158051,194.1 156.258051,194 C158.158051,194 159.958051,194.3 161.758051,194.9 C163.558051,195.9 165.058051,197.1 166.258051,198.4 Z" id="Shape" fill="#060707"></path>
                    <path d="M163.2,197.7 C161.7,197.7 160.2,197.6 158.7,197.6 C153.8,193.5 147.2,198.2 142.2,194.4 C136.5,194.1 132.7,191.4 131,185.9 C131.8,182.7 134,180.8 137.2,180 C147.2,180.6 157.3,179.9 166.9,183.5 C169.7,185.1 171.6,187.4 172.3,190.6 C170.9,191.9 169.4,193.1 168,194.4 C166.2,195.3 164.6,196.3 163.2,197.7 Z" id="Shape" fill="#292E2D"></path>
                    <path d="M171.7,190.903748 C169.3,190.203748 167.2,189.203748 166.5,186.503748 C158.6,177.103748 147.1,185.603748 138.3,180.603748 C136.5,180.203748 135,179.203748 134,177.703748 C135.6,175.403748 137.7,174.103748 140.6,174.103748 C150.5,174.103748 160.4,174.303748 170.2,174.003748 C174.9,173.903748 177.5,175.803748 179.3,179.803748 C179.8,180.803748 181.3,181.303748 182.3,182.103748 C180.4,187.003748 176.5,189.503748 171.7,190.903748 Z" id="Shape" fill="#1A1D1C"></path>
                    <path d="M114,149.404757 C117.6,144.804757 123.7,146.704757 128,144.004757 C128.2,143.904757 130,145.404757 130.3,146.304757 C131.3,149.604757 130.4,152.604757 127.4,154.604757 C126,151.204757 123.5,149.704757 119.8,150.004757 C117.9,150.204757 115.9,149.604757 114,149.404757 Z" id="Shape" fill="#798A85"></path>
                    <path d="M142,194.309638 C146.3,194.209638 150.6,193.809638 154.8,194.109638 C156.1,194.209638 157.3,196.309638 158.5,197.509638 C153,197.609638 147.5,197.609638 143.3,201.909638 C142.9,199.309638 142.5,196.809638 142,194.309638 Z" id="Shape" fill="#4F5956"></path>
                    <path d="M134.657945,180.9 C134.057945,183.3 132.857945,185.1 130.257945,185.6 C127.357945,183.8 125.657945,181.3 126.057945,177.7 C128.657945,177.5 131.257945,177.2 133.857945,177 L134.957945,178.1 C134.757945,179.1 134.757945,180 134.657945,180.9 Z" id="Shape" fill="#1A1D1C"></path>
                    <path d="M126.101705,165 C128.901705,169.4 130.601705,173.7 126.501705,178.3 C121.901705,172.1 121.901705,171.5 126.101705,165 Z" id="Shape" fill="#1A1D1C"></path>
                    <path d="M183,181.6 C183.1,178.1 182.8,174.5 187.7,174 C187.5,177.4 186.9,180.5 183,181.6 Z" id="Shape" fill="#1A1D1C"></path>
                    <path d="M163,197.326838 C163.5,194.726838 165.2,193.826838 167.7,194.026838 C167.6,195.326838 167.3,196.526838 166.6,197.626838 C165.4,197.526838 164.2,197.426838 163,197.326838 Z" id="Shape" fill="#4F5956"></path>
                    <path d="M14.5,57.8807664 C14.5,44.5807664 14.4,31.2807664 14.7,17.9807664 C14.7,16.6807664 17.1,14.4807664 18.5,14.2807664 C22.4,13.7807664 26.4,14.0807664 30.4,14.1807664 C31.1,14.1807664 31.9,14.0807664 32.3,14.4807664 C33.3,15.2807664 34.7,16.2807664 34.9,17.3807664 C35.4,19.9807664 35.4,22.6807664 35.4,25.2807664 C35.4,37.2807664 35.4,49.2807664 35.4,61.1807664 C35.4,65.1807664 35.3,69.1807664 35.5,73.1807664 C36.1,84.3807664 40.6,93.6807664 49.8,100.480766 C58,106.580766 66.9,110.380766 77.5,109.980766 C92.8,109.580766 108.1,109.680766 123.4,109.480766 C126.7,109.480766 130.1,109.280766 133.3,108.480766 C137.2,107.580766 141.1,105.980766 142.8,101.980766 C144.9,97.0807664 148.3,94.8807664 153.6,95.0807664 C160.9,95.2807664 168.2,94.9807664 175.6,95.2807664 C180.5,95.4807664 184.4,97.9807664 186.5,102.780766 C187.3,104.580766 188,106.480766 189.1,108.080766 C191.1,110.880766 194,112.780766 197.3,113.280766 C201.2,113.880766 205.2,114.080766 209.2,114.180766 C229.2,114.480766 249.1,114.680766 269.1,114.980766 C272.4,114.980766 275.8,115.080766 279,115.480766 C280.2,115.580766 281.5,116.480766 282.3,117.380766 C286.1,121.280766 287.3,127.880766 285.2,132.180766 C282.7,137.180766 279.2,141.080766 273.1,141.280766 C263.1,141.480766 253.1,141.480766 243.2,141.580766 C226.6,141.780766 209.9,141.880766 193.3,142.080766 C185.9,142.180766 180.5,145.280766 178.6,152.880766 C177.8,155.980766 175.6,157.680766 172.9,157.180766 C163.7,155.280766 154.5,155.080766 145.2,156.080766 C144.7,156.180766 143.2,153.980766 143.3,152.980766 C143.9,149.080766 145.3,145.380766 145.9,141.480766 C146.3,138.880766 146.3,136.080766 145.7,133.680766 C144.1,127.380766 135.6,123.780766 129.4,126.380766 C128.2,126.880766 126.7,127.280766 126,128.280766 C120.7,135.580766 112.7,136.480766 104.7,136.980766 C100.1,137.280766 95.4,137.380766 90.7,137.180766 C76.7,136.580766 62.8,135.780766 48.8,135.180766 C36.4,134.680766 27.5,128.180766 21,118.280766 C16.5,111.480766 14,103.980766 14,95.6807664 C14,83.0807664 14,70.3807664 14,57.7807664 C14.3,57.8807664 14.4,57.8807664 14.5,57.8807664 Z" id="Shape" fill="#FFFFFF"></path>
                    <path d="M326.265333,128.034694 C326.265333,136.034694 326.165333,143.934694 326.265333,151.934694 C326.365333,159.734694 322.865333,166.034694 317.865333,171.534694 C312.065333,177.734694 304.665333,180.034694 296.165333,179.134694 C291.865333,178.634694 288.565333,176.734694 286.765333,172.834694 C285.365333,169.834694 284.065333,166.734694 283.465333,163.534694 C282.565333,158.934694 282.665333,154.234694 286.565333,150.634694 C288.465333,148.834694 290.465333,147.034694 292.065333,144.934694 C299.365333,135.734694 300.265333,125.634694 295.665333,115.134694 C294.065333,111.534694 292.265333,107.934694 289.965333,104.734694 C285.865333,99.1346939 286.465333,93.6346939 289.065333,87.9346939 C290.165333,85.4346939 291.965333,83.4346939 294.665333,82.7346939 C300.465333,81.2346939 306.365333,80.5346939 312.365333,81.3346939 C316.565333,81.8346939 319.665333,84.0346939 322.165333,87.4346939 C324.965333,91.3346939 326.565333,95.6346939 326.565333,100.434694 C326.665333,109.734694 326.565333,119.034694 326.565333,128.234694 C326.465333,128.034694 326.365333,128.034694 326.265333,128.034694 Z" id="Shape" fill="#FFFFFF"></path>
                    <path d="M156.8,170.387874 C154.5,170.087874 152,169.687874 149.4,169.287874 C148.9,169.187874 148.4,168.487874 148,168.087874 C148.5,167.687874 149,166.987874 149.6,166.887874 C155.4,165.787874 161.2,165.587874 167,166.987874 C167.6,167.087874 168,167.787874 168.5,168.287874 C168,168.687874 167.5,169.287874 166.9,169.387874 C163.6,169.787874 160.4,169.987874 156.8,170.387874 Z" id="Shape" fill="#1A1D1C"></path>
                    <path d="M135,181.145689 C135.1,180.245689 135.2,179.345689 135.2,178.445689 C146.7,176.545689 158.3,176.745689 169.8,177.745689 C170.8,177.845689 172.3,178.745689 172.4,179.445689 C172.6,180.445689 171.9,181.845689 171.1,182.545689 C169.8,183.945689 168.1,184.945689 166.6,186.045689 C160.1,186.045689 153.6,185.745689 147.1,186.145689 C142,186.545689 138.5,184.045689 135,181.145689 Z" id="Shape" fill="#FFFFFF"></path>
                </g>
            </g>
        </g>
    </g>
</svg>