<?xml version="1.0" encoding="UTF-8"?>
<svg width="800px" height="480px" viewBox="0 0 800 480" version="1.1" xmlns="http://www.w3.org/2000/svg" xmlns:xlink="http://www.w3.org/1999/xlink">
    <!-- Generator: Sketch 48.2 (47327) - http://www.bohemiancoding.com/sketch -->
    <title>Space/Railroad/Pennsylvania RR</title>
    <desc>Created with Sketch.</desc>
    <defs>
        <rect id="path-1" x="0" y="0" width="480" height="800"></rect>
    </defs>
    <g id="Railroad-Spaces" stroke="none" stroke-width="1" fill="none" fill-rule="evenodd" transform="translate(-85.000000, -931.000000)">
        <g id="Space/Railroad/Pennsylvania-RR" transform="translate(485.000000, 1171.000000) rotate(90.000000) translate(-485.000000, -1171.000000) translate(245.000000, 771.000000)">
            <g id="RR-Square">
                <g id="Squared-Full-Height-Teal-Field">
                    <use fill="#CBE8E0" fill-rule="evenodd" xlink:href="#path-1"></use>
                    <rect stroke="#CBE8E0" stroke-width="1" x="0.5" y="0.5" width="479" height="799"></rect>
                </g>
                <path d="M64.05,102 C64.05,106.120021 62.5300152,109.479987 59.49,112.08 C56.7699864,114.400012 53.6700174,115.56 50.19,115.56 L45.69,115.56 L45.69,128.64 L41.91,129.42 L41.91,88.44 L48.57,88.44 C52.9300218,88.44 56.5499856,89.6199882 59.43,91.98 C62.5100154,94.5000126 64.05,97.8399792 64.05,102 Z M59.91,101.94 C59.91,98.8999848 58.8500106,96.5100087 56.73,94.77 C54.6099894,93.0299913 51.8300172,92.16 48.39,92.16 L45.69,92.16 L45.69,111.78 L48.51,111.78 C51.9500172,111.78 54.7099896,110.900009 56.79,109.14 C58.8700104,107.379991 59.91,104.980015 59.91,101.94 Z M96.33,125.34 L95.37,129 L71.55,129 L71.55,88.56 L94.41,88.56 L95.37,92.16 L75.33,92.16 L75.33,106.74 L92.43,106.74 L92.43,110.4 L75.33,110.4 L75.33,125.34 L96.33,125.34 Z M134.37,129.42 L107.31,97.44 L107.31,128.64 L103.53,129.42 L103.53,87.36 L130.77,119.7 L130.77,88.98 L134.37,88.2 L134.37,129.42 Z M175.65,129.42 L148.59,97.44 L148.59,128.64 L144.81,129.42 L144.81,87.36 L172.05,119.7 L172.05,88.98 L175.65,88.2 L175.65,129.42 Z M208.47,118.26 C208.47,121.780018 207.220012,124.599989 204.72,126.72 C202.219988,128.840011 199.110019,129.9 195.39,129.9 C192.509986,129.9 189.990011,129.220007 187.83,127.86 C186.149992,126.819995 184.510008,125.180011 182.91,122.94 L186.03,120.36 C187.350007,122.28001 188.649994,123.639996 189.93,124.44 C191.490008,125.440005 193.329989,125.94 195.45,125.94 C197.770012,125.94 199.789991,125.340006 201.51,124.14 C203.43001,122.779993 204.39,120.960011 204.39,118.68 C204.39,115.359983 202.610018,112.960007 199.05,111.48 C195.729983,110.319994 192.430016,109.160006 189.15,108 C185.549982,106.07999 183.75,102.960022 183.75,98.64 C183.75,95.5199844 184.959988,92.9000106 187.38,90.78 C189.800012,88.6599894 192.729983,87.6 196.17,87.6 C198.410011,87.6 200.409991,88.0099959 202.17,88.83 C203.930009,89.6500041 205.609992,90.8999916 207.21,92.58 L204.45,95.52 C203.289994,94.2399936 202.020007,93.2600034 200.64,92.58 C199.259993,91.8999966 197.770008,91.56 196.17,91.56 C194.009989,91.56 192.090008,92.2099935 190.41,93.51 C188.729992,94.8100065 187.89,96.5199894 187.89,98.64 C187.89,101.760016 189.669982,103.999993 193.23,105.36 C196.510016,106.520006 199.809983,107.679994 203.13,108.84 C206.690018,110.76001 208.47,113.899978 208.47,118.26 Z M243.15,88.98 L222.03,129.78 L218.01,128.58 L225.81,114 L211.11,88.98 L215.13,87.96 L227.97,109.86 L239.37,87.96 L243.15,88.98 Z M267.69,125.34 L266.37,129 L248.01,129 L248.01,88.98 L251.79,88.2 L251.79,125.34 L267.69,125.34 Z M305.79,89.28 L286.59,130.62 L268.11,89.28 L271.89,88.2 L286.59,121.44 L302.01,88.2 L305.79,89.28 Z M346.77,128.4 L342.93,129.42 L334.77,112.86 L318.03,112.86 L309.63,129.42 L305.79,128.4 L326.49,87.36 L346.77,128.4 Z M332.97,109.2 L326.43,95.58 L319.71,109.2 L332.97,109.2 Z M382.83,129.42 L355.77,97.44 L355.77,128.64 L351.99,129.42 L351.99,87.36 L379.23,119.7 L379.23,88.98 L382.83,88.2 L382.83,129.42 Z M397.11,128.64 L393.33,129.42 L393.33,88.98 L397.11,88.2 L397.11,128.64 Z M443.37,128.4 L439.53,129.42 L431.37,112.86 L414.63,112.86 L406.23,129.42 L402.39,128.4 L423.09,87.36 L443.37,128.4 Z M429.57,109.2 L423.03,95.58 L416.31,109.2 L429.57,109.2 Z M134.34,194.8 L130.74,196.54 L114.48,176.8 L114.48,195.64 L110.7,196.42 L110.7,155.5 L117.36,155.5 C121.760022,155.5 125.199988,156.53999 127.68,158.62 C130.160012,160.70001 131.4,163.73998 131.4,167.74 C131.4,170.900016 130.450009,173.51999 128.55,175.6 C126.64999,177.68001 124.340014,178.899998 121.62,179.26 L134.34,194.8 Z M127.32,167.74 C127.32,165.179987 126.500008,163.120008 124.86,161.56 C123.219992,159.999992 121.020014,159.22 118.26,159.22 L114.48,159.22 L114.48,176.2 L118.56,176.2 C121.160013,176.2 123.269992,175.450007 124.89,173.95 C126.510008,172.449993 127.32,170.380013 127.32,167.74 Z M177.3,195.4 L173.46,196.42 L165.3,179.86 L148.56,179.86 L140.16,196.42 L136.32,195.4 L157.02,154.36 L177.3,195.4 Z M163.5,176.2 L156.96,162.58 L150.24,176.2 L163.5,176.2 Z M186.36,195.64 L182.58,196.42 L182.58,155.98 L186.36,155.2 L186.36,195.64 Z M216.6,192.34 L215.28,196 L196.92,196 L196.92,155.98 L200.7,155.2 L200.7,192.34 L216.6,192.34 Z M245.94,194.8 L242.34,196.54 L226.08,176.8 L226.08,195.64 L222.3,196.42 L222.3,155.5 L228.96,155.5 C233.360022,155.5 236.799988,156.53999 239.28,158.62 C241.760012,160.70001 243,163.73998 243,167.74 C243,170.900016 242.050009,173.51999 240.15,175.6 C238.24999,177.68001 235.940014,178.899998 233.22,179.26 L245.94,194.8 Z M238.92,167.74 C238.92,165.179987 238.100008,163.120008 236.46,161.56 C234.819992,159.999992 232.620014,159.22 229.86,159.22 L226.08,159.22 L226.08,176.2 L230.16,176.2 C232.760013,176.2 234.869992,175.450007 236.49,173.95 C238.110008,172.449993 238.92,170.380013 238.92,167.74 Z M292.98,175.72 C292.98,181.440029 290.880021,186.419979 286.68,190.66 C282.479979,194.900021 277.520029,197.02 271.8,197.02 C265.919971,197.02 260.890021,194.950021 256.71,190.81 C252.529979,186.669979 250.44,181.660029 250.44,175.78 C250.44,169.939971 252.519979,164.940021 256.68,160.78 C260.840021,156.619979 265.839971,154.54 271.68,154.54 C277.64003,154.54 282.679979,156.57998 286.8,160.66 C290.920021,164.74002 292.98,169.75997 292.98,175.72 Z M288.84,175.78 C288.84,170.859975 287.150017,166.750017 283.77,163.45 C280.389983,160.149984 276.380023,158.5 271.74,158.5 C266.979976,158.5 262.930017,160.189983 259.59,163.57 C256.249983,166.950017 254.58,171.019976 254.58,175.78 C254.58,180.500024 256.259983,184.559983 259.62,187.96 C262.980017,191.360017 266.999977,193.06 271.68,193.06 C276.440024,193.06 280.489983,191.350017 283.83,187.93 C287.170017,184.509983 288.84,180.460023 288.84,175.78 Z M336.48,195.4 L332.64,196.42 L324.48,179.86 L307.74,179.86 L299.34,196.42 L295.5,195.4 L316.2,154.36 L336.48,195.4 Z M322.68,176.2 L316.14,162.58 L309.42,176.2 L322.68,176.2 Z M372,175.78 C372,181.86003 369.860021,186.799981 365.58,190.6 C361.53998,194.200018 356.600029,196 350.76,196 L341.76,196 L341.76,155.56 L350.76,155.56 C356.400028,155.56 361.23998,157.279983 365.28,160.72 C369.760022,164.560019 372,169.579969 372,175.78 Z M367.92,175.66 C367.92,170.859976 366.290016,166.910015 363.03,163.81 C359.769984,160.709985 355.860023,159.16 351.3,159.16 L345.54,159.16 L345.54,192.34 L350.52,192.34 C355.240024,192.34 359.219984,190.980014 362.46,188.26 C366.100018,185.179985 367.92,180.980027 367.92,175.66 Z" id="RAILROAD-NAME" fill="#000000"></path>
                <path d="M133.7575,748.75 C133.7575,751.840015 132.617511,754.35999 130.3375,756.31 C128.29749,758.050009 125.972513,758.92 123.3625,758.92 L119.9875,758.92 L119.9875,768.73 L117.1525,769.315 L117.1525,738.58 L122.1475,738.58 C125.417516,738.58 128.132489,739.464991 130.2925,741.235 C132.602512,743.125009 133.7575,745.629984 133.7575,748.75 Z M130.6525,748.705 C130.6525,746.424989 129.857508,744.632507 128.2675,743.3275 C126.677492,742.022493 124.592513,741.37 122.0125,741.37 L119.9875,741.37 L119.9875,756.085 L122.1025,756.085 C124.682513,756.085 126.752492,755.425007 128.3125,754.105 C129.872508,752.784993 130.6525,750.985011 130.6525,748.705 Z M157.1125,768.1 L154.4125,769.405 L142.2175,754.6 L142.2175,768.73 L139.3825,769.315 L139.3825,738.625 L144.3775,738.625 C147.677516,738.625 150.257491,739.404992 152.1175,740.965 C153.977509,742.525008 154.9075,744.804985 154.9075,747.805 C154.9075,750.175012 154.195007,752.139992 152.77,753.7 C151.344993,755.260008 149.61251,756.174999 147.5725,756.445 L157.1125,768.1 Z M151.8475,747.805 C151.8475,745.88499 151.232506,744.340006 150.0025,743.17 C148.772494,741.999994 147.12251,741.415 145.0525,741.415 L142.2175,741.415 L142.2175,754.15 L145.2775,754.15 C147.22751,754.15 148.809994,753.587506 150.025,752.4625 C151.240006,751.337494 151.8475,749.78501 151.8475,747.805 Z M165.3925,768.73 L162.5575,769.315 L162.5575,738.985 L165.3925,738.4 L165.3925,768.73 Z M193.2925,764.455 L192.7525,768.1 C191.822495,768.670003 190.840005,769.089999 189.805,769.36 C188.769995,769.630001 187.562507,769.765 186.1825,769.765 C182.072479,769.765 178.555015,768.160016 175.63,764.95 C172.704985,761.739984 171.2425,758.050021 171.2425,753.88 C171.2425,749.589979 172.697485,745.855016 175.6075,742.675 C178.517515,739.494984 182.102479,737.905 186.3625,737.905 C187.442505,737.905 188.514995,738.017499 189.58,738.2425 C190.645005,738.467501 191.702495,738.819998 192.7525,739.3 L193.2925,742.81 C191.192489,741.519994 188.897512,740.875 186.4075,740.875 C182.867482,740.875 179.942512,742.209987 177.6325,744.88 C175.442489,747.430013 174.3475,750.444983 174.3475,753.925 C174.3475,757.525018 175.517488,760.569988 177.8575,763.06 C180.197512,765.550012 183.002484,766.795 186.2725,766.795 C187.532506,766.795 188.717494,766.622502 189.8275,766.2775 C190.937506,765.932498 192.092494,765.325004 193.2925,764.455 Z M217.3225,766.255 L216.6025,769 L198.7375,769 L198.7375,738.67 L215.8825,738.67 L216.6025,741.37 L201.5725,741.37 L201.5725,752.305 L214.3975,752.305 L214.3975,755.05 L201.5725,755.05 L201.5725,766.255 L217.3225,766.255 Z" id="PRICE" fill="#000000"></path>
                <path d="M264.52,756.42 C264.52,759.060013 263.56001,761.239991 261.64,762.96 C259.879991,764.560008 257.640014,765.559998 254.92,765.96 L254.92,771.3 L252.22,771.9 L252.22,765.96 C249.659987,765.96 247.200012,765.060009 244.84,763.26 C244.079996,762.659997 243.160005,761.760006 242.08,760.56 L244.48,758.28 C245.520005,759.600007 246.709993,760.689996 248.05,761.55 C249.390007,762.410004 250.779993,762.84 252.22,762.84 L252.22,749.82 C249.299985,749.139997 247.120007,748.180006 245.68,746.94 C243.879991,745.379992 242.98,743.200014 242.98,740.4 C242.98,737.679986 243.889991,735.430009 245.71,733.65 C247.530009,731.869991 249.699987,730.98 252.22,730.98 L252.22,727.68 L254.92,727.2 L254.92,730.98 C256.680009,731.180001 258.299993,731.619997 259.78,732.3 C261.260007,732.980003 262.519995,733.959994 263.56,735.24 L261.46,737.76 C260.459995,736.639994 259.500005,735.820003 258.58,735.3 C257.419994,734.619997 256.220006,734.28 254.98,734.28 L254.98,746.52 C257.900015,747.040003 260.159992,748.059992 261.76,749.58 C263.600009,751.300009 264.52,753.579986 264.52,756.42 Z M252.22,746.22 L252.22,734.28 C250.539992,734.28 249.130006,734.889994 247.99,736.11 C246.849994,737.330006 246.28,738.819991 246.28,740.58 C246.28,742.180008 246.839994,743.459995 247.96,744.42 C248.920005,745.260004 250.339991,745.859998 252.22,746.22 Z M261.16,756.6 C261.16,754.879991 260.570006,753.430006 259.39,752.25 C258.209994,751.069994 256.740009,750.360001 254.98,750.12 L254.92,762.84 C256.720009,762.599999 258.209994,761.940005 259.39,760.86 C260.570006,759.779995 261.16,758.360009 261.16,756.6 Z M298,742.44 C298,745.120013 297.00001,748.019984 295,751.14 C293.519993,753.460012 291.200016,756.239984 288.04,759.48 L280.12,767.4 L297.94,767.4 L297.22,771 L272.44,771 L288.76,753.6 C290.960011,751.239988 292.479996,749.08001 293.32,747.12 C293.920003,745.679993 294.22,744.120008 294.22,742.44 C294.22,739.839987 293.330009,737.670009 291.55,735.93 C289.769991,734.189991 287.680012,733.32 285.28,733.32 C282.759987,733.32 280.640009,734.179991 278.92,735.9 C277.199991,737.620009 276.34,739.719988 276.34,742.2 C276.34,744.760013 277.119992,746.919991 278.68,748.68 C280.240008,750.440009 282.439986,751.539998 285.28,751.98 L282.76,754.92 C279.599984,754.199996 277.110009,752.710011 275.29,750.45 C273.469991,748.189989 272.56,745.380017 272.56,742.02 C272.56,738.739984 273.849987,735.910012 276.43,733.53 C279.010013,731.149988 282.099982,729.96 285.7,729.96 C289.300018,729.96 292.279988,731.259987 294.64,733.86 C296.880011,736.300012 298,739.159984 298,742.44 Z M329.62,750.66 C329.62,755.780026 328.60001,760.35998 326.56,764.4 C324.079988,769.320025 320.700021,771.78 316.42,771.78 C312.019978,771.78 308.660012,769.560022 306.34,765.12 C304.33999,761.319981 303.34,756.480029 303.34,750.6 C303.34,745.279973 304.35999,740.66002 306.4,736.74 C308.800012,732.099977 312.159978,729.78 316.48,729.78 C321.120023,729.78 324.599988,732.219976 326.92,737.1 C328.720009,740.900019 329.62,745.419974 329.62,750.66 Z M325.84,750.66 C325.84,746.099977 325.180007,742.260016 323.86,739.14 C322.179992,735.13998 319.700016,733.14 316.42,733.14 C313.379985,733.14 311.000009,735.15998 309.28,739.2 C307.839993,742.560017 307.12,746.379979 307.12,750.66 C307.12,755.140022 307.759994,758.959984 309.04,762.12 C310.720008,766.280021 313.199984,768.36 316.48,768.36 C319.600016,768.36 322.019991,766.32002 323.74,762.24 C325.140007,758.879983 325.84,755.020022 325.84,750.66 Z M360.94,750.66 C360.94,755.780026 359.92001,760.35998 357.88,764.4 C355.399988,769.320025 352.020021,771.78 347.74,771.78 C343.339978,771.78 339.980012,769.560022 337.66,765.12 C335.65999,761.319981 334.66,756.480029 334.66,750.6 C334.66,745.279973 335.67999,740.66002 337.72,736.74 C340.120012,732.099977 343.479978,729.78 347.8,729.78 C352.440023,729.78 355.919988,732.219976 358.24,737.1 C360.040009,740.900019 360.94,745.419974 360.94,750.66 Z M357.16,750.66 C357.16,746.099977 356.500007,742.260016 355.18,739.14 C353.499992,735.13998 351.020016,733.14 347.74,733.14 C344.699985,733.14 342.320009,735.15998 340.6,739.2 C339.159993,742.560017 338.44,746.379979 338.44,750.66 C338.44,755.140022 339.079994,758.959984 340.36,762.12 C342.040008,766.280021 344.519984,768.36 347.8,768.36 C350.920016,768.36 353.339991,766.32002 355.06,762.24 C356.460007,758.879983 357.16,755.020022 357.16,750.66 Z" id="$000" fill="#000000"></path>
                <path d="M150.373627,555.748157 C144.973627,566.448157 139.673627,577.148157 134.273627,587.848157 C133.373627,589.648157 132.373627,591.348157 131.373627,593.048157 C129.873627,595.448157 127.773627,596.948157 124.873627,596.948157 C102.873627,596.848157 80.9736274,596.748157 58.9736274,596.648157 C58.3736274,596.648157 57.3736274,596.148157 57.2736274,595.648157 C57.0736274,594.548157 56.7736274,592.948157 57.2736274,592.248157 C67.9736274,579.548157 78.8736274,566.948157 89.6736274,554.148157 C93.9736274,549.048157 98.0736274,543.848157 102.273627,538.648157 C103.973627,536.548157 103.773627,533.048157 102.073627,531.348157 C96.5736274,525.548157 90.6736274,520.148157 85.6736274,513.848157 C67.6736274,491.248157 67.3736274,471.948157 83.1736274,447.948157 C89.8736274,437.848157 98.2736274,429.348157 107.973627,422.148157 C110.873627,420.048157 111.873627,416.648157 110.673627,413.148157 C107.573627,403.648157 104.273627,394.248157 100.873627,384.848157 C96.3736274,372.348157 91.8736274,359.848157 87.2736274,347.148157 C92.2736274,337.648157 97.9736274,328.648157 103.673627,319.648157 C105.573627,316.648157 108.173627,314.748157 111.773627,314.748157 C123.073627,314.748157 134.473627,314.648157 145.773627,314.748157 C148.573627,314.748157 151.073627,316.148157 152.573627,318.348157 C157.773627,326.048157 162.773627,333.948157 167.973627,341.648157 C170.473627,345.248157 170.773627,348.948157 169.473627,353.048157 C163.873627,370.148157 158.373627,387.148157 152.873627,404.248157 C151.673627,408.048157 150.873627,411.948157 149.973627,415.748157 C149.673627,416.948157 151.873627,420.048157 153.073627,420.148157 C167.073627,420.848157 180.973627,421.848157 194.973627,422.148157 C226.273627,422.848157 257.573627,423.148157 288.973627,423.648157 C293.373627,423.748157 296.073627,420.548157 295.673627,415.848157 C295.473627,413.848157 295.273627,411.848157 294.473627,410.048157 C292.773627,406.448157 290.573627,403.048157 288.773627,399.548157 C285.273627,393.048157 283.073627,386.148157 281.173627,379.048157 C275.273627,357.148157 281.773627,338.348157 294.973627,321.148157 C297.073627,318.348157 300.173627,316.948157 303.673627,316.948157 C310.373627,316.848157 316.973627,316.948157 323.673627,317.048157 C351.673627,317.448157 379.673627,317.948157 407.573627,318.348157 C410.873627,318.448157 414.273627,318.548157 417.573627,318.648157 C420.273627,318.748157 422.773627,321.048157 422.673627,323.448157 C422.373627,332.748157 422.173627,342.048157 421.673627,351.448157 C421.573627,354.148157 420.273627,356.548157 417.873627,358.148157 C415.073627,359.948157 412.173627,361.548157 409.573627,363.648157 C397.573627,372.948157 390.173627,385.148157 386.273627,399.848157 C382.473627,414.348157 382.273627,428.648157 384.673627,443.348157 C388.073627,464.548157 394.973627,484.548157 403.273627,504.248157 C405.373627,509.148157 407.773627,513.948157 409.873627,518.748157 C410.873627,520.948157 408.473627,524.048157 405.773627,524.148157 C401.073627,524.248157 396.473627,524.348157 391.773627,524.448157 C387.773627,524.548157 383.873627,524.748157 379.873627,524.848157 C379.973627,526.548157 379.673627,528.048157 380.273627,529.048157 C381.273627,530.748157 382.673627,532.248157 383.973627,533.648157 C392.673627,543.048157 395.573627,554.148157 395.173627,566.748157 C394.573627,588.748157 373.173627,607.248157 353.473627,607.748157 C336.773627,608.148157 314.973627,600.048157 307.773627,573.448157 C304.273627,560.548157 307.373627,548.348157 314.973627,537.448157 C317.273627,534.248157 320.173627,531.448157 322.573627,528.248157 C323.173627,527.448157 322.873627,525.948157 323.073627,524.448157 C293.673627,524.448157 264.373627,524.448157 235.073627,524.448157 C233.873627,524.448157 232.673627,525.048157 231.473627,525.448157 C230.473627,525.748157 231.173627,528.848157 232.773627,530.848157 C234.073627,532.348157 235.573627,533.748157 236.773627,535.248157 C244.373627,544.448157 246.973627,555.048157 246.473627,566.848157 C245.573627,587.748157 225.873627,606.348157 206.473627,607.348157 C185.973627,608.348157 170.473627,599.248157 161.573627,580.648157 C160.173627,577.648157 159.173627,574.448157 157.973627,571.348157 C154.173627,558.648157 155.373627,546.648157 165.373627,532.148157 C158.073627,541.948157 157.673627,551.048157 150.373627,555.748157 Z" id="Shape" fill="#000000" fill-rule="nonzero"></path>
            </g>
        </g>
    </g>
</svg>